<?xml version="1.0" encoding="iso-8859-1"?>
<!-- Generator: Adobe Illustrator 19.0.1, SVG Export Plug-In . SVG Version: 6.00 Build 0)  -->
<svg version="1.1" id="Unicodes" xmlns="http://www.w3.org/2000/svg" xmlns:xlink="http://www.w3.org/1999/xlink" x="0px" y="0px"
	 width="1349px" height="2010px" viewBox="0 0 1349 2010" style="enable-background:new 0 0 1349 2010;" xml:space="preserve">
<path style="fill:#262626;" d="M442.056,1794.031c0,5.546-4.495,10.041-10.041,10.041c-5.546,0-10.041-4.495-10.041-10.041
	s4.495-10.041,10.041-10.041C437.56,1783.99,442.056,1788.485,442.056,1794.031z M432.015,1785.031c-4.971,0-9,4.029-9,9
	s4.029,9,9,9c4.971,0,9-4.029,9-9S436.985,1785.031,432.015,1785.031z M432.142,1789.382c0,0-0.09-0.388-0.448-0.388
	c-0.358,0-0.507,0.373-0.507,0.373s-0.06,4.863,0,4.879c0.134,0.343,5.191,4.759,5.191,4.759s0.339,0.189,0.597-0.075
	c0.258-0.263,0.06-0.596,0.06-0.596l-4.908-4.506L432.142,1789.382z"/>
<path style="fill:#262626;" d="M196.911,1205h-9.866c-1.152,0-2.029-0.71-2.029-1.86l-0.012-16.404c0-1.152,0.877-1.736,2.029-1.736
	h9.866c1.151,0,2.089,0.688,2.089,1.839l0.012,16.418C199,1204.408,198.062,1205,196.911,1205z M187.033,1186
	c-0.601,0-1.029,0.246-1.029,0.846l0.012,16.418c0,0.6,0.429,0.735,1.029,0.735h9.866c0.601,0,1.089-0.268,1.089-0.867
	l-0.012-16.404c0-0.601-0.488-0.729-1.089-0.729H187.033z M191.999,1201.5c-0.438,0-0.793,0.355-0.793,0.795
	c0,0.438,0.355,0.794,0.793,0.794c0.439,0,0.796-0.356,0.796-0.794C192.795,1201.855,192.438,1201.5,191.999,1201.5L191.999,1201.5z
	 M196.5,1201h-9.022c-0.276,0-0.506-0.427-0.506-0.703l0.012-11.875c0-0.276,0.23-0.422,0.506-0.422h9.021
	c0.276,0,0.5-0.026,0.5,0.25L197,1200.375C197,1200.651,196.776,1201,196.5,1201z M187.978,1200H196l0.012-11h-8.021L187.978,1200z
	 M191.941,1186.705c-0.219,0-0.395,0.177-0.395,0.396c0,0.22,0.177,0.398,0.395,0.398c0.221,0,0.398-0.178,0.398-0.398
	C192.34,1186.882,192.162,1186.705,191.941,1186.705L191.941,1186.705z"/>
<path style="fill:#262626;" d="M437.992,1192.682c0-0.942-0.781-1.708-1.723-1.708l-8.422,0.016c-0.941,0-1.855,0.766-1.855,1.708
	v5.635c0,0.943,0.906,1.709,1.848,1.709l8.438-0.016c0.941,0,1.715-0.766,1.715-1.709V1192.682z M436.992,1198.316
	c0,0.391-0.332,0.709-0.723,0.709l-8.422,0.016c-0.391,0-0.855-0.318-0.855-0.709v-5.635c0-0.391,0.457-0.708,0.848-0.708
	l8.438-0.016c0.391,0,0.715,0.317,0.715,0.708V1198.316z M435.795,1197.145c0.212,0.176,0.24,0.492,0.064,0.703
	c-0.099,0.119-0.241,0.18-0.384,0.18c-0.113,0-0.227-0.037-0.32-0.115l-2.146-1.787l-0.733,0.59c-0.09,0.07-0.198,0.105-0.307,0.105
	c-0.108,0-0.217-0.035-0.307-0.105l-0.846-0.68l-2.033,1.877c-0.094,0.078-0.207,0.115-0.32,0.115c-0.143,0-0.285-0.061-0.384-0.18
	c-0.177-0.211-0.148-0.527,0.064-0.703l1.887-1.743l-1.873-1.507c-0.219-0.169-0.258-0.483-0.088-0.702
	c0.169-0.218,0.484-0.257,0.701-0.087l3.199,2.581l3.199-2.581c0.216-0.17,0.53-0.131,0.701,0.087
	c0.17,0.218,0.131,0.532-0.088,0.702l-1.978,1.591L435.795,1197.145z M426.72,1187.186c-0.148-0.233-0.079-0.542,0.153-0.69
	c3.135-1.994,7.339-1.994,10.47,0c0.233,0.148,0.302,0.458,0.153,0.69c-0.149,0.234-0.459,0.301-0.69,0.153
	c-2.809-1.79-6.583-1.79-9.396,0c-0.083,0.053-0.176,0.078-0.269,0.078C426.977,1187.417,426.815,1187.335,426.72,1187.186z
	 M439.629,1200.205c0.898-1.404,1.371-3.029,1.371-4.698c0-1.669-0.474-3.293-1.371-4.697c-0.148-0.233-0.08-0.542,0.152-0.69
	c0.231-0.148,0.541-0.082,0.691,0.152c0.999,1.565,1.527,3.375,1.527,5.235s-0.528,3.67-1.527,5.235
	c-0.096,0.15-0.258,0.232-0.422,0.232c-0.093,0-0.186-0.025-0.27-0.08C439.549,1200.746,439.48,1200.438,439.629,1200.205z
	 M423.488,1200.734c-0.998-1.564-1.525-3.375-1.525-5.235c0-1.86,0.527-3.67,1.525-5.235c0.15-0.233,0.461-0.299,0.69-0.152
	c0.233,0.148,0.302,0.458,0.153,0.69c-0.896,1.404-1.369,3.028-1.369,4.697c0,1.668,0.474,3.293,1.369,4.698
	c0.148,0.232,0.08,0.541-0.153,0.689c-0.083,0.055-0.176,0.08-0.268,0.08C423.745,1200.967,423.584,1200.885,423.488,1200.734z
	 M437.357,1202.73c0.148,0.232,0.08,0.541-0.153,0.689c-1.565,0.998-3.375,1.525-5.233,1.525c-1.857,0-3.669-0.527-5.236-1.525
	c-0.232-0.146-0.302-0.457-0.153-0.689c0.149-0.232,0.459-0.301,0.69-0.154c2.813,1.789,6.585,1.791,9.396,0
	C436.898,1202.432,437.208,1202.496,437.357,1202.73z M441.816,1204.146c0.195,0.195,0.195,0.512,0,0.707
	c-0.098,0.098-0.226,0.146-0.353,0.146s-0.256-0.049-0.354-0.146l-3-3c-0.195-0.195-0.195-0.512,0-0.707
	c0.195-0.195,0.512-0.195,0.707,0L441.816,1204.146z M425.817,1201.146c0.195,0.195,0.195,0.512,0,0.707l-3.001,3
	c-0.098,0.098-0.226,0.146-0.353,0.146s-0.256-0.049-0.354-0.146c-0.195-0.195-0.195-0.512,0-0.707l3.001-3
	C425.306,1200.951,425.622,1200.951,425.817,1201.146z M422.109,1185.854c-0.195-0.195-0.195-0.512,0-0.707
	c0.098-0.098,0.226-0.146,0.354-0.146s0.256,0.049,0.353,0.146l3,3c0.195,0.195,0.195,0.512,0,0.707
	c-0.195,0.195-0.512,0.195-0.707,0L422.109,1185.854z M438.108,1188.853c-0.195-0.195-0.195-0.512,0-0.707l3.001-3
	c0.098-0.098,0.226-0.146,0.354-0.146s0.256,0.049,0.353,0.146c0.195,0.195,0.195,0.512,0,0.707l-3.001,3
	C438.62,1189.048,438.304,1189.048,438.108,1188.853z"/>
<path style="fill:#262626;" d="M323.471,1200.003H323v-0.578c0-1.79-1.324-3.262-3.028-3.262c-1.703,0-2.972,1.425-2.972,3.215
	v0.625h-0.509c-0.276,0-0.491,0-0.491,0.277v6c0,0.276,0.217,0.717,0.493,0.717h6.979c0.276,0,0.527-0.44,0.527-0.717v-6
	C324,1200.003,323.747,1200.003,323.471,1200.003z M318,1199.409c0-1.238,0.82-2.246,1.972-2.246c1.152,0,2.028,1.008,2.028,2.246
	v0.594h-4V1199.409z M323,1206.003h-6v-5h6V1206.003z M320.531,1203.823v0.674c0,0.276-0.224,0.5-0.5,0.5
	c-0.276,0-0.5-0.224-0.5-0.5l-0.032-0.653c-0.293-0.175-0.499-0.48-0.499-0.847c0-0.553,0.447-1,1-1c0.553,0,1,0.447,1,1
	C321,1203.35,320.808,1203.645,320.531,1203.823z M315,1198v-2.628c1.212-1.053,2.001-2.722,2.001-4.604
	c0-3.181-2.243-5.769-5.001-5.769c-2.757,0-5,2.588-5,5.769c0,1.901,0.805,3.586,2.039,4.637H309v1.953l-3.665,1.67
	c-1.16,0.406-2.335,1.558-2.335,2.972v2h10v-1h-9v-1c0-0.823,0.716-1.695,1.707-2.045l4.293-1.953v-1.951
	c0.613,0.311,1.289,0.485,2,0.485c0.711,0,1.387-0.175,2-0.484V1198H315z M312,1186c1.987,0,3.627,1.74,3.936,4.006
	c-0.011,0.002-0.018,0.001-0.029,0.003c-1.435,0.274-2.297-0.093-2.975-1.261l-0.452-0.775l-0.422,0.793
	c-0.387,0.728-1.941,1.234-3.094,1.234c-0.356,0-0.575-0.087-0.871-0.239C308.483,1187.615,310.085,1186,312,1186z M312,1195.536
	c-2.192,0-3.974-2.113-3.996-4.72c0.271,0.107,0.565,0.184,0.961,0.184c1.19,0,2.657-0.404,3.498-1.166
	c0.672,0.848,1.529,1.259,2.629,1.259c0.277,0,0.579-0.037,0.89-0.089C315.876,1193.521,314.139,1195.536,312,1195.536z"/>
<path style="fill:#262626;" d="M784.96,829.33l-2.862-3.529c-0.174-0.214-0.141-0.529,0.073-0.703
	c0.216-0.174,0.53-0.142,0.703,0.073l2.643,3.258l5.425-1.855c0.009-0.003,0.018-0.001,0.027-0.003
	c0.032-0.009,0.065-0.011,0.1-0.013c0.031-0.002,0.061-0.006,0.092-0.003s0.061,0.015,0.09,0.024
	c0.032,0.01,0.063,0.019,0.093,0.035c0.009,0.005,0.018,0.005,0.026,0.01l9.58,6.029c0.234,0.148,0.305,0.456,0.157,0.69
	c-0.095,0.151-0.258,0.234-0.424,0.234c-0.091,0-0.183-0.025-0.266-0.077l-9.378-5.902l-5.526,1.89h-0.001l-0.002,0.001
	c-0.044,0.015-0.09,0.02-0.134,0.023c-0.009,0-0.019,0.004-0.027,0.004l0,0c-0.001,0-0.001,0-0.001,0v0
	c-0.091,0-0.176-0.033-0.254-0.08c-0.023-0.014-0.041-0.03-0.062-0.048C785.009,829.366,784.98,829.354,784.96,829.33z
	 M796.69,828.882c0.148,0,0.294-0.065,0.394-0.19l1.451-1.85c0.171-0.217,0.133-0.532-0.084-0.702
	c-0.219-0.171-0.531-0.131-0.703,0.085l-1.449,1.848c-0.172,0.217-0.135,0.531,0.082,0.702
	C796.473,828.847,796.582,828.882,796.69,828.882z M792.236,834.671c0.037-0.027,0.078-0.048,0.107-0.086l0.001-0.001
	c0,0,0.001,0,0.001,0v-0.001l2.424-3.086c0.17-0.217,0.133-0.531-0.085-0.702c-0.217-0.171-0.531-0.132-0.702,0.085l-2.117,2.697
	l-3.425-2.667c-0.003-0.002-0.005-0.002-0.008-0.004c-0.003-0.002-0.003-0.004-0.006-0.006c-0.025-0.018-0.054-0.024-0.081-0.037
	c-0.031-0.015-0.06-0.034-0.092-0.042c-0.031-0.008-0.064-0.005-0.096-0.006c-0.031-0.002-0.064-0.008-0.096-0.003
	c-0.031,0.004-0.06,0.019-0.09,0.03c-0.03,0.01-0.062,0.017-0.09,0.033c-0.028,0.017-0.051,0.043-0.076,0.065
	c-0.021,0.02-0.049,0.034-0.068,0.059c-0.002,0.002-0.002,0.005-0.004,0.008c-0.002,0.002-0.004,0.003-0.006,0.006l-4.187,5.782
	c-0.162,0.224-0.113,0.537,0.111,0.698c0.088,0.065,0.191,0.095,0.293,0.095c0.154,0,0.307-0.072,0.404-0.206l3.885-5.363
	l3.41,2.654c0.091,0.071,0.199,0.105,0.307,0.105c0.074,0,0.148-0.017,0.216-0.049C792.193,834.714,792.213,834.688,792.236,834.671
	z M802,839.002c0,2.756-2.243,4.998-5,4.998c-2.758,0-5-2.242-5-4.998c0-2.758,2.242-5.002,5-5.002
	C799.757,834,802,836.244,802,839.002z M800.992,839.002c0-2.2-1.791-3.99-3.992-3.99c-2.202,0-3.993,1.79-3.993,3.99
	c0,2.198,1.791,3.986,3.993,3.986C799.201,842.988,800.992,841.2,800.992,839.002z M799,838.5h-1.5V837c0-0.276-0.224-0.5-0.5-0.5
	c-0.276,0-0.5,0.224-0.5,0.5v1.5H795c-0.276,0-0.5,0.224-0.5,0.5s0.224,0.5,0.5,0.5h1.5v1.5c0,0.276,0.224,0.5,0.5,0.5
	c0.276,0,0.5-0.224,0.5-0.5v-1.5h1.5c0.275,0,0.5-0.224,0.5-0.5S799.275,838.5,799,838.5z"/>
<path style="fill:#262626;" d="M921.852,844.141l-5.973-5.973c1.207-1.398,1.945-3.218,1.945-5.212c0-4.388-3.549-7.958-7.91-7.958
	c-4.363,0-7.912,3.57-7.912,7.958c0,4.389,3.549,7.959,7.912,7.959c2.021,0,3.863-0.774,5.264-2.035l5.967,5.967
	c0.098,0.098,0.227,0.147,0.354,0.147c0.129,0,0.256-0.049,0.354-0.147C922.047,844.653,922.047,844.336,921.852,844.141z
	 M909.914,839.916c-3.812,0-6.912-3.122-6.912-6.959c0-3.837,3.1-6.958,6.912-6.958c3.81,0,6.91,3.121,6.91,6.958
	C916.824,836.794,913.725,839.916,909.914,839.916z M914.119,830.003h-2.041c-0.276,0-0.418,0.224-0.418,0.5v5.507h-0.629v-7.487
	c0-0.276-0.224-0.5-0.5-0.5h-2c-0.276,0-0.5,0.224-0.5,0.5v7.487l-0.453,0.006v-3.494c0-0.276-0.224-0.5-0.5-0.5h-2.081
	c-0.276,0-0.5,0.224-0.5,0.5v3.994c0,0.276,0.224,0.5,0.5,0.5h0.786h1.295l1.453-0.006h2.082h1.547h0.213h1.746
	c0.277,0,0.5-0.224,0.5-0.5v-6.007C914.619,830.227,914.396,830.003,914.119,830.003z M906.578,836.016h-1.081v-2.994h1.081V836.016
	z M910.03,836.009h-1v-6.987h1V836.009z M913.619,836.009h-1.042v-5.007h1.042V836.009z"/>
<path style="fill:#262626;" d="M200.558,838.521c-0.866-0.91-1.655-1.171-2.653-0.873l-3.142,1.096
	c-0.023,0.008-0.04,0.025-0.061,0.036c-0.11-0.413-0.505-0.778-1.202-0.778h-1.343c-0.08-0.069-0.212-0.206-0.322-0.32
	c-0.609-0.628-1.627-1.68-2.98-1.68H187v-0.5c0-0.276-0.224-0.5-0.5-0.5h-3c-0.276,0-0.5,0.224-0.5,0.5v6c0,0.276,0.224,0.5,0.5,0.5
	h3c0.276,0,0.5-0.224,0.5-0.5v-0.146c0.601,0.214,1.151,0.413,1.626,0.587c1.87,0.683,2.93,1.056,3.896,1.056
	c1.182,0,2.222-0.559,4.429-1.793c0.911-0.509,2.036-1.139,3.478-1.897c0.139-0.073,0.235-0.207,0.26-0.361
	C200.715,838.792,200.666,838.634,200.558,838.521z M186,841.002h-2v-5h2V841.002z M196.462,840.332
	c-3.686,2.062-3.686,2.062-7.493,0.671c-0.567-0.207-1.221-0.445-1.97-0.709v-3.292h1.854c0.93,0,1.731,0.828,2.262,1.376
	c0.376,0.389,0.604,0.624,0.928,0.624H190c-0.276,0-0.5,0.224-0.5,0.5c0,0.276,0.224,0.5,0.5,0.5h3.5
	c0.509,0,0.848-0.202,1.046-0.467c0.13,0.155,0.344,0.224,0.545,0.153l3.121-1.089c0.38-0.114,0.704-0.119,1.112,0.162
	C198.173,839.375,197.24,839.897,196.462,840.332z M192.5,836.002c1.381,0,2.5-1.119,2.5-2.5c0-1.381-1.119-2.5-2.5-2.5
	c-1.381,0-2.5,1.119-2.5,2.5C190,834.883,191.119,836.002,192.5,836.002z M192.5,832.002c0.827,0,1.5,0.673,1.5,1.5
	c0,0.827-0.673,1.5-1.5,1.5c-0.827,0-1.5-0.673-1.5-1.5C191,832.675,191.673,832.002,192.5,832.002z M192,834.039v-1.074
	c0-0.256,0.224-0.463,0.5-0.463c0.276,0,0.5,0.207,0.5,0.463v1.074c0,0.256-0.224,0.463-0.5,0.463
	C192.224,834.502,192,834.295,192,834.039z M197.5,832.002c1.381,0,2.5-1.119,2.5-2.5c0-1.381-1.119-2.5-2.5-2.5
	c-1.381,0-2.5,1.119-2.5,2.5C195,830.883,196.119,832.002,197.5,832.002z M197.5,828.002c0.827,0,1.5,0.673,1.5,1.5
	c0,0.827-0.673,1.5-1.5,1.5c-0.827,0-1.5-0.673-1.5-1.5C196,828.675,196.673,828.002,197.5,828.002z M197,830.039v-1.074
	c0-0.256,0.224-0.463,0.5-0.463c0.276,0,0.5,0.207,0.5,0.463v1.074c0,0.256-0.224,0.463-0.5,0.463
	C197.224,830.502,197,830.295,197,830.039z"/>
<path style="fill:#262626;" d="M202,960.604v1.077c0,1.692-1.433,3.319-3,3.319h-13c-1.701,0-3-1.756-3-3.313v-1.077
	c0-0.276,0.194-0.5,0.471-0.5s0.529,0.224,0.529,0.5v1.077c0,1.082,0.92,2.313,2,2.313h13c1.034,0,2-1.162,2-2.319v-1.077
	c0-0.276,0.211-0.5,0.487-0.5S202,960.328,202,960.604z M192.102,960.865c0.095,0.109,0.232,0.172,0.377,0.172
	c0.001,0,0.002,0,0.004,0c0.145-0.001,0.283-0.066,0.378-0.177l5.983-6.844c0.179-0.211,0.152-0.526-0.059-0.705
	c-0.212-0.178-0.526-0.152-0.705,0.059l-5.08,5.801v-13.416c0-0.276-0.245-0.5-0.522-0.5c-0.276,0-0.478,0.224-0.478,0.5v13.444
	l-5.12-5.881c-0.181-0.208-0.497-0.23-0.705-0.049c-0.208,0.181-0.23,0.497-0.049,0.706L192.102,960.865z"/>
<path style="fill:#262626;" d="M65.04,955.687v-2.047c0-0.186-0.092-0.64,1.821-0.64h8.116v1.868c0,0.207,0.127,0.392,0.32,0.466
	c0.193,0.076,0.411,0.023,0.55-0.13l4.012-4.428c0.173-0.191,0.173-0.482,0-0.673l-4.012-4.497c-0.139-0.153-0.357-0.205-0.55-0.13
	c-0.193,0.074-0.32,0.26-0.32,0.466v2.061h-8.116c-2.598,0-3.865,2.204-3.865,4.461c0,1.95,1.096,3.456,1.142,3.519
	c0.096,0.13,0.247,0.284,0.402,0.284c0.052,0,0.105-0.008,0.156-0.025C64.902,956.175,65.04,955.903,65.04,955.687z M64.075,953.296
	c-0.049-0.263-0.079-0.542-0.079-0.831c0-1.225,0.526-3.461,2.865-3.461h8.616c0.276,0,0.5-0.224,0.5-0.5v-1.268l2.836,3.203
	l-2.836,3.135v-1.058c0-0.276-0.224-0.5-0.5-0.5h-8.616C66.056,952.017,64.346,952.017,64.075,953.296z M79.443,953.82
	c-0.139-0.151-0.358-0.201-0.549-0.125c-0.191,0.075-0.317,0.26-0.317,0.465v2.047c0,0.689,0.108,0.792-1.073,0.792h-8.506v-2.021
	c0-0.207-0.127-0.392-0.32-0.466c-0.192-0.075-0.411-0.023-0.55,0.13l-3.979,4.52c-0.173,0.191-0.173,0.482,0,0.673l3.983,4.382
	c0.097,0.106,0.232,0.163,0.37,0.163c0.06,0,0.122-0.011,0.18-0.034c0.193-0.074,0.32-0.26,0.32-0.466V962h8.506
	c2.649,0,3.481-2.267,3.481-4.513C80.988,955.506,79.506,953.888,79.443,953.82z M77.507,961h-9.006c-0.276,0-0.5,0.254-0.5,0.531
	v1.058l-2.807-3.088l2.803-3.227v1.268c0,0.276,0.224,0.459,0.5,0.459h9.006c1.834,0,2.073-0.604,2.073-1.792v-0.379
	c0.228,0.481,0.412,1.056,0.412,1.659C79.988,958.583,79.848,961,77.507,961z"/>
<path style="fill:#262626;" d="M441,832.5c0-0.276-0.224-0.5-0.5-0.5h-3c-0.276,0-0.5,0.224-0.5,0.5V844h-0.991l-0.024-6.5
	c0-0.276-0.224-0.5-0.5-0.5H432.5c-0.276,0-0.5,0.224-0.5,0.5v6.5h-1v-7.5c0-0.276-0.224-0.5-0.5-0.5h-3c-0.276,0-0.5,0.224-0.5,0.5
	v7.5h-1v-3.5c0-0.276-0.224-0.516-0.5-0.516h-3c-0.276,0-0.5,0.239-0.5,0.516v3.5c0,0,0,0.248,0,0.5c0,0.276,0.224,0.5,0.5,0.5
	h0.357H440.5c0.276,0,0.5-0.224,0.5-0.5C441,844.248,441,832.5,441,832.5z M425,844.031h-2v-3.047h2V844.031z M430,844h-2v-7h2V844z
	 M435,844h-2v-6h2V844z M440,844h-2v-11h2V844z M424.129,835.862c0.725,0,1.315-0.591,1.315-1.317c0-0.135-0.039-0.258-0.077-0.38
	l3.059-2.55c0.183,0.097,0.382,0.165,0.603,0.165c0.396,0,0.74-0.185,0.982-0.463l2.621,0.873c0.051,0.68,0.604,1.222,1.296,1.222
	c0.727,0,1.317-0.59,1.317-1.316c0-0.214-0.064-0.408-0.154-0.587l3.334-3.892c0.128,0.042,0.258,0.081,0.399,0.081
	c0.727,0,1.317-0.591,1.317-1.318c0-0.725-0.591-1.315-1.317-1.315c-0.725,0-1.315,0.59-1.315,1.315
	c0,0.214,0.064,0.409,0.154,0.587l-3.336,3.894c-0.128-0.042-0.259-0.081-0.4-0.081c-0.396,0-0.739,0.185-0.982,0.462l-2.619-0.873
	c-0.051-0.679-0.605-1.222-1.298-1.222c-0.725,0-1.316,0.59-1.316,1.315c0,0.135,0.039,0.258,0.077,0.381l-3.058,2.549
	c-0.183-0.096-0.382-0.165-0.602-0.165c-0.727,0-1.317,0.59-1.317,1.316C422.811,835.271,423.402,835.862,424.129,835.862z
	 M438.822,826.065c0.175,0,0.317,0.142,0.317,0.315c0,0.175-0.143,0.318-0.317,0.318c-0.174,0-0.315-0.143-0.315-0.318
	C438.508,826.206,438.648,826.065,438.822,826.065z M433.926,831.78c0.175,0,0.317,0.142,0.317,0.315
	c0,0.174-0.143,0.316-0.317,0.316c-0.174,0-0.315-0.142-0.315-0.316C433.61,831.922,433.752,831.78,433.926,831.78z
	 M429.027,830.147c0.175,0,0.316,0.142,0.316,0.315c0,0.175-0.142,0.318-0.316,0.318s-0.316-0.143-0.316-0.318
	C428.711,830.289,428.852,830.147,429.027,830.147z M424.129,834.229c0.174,0,0.315,0.142,0.315,0.316
	c0,0.175-0.141,0.317-0.315,0.317c-0.175,0-0.317-0.142-0.317-0.317C423.811,834.371,423.954,834.229,424.129,834.229z"/>
<path style="fill:#262626;" d="M552.5,836.021h-6.021c-0.276,0-0.5,0.224-0.5,0.5v5.021c0,0.276,0.224,0.5,0.5,0.5h6.021
	c0.276,0,0.5-0.224,0.5-0.5v-5.021C553,836.245,552.776,836.021,552.5,836.021z M552,841.042h-5.021v-4.021H552V841.042z
	 M562.269,829.293l-1.605-4c-0.082-0.176-0.259-0.289-0.453-0.289h-15.988c-0.194,0-0.371,0.113-0.453,0.289l-1.604,4
	c-0.072,0.155-0.06,0.335,0.031,0.479c0.074,0.116,0.196,0.181,0.329,0.208v0.319c0,1.217,0.548,2.359,1.454,2.915v11.281
	c0,0.276,0.224,0.5,0.5,0.5h9.621h4.317h2.102c0.276,0,0.5-0.224,0.5-0.5v-11.653c0-0.027-0.011-0.05-0.016-0.076
	c0.547-0.585,0.882-1.443,0.882-2.462v-0.317c0.142-0.021,0.273-0.09,0.351-0.213C562.329,829.629,562.341,829.448,562.269,829.293z
	 M558.814,832.571c-0.353,0-0.484-0.279-0.785-0.601c0.004-0.026,0.016-0.049,0.016-0.076V830l2.842,0.004v0.299
	C560.887,831.43,559.926,832.571,558.814,832.571z M548.005,830l3.995,0.004v2.512c-0.517,0.628-1.479,0.979-2.21,0.979
	c-0.875,0-1.259-0.719-1.785-1.639V830z M552,826.031v2.999l-4.975-0.03l1.166-2.996L552,826.031z M556.196,826.004l0.521,2.996H553
	v-2.969L556.196,826.004z M553,830.004l4.045,0.012v1.76c-0.013,0.018-0.033,0.028-0.044,0.048c-0.529,0.965-1.56,1.672-2.437,1.672
	c-0.695,0-1.055-0.334-1.564-0.921V830.004z M561.031,829.004h-3.292l-0.52-3h2.672L561.031,829.004z M544.541,826.004h2.628
	L545.979,829h-2.578L544.541,826.004z M543.48,830.303v-0.299h3.524v1.865c-0.383,0.389-1.43,0.702-1.796,0.702
	C544.148,832.571,543.48,831.532,543.48,830.303z M554.98,843.995l0.02-6.974l3.047-0.005L558,844L554.98,843.995z M560.021,843.995
	h-0.979V836.5c0-0.276-0.328-0.479-0.604-0.479H554.5c-0.276,0-0.5,0.224-0.5,0.5l-0.02,7.474h-9.001v-10.452
	c0.077,0.007,0.149,0.028,0.229,0.028c0.545,0,1.74-0.317,2.24-0.74c0.73,0.964,1.266,1.664,2.341,1.664
	c0.881,0,1.728-0.36,2.394-1.005c0.667,0.652,1.495,1.005,2.381,1.005c1.062,0,2.099-0.576,2.825-1.539
	c0.354,0.333,0.799,0.614,1.425,0.614c0.295,0,0.946-0.063,1.206-0.156V843.995z M557.523,840.452c0,0.53-0.404,0.962-0.9,0.962
	c-0.496,0-0.9-0.432-0.9-0.962c0-0.531,0.404-0.962,0.9-0.962C557.119,839.49,557.523,839.921,557.523,840.452z"/>
<path style="fill:#262626;" d="M681.924,832.778l-4.344-4.689c-0.004-0.002-0.007-0.005-0.01-0.008
	c-0.008-0.009-0.018-0.018-0.027-0.023c-0.007-0.007-0.015-0.013-0.023-0.018c-0.009-0.006-0.021-0.012-0.029-0.017
	c-0.011-0.005-0.019-0.009-0.028-0.014c-0.004,0-0.009-0.002-0.011-0.003c-0.008-0.003-0.015-0.004-0.023-0.005
	c-0.001,0-0.001,0.004-0.002,0.005L666.55,828c-0.001,0-0.003,0.025-0.004,0.025c-0.002,0.001-0.006-0.006-0.009-0.005
	c-0.01,0.003-0.02,0.004-0.03,0.008c-0.009,0.005-0.019,0.008-0.028,0.014c-0.008,0.006-0.015,0.01-0.023,0.016
	c-0.009,0.008-0.018,0.017-0.027,0.024c-0.003,0.003-0.005,0.005-0.01,0.007l-4.343,4.689c-0.113,0.124-0.113,0.314,0.002,0.437
	L672,844.027l9.924-10.85C682.037,833.053,682.037,832.901,681.924,832.778z M672,844.027 M675.5,833l-3.5,9.859L668.507,833H663
	l3.99-4.051L668.5,833l3.5-4l3.5,4.02l2-4.02l3.5,4H675.5z"/>
<path style="fill:#262626;" d="M441.478,953.304h-2.102c-0.148-0.636-0.353-1.364-0.615-1.925l1.638-1.684
	c0.191-0.195,0.189-0.507-0.003-0.7l-2.331-2.356c-0.192-0.194-0.502-0.199-0.699-0.011l-1.719,1.63
	c-0.593-0.285-1.341-0.495-1.91-0.629v-2.065c0-0.276-0.224-0.5-0.5-0.5h-2.472c-0.276,0-0.5,0.224-0.5,0.5v2.068
	c-0.499,0.122-1.153,0.318-1.731,0.605l-1.584-1.621c-0.094-0.096-0.222-0.15-0.355-0.15c-0.12-0.028-0.263,0.052-0.357,0.148
	l-2.31,2.331c-0.19,0.192-0.193,0.501-0.007,0.697l1.656,1.738c-0.217,0.463-0.419,1.1-0.609,1.927h-2.444
	c-0.276,0-0.5,0.224-0.5,0.5v2.473c0,0.276,0.224,0.5,0.5,0.5h2.448c0.123,0.491,0.318,1.137,0.605,1.709l-1.62,1.575
	c-0.096,0.093-0.15,0.222-0.151,0.357c-0.001,0.134,0.053,0.263,0.148,0.357l2.332,2.305c0.096,0.095,0.231,0.153,0.36,0.144
	c0.134-0.002,0.262-0.059,0.354-0.156l1.54-1.627c0.545,0.267,1.18,0.459,1.725,0.592v2.485c0,0.276,0.224,0.5,0.5,0.5h2.472
	c0.276,0,0.5-0.224,0.5-0.5v-2.483c0.627-0.147,1.346-0.352,1.904-0.616l1.674,1.637c0.197,0.192,0.509,0.19,0.701-0.002
	l2.353-2.331c0.097-0.095,0.15-0.225,0.148-0.36c-0.001-0.135-0.058-0.264-0.155-0.357l-1.602-1.523
	c0.24-0.479,0.452-1.072,0.611-1.706h2.106c0.276,0,0.5-0.224,0.5-0.5v-2.473C441.978,953.528,441.755,953.304,441.478,953.304z
	 M440.978,955.777h-2.004c-0.236,0-0.44,0.166-0.489,0.397c-0.178,0.846-0.46,1.628-0.775,2.145
	c-0.123,0.201-0.089,0.461,0.082,0.623l1.508,1.433l-1.638,1.622l-1.584-1.548c-0.163-0.162-0.415-0.188-0.61-0.069
	c-0.439,0.269-1.269,0.541-2.334,0.765c-0.232,0.049-0.397,0.253-0.397,0.489v2.385h-1.472v-2.385c0-0.236-0.166-0.44-0.397-0.489
	c-0.918-0.193-1.688-0.46-2.166-0.753c-0.202-0.123-0.461-0.089-0.624,0.083l-1.453,1.536l-1.606-1.587l1.528-1.485
	c0.167-0.163,0.2-0.42,0.078-0.619c-0.308-0.503-0.58-1.265-0.767-2.146c-0.049-0.231-0.253-0.396-0.489-0.396h-2.346v-1.473h2.346
	c0.236,0,0.44-0.165,0.489-0.396c0.241-1.138,0.495-1.93,0.755-2.354c0.119-0.193,0.093-0.442-0.063-0.606l-1.569-1.647l1.609-1.625
	l1.494,1.529c0.163,0.168,0.42,0.197,0.617,0.078c0.496-0.302,1.285-0.58,2.167-0.764c0.231-0.048,0.397-0.253,0.397-0.489v-1.967
	h1.472v1.967c0,0.237,0.166,0.441,0.397,0.489c1.012,0.211,1.884,0.501,2.334,0.776c0.191,0.12,0.442,0.092,0.605-0.064l1.626-1.542
	l1.642,1.66l-1.55,1.593c-0.159,0.164-0.188,0.414-0.068,0.609c0.267,0.438,0.537,1.273,0.763,2.354
	c0.048,0.232,0.253,0.398,0.489,0.398h2.005V955.777z M432.173,950.623c-2.321,0-4.209,1.888-4.209,4.208s1.888,4.209,4.209,4.209
	c2.32,0,4.208-1.888,4.208-4.209S434.493,950.623,432.173,950.623z M432.173,958.04c-1.77,0-3.209-1.439-3.209-3.209
	c0-1.769,1.439-3.208,3.209-3.208c1.768,0,3.208,1.439,3.208,3.208C435.381,956.601,433.941,958.04,432.173,958.04z"/>
<path style="fill:#262626;" d="M552,945.003c-5.512,0-9.997,4.485-9.997,9.997s4.485,9.997,9.997,9.997
	c5.512,0,9.997-4.485,9.997-9.997S557.512,945.003,552,945.003z M552,963.997c-4.961,0-8.997-4.036-8.997-8.997
	s4.036-8.997,8.997-8.997c4.961,0,8.997,4.036,8.997,8.997S556.961,963.997,552,963.997z M557.655,955.5c0,0.276-0.224,0.5-0.5,0.5
	h-4.681v4.68c0,0.276-0.223,0.5-0.5,0.5c-0.275,0-0.5-0.224-0.5-0.5V956h-4.68c-0.276,0-0.5-0.224-0.5-0.5s0.224-0.5,0.5-0.5h4.68
	v-4.68c0-0.276,0.225-0.5,0.5-0.5c0.277,0,0.5,0.224,0.5,0.5V955h4.681C557.432,955,557.655,955.224,557.655,955.5z"/>
<path style="fill:#262626;" d="M671.998,945.052c-5.501,0-9.977,4.476-9.977,9.978c0,5.501,4.476,9.976,9.977,9.976
	c5.502,0,9.977-4.475,9.977-9.976C681.975,949.528,677.5,945.052,671.998,945.052z M671.998,964.006
	c-4.949,0-8.977-4.027-8.977-8.976c0-4.95,4.027-8.978,8.977-8.978c4.95,0,8.977,4.027,8.977,8.978
	C680.975,959.979,676.948,964.006,671.998,964.006z M677.643,955.5c0,0.276-0.225,0.5-0.5,0.5h-10.338c-0.276,0-0.5-0.224-0.5-0.5
	s0.224-0.5,0.5-0.5h10.338C677.418,955,677.643,955.224,677.643,955.5z"/>
<path style="fill:#262626;" d="M802,957h-8v8h-4v-8h-8v-4h8v-8h4v8h8V957z"/>
<path style="fill:#262626;" d="M914,955l8,8l-2,2l-8-8l-7.979,8L902,963l8-8l-8-7.998l2-2.002l8,8l8-8l2,2L914,955z"/>
<path style="fill:#262626;" d="M82,831.698c0-3.693-3.006-6.698-6.7-6.698c-3.665,0-6.647,2.957-6.696,6.608
	c-3.65,0.052-6.603,3.033-6.603,6.694c0,3.693,3.006,6.698,6.7,6.698c3.665,0,6.647-2.957,6.696-6.608
	C79.046,838.339,82,835.359,82,831.698z M68.7,843.985c-3.127,0-5.672-2.549-5.672-5.683c0-3.124,2.529-5.665,5.643-5.683
	c0.409,2.954,2.748,5.293,5.702,5.705C74.359,841.448,71.82,843.985,68.7,843.985z M75.3,837.382c-3.128,0-5.673-2.55-5.673-5.684
	c0-3.134,2.545-5.683,5.673-5.683c3.127,0,5.672,2.549,5.672,5.683C80.972,834.832,78.427,837.382,75.3,837.382z M78,834.5
	c0,0.276-0.224,0.5-0.5,0.5h-3c-0.276,0-0.5-0.224-0.5-0.5s0.224-0.5,0.5-0.5c0.16-0.021,0.5-0.985,0.5-1.396V832h-1
	c-0.276,0-0.5-0.194-0.5-0.471c0-0.276,0.224-0.529,0.5-0.529h1v-1.896c0-0.827,0.673-1.5,1.5-1.5c0.827,0,1.5,0.673,1.5,1.5
	c0,0.276-0.224,0.5-0.5,0.5c-0.276,0-0.5-0.224-0.5-0.5c0-0.276-0.224-0.5-0.5-0.5c-0.276,0-0.5,0.224-0.5,0.5V831h1
	c0.276,0,0.5,0.253,0.5,0.529c0,0.276-0.224,0.471-0.5,0.471h-1v0.604c0,0.304-0.087,1.063-0.245,1.396H77.5
	C77.776,834,78,834.224,78,834.5z M71,841.5c0,0.276-0.224,0.5-0.5,0.5h-3c-0.276,0-0.5-0.224-0.5-0.5s0.224-0.5,0.5-0.5
	c0.16-0.021,0.5-1.089,0.5-1.5l0.027-0.5H67c-0.276,0-0.5-0.224-0.5-0.5s0.224-0.5,0.5-0.5h1v-2c0-0.827,0.673-1.5,1.5-1.5
	c0.827,0,1.5,0.673,1.5,1.5c0,0.276-0.224,0.5-0.5,0.5c-0.276,0-0.5-0.224-0.5-0.5c0-0.276-0.224-0.5-0.5-0.5
	c-0.276,0-0.5,0.224-0.5,0.5v2h1c0.276,0,0.5,0.224,0.5,0.5S70.276,839,70,839h-0.973L69,839.5c0,0.304-0.06,1.167-0.218,1.5H70.5
	C70.776,841,71,841.224,71,841.5z"/>
<path style="fill:#262626;" d="M66,1075.001c0,1.656-1.344,3-3,3c-1.657,0-3-1.344-3-3c0-1.657,1.343-3,3-3
	C64.656,1072.001,66,1073.344,66,1075.001z M72.001,1072.001c-1.657,0-3.001,1.343-3.001,3c0,1.656,1.344,3,3.001,3
	c1.656,0,2.999-1.344,2.999-3C75,1073.344,73.657,1072.001,72.001,1072.001z M81,1072.001c-1.656,0-3,1.343-3,3c0,1.656,1.344,3,3,3
	c1.657,0,3-1.344,3-3C84,1073.344,82.657,1072.001,81,1072.001z"/>
<path style="fill:#262626;" d="M197.079,1070.839l0.825,0.824l-7.545,7.544l0.001,0.001l-0.658,0.656l-0.18,0.18l-0.825-0.826
	l0.01-0.01l-2.655-2.654l0.826-0.825l2.655,2.654L197.079,1070.839z M202,1074.996c0,5.516-4.487,10.004-10.003,10.004
	c-5.513,0-9.998-4.488-9.998-10.004c0-5.512,4.485-9.996,9.998-9.996C197.513,1065,202,1069.484,202,1074.996z M201,1074.996
	c0-4.96-4.039-8.996-9.003-8.996c-4.962,0-8.998,4.036-8.998,8.996c0,4.965,4.036,9.004,8.998,9.004
	C196.961,1084,201,1079.961,201,1074.996z"/>
<path style="fill-rule:evenodd;clip-rule:evenodd;fill:#262626;" d="M311,1073h2v7h-2V1073z M311,1072h2v-2h-2V1072z M322,1075
	c0-5.514-4.486-10-10-10c-5.514,0-10,4.486-10,10s4.486,10,10,10C317.514,1085,322,1080.514,322,1075z M321,1075
	c0,4.962-4.038,9-9,9s-9-4.038-9-9s4.038-9,9-9S321,1070.038,321,1075z"/>
<path style="fill:#262626;" d="M552,1065c0,0.312-10,20-10,20h20L552,1065z M553,1082h-2v-2h2V1082z M551,1079v-7h2v7H551z"/>
<path style="fill:#262626;" d="M79.295,1189h-14.57c-0.945,0-1.715,0.769-1.715,1.714v8.571c0,0.945,0.769,1.714,1.715,1.714h14.57
	c0.945,0,1.715-0.769,1.715-1.714v-8.571C81.01,1189.77,80.241,1189,79.295,1189z M79.185,1190l-7.175,5.741L64.835,1190H79.185z
	 M80.01,1199.286c0,0.395-0.32,0.714-0.715,0.714h-14.57c-0.395,0-0.715-0.319-0.715-0.714v-8.571c0-0.028,0.013-0.053,0.016-0.08
	l7.671,6.138c0.092,0.072,0.202,0.109,0.312,0.109c0.11,0,0.221-0.037,0.312-0.109l7.671-6.138c0.003,0.027,0.016,0.052,0.016,0.08
	V1199.286z"/>
<path style="fill:#262626;" d="M800.892,1074.873c-0.161-0.211-4.012-5.178-8.892-5.178c-4.88,0-8.731,4.967-8.892,5.178
	c-0.145,0.189-0.145,0.456,0,0.644c0.161,0.211,4.012,5.178,8.892,5.178c4.88,0,8.73-4.967,8.892-5.178
	C801.036,1075.329,801.036,1075.062,800.892,1074.873z M792,1079.659c-3.716,0-6.921-3.39-7.843-4.464
	c0.921-1.074,4.12-4.463,7.843-4.463c3.716,0,6.921,3.39,7.843,4.464C798.922,1076.27,795.723,1079.659,792,1079.659z M792,1071.611
	c-1.905,0-3.456,1.607-3.456,3.584c0,1.976,1.551,3.583,3.456,3.583c1.905,0,3.456-1.607,3.456-3.583
	C795.456,1073.219,793.905,1071.611,792,1071.611z M792,1077.742c-1.355,0-2.456-1.142-2.456-2.546c0-1.405,1.102-2.547,2.456-2.547
	c1.354,0,2.456,1.142,2.456,2.547C794.456,1076.6,793.354,1077.742,792,1077.742z M793.978,1075.195
	c0,1.131-0.888,2.051-1.978,2.051c-1.091,0-1.979-0.92-1.979-2.051c0-0.287,0.224-0.519,0.5-0.519c0.276,0,0.5,0.232,0.5,0.519
	c0,0.56,0.439,1.015,0.979,1.015s0.978-0.455,0.978-1.015s-0.438-1.015-0.978-1.015c-0.276,0-0.5-0.232-0.5-0.518
	c0-0.287,0.224-0.519,0.5-0.519C793.091,1073.144,793.978,1074.064,793.978,1075.195z"/>
<path style="fill:#262626;" d="M911.513,1078.957c0.426,0,0.773,0.346,0.773,0.772c0,0.427-0.347,0.772-0.773,0.772
	c-0.427,0-0.773-0.345-0.773-0.772C910.74,1079.303,911.086,1078.957,911.513,1078.957L911.513,1078.957z M912.013,1077.44v-1.863
	c1.315-0.237,2.317-1.39,2.317-2.773c0-1.554-1.264-2.818-2.817-2.818s-2.817,1.264-2.817,2.818c0,0.276,0.224,0.5,0.5,0.5
	c0.276,0,0.5-0.224,0.5-0.5c0-1.002,0.815-1.818,1.817-1.818c1.002,0,1.817,0.816,1.817,1.818s-0.815,1.818-1.817,1.818
	c-0.276,0-0.5,0.224-0.5,0.5v2.318c0,0.276,0.224,0.5,0.5,0.5C911.789,1077.94,912.013,1077.717,912.013,1077.44z M922,1075
	c0-5.514-4.486-10-10-10s-10,4.486-10,10s4.486,10,10,10S922,1080.514,922,1075z M921,1075c0,4.962-4.037,9-9,9s-9-4.038-9-9
	s4.037-9,9-9S921,1070.038,921,1075z"/>
<path style="fill:#262626;" d="M432,1065c-5.514,0-10,4.486-10,10s4.486,10,10,10c5.514,0,10-4.486,10-10S437.514,1065,432,1065z
	 M433,1080h-1.989v-2H433V1080z M433,1077h-1.99l-0.01-7h2V1077z"/>
<path style="fill:#262626;" d="M561.75,1188h-19.5c-1.241,0-2.25,1.01-2.25,2.25v9.429c0,1.24,1.009,2.336,2.25,2.336h19.484
	c1.241,0,2.266-1.096,2.266-2.336v-9.429C564,1189.01,562.991,1188,561.75,1188z M542.25,1189h19.5c0.688,0,1.25,0.562,1.25,1.25
	l0.016,0.765L541,1191v-0.75C541,1189.563,541.562,1189,542.25,1189z M561.75,1201.016h-19.5c-0.688,0-1.25-0.562-1.25-1.25V1193h22
	v6.766C563,1200.453,562.438,1201.016,561.75,1201.016z M554.391,1195.246v-0.532c0.229-0.012,0.393-0.028,0.483-0.05
	c0.145-0.034,0.266-0.104,0.36-0.21c0.064-0.07,0.111-0.164,0.143-0.284c0.019-0.072,0.026-0.124,0.026-0.16h0.611v3.981h-0.75
	v-2.746H554.391z M556.613,1197.218c0.104-0.267,0.352-0.547,0.742-0.843c0.336-0.258,0.555-0.444,0.653-0.556
	c0.152-0.172,0.229-0.362,0.229-0.57c0-0.168-0.045-0.308-0.13-0.417c-0.089-0.112-0.215-0.168-0.377-0.168
	c-0.222,0-0.374,0.088-0.454,0.266c-0.048,0.102-0.074,0.264-0.082,0.488h-0.711c0.012-0.338,0.07-0.612,0.172-0.822
	c0.195-0.396,0.541-0.594,1.041-0.594c0.395,0,0.707,0.118,0.941,0.35c0.231,0.232,0.35,0.541,0.35,0.928
	c0,0.292-0.083,0.554-0.248,0.785c-0.11,0.151-0.286,0.319-0.531,0.506l-0.293,0.222c-0.185,0.143-0.311,0.24-0.376,0.305
	c-0.07,0.062-0.126,0.134-0.175,0.216h1.628V1198h-2.55C556.451,1197.714,556.507,1197.454,556.613,1197.218z M560.19,1196.711
	c0,0.156,0.023,0.285,0.07,0.387c0.086,0.188,0.244,0.281,0.471,0.281c0.141,0,0.264-0.051,0.367-0.154
	c0.104-0.102,0.156-0.25,0.156-0.443c0-0.254-0.096-0.426-0.289-0.51c-0.11-0.049-0.283-0.072-0.52-0.072v-0.549
	c0.231-0.002,0.394-0.027,0.487-0.072c0.156-0.076,0.234-0.227,0.234-0.455c0-0.148-0.039-0.269-0.12-0.363
	c-0.081-0.092-0.195-0.137-0.341-0.137c-0.17,0-0.292,0.055-0.373,0.17c-0.078,0.115-0.117,0.267-0.111,0.458h-0.67
	c0.008-0.195,0.039-0.376,0.094-0.55c0.061-0.152,0.151-0.291,0.276-0.42c0.094-0.092,0.206-0.162,0.332-0.209
	c0.129-0.047,0.288-0.072,0.476-0.072c0.346,0,0.625,0.096,0.838,0.287c0.214,0.193,0.319,0.449,0.319,0.773
	c0,0.229-0.063,0.422-0.188,0.58c-0.081,0.1-0.164,0.164-0.253,0.201c0.065,0,0.159,0.059,0.281,0.18
	c0.183,0.18,0.273,0.428,0.273,0.74c0,0.328-0.106,0.617-0.32,0.867c-0.214,0.246-0.527,0.371-0.945,0.371
	c-0.513,0-0.87-0.18-1.07-0.539c-0.105-0.189-0.164-0.439-0.176-0.75H560.19z"/>
<path style="fill:#262626;" d="M662,1197l10.001-12l9.999,12.021h-6V1205h-8v-7.979L662,1197z"/>
<path style="fill:#262626;" d="M802,1192.999l-10.001,12L782,1192.979h6v-7.979h8v7.979L802,1192.999z"/>
<path style="fill:#262626;" d="M912,1187.875l1.671,4.457l0.242,0.652h0.695h4.658l-3.999,3.426l-0.518,0.438l0.215,0.643
	l1.614,4.845l-3.987-2.925l-0.592-0.434l-0.592,0.434l-3.988,2.925l1.615-4.845l0.215-0.643l-0.518-0.438l-3.999-3.426h4.659h0.695
	l0.242-0.652L912,1187.875 M912,1185l-2.607,6.984H902l6.087,5.189l-2.609,7.826l6.523-4.783l6.521,4.783l-2.608-7.826l6.087-5.189
	h-7.392L912,1185L912,1185z"/>
<g>
	<path style="fill:#262626;" d="M72,1305l2.608,7H82l-6.087,5.174l2.608,7.826L72,1320.217L65.477,1325l2.609-7.826L62,1312h7.393
		L72,1305z"/>
</g>
<path style="fill:#262626;" d="M193.962,1307.521c0,0.276-0.224,0.479-0.5,0.479h-8.895c-0.276,0-0.5-0.178-0.5-0.454
	s0.224-0.546,0.5-0.546h8.895C193.739,1307,193.962,1307.245,193.962,1307.521z M184,1315.504v-5.993c0-0.276,0.263-0.5,0.54-0.5
	h3.963c0.276,0,0.5,0.224,0.5,0.5v5.993c0,0.276-0.224,0.5-0.5,0.5h-3.963C184.263,1316.004,184,1315.78,184,1315.504z
	 M185,1315.004h3.003v-4.993H185V1315.004z M193.446,1310.011c0.276,0,0.5-0.224,0.5-0.5s-0.224-0.5-0.5-0.5h-2.198
	c-0.276,0-0.5,0.224-0.5,0.5s0.224,0.5,0.5,0.5H193.446z M190.025,1311.462c0,0.276,0.224,0.538,0.5,0.538h2.921
	c0.276,0,0.5-0.262,0.5-0.538s-0.224-0.462-0.5-0.462h-2.921C190.249,1311,190.025,1311.186,190.025,1311.462z M190.525,1314.004
	h2.921c0.276,0,0.5-0.224,0.5-0.5s-0.224-0.5-0.5-0.5h-2.921c-0.276,0-0.5,0.224-0.5,0.5S190.249,1314.004,190.525,1314.004z
	 M190.525,1316.004h2.921c0.276,0,0.5-0.224,0.5-0.5s-0.224-0.5-0.5-0.5h-2.921c-0.276,0-0.5,0.224-0.5,0.5
	S190.249,1316.004,190.525,1316.004z M193.462,1317h-8.895c-0.276,0-0.5,0.285-0.5,0.562s0.224,0.438,0.5,0.438h8.895
	c0.276,0,0.5-0.162,0.5-0.438S193.739,1317,193.462,1317z M193.462,1318.991h-8.894c-0.276,0-0.5,0.224-0.5,0.5s0.224,0.5,0.5,0.5
	h8.894c0.276,0,0.5-0.224,0.5-0.5S193.739,1318.991,193.462,1318.991z M193.409,1321h-8.87c-0.276,0-0.5,0.205-0.5,0.481
	s0.224,0.5,0.5,0.5h8.87c0.276,0,0.5-0.224,0.5-0.5S193.685,1321,193.409,1321z M202,1307.534l-0.016,14.391
	c0,1.57-1.595,3.075-3.301,3.075c-0.214,0-0.419,0.018-0.617,0c-0.05,0.018-0.104,0-0.16,0h-13.71c-0.948,0-2.171-1.544-2.171-3.062
	v-16.462c0-0.276,0.224-0.476,0.5-0.476h12.934c0.133,0,0.26,0.027,0.354,0.121c0.094,0.094,0.188,0.221,0.188,0.354V1306h1.435
	c0.275,0,0.564,0.202,0.565,0.478V1307h3.484C201.761,1307,202,1307.258,202,1307.534z M195.984,1324.016
	c-0.719-0.266-0.984-1.275-0.984-2.079v-15.962l-12,0.001v15.962c0,1.1,0.914,2.046,1.198,2.062L195.984,1324.016z M201,1308h-3v1
	h1.545c0.276,0,0.455,0.293,0.455,0.569v12.178c0,0.772-0.69,1.253-1.375,1.253c-0.94,0-1.623-0.563-1.623-1.312L197,1307.571
	c0-0.009,0-0.017,0-0.025s-0.001-0.016,0-0.024V1307h-1v2l-0.042,12.937c0,1.61,1.482,2.063,2.725,2.063
	c1.039,0,2.301-0.96,2.301-2.075L201,1308z M198.002,1321.687c0,0.143,0.25,0.313,0.623,0.313c0.2,0,0.42-0.114,0.42-0.253V1310
	l-1.045,0.011L198.002,1321.687z"/>
<path style="fill:#262626;" d="M321.852,1324.145l-5.973-5.973c1.207-1.398,1.945-3.219,1.945-5.212c0-4.388-3.549-7.958-7.91-7.958
	c-4.363,0-7.912,3.57-7.912,7.958c0,4.389,3.549,7.96,7.912,7.96c2.021,0,3.863-0.774,5.264-2.035l5.967,5.967
	c0.098,0.098,0.227,0.146,0.353,0.146c0.129,0,0.256-0.049,0.354-0.146C322.047,1324.656,322.047,1324.34,321.852,1324.145z
	 M309.914,1319.92c-3.812,0-6.912-3.122-6.912-6.96c0-3.837,3.1-6.958,6.912-6.958c3.81,0,6.91,3.121,6.91,6.958
	S313.725,1319.92,309.914,1319.92z"/>
<path style="fill:#262626;" d="M441.777,1314.084l-2.777-1.852v-6.732c0-0.276-0.224-0.5-0.5-0.5h-13c-0.276,0-0.5,0.224-0.5,0.5
	v6.732l-2.777,1.852c-0.003,0.002-0.003,0.004-0.005,0.006c-0.057,0.039-0.107,0.089-0.145,0.151
	c-0.003,0.005-0.003,0.01-0.005,0.014c-0.01,0.018-0.012,0.036-0.02,0.054c-0.022,0.054-0.038,0.107-0.041,0.163
	c-0.001,0.01-0.007,0.019-0.007,0.028v8.762c0,0.958,0.78,1.738,1.739,1.738h16.521c0.959,0,1.739-0.78,1.739-1.738v-8.762
	C442,1314.333,441.916,1314.177,441.777,1314.084z M440.626,1314.519l-1.626,0.947v-2.031L440.626,1314.519z M425,1315.429
	l-1.568-0.949l1.568-1.045V1315.429z M440.261,1324h-16.521c-0.408,0-0.739-0.331-0.739-0.738v-7.875l4.198,2.541
	c0.081,0.049,0.17,0.072,0.258,0.072c0.17,0,0.335-0.086,0.428-0.241c0.143-0.236,0.067-0.544-0.169-0.687l-1.722-1.042
	c0.001-0.011,0.006-0.02,0.006-0.03v-10h12v10.048l-1.752,1.021c-0.239,0.139-0.319,0.444-0.181,0.684
	c0.093,0.159,0.26,0.248,0.433,0.248c0.085,0,0.172-0.021,0.251-0.068l4.249-2.475v7.805C441,1323.669,440.668,1324,440.261,1324z
	 M438.825,1322.12c0.21,0.18,0.234,0.496,0.054,0.705c-0.099,0.115-0.239,0.175-0.379,0.175c-0.115,0-0.231-0.039-0.325-0.12
	l-3.36-2.88h-5.63l-3.36,2.88c-0.209,0.179-0.525,0.155-0.705-0.055c-0.18-0.209-0.156-0.525,0.054-0.705l3.5-3
	c0.09-0.077,0.206-0.12,0.325-0.12h6c0.119,0,0.235,0.043,0.325,0.12L438.825,1322.12z M428,1308.5c0-0.276,0.224-0.5,0.5-0.5h7
	c0.276,0,0.5,0.224,0.5,0.5s-0.224,0.5-0.5,0.5h-7C428.224,1309,428,1308.776,428,1308.5z M428,1311.5c0-0.276,0.224-0.5,0.5-0.5h7
	c0.276,0,0.5,0.224,0.5,0.5s-0.224,0.5-0.5,0.5h-7C428.224,1312,428,1311.776,428,1311.5z M428,1314.5c0-0.276,0.224-0.5,0.5-0.5h7
	c0.276,0,0.5,0.224,0.5,0.5s-0.224,0.5-0.5,0.5h-7C428.224,1315,428,1314.776,428,1314.5z"/>
<path style="fill:#262626;" d="M556.501,1314c-3.033,0-5.501,2.468-5.501,5.501c0,3.032,2.468,5.499,5.501,5.499
	c3.032,0,5.499-2.467,5.499-5.499C562,1316.468,559.533,1314,556.501,1314z M556.501,1324c-2.482,0-4.501-2.019-4.501-4.499
	c0-2.481,2.019-4.501,4.501-4.501c2.48,0,4.499,2.02,4.499,4.501C561,1321.981,558.981,1324,556.501,1324z M558.947,1317.724l-2,4
	c-0.072,0.144-0.209,0.244-0.367,0.27c-0.027,0.005-0.054,0.007-0.08,0.007c-0.132,0-0.26-0.052-0.354-0.147l-1.992-2
	c-0.194-0.195-0.194-0.512,0.002-0.707c0.195-0.193,0.512-0.195,0.707,0.002l1.501,1.507l1.689-3.378
	c0.125-0.246,0.424-0.347,0.671-0.224C558.971,1317.177,559.07,1317.477,558.947,1317.724z M544.5,1309c-0.276,0-0.5,0.224-0.5,0.5
	v12c0,0.276,0.224,0.5,0.5,0.5h6c0.276,0,0.5-0.224,0.5-0.5s-0.224-0.5-0.5-0.5H545v-11h1v0.5c0,0.276,0.224,0.5,0.5,0.5h5
	c0.276,0,0.5-0.224,0.5-0.5v-0.5h1v2.5c0,0.276,0.224,0.5,0.5,0.5c0.276,0,0.5-0.224,0.5-0.5v-3c0-0.276-0.224-0.5-0.5-0.5H552v-1h3
	v4.5c0,0.276,0.224,0.5,0.5,0.5c0.276,0,0.5-0.224,0.5-0.5v-5c0-0.276-0.224-0.5-0.5-0.5h-4h-0.122h-0.415
	c-0.159-1.059-0.827-2-1.963-2c-1.136,0-1.804,0.941-1.963,2H546.5h-4c-0.276,0-0.5,0.224-0.5,0.5v14.5c0,1.346,0.654,2,2,2h6.5
	c0.276,0,0.5-0.224,0.5-0.5s-0.224-0.5-0.5-0.5H544c-0.785,0-1-0.215-1-1v-14h3v1H544.5z M547.5,1308c0.276,0,0.5-0.224,0.5-0.5
	c0-0.603,0.267-1.5,1-1.5s1,0.897,1,1.5c0,0.276,0.224,0.5,0.5,0.5h0.5v2h-4v-2H547.5z M551.5,1314h-5c-0.276,0-0.5-0.224-0.5-0.5
	s0.224-0.5,0.5-0.5h5c0.276,0,0.5,0.224,0.5,0.5S551.776,1314,551.5,1314z M550.5,1316h-4c-0.276,0-0.5-0.224-0.5-0.5
	s0.224-0.5,0.5-0.5h4c0.276,0,0.5,0.224,0.5,0.5S550.776,1316,550.5,1316z M550,1317.5c0,0.276-0.224,0.5-0.5,0.5h-3
	c-0.276,0-0.5-0.224-0.5-0.5s0.224-0.5,0.5-0.5h3C549.776,1317,550,1317.224,550,1317.5z M550,1319.5c0,0.276-0.224,0.5-0.5,0.5h-3
	c-0.276,0-0.5-0.224-0.5-0.5s0.224-0.5,0.5-0.5h3C549.776,1319,550,1319.224,550,1319.5z"/>
<path style="fill:#262626;" d="M320,960h-2.5c-0.276,0-0.5-0.224-0.5-0.5s0.224-0.5,0.5-0.5h2.5c0.636,0,1-0.364,1-1v-5
	c0-0.636-0.364-1-1-1h-16c-0.636,0-1,0.364-1,1v5c0,0.636,0.364,1,1,1h2.5c0.276,0,0.5,0.224,0.5,0.5s-0.224,0.5-0.5,0.5H304
	c-1.178,0-2-0.822-2-2v-5c0-1.178,0.822-2,2-2h16c1.178,0,2,0.822,2,2v5C322,959.178,321.178,960,320,960z M318,964.5v-8
	c0-0.276-0.224-0.5-0.5-0.5h-11c-0.276,0-0.5,0.224-0.5,0.5v8c0,0.276,0.224,0.5,0.5,0.5h11C317.776,965,318,964.776,318,964.5z
	 M307,957h10v7h-10V957z M306.022,953.999c0-0.551-0.448-0.999-1-0.999c-0.552,0-1,0.448-1,0.999c0,0.552,0.448,1,1,1
	C305.574,954.999,306.022,954.551,306.022,953.999z M316,958.5c0-0.276-0.224-0.5-0.5-0.5h-7c-0.276,0-0.5,0.224-0.5,0.5
	s0.224,0.5,0.5,0.5h7C315.776,959,316,958.776,316,958.5z M316,960.5c0-0.276-0.224-0.5-0.5-0.5h-7c-0.276,0-0.5,0.224-0.5,0.5
	s0.224,0.5,0.5,0.5h7C315.776,961,316,960.776,316,960.5z M316,962.5c0-0.276-0.224-0.5-0.5-0.5h-7c-0.276,0-0.5,0.224-0.5,0.5
	s0.224,0.5,0.5,0.5h7C315.776,963,316,962.776,316,962.5z M318,948.5v1c0,0.276-0.224,0.5-0.5,0.5s-0.5-0.224-0.5-0.5V949h-2.5
	c-0.276,0-0.5-0.224-0.5-0.5V946h-7v3.5c0,0.276-0.224,0.5-0.5,0.5s-0.5-0.224-0.5-0.5v-4c0-0.276,0.224-0.5,0.5-0.5h8.5
	c0.148,0,0.289,0.065,0.384,0.18l2.5,3C317.959,948.269,318,948.383,318,948.5z M315,948h1.433L315,946.281V948z"/>
<path id="account-ad" style="fill:#262626;" d="M315,838v-2.628c1.212-1.053,2.001-2.722,2.001-4.603
	c0-3.181-2.243-5.769-5.001-5.769c-2.757,0-5,2.588-5,5.769c0,1.901,0.805,3.586,2.039,4.637H309v1.953l-3.665,1.67
	c-1.16,0.406-2.335,1.558-2.335,2.972v2h10v-1h-9v-1c0-0.823,0.716-1.695,1.707-2.045l4.293-1.953v-1.951
	c0.613,0.311,1.289,0.485,2,0.485c0.711,0,1.387-0.175,2-0.484V838H315z M312,826c1.987,0,3.627,1.74,3.936,4.006
	c-0.011,0.002-0.018,0.001-0.029,0.003c-1.435,0.274-2.297-0.093-2.975-1.261l-0.452-0.775l-0.422,0.793
	c-0.387,0.728-1.941,1.234-3.094,1.234c-0.356,0-0.575-0.087-0.871-0.239C308.483,827.615,310.085,826,312,826z M312,835.536
	c-2.192,0-3.974-2.113-3.996-4.72c0.271,0.107,0.565,0.184,0.961,0.184c1.19,0,2.657-0.404,3.498-1.166
	c0.672,0.848,1.529,1.259,2.629,1.259c0.277,0,0.579-0.037,0.89-0.089C315.876,833.521,314.139,835.536,312,835.536z M319.5,838
	c-2.481,0-4.5,2.019-4.5,4.5s2.019,4.5,4.5,4.5c2.481,0,4.5-2.019,4.5-4.5S321.981,838,319.5,838z M319.5,846
	c-1.93,0-3.5-1.57-3.5-3.5s1.57-3.5,3.5-3.5c1.93,0,3.5,1.57,3.5,3.5S321.43,846,319.5,846z M322,842.5c0,0.276-0.224,0.5-0.5,0.5
	H320v1.5c0,0.276-0.224,0.5-0.5,0.5s-0.5-0.224-0.5-0.5V843h-1.5c-0.276,0-0.5-0.224-0.5-0.5s0.224-0.5,0.5-0.5h1.5v-1.5
	c0-0.276,0.224-0.5,0.5-0.5s0.5,0.224,0.5,0.5v1.5h1.5C321.776,842,322,842.224,322,842.5z"/>
<path id="account" style="fill:#262626;" d="M678.707,1079.045l-3.707-1.688v-1.985c1.212-1.053,2.001-2.722,2.001-4.604
	c0-3.181-2.243-5.769-5.001-5.769c-2.757,0-5,2.588-5,5.769c0,1.901,0.805,3.586,2.039,4.637H669v1.953l-3.665,1.67
	c-1.16,0.406-2.335,1.558-2.335,2.972v2h18v-2C681,1080.585,679.825,1079.434,678.707,1079.045z M672,1066
	c1.987,0,3.627,1.74,3.936,4.006c-0.011,0.002-0.018,0.001-0.029,0.003c-1.434,0.274-2.297-0.093-2.975-1.261l-0.452-0.775
	l-0.422,0.793c-0.387,0.728-1.941,1.234-3.094,1.234c-0.356,0-0.575-0.087-0.871-0.239C668.483,1067.615,670.085,1066,672,1066z
	 M668.004,1070.816c0.27,0.107,0.565,0.184,0.961,0.184c1.19,0,2.657-0.404,3.498-1.166c0.672,0.848,1.529,1.259,2.629,1.259
	c0.277,0,0.579-0.037,0.89-0.089c-0.105,2.518-1.843,4.532-3.981,4.532C669.808,1075.536,668.026,1073.423,668.004,1070.816z
	 M680,1083h-16v-1c0-0.823,0.716-1.695,1.707-2.045l4.293-1.953v-1.951c0.613,0.311,1.289,0.485,2,0.485
	c0.711,0,1.387-0.175,2-0.484v1.95l4.335,1.97c0.949,0.332,1.665,1.204,1.665,2.028V1083z"/>
<path style="fill:#262626;" d="M443.706,1441.709c-0.195,0.194-0.45,0.291-0.706,0.291c-0.257,0-0.513-0.099-0.709-0.294
	l-10.248-10.292l-10.338,10.295c-0.195,0.194-0.45,0.291-0.706,0.291c-0.257,0-0.513-0.099-0.709-0.294
	c-0.39-0.392-0.389-1.025,0.003-1.415l11.047-11c0.392-0.389,1.025-0.386,1.414,0.003l10.953,11
	C444.098,1440.686,444.097,1441.319,443.706,1441.709z"/>
<path style="fill:#262626;" d="M323.708,1430.706l-10.953,11c-0.195,0.195-0.452,0.294-0.709,0.294c-0.255,0-0.51-0.097-0.706-0.291
	l-11.047-11c-0.392-0.39-0.393-1.023-0.003-1.415c0.389-0.39,1.022-0.393,1.414-0.003l10.338,10.295l10.248-10.292
	c0.39-0.39,1.023-0.393,1.414-0.003S324.098,1430.314,323.708,1430.706z"/>
<path style="fill:#262626;" d="M198.706,1432.709l-6.026,6c-0.195,0.194-0.45,0.291-0.706,0.291c-0.257,0-0.513-0.099-0.708-0.295
	l-5.974-6c-0.39-0.391-0.389-1.024,0.003-1.414c0.392-0.39,1.025-0.387,1.414,0.004l5.268,5.291l5.318-5.295
	c0.392-0.39,1.025-0.387,1.414,0.004C199.098,1431.686,199.097,1432.319,198.706,1432.709z"/>
<path style="fill:#262626;" d="M78.708,1438.705C78.513,1438.901,78.257,1439,78,1439c-0.255,0-0.51-0.097-0.706-0.291l-5.318-5.295
	l-5.268,5.291C66.513,1438.901,66.257,1439,66,1439c-0.255,0-0.51-0.097-0.706-0.291c-0.392-0.39-0.393-1.023-0.003-1.414l5.974-6
	c0.39-0.392,1.023-0.394,1.414-0.004l6.026,6C79.097,1437.681,79.098,1438.314,78.708,1438.705z"/>
<path style="fill:#262626;" d="M668,1438l4-6l4,6H668z"/>
<path style="fill:#262626;" d="M796,1432l-4,6l-4-6H796z"/>
<path style="fill:#262626;" d="M679.446,1308.35c-0.038-0.065-0.087-0.124-0.15-0.166c-1.184-1.267-2.685-2.229-4.384-2.748
	c-0.021-0.006-0.039-0.013-0.061-0.016c-0.905-0.27-1.86-0.42-2.852-0.42c-5.514,0-10,4.486-10,10s4.486,10,10,10
	c5.514,0,10-4.486,10-10C682,1312.445,681.028,1310.119,679.446,1308.35z M678.47,1308.759c-0.141,0.528-0.572,1.805-1.589,2.408
	c-1.498-0.271-2.905,0.529-3.227,0.922c-0.228,0.276-0.148,0.528-0.102,0.623c0.062,0.131,0.21,0.239,0.362,0.286
	c0.133,0.174,0.357,0.76,0.491,1.296c0.022,0.088,0.067,0.168,0.131,0.231c0.393,0.394,0.932,0.366,1.319,0.273
	c-0.057,0.457-0.754,1.183-1.165,1.609c-0.46,0.479-0.713,0.742-0.713,1.07c0,0.382,0.279,0.625,0.465,0.786
	c0.03,0.027,0.07,0.062,0.103,0.092c-0.002,0.002-0.005,0.005-0.008,0.007c-0.521,0.521-1.041,0.705-1.044,0.706
	c-0.204,0.068-0.342,0.26-0.342,0.475c0,0.457-0.114,0.793-0.35,1.025c-0.414,0.41-1.132,0.422-1.521,0.432
	c-0.271-0.211-0.816-1.185-0.847-1.457c0-0.089,0.082-0.252,0.154-0.396c0.121-0.243,0.259-0.519,0.259-0.843
	c0-0.475-0.472-1.065-0.832-1.448c-0.032-0.518-0.186-0.901-0.47-1.168c-0.493-0.467-1.21-0.425-1.898-0.386
	c-0.197,0.012-0.4,0.023-0.604,0.023c-0.723,0-0.74-1.108-0.74-1.153c0-0.024,0.019-2.483,1.663-2.813
	c0.42-0.084,0.727-0.108,0.947-0.108c0.389,0,0.515,0.075,0.521,0.043c0.003,0.129,0.056,0.252,0.146,0.343
	c0.771,0.771,1.967,0.495,2.84,0.292c0.321-0.075,0.626-0.146,0.818-0.146c0.249,0,0.46-0.183,0.495-0.43
	c0.232-1.629,0.117-2.623-0.343-2.955c-0.227-0.163-0.513-0.18-0.789-0.041c-0.272,0.136-0.522,0.162-0.684,0.072
	c-0.175-0.098-0.231-0.324-0.246-0.497c-0.04-0.423,1.439-1.136,3.077-1.5C676.179,1306.893,677.45,1307.702,678.47,1308.759z
	 M672,1324c-4.963,0-9-4.037-9-9s4.037-9,9-9c0.213,0,0.421,0.018,0.63,0.032c-1.049,0.428-2.039,1.076-1.954,1.992
	c0.054,0.583,0.322,1.037,0.756,1.279c0.394,0.219,0.886,0.234,1.381,0.051c0.048,0.308,0.04,0.88-0.021,1.473
	c-0.189,0.032-0.39,0.079-0.597,0.127c-0.661,0.154-1.405,0.329-1.815,0.05c-0.054-0.139-0.15-0.286-0.303-0.411
	c-0.444-0.364-1.197-0.436-2.306-0.214c-2.439,0.489-2.467,3.659-2.467,3.794c0,0.745,0.363,2.153,1.74,2.153
	c0.223,0,0.444-0.013,0.66-0.024c0.481-0.027,0.976-0.056,1.155,0.113c0.134,0.127,0.162,0.424,0.162,0.65
	c0,0.133,0.053,0.26,0.147,0.354c0.321,0.321,0.652,0.763,0.68,0.886c0,0.088-0.082,0.251-0.153,0.396
	c-0.122,0.243-0.26,0.52-0.26,0.844c0,0.505,0.92,2.456,1.82,2.456c0.029,0.001,0.063,0.001,0.102,0.001
	c0.447,0,1.467-0.044,2.149-0.721c0.361-0.358,0.573-0.829,0.63-1.403c0.278-0.14,0.696-0.393,1.109-0.807
	c0.237-0.237,0.353-0.49,0.344-0.752c-0.014-0.395-0.3-0.644-0.489-0.809c-0.012-0.01-0.025-0.021-0.038-0.033
	c0.098-0.111,0.237-0.257,0.351-0.375c0.799-0.83,2.134-2.22,1.072-3.282c-0.151-0.151-0.385-0.188-0.575-0.095
	c-0.184,0.09-0.44,0.149-0.584,0.128c-0.181-0.669-0.369-1.094-0.546-1.363c0.447-0.234,1.244-0.514,2.057-0.309
	c0.116,0.027,0.237,0.016,0.345-0.038c1.126-0.563,1.733-1.675,2.045-2.486c1.109,1.497,1.774,3.342,1.774,5.344
	C681,1319.963,676.963,1324,672,1324z"/>
<path style="fill:#262626;" d="M789,1321.5c0-0.252,0-0.5,0-0.5v-3.5c0-0.276,0.224-0.516,0.5-0.516h1c0.276,0,0.5,0.239,0.5,0.516
	v3.5h1v-5.5c0-0.276,0.224-0.5,0.5-0.5h0.984c0.276,0,0.516,0.224,0.516,0.5v5.5h1v-7.5c0-0.276,0.224-0.5,0.5-0.5h1
	c0.276,0,0.5,0.224,0.5,0.5c0,0,0,7.748,0,8c0,0.276-0.224,0.5-0.5,0.5h-7C789.224,1322,789,1321.776,789,1321.5z M792.5,1308.978
	h4.031c0.276,0,0.5-0.224,0.5-0.5s-0.224-0.5-0.5-0.5H792.5c-0.276,0-0.5,0.224-0.5,0.5S792.224,1308.978,792.5,1308.978z
	 M800,1305.5v19c0,0.276-0.224,0.5-0.5,0.5h-14c-0.883,0-1.5-0.617-1.5-1.5v-17c0-0.883,0.617-1.5,1.5-1.5h14
	C799.776,1305,800,1305.224,800,1305.5z M787,1306h-1.5c-0.332,0-0.5,0.168-0.5,0.5v17c0,0.332,0.168,0.5,0.5,0.5h1.5V1306z
	 M799,1306h-11v18h11V1306z"/>
<path style="fill:#262626;" d="M920.263,1307h-16.523c-0.959,0-1.739,0.732-1.739,1.633v11.734c0,0.9,0.78,1.633,1.739,1.633h6.017
	l-0.742,1H906.5c-0.276,0-0.5,0.224-0.5,0.5s0.224,0.5,0.5,0.5h2.766h5.516h0.019h2.699c0.276,0,0.5-0.224,0.5-0.5
	s-0.224-0.5-0.5-0.5h-2.475l-0.772-1h6.01c0.958,0,1.737-0.732,1.737-1.633v-11.734C922,1307.732,921.221,1307,920.263,1307z
	 M910.26,1323l0.742-1h1.987l0.773,1H910.26z M921,1320.367c0,0.349-0.331,0.633-0.737,0.633h-7.028h-2.484h-7.011
	c-0.407,0-0.739-0.284-0.739-0.633v-11.734c0-0.349,0.332-0.633,0.739-0.633h16.523c0.406,0,0.737,0.284,0.737,0.633V1320.367z
	 M904,1319.033h16V1309h-16V1319.033z M905,1310h14v8.033h-14V1310z M912,1319.25c-0.413,0-0.75,0.337-0.75,0.751
	c0,0.413,0.337,0.749,0.75,0.749s0.75-0.336,0.75-0.749C912.75,1319.587,912.413,1319.25,912,1319.25z M911.75,1320.001
	c0-0.139,0.112-0.251,0.25-0.251s0.25,0.112,0.25,0.251C912.25,1320.276,911.75,1320.276,911.75,1320.001z"/>
<path style="fill:#262626;" d="M550,1440l-3.5-3.5l1-1l2.5,2.5l7.5-7.5l1,1L550,1440z"/>
<path style="fill:#262626;" d="M918.188,1429.491c-0.299,0-0.974,0.079-1.224,0.207v-1.032c0-1.01-0.973-1.635-1.98-1.635
	c-0.299,0-1,0.01-1,0.01v-0.146c0-1.009-0.976-1.927-1.984-1.927s-1.999,0.918-1.999,1.927v0.146c0,0-0.686-0.057-0.985-0.057
	c-1.01,0-2.015,0.587-2.015,1.597v7.497l-1.521-1.772c-0.333-0.348-1.551-0.491-2.124,0.082c-0.541,0.539-0.293,1.722-0.214,1.938
	c0.077,0.163,1.922,4.01,3.444,6.407c0.911,1.434,2.469,2.268,4.163,2.268h3.274c2.72,0,5.977-2.105,5.977-4.824v-3.542v-2.213
	v-3.099C920,1430.312,919.197,1429.491,918.188,1429.491z M919.013,1436.634v3.542c0,2.164-2.482,3.824-4.646,3.824h-3.274
	c-1.35,0-2.932-0.666-3.658-1.809c-1.488-2.345-3.366-6.262-3.429-6.373c-0.157-0.225-0.132-0.526,0.061-0.721
	c0.207-0.205,0.542-0.217,0.706-0.083l3.244,3.985l-0.009-10.419c0-0.454,0.554-0.581,1.009-0.581c0.455,0,0.985,0.212,0.985,0.666
	v3.542V1434H911l0.007-1.792v-3.542v-1.771c0-0.456,0.537-0.896,0.993-0.896c0.455,0,1,0.439,1,0.896v1.771v3.542V1434h0.984v-1.792
	v-3.542c0-0.454,0.575-0.65,1.031-0.65c0.454,0,0.984,0.196,0.984,0.65v2.656V1434v2h1v-2v-2.678c0-0.454,0.544-0.885,1-0.885
	c0.455,0,1.013,0.431,1.013,0.885v3.099V1436.634z"/>
<path style="fill:#262626;" d="M62,1562.345c0,0.905,0.746,1.655,1.667,1.655h16.665c0.922,0,1.672-0.75,1.672-1.655L82.009,1552H62
	V1562.345z M63,1553h18.009l-0.004,9.345c0,0.354-0.302,0.655-0.672,0.655H63.667c-0.371,0-0.672-0.301-0.672-0.655L63,1553z
	 M69.308,1561.914c0.085,0.051,0.182,0.078,0.278,0.078c0.081,0,0.162-0.019,0.236-0.056l6.904-3.451
	c0.179-0.09,0.292-0.273,0.292-0.474s-0.113-0.384-0.292-0.474l-6.904-3.452c-0.164-0.081-0.358-0.072-0.515,0.022
	c-0.156,0.098-0.308,0.269-0.308,0.451v6.903C69,1561.646,69.152,1561.816,69.308,1561.914z M70,1555.344l5.307,2.668l-5.307,2.66
	V1555.344z M80.693,1546H63.316c-0.726,0-1.316,0.587-1.316,1.312V1551h20.009v-3.685C82.009,1546.59,81.418,1546,80.693,1546z
	 M81.009,1547.315v1.494l-1.254,1.206l-2.21-0.001l3.062-3.015h0.087C80.867,1547,81.009,1547.142,81.009,1547.315z
	 M73.307,1546.999h2.221l-3.062,3.016l-2.221-0.001L73.307,1546.999z M68.82,1550.014h-2.212l3.062-3.016h2.212L68.82,1550.014z
	 M76.952,1546.999l2.23,0.001l-3.062,3.015h-2.229L76.952,1546.999z M63.316,1546.997h1.279L63,1548.52v-1.207
	C63,1547.139,63.142,1546.997,63.316,1546.997z M63,1549.903l3.043-2.905h2.202l-3.062,3.015H63V1549.903z"/>
<path style="fill:#262626;" d="M200,1549.986h-16c-0.552,0-1-0.447-1-1s0.448-1,1-1h16c0.552,0,1,0.447,1,1
	S200.552,1549.986,200,1549.986 M200,1555.986c0.552,0,1-0.447,1-1s-0.448-1-1-1h-16c-0.552,0-1,0.447-1,1s0.448,1,1,1H200
	 M200,1561.986c0.552,0,1-0.447,1-1s-0.448-1-1-1h-16c-0.552,0-1,0.447-1,1s0.448,1,1,1H200"/>
<path style="fill:#262626;" d="M312,1545c-5.514,0-10,4.485-10,10s4.486,10,10,10s10-4.485,10-10S317.514,1545,312,1545z M321,1555
	c0,2.294-0.87,4.384-2.289,5.976l-12.686-12.688c1.591-1.418,3.681-2.288,5.975-2.288C316.963,1546,321,1550.038,321,1555z
	 M303,1555c0-2.309,0.882-4.411,2.316-6.006l12.69,12.689c-1.595,1.435-3.697,2.316-6.006,2.316C307.037,1564,303,1559.962,303,1555
	z"/>
<path style="fill:#262626;" d="M438,1561h-12v-12h12V1561z"/>
<path style="fill:#262626;" d="M558,1556h-12v-2h12V1556z"/>
<path style="fill:#262626;" d="M672,1565c-4.311,0-7.207-2.896-7.207-7.207c0-4.604,6.559-12.058,6.838-12.373l0.369-0.416
	l0.369,0.416c0.279,0.315,6.838,7.769,6.838,12.373C679.207,1562.104,676.31,1565,672,1565z M672,1546.507
	c-1.39,1.649-6.22,7.646-6.22,11.286c0,3.778,2.441,6.22,6.22,6.22c3.778,0,6.22-2.441,6.22-6.22
	C678.22,1554.152,673.39,1548.156,672,1546.507z"/>
<path style="fill:#262626;" d="M912,1545.004c4.31,0,7.207,2.896,7.207,7.207c0,4.604-6.559,12.058-6.838,12.373L912,1565
	l-0.369-0.416c-0.279-0.315-6.838-7.769-6.838-12.373C904.793,1547.9,907.69,1545.004,912,1545.004z M912,1563.497
	c1.39-1.65,6.22-7.646,6.22-11.286c0-3.778-2.441-6.22-6.22-6.22s-6.22,2.441-6.22,6.22
	C905.78,1555.852,910.61,1561.847,912,1563.497z"/>
<path style="fill:#262626;" d="M792,1565c-4.311,0-7.207-2.896-7.207-7.207c0-4.604,6.559-12.058,6.838-12.373l0.369-0.416
	l0.369,0.416c0.279,0.315,6.838,7.769,6.838,12.373C799.207,1562.104,796.31,1565,792,1565z"/>
<path style="fill:#262626;" d="M72,1664.993c4.311,0,7.207,2.896,7.207,7.207c0,4.604-6.559,12.058-6.838,12.373L72,1684.989
	l-0.369-0.416c-0.28-0.315-6.838-7.769-6.838-12.373C64.792,1667.89,67.689,1664.993,72,1664.993z"/>
<path style="fill:#262626;" d="M319.029,1674.993c0,0.116-0.046,0.228-0.128,0.309l-1.89,1.89c-0.085,0.085-0.196,0.127-0.308,0.127
	s-0.223-0.042-0.307-0.127c-0.17-0.17-0.17-0.444,0-0.614l1.119-1.119h-12.109c-0.253,0-0.457-0.206-0.457-0.458
	s0.204-0.458,0.457-0.458h12.116l-1.125-1.118c-0.171-0.169-0.171-0.444-0.002-0.614s0.445-0.17,0.615-0.002l1.89,1.879
	C318.982,1674.768,319.029,1674.879,319.029,1674.993z M322,1675c0,5.514-4.486,10-10,10c-5.514,0-10-4.486-10-10
	c0-5.515,4.486-10,10-10C317.514,1665,322,1669.485,322,1675z M321.13,1675c0-5.035-4.096-9.131-9.13-9.131
	c-5.034,0-9.13,4.096-9.13,9.131s4.096,9.131,9.13,9.131C317.034,1684.131,321.13,1680.035,321.13,1675z"/>
<path style="fill:#262626;" d="M432,1665c-5.514,0-10,4.486-10,10s4.486,10,10,10c5.514,0,10-4.486,10-10S437.514,1665,432,1665z
	 M432,1684.131c-5.034,0-9.13-4.096-9.13-9.131s4.096-9.131,9.13-9.131c5.034,0,9.13,4.096,9.13,9.131
	S437.034,1684.131,432,1684.131z M438.331,1678.153c-0.086,0.086-0.199,0.129-0.311,0.129c-0.113,0-0.226-0.043-0.312-0.129
	l-1.191-1.191v1.748c0,1.517-1.234,2.75-2.751,2.75c-1.517,0-2.75-1.233-2.75-2.75v-7.065c0-1.09-0.887-1.977-1.978-1.977
	s-1.977,0.887-1.977,1.977v2.337l0,0c0,0.214-0.173,0.387-0.387,0.387s-0.387-0.173-0.387-0.387v-2.363h0.002
	c0.015-1.505,1.24-2.724,2.748-2.724s2.733,1.219,2.749,2.724h0.003v7.092c0,1.09,0.887,1.977,1.977,1.977
	c1.09,0,1.978-0.887,1.978-1.977v-1.804l-1.241,1.241c-0.171,0.173-0.452,0.173-0.623,0c-0.173-0.173-0.173-0.451,0-0.624
	l1.911-1.911c0.166-0.167,0.46-0.166,0.624,0l1.917,1.917C438.504,1677.702,438.504,1677.98,438.331,1678.153z"/>
<path style="fill:#262626;" d="M552,1665c-5.514,0-10,4.486-10,10s4.486,10,10,10c5.514,0,10-4.486,10-10S557.514,1665,552,1665z
	 M552,1684.131c-5.035,0-9.131-4.096-9.131-9.131s4.096-9.131,9.131-9.131c5.035,0,9.131,4.096,9.131,9.131
	S557.035,1684.131,552,1684.131z M558.592,1672.774v2.71c0,0.244-0.196,0.441-0.44,0.441c-0.243,0-0.44-0.197-0.44-0.441v-1.646
	l-1.959,1.959c-0.164,0.164-0.425,0.172-0.601,0.021l-2.686-2.326l-2.899,6.418c-0.068,0.151-0.215,0.25-0.381,0.259
	c-0.007,0-0.014,0-0.021,0c-0.157,0-0.304-0.084-0.383-0.221l-3.994-6.956c-0.122-0.212-0.049-0.482,0.162-0.603
	c0.211-0.121,0.479-0.05,0.602,0.162l3.566,6.209l2.787-6.171c0.058-0.126,0.171-0.219,0.308-0.249
	c0.133-0.03,0.279,0.006,0.383,0.098l2.823,2.444l1.669-1.669h-1.641c-0.243,0-0.44-0.196-0.44-0.44s0.197-0.44,0.44-0.44h2.7
	c0.06-0.001,0.118,0.011,0.174,0.034c0.107,0.045,0.192,0.13,0.237,0.237C558.581,1672.659,558.593,1672.717,558.592,1672.774z"/>
<path style="fill:none;" d="M673.458,1667.924c0-0.23,0.186-0.416,0.417-0.416h0.625v-0.624c0-0.23,0.186-0.417,0.417-0.417
	c0.23,0,0.416,0.187,0.416,0.417v0.624h0.625c0.23,0,0.417,0.186,0.417,0.416s-0.187,0.416-0.417,0.416h-0.625v0.625
	c0,0.229-0.186,0.416-0.416,0.416c-0.231,0-0.417-0.187-0.417-0.416v-0.625h-0.625
	C673.644,1668.34,673.458,1668.154,673.458,1667.924z M671.556,1671.686c-0.229,0.016-0.403,0.214-0.388,0.443
	c0.015,0.229,0.241,0.407,0.442,0.388c1.396-0.1,2.775,0.315,3.89,1.151c0.075,0.057,0.163,0.083,0.25,0.083
	c0.126,0,0.252-0.058,0.333-0.166c0.138-0.185,0.102-0.445-0.083-0.582C674.727,1672.047,673.154,1671.58,671.556,1671.686z
	 M667.833,1674.168c0,0.459-0.373,0.832-0.833,0.832s-0.833-0.373-0.833-0.832c0-0.46,0.373-0.833,0.833-0.833
	S667.833,1673.708,667.833,1674.168z M667.417,1674.168H667l0,0H667.417z M682,1674.168c0,1.013-0.729,1.856-1.69,2.041
	c-0.152,2.453-1.778,4.576-4.143,5.742v2.622c0,0.23-0.187,0.416-0.417,0.416c-0.231,0-0.417-0.186-0.417-0.416v-2.26
	c-1.022,0.381-2.148,0.595-3.333,0.595c-1.176,0-2.303-0.215-3.333-0.596v2.261c0,0.23-0.187,0.416-0.417,0.416
	c-0.231,0-0.417-0.186-0.417-0.416v-2.626c-1.478-0.726-2.692-1.952-3.425-3.201h-1.991c-0.231,0-0.417-0.186-0.417-0.416V1675
	c0-0.23,0.186-0.416,0.417-0.416h1.38c0.364-1.665,1.482-3.281,3.126-4.356c-0.164-0.646-0.59-1.213-1.173-1.55
	c-0.129-0.074-0.208-0.211-0.208-0.36c0-0.147,0.078-0.285,0.207-0.36c0.509-0.294,1.085-0.449,1.668-0.449
	c1.094,0,2.116,0.541,2.735,1.432c0.726-0.173,1.921-0.181,1.971-0.178c-0.08-0.266-0.123-0.547-0.123-0.838
	c0-1.606,1.309-2.913,2.917-2.913c1.607,0,2.916,1.307,2.916,2.913c0,0.85-0.365,1.615-0.948,2.147
	c1.903,1.203,3.249,3.152,3.42,5.277c0.499-0.164,0.862-0.629,0.862-1.181c0-0.23,0.185-0.417,0.416-0.417
	C681.813,1673.751,682,1673.938,682,1674.168z M672.833,1667.924c0,1.148,0.935,2.081,2.084,2.081c1.148,0,2.083-0.933,2.083-2.081
	c0-1.147-0.935-2.081-2.083-2.081C673.768,1665.843,672.833,1666.776,672.833,1667.924z M679.5,1675.832
	c0-2.146-1.436-4.106-3.429-5.233c-0.354,0.153-0.744,0.239-1.154,0.239c-0.982,0-1.851-0.487-2.38-1.232
	c-0.178-0.008-0.398-0.017-0.537-0.017c-0.639,0-1.295,0.075-1.953,0.223c-0.183,0.043-0.364-0.041-0.455-0.2
	c-0.548-0.969-1.731-1.47-2.8-1.19c0.544,0.512,0.9,1.192,1.008,1.948c0.023,0.165-0.054,0.328-0.197,0.415
	c-1.682,1.018-2.793,2.577-3.046,4.276c-0.03,0.204-0.205,0.355-0.412,0.355h-1.311v2.498h1.831c0.16,0,0.307,0.092,0.375,0.235
	c1.149,2.385,3.881,3.927,6.961,3.927C676.136,1682.076,679.5,1679.275,679.5,1675.832z"/>
<path style="fill:none;" d="M799.5,1684.5h-5.833v-5.782h-3.334v5.782H784.5v-8.674c0-0.229,0.186-0.413,0.417-0.413
	c0.23,0,0.416,0.185,0.416,0.413v7.848h4.167v-5.782h5v5.782h4.167v-7.435c0-0.229,0.186-0.413,0.416-0.413
	c0.23,0,0.417,0.185,0.417,0.413V1684.5z M801.878,1675.705c0.163-0.161,0.163-0.423,0-0.584l-9.583-9.5
	c-0.163-0.161-0.427-0.161-0.59,0l-9.583,9.5c-0.163,0.161-0.163,0.423,0,0.584s0.427,0.161,0.589,0l9.289-9.208l9.289,9.208
	c0.081,0.081,0.188,0.121,0.294,0.121S801.797,1675.786,801.878,1675.705z M798.667,1669.631v-3.305h-3.334
	c-0.23,0-0.416,0.185-0.416,0.413s0.186,0.413,0.416,0.413h2.5v2.479c0,0.228,0.186,0.412,0.417,0.412
	C798.48,1670.043,798.667,1669.858,798.667,1669.631z"/>
<path style="fill:none;" d="M918.123,1680.934c0.889,0.636,1.854,1.139,2.895,1.515l-1.331,2.552
	c-0.547-0.165-1.078-0.388-1.6-0.672c-0.113-0.058-0.916-0.586-2.405-1.587c-1.173,0.513-2.47,0.77-3.896,0.77
	c-2.75,0-4.905-0.812-6.465-2.431c-1.56-1.62-2.339-3.895-2.339-6.825c0-2.924,0.782-5.195,2.345-6.819
	c1.562-1.623,3.685-2.436,6.361-2.436c2.653,0,4.759,0.812,6.312,2.436c1.554,1.624,2.332,3.896,2.332,6.819
	c0,1.545-0.217,2.906-0.646,4.078C919.359,1679.228,918.841,1680.095,918.123,1680.934z M915.217,1678.895
	c0.465-0.546,0.812-1.205,1.045-1.978c0.232-0.775,0.348-1.661,0.348-2.662c0-2.069-0.455-3.614-1.367-4.634
	c-0.913-1.022-2.104-1.532-3.578-1.532c-1.475,0-2.668,0.513-3.584,1.539c-0.915,1.025-1.373,2.566-1.373,4.627
	c0,2.091,0.458,3.657,1.373,4.695c0.916,1.038,2.073,1.557,3.475,1.557c0.521,0,1.013-0.086,1.477-0.257
	c-0.732-0.482-1.477-0.854-2.234-1.123l1.014-2.063C912.998,1677.47,914.134,1678.08,915.217,1678.895z"/>
<path style="fill:#262626;" d="M78.172,1791.239h-0.95c-0.202-0.529-0.714-0.905-1.312-0.905h-1.403
	c-0.202-0.529-0.713-0.905-1.312-0.905h-1.312v-3.572c0-1.023-0.832-1.856-1.855-1.856s-1.856,0.833-1.856,1.856v9.321l-1.581-1.354
	c-0.624-0.536-1.568-0.499-2.151,0.082c-0.547,0.548-0.62,1.403-0.196,1.999c0.145,0.248,3.575,6.084,4.933,7.896l0.15,0.2h8.769
	l1.566-5.478c0.243-0.855,0.367-1.738,0.367-2.623v-2.805C80.029,1792.072,79.196,1791.239,78.172,1791.239z M79.031,1795.899
	c0,0.792-0.111,1.583-0.33,2.349l-1.358,4.754h-7.515c-1.419-1.977-4.692-7.546-4.748-7.637c-0.165-0.234-0.138-0.552,0.064-0.755
	c0.216-0.214,0.565-0.228,0.797-0.03l3.227,2.767v-11.49c0-0.474,0.385-0.859,0.859-0.859c0.473,0,0.858,0.386,0.858,0.859v3.619
	v0.951v2.216h0.998v-2.216h1.312c0.224,0,0.406,0.182,0.406,0.406v0.499v1.311h0.997v-1.311h1.311c0.224,0,0.406,0.182,0.406,0.406
	v0.498v1.312h0.998v-1.312h0.858c0.474,0,0.859,0.385,0.859,0.858V1795.899z"/>
<path style="fill:#262626;" d="M193.729,1799.328v3.279c0,0.276-0.224,0.5-0.5,0.5h-10.657c-0.276,0-0.5-0.224-0.5-0.5v-17.216
	c0-0.276,0.224-0.5,0.5-0.5h10.657c0.276,0,0.5,0.224,0.5,0.5v3.279c0,0.276-0.224,0.5-0.5,0.5s-0.5-0.224-0.5-0.5v-2.779h-9.657
	v16.216h9.657v-2.779c0-0.276,0.224-0.5,0.5-0.5S193.729,1799.052,193.729,1799.328z M201.889,1794.602
	c0.025-0.06,0.039-0.125,0.039-0.192c0-0.066-0.014-0.132-0.039-0.192c-0.025-0.061-0.062-0.115-0.108-0.161l-4.099-4.099
	c-0.195-0.195-0.512-0.195-0.707,0c-0.195,0.195-0.195,0.512,0,0.707l3.246,3.245h-13.549c-0.276,0-0.5,0.224-0.5,0.5
	s0.224,0.5,0.5,0.5h13.549l-3.246,3.246c-0.195,0.196-0.195,0.512,0,0.707c0.098,0.098,0.226,0.146,0.354,0.146
	s0.256-0.049,0.354-0.146l4.099-4.099C201.827,1794.718,201.863,1794.663,201.889,1794.602z"/>
<path style="fill:#262626;" d="M321.495,1785.648h-2.798v-1.146c0-0.279-0.226-0.505-0.505-0.505h-2.477
	c-0.279,0-0.504,0.226-0.504,0.505v1.146h-6.422v-1.146c0-0.279-0.226-0.505-0.504-0.505h-2.477c-0.279,0-0.505,0.226-0.505,0.505
	v1.146h-2.798c-0.279,0-0.505,0.227-0.505,0.505v17.339c0,0.279,0.226,0.505,0.505,0.505h18.99c0.279,0,0.505-0.226,0.505-0.505
	v-17.339C322,1785.875,321.774,1785.648,321.495,1785.648z M316.22,1785.007h1.468v2.293h-1.468V1785.007z M306.312,1785.007h1.468
	v2.293h-1.468V1785.007z M305.303,1786.658v1.146c0,0.279,0.226,0.505,0.505,0.505h2.477c0.279,0,0.504-0.226,0.504-0.505v-1.146
	h6.422v1.146c0,0.279,0.226,0.505,0.504,0.505h2.477c0.279,0,0.505-0.226,0.505-0.505v-1.146h2.293v3.118h-17.981v-3.118H305.303z
	 M303.009,1802.987v-12.201h17.981v12.201H303.009z M319.844,1794.089c0.279,0,0.505-0.226,0.505-0.505s-0.226-0.505-0.505-0.505
	h-2.798v-1.146c0-0.279-0.226-0.505-0.505-0.505c-0.279,0-0.505,0.226-0.505,0.505v1.146h-3.531v-1.146
	c0-0.279-0.226-0.505-0.505-0.505c-0.279,0-0.504,0.226-0.504,0.505v1.146h-3.532v-1.146c0-0.279-0.226-0.505-0.504-0.505
	c-0.279,0-0.505,0.226-0.505,0.505v1.146h-2.798c-0.279,0-0.505,0.226-0.505,0.505s0.226,0.505,0.505,0.505h2.798v2.293h-2.798
	c-0.279,0-0.505,0.226-0.505,0.505s0.226,0.505,0.505,0.505h2.798v2.293h-2.798c-0.279,0-0.505,0.226-0.505,0.505
	s0.226,0.505,0.505,0.505h2.798v1.146c0,0.279,0.226,0.505,0.505,0.505c0.279,0,0.504-0.226,0.504-0.505v-1.146h3.532v1.146
	c0,0.279,0.226,0.505,0.504,0.505c0.279,0,0.505-0.226,0.505-0.505v-1.146h3.531v1.146c0,0.279,0.226,0.505,0.505,0.505
	c0.279,0,0.505-0.226,0.505-0.505v-1.146h2.798c0.279,0,0.505-0.226,0.505-0.505s-0.226-0.505-0.505-0.505h-2.798v-2.293h2.798
	c0.279,0,0.505-0.226,0.505-0.505s-0.226-0.505-0.505-0.505h-2.798v-2.293H319.844z M307.963,1794.089h3.532v2.293h-3.532V1794.089z
	 M307.963,1799.685v-2.293h3.532v2.293H307.963z M316.036,1799.685h-3.531v-2.293h3.531V1799.685z M316.036,1796.382h-3.531v-2.293
	h3.531V1796.382z"/>
<path style="fill:#262626;" d="M554.979,1797.008v-2.628c1.212-1.053,2.001-2.722,2.001-4.604c0-3.181-2.243-5.769-5.001-5.769
	c-2.757,0-5,2.588-5,5.769c0,1.901,0.805,3.586,2.039,4.637h-0.039v1.953l-3.665,1.67c-1.16,0.406-2.335,1.558-2.335,2.972v2h10v-1
	h-9v-1c0-0.823,0.716-1.695,1.707-2.045l4.293-1.953v-1.951c0.613,0.311,1.289,0.485,2,0.485c0.711,0,1.387-0.175,2-0.484v1.948
	H554.979z M551.979,1785.008c1.987,0,3.627,1.74,3.937,4.006c-0.011,0.002-0.018,0.001-0.029,0.003
	c-1.435,0.274-2.297-0.093-2.975-1.261l-0.452-0.775l-0.422,0.793c-0.387,0.728-1.941,1.234-3.094,1.234
	c-0.356,0-0.575-0.087-0.871-0.239C548.463,1786.623,550.064,1785.008,551.979,1785.008z M551.979,1794.544
	c-2.192,0-3.974-2.113-3.996-4.72c0.271,0.107,0.565,0.184,0.961,0.184c1.19,0,2.657-0.404,3.498-1.166
	c0.672,0.848,1.529,1.259,2.629,1.259c0.277,0,0.579-0.037,0.89-0.089C555.855,1792.529,554.118,1794.544,551.979,1794.544z
	 M558.46,1802.998c-0.004-0.153-0.006-0.268-0.006-0.344c0-0.449,0.063-0.837,0.19-1.164c0.093-0.245,0.244-0.493,0.451-0.743
	c0.153-0.183,0.428-0.448,0.823-0.799c0.396-0.35,0.654-0.628,0.773-0.836c0.118-0.207,0.178-0.435,0.178-0.68
	c0-0.445-0.174-0.837-0.521-1.174c-0.348-0.337-0.773-0.505-1.278-0.505c-0.487,0-0.895,0.152-1.221,0.457
	c-0.326,0.306-0.54,0.782-0.642,1.431l-1.177-0.14c0.105-0.869,0.421-1.534,0.944-1.996c0.523-0.462,1.216-0.693,2.076-0.693
	c0.911,0,1.638,0.248,2.181,0.744c0.543,0.496,0.814,1.096,0.814,1.799c0,0.407-0.095,0.782-0.286,1.126
	c-0.19,0.344-0.563,0.761-1.119,1.253c-0.373,0.33-0.616,0.574-0.73,0.73c-0.114,0.157-0.199,0.337-0.255,0.541
	c-0.055,0.203-0.087,0.534-0.095,0.992H558.46z M558.391,1805.293v-1.304h1.303v1.304H558.391z"/>
</svg>
