<?xml version="1.0" encoding="iso-8859-1"?>
<!-- Generator: Adobe Illustrator 19.0.1, SVG Export Plug-In . SVG Version: 6.00 Build 0)  -->
<svg version="1.1" id="Unicodes" xmlns="http://www.w3.org/2000/svg" xmlns:xlink="http://www.w3.org/1999/xlink" x="0px" y="0px"
	 width="24px" height="24px" viewBox="0 0 24 24" style="enable-background:new 0 0 24 24;" xml:space="preserve">
<path id="account" style="fill:#262626;" d="M18.707,16.045L15,14.357v-1.985c1.212-1.053,2.001-2.722,2.001-4.603
	C17.001,4.588,14.758,2,12,2C9.243,2,7,4.588,7,7.769c0,1.901,0.805,3.586,2.039,4.637H9v1.953l-3.665,1.67
	C4.175,16.435,3,17.586,3,19v2h18v-2C21,17.585,19.825,16.434,18.707,16.045z M12,3c1.987,0,3.627,1.74,3.936,4.006
	c-0.011,0.002-0.018,0.001-0.029,0.003c-1.434,0.274-2.297-0.093-2.975-1.261L12.48,4.973l-0.422,0.793
	C11.672,6.493,10.117,7,8.965,7C8.608,7,8.39,6.913,8.094,6.761C8.483,4.615,10.085,3,12,3z M8.004,7.816
	C8.274,7.924,8.569,8,8.965,8c1.191,0,2.657-0.404,3.498-1.166c0.672,0.848,1.529,1.259,2.629,1.259c0.277,0,0.579-0.037,0.89-0.089
	c-0.105,2.518-1.843,4.532-3.981,4.532C9.808,12.536,8.026,10.423,8.004,7.816z M20,20H4v-1c0-0.823,0.716-1.695,1.707-2.045
	L10,15.002v-1.951c0.613,0.311,1.289,0.485,2,0.485c0.711,0,1.387-0.175,2-0.484v1.95l4.335,1.97C19.284,17.304,20,18.176,20,19V20z
	"/>
</svg>
