<?xml version="1.0" encoding="iso-8859-1"?>
<!-- Generator: Adobe Illustrator 19.0.1, SVG Export Plug-In . SVG Version: 6.00 Build 0)  -->
<svg version="1.1" id="Unicodes" xmlns="http://www.w3.org/2000/svg" xmlns:xlink="http://www.w3.org/1999/xlink" x="0px" y="0px"
	 width="24px" height="24px" viewBox="0 0 24 24" style="enable-background:new 0 0 24 24;" xml:space="preserve">
<path style="fill:#262626;" d="M23.471,17.003H23v-0.578c0-1.79-1.324-3.262-3.028-3.262c-1.703,0-2.972,1.425-2.972,3.215v0.625
	h-0.509c-0.276,0-0.491,0-0.491,0.277v6c0,0.276,0.217,0.717,0.493,0.717h6.979c0.276,0,0.527-0.441,0.527-0.717v-6
	C24,17.003,23.747,17.003,23.471,17.003z M18,16.409c0-1.238,0.82-2.246,1.972-2.246c1.152,0,2.028,1.008,2.028,2.246v0.594h-4
	V16.409z M23,23.003h-6v-5h6V23.003z M20.531,20.823v0.674c0,0.276-0.224,0.5-0.5,0.5c-0.276,0-0.5-0.224-0.5-0.5l-0.032-0.653
	C19.206,20.669,19,20.363,19,19.997c0-0.553,0.447-1,1-1c0.553,0,1,0.447,1,1C21,20.35,20.808,20.645,20.531,20.823z M15,15v-2.628
	c1.212-1.053,2.001-2.722,2.001-4.603C17.001,4.588,14.758,2,12,2C9.243,2,7,4.588,7,7.769c0,1.901,0.805,3.586,2.039,4.637H9v1.953
	l-3.665,1.67C4.175,16.435,3,17.586,3,19v2h10v-1H4v-1c0-0.823,0.716-1.695,1.707-2.045L10,15.002v-1.951
	c0.613,0.311,1.289,0.485,2,0.485c0.711,0,1.387-0.175,2-0.484V15H15z M12,3c1.987,0,3.627,1.74,3.936,4.006
	c-0.011,0.002-0.018,0.001-0.029,0.003c-1.434,0.274-2.297-0.093-2.975-1.261L12.48,4.973l-0.422,0.793
	C11.672,6.493,10.117,7,8.965,7C8.608,7,8.39,6.913,8.094,6.761C8.483,4.615,10.085,3,12,3z M12,12.536
	c-2.192,0-3.974-2.113-3.996-4.72C8.274,7.924,8.569,8,8.965,8c1.191,0,2.657-0.404,3.498-1.166
	c0.672,0.848,1.529,1.259,2.629,1.259c0.277,0,0.579-0.037,0.89-0.089C15.876,10.521,14.139,12.536,12,12.536z"/>
</svg>
