<?xml version="1.0" encoding="iso-8859-1"?>
<!-- Generator: Adobe Illustrator 19.0.1, SVG Export Plug-In . SVG Version: 6.00 Build 0)  -->
<svg version="1.1" id="Unicodes" xmlns="http://www.w3.org/2000/svg" xmlns:xlink="http://www.w3.org/1999/xlink" x="0px" y="0px"
	 width="24px" height="24px" viewBox="0 0 24 24" style="enable-background:new 0 0 24 24;" xml:space="preserve">
<path style="fill:#262626;" d="M15,15v-2.628c1.212-1.053,2.001-2.722,2.001-4.603C17.001,4.588,14.758,2,12,2
	C9.243,2,7,4.588,7,7.769c0,1.901,0.805,3.586,2.039,4.637H9v1.953l-3.665,1.67C4.175,16.435,3,17.586,3,19v2h10v-1H4v-1
	c0-0.823,0.716-1.695,1.707-2.045L10,15.002v-1.951c0.613,0.311,1.289,0.485,2,0.485c0.711,0,1.387-0.175,2-0.484V15H15z M12,3
	c1.987,0,3.627,1.74,3.937,4.006c-0.011,0.002-0.018,0.001-0.029,0.003c-1.435,0.274-2.297-0.093-2.975-1.261l-0.452-0.775
	l-0.422,0.793C11.672,6.493,10.117,7,8.965,7C8.608,7,8.39,6.913,8.094,6.761C8.483,4.615,10.085,3,12,3z M12,12.536
	c-2.192,0-3.974-2.113-3.996-4.72C8.274,7.924,8.569,8,8.965,8c1.191,0,2.657-0.404,3.498-1.166
	c0.672,0.848,1.529,1.259,2.629,1.259c0.277,0,0.579-0.037,0.89-0.089C15.876,10.521,14.139,12.536,12,12.536z M18.481,20.99
	c-0.004-0.153-0.006-0.267-0.006-0.344c0-0.449,0.063-0.837,0.19-1.164c0.093-0.245,0.244-0.493,0.451-0.743
	c0.153-0.183,0.428-0.448,0.823-0.799c0.396-0.35,0.654-0.628,0.774-0.836c0.118-0.207,0.178-0.435,0.178-0.68
	c0-0.445-0.174-0.837-0.522-1.174c-0.348-0.337-0.773-0.505-1.278-0.505c-0.487,0-0.895,0.152-1.221,0.457
	c-0.326,0.306-0.54,0.782-0.642,1.431l-1.177-0.14c0.105-0.869,0.421-1.534,0.944-1.996c0.523-0.462,1.216-0.693,2.076-0.693
	c0.911,0,1.638,0.248,2.181,0.744c0.543,0.496,0.813,1.096,0.813,1.799c0,0.407-0.095,0.782-0.286,1.126
	c-0.191,0.344-0.564,0.761-1.119,1.253c-0.373,0.33-0.616,0.574-0.73,0.73c-0.114,0.157-0.199,0.337-0.255,0.541
	c-0.055,0.203-0.087,0.534-0.095,0.992H18.481z M18.411,23.285v-1.304h1.303v1.304H18.411z"/>
</svg>
