<?xml version="1.0" encoding="iso-8859-1"?>
<!-- Generator: Adobe Illustrator 19.0.1, SVG Export Plug-In . SVG Version: 6.00 Build 0)  -->
<svg version="1.1" id="Unicodes" xmlns="http://www.w3.org/2000/svg" xmlns:xlink="http://www.w3.org/1999/xlink" x="0px" y="0px"
	 width="24px" height="24px" viewBox="0 0 24 24" style="enable-background:new 0 0 24 24;" xml:space="preserve">
<path style="fill:#262626;" d="M22,8.698C22,5.005,18.994,2,15.3,2c-3.665,0-6.648,2.957-6.696,6.608C4.954,8.661,2,11.641,2,15.302
	C2,18.995,5.006,22,8.7,22c3.665,0,6.648-2.957,6.696-6.608C19.046,15.339,22,12.359,22,8.698z M8.7,20.985
	c-3.127,0-5.672-2.549-5.672-5.683c0-3.124,2.529-5.666,5.643-5.683c0.409,2.954,2.748,5.293,5.702,5.705
	C14.359,18.448,11.82,20.985,8.7,20.985z M15.3,14.382c-3.128,0-5.673-2.55-5.673-5.684c0-3.134,2.545-5.683,5.673-5.683
	c3.127,0,5.672,2.549,5.672,5.683C20.972,11.832,18.427,14.382,15.3,14.382z M18,11.5c0,0.276-0.224,0.5-0.5,0.5h-3
	c-0.276,0-0.5-0.224-0.5-0.5s0.224-0.5,0.5-0.5c0.16-0.021,0.5-0.985,0.5-1.396V9h-1c-0.276,0-0.5-0.194-0.5-0.471
	C13.5,8.253,13.724,8,14,8h1V6.104c0-0.827,0.673-1.5,1.5-1.5c0.827,0,1.5,0.673,1.5,1.5c0,0.276-0.224,0.5-0.5,0.5
	c-0.276,0-0.5-0.224-0.5-0.5c0-0.276-0.224-0.5-0.5-0.5c-0.276,0-0.5,0.224-0.5,0.5V8h1c0.276,0,0.5,0.253,0.5,0.529
	C17.5,8.806,17.276,9,17,9h-1v0.604c0,0.304-0.087,1.063-0.245,1.396H17.5C17.776,11,18,11.224,18,11.5z M11,18.5
	c0,0.276-0.224,0.5-0.5,0.5h-3C7.224,19,7,18.776,7,18.5S7.224,18,7.5,18C7.66,17.979,8,16.911,8,16.5L8.027,16H7
	c-0.276,0-0.5-0.224-0.5-0.5S6.724,15,7,15h1v-2c0-0.827,0.673-1.5,1.5-1.5c0.827,0,1.5,0.673,1.5,1.5c0,0.276-0.224,0.5-0.5,0.5
	c-0.276,0-0.5-0.224-0.5-0.5c0-0.276-0.224-0.5-0.5-0.5C9.224,12.5,9,12.724,9,13v2h1c0.276,0,0.5,0.224,0.5,0.5S10.276,16,10,16
	H9.027L9,16.5c0,0.304-0.06,1.167-0.218,1.5H10.5C10.776,18,11,18.224,11,18.5z"/>
</svg>
