<?xml version="1.0" encoding="iso-8859-1"?>
<!-- Generator: Adobe Illustrator 19.0.1, SVG Export Plug-In . SVG Version: 6.00 Build 0)  -->
<svg version="1.1" id="Unicodes" xmlns="http://www.w3.org/2000/svg" xmlns:xlink="http://www.w3.org/1999/xlink" x="0px" y="0px"
	 width="24px" height="24px" viewBox="0 0 24 24" style="enable-background:new 0 0 24 24;" xml:space="preserve">
<path style="fill:#262626;" d="M21.495,3.651h-2.798V2.505C18.697,2.226,18.472,2,18.192,2h-2.477c-0.279,0-0.504,0.226-0.504,0.505
	v1.146H8.789V2.505C8.789,2.226,8.563,2,8.285,2H5.808C5.528,2,5.303,2.226,5.303,2.505v1.146H2.505C2.226,3.651,2,3.878,2,4.156
	v17.339C2,21.774,2.226,22,2.505,22h18.99C21.774,22,22,21.774,22,21.495V4.156C22,3.878,21.774,3.651,21.495,3.651z M16.22,3.01
	h1.468v2.293H16.22V3.01z M6.312,3.01H7.78v2.293H6.312V3.01z M5.303,4.661v1.147c0,0.279,0.226,0.505,0.505,0.505h2.477
	c0.279,0,0.504-0.226,0.504-0.505V4.661h6.422v1.147c0,0.279,0.226,0.505,0.504,0.505h2.477c0.279,0,0.505-0.226,0.505-0.505V4.661
	h2.293v3.118H3.009V4.661H5.303z M3.009,20.99V8.789H20.99V20.99H3.009z M19.844,12.092c0.279,0,0.505-0.226,0.505-0.505
	c0-0.279-0.226-0.505-0.505-0.505h-2.798V9.936c0-0.279-0.226-0.505-0.505-0.505c-0.279,0-0.505,0.226-0.505,0.505v1.146h-3.531
	V9.936c0-0.279-0.226-0.505-0.505-0.505c-0.279,0-0.504,0.226-0.504,0.505v1.146H7.963V9.936c0-0.279-0.226-0.505-0.504-0.505
	c-0.279,0-0.505,0.226-0.505,0.505v1.146H4.156c-0.279,0-0.505,0.226-0.505,0.505c0,0.279,0.226,0.505,0.505,0.505h2.798v2.293
	H4.156c-0.279,0-0.505,0.226-0.505,0.505s0.226,0.505,0.505,0.505h2.798v2.293H4.156c-0.279,0-0.505,0.226-0.505,0.505
	s0.226,0.505,0.505,0.505h2.798v1.146c0,0.279,0.226,0.505,0.505,0.505c0.279,0,0.504-0.226,0.504-0.505v-1.146h3.532v1.146
	c0,0.279,0.226,0.505,0.504,0.505c0.279,0,0.505-0.226,0.505-0.505v-1.146h3.531v1.146c0,0.279,0.226,0.505,0.505,0.505
	c0.279,0,0.505-0.226,0.505-0.505v-1.146h2.798c0.279,0,0.505-0.226,0.505-0.505s-0.226-0.505-0.505-0.505h-2.798v-2.293h2.798
	c0.279,0,0.505-0.226,0.505-0.505s-0.226-0.505-0.505-0.505h-2.798v-2.293H19.844z M7.963,12.092h3.532v2.293H7.963V12.092z
	 M7.963,17.688v-2.293h3.532v2.293H7.963z M16.036,17.688h-3.531v-2.293h3.531V17.688z M16.036,14.385h-3.531v-2.293h3.531V14.385z"
	/>
</svg>
