<?xml version="1.0" encoding="iso-8859-1"?>
<!-- Generator: Adobe Illustrator 19.0.1, SVG Export Plug-In . SVG Version: 6.00 Build 0)  -->
<svg version="1.1" id="Unicodes" xmlns="http://www.w3.org/2000/svg" xmlns:xlink="http://www.w3.org/1999/xlink" x="0px" y="0px"
	 width="24px" height="24px" viewBox="0 0 24 24" style="enable-background:new 0 0 24 24;" xml:space="preserve">
<path style="fill:#262626;" d="M21.75,5.001H2.25C1.009,5.001,0,6.01,0,7.251v9.429c0,1.24,1.009,2.336,2.25,2.336h19.484
	c1.241,0,2.266-1.096,2.266-2.336V7.251C24,6.01,22.991,5.001,21.75,5.001z M2.25,6.001h19.5c0.687,0,1.25,0.562,1.25,1.25
	l0.016,0.765L1,8V7.251C1,6.563,1.562,6.001,2.25,6.001z M21.75,18.016H2.25c-0.688,0-1.25-0.562-1.25-1.25V10h22v6.766
	C23,17.453,22.437,18.016,21.75,18.016z M14.391,12.246v-0.532c0.229-0.012,0.393-0.028,0.483-0.05
	c0.145-0.034,0.266-0.104,0.36-0.21c0.063-0.07,0.111-0.164,0.143-0.284c0.019-0.072,0.026-0.124,0.026-0.16h0.611v3.981h-0.75
	v-2.746H14.391z M16.613,14.218c0.104-0.267,0.353-0.547,0.742-0.843c0.336-0.258,0.555-0.444,0.653-0.556
	c0.152-0.172,0.229-0.362,0.229-0.57c0-0.168-0.045-0.308-0.13-0.417c-0.089-0.112-0.215-0.169-0.377-0.169
	c-0.222,0-0.374,0.088-0.454,0.266c-0.048,0.102-0.074,0.264-0.082,0.488h-0.711c0.012-0.338,0.07-0.612,0.172-0.822
	C16.852,11.199,17.197,11,17.697,11c0.394,0,0.707,0.118,0.941,0.35c0.231,0.232,0.35,0.54,0.35,0.928
	c0,0.292-0.083,0.554-0.248,0.785c-0.11,0.151-0.286,0.319-0.531,0.506l-0.293,0.222c-0.185,0.143-0.311,0.24-0.376,0.305
	c-0.07,0.061-0.126,0.134-0.175,0.216h1.628V15h-2.55C16.451,14.714,16.507,14.454,16.613,14.218z M20.19,13.711
	c0,0.156,0.024,0.285,0.07,0.387c0.086,0.188,0.244,0.281,0.471,0.281c0.141,0,0.264-0.051,0.367-0.154
	c0.104-0.102,0.156-0.25,0.156-0.443c0-0.254-0.096-0.426-0.289-0.51c-0.11-0.049-0.283-0.072-0.521-0.072V12.65
	c0.232-0.002,0.394-0.027,0.487-0.072c0.156-0.076,0.234-0.227,0.234-0.455c0-0.148-0.039-0.269-0.12-0.363
	c-0.081-0.092-0.195-0.137-0.341-0.137c-0.17,0-0.292,0.055-0.373,0.17c-0.078,0.115-0.117,0.267-0.111,0.458h-0.67
	c0.008-0.195,0.039-0.377,0.094-0.55c0.061-0.152,0.151-0.291,0.276-0.42c0.094-0.092,0.206-0.162,0.332-0.209
	C20.383,11.026,20.542,11,20.729,11c0.346,0,0.625,0.096,0.838,0.287c0.214,0.193,0.319,0.449,0.319,0.773
	c0,0.229-0.064,0.422-0.189,0.58c-0.081,0.1-0.164,0.164-0.253,0.201c0.065,0,0.159,0.059,0.281,0.18
	c0.183,0.18,0.273,0.428,0.273,0.74c0,0.328-0.106,0.617-0.32,0.867C21.466,14.875,21.152,15,20.734,15
	c-0.513,0-0.87-0.18-1.07-0.539c-0.105-0.189-0.164-0.439-0.176-0.75H20.19z"/>
</svg>
