<?xml version="1.0" encoding="iso-8859-1"?>
<!-- Generator: Adobe Illustrator 19.0.1, SVG Export Plug-In . SVG Version: 6.00 Build 0)  -->
<svg version="1.1" id="Unicodes" xmlns="http://www.w3.org/2000/svg" xmlns:xlink="http://www.w3.org/1999/xlink" x="0px" y="0px"
	 width="24px" height="24px" viewBox="0 0 24 24" style="enable-background:new 0 0 24 24;" xml:space="preserve">
<path style="fill:#262626;" d="M21,9.5C21,9.224,20.776,9,20.5,9h-3C17.224,9,17,9.224,17,9.5V21h-0.991l-0.024-6.5
	c0-0.276-0.224-0.5-0.5-0.5H12.5c-0.276,0-0.5,0.224-0.5,0.5V21h-1v-7.5c0-0.276-0.224-0.5-0.5-0.5h-3C7.224,13,7,13.224,7,13.5V21
	H6v-3.5c0-0.276-0.224-0.516-0.5-0.516h-3c-0.276,0-0.5,0.239-0.5,0.516V21c0,0,0,0.248,0,0.5C2,21.776,2.224,22,2.5,22h0.357H20.5
	c0.276,0,0.5-0.224,0.5-0.5C21,21.248,21,9.5,21,9.5z M5,21.031H3v-3.047h2V21.031z M10,21H8v-7h2V21z M15,21h-2v-6h2V21z M20,21h-2
	V10h2V21z M4.129,12.862c0.725,0,1.314-0.591,1.314-1.317c0-0.135-0.039-0.258-0.077-0.38l3.059-2.55
	C8.607,8.712,8.807,8.78,9.027,8.78c0.396,0,0.74-0.185,0.981-0.463L12.63,9.19c0.051,0.68,0.603,1.222,1.296,1.222
	c0.727,0,1.317-0.59,1.317-1.316c0-0.214-0.063-0.408-0.154-0.587l3.334-3.892c0.128,0.041,0.258,0.081,0.399,0.081
	c0.726,0,1.317-0.591,1.317-1.318c0-0.725-0.591-1.315-1.317-1.315c-0.725,0-1.314,0.59-1.314,1.315
	c0,0.214,0.063,0.409,0.154,0.587l-3.336,3.894c-0.128-0.042-0.259-0.081-0.4-0.081c-0.396,0-0.739,0.184-0.981,0.462l-2.619-0.873
	C10.274,6.69,9.72,6.147,9.027,6.147c-0.726,0-1.316,0.59-1.316,1.315c0,0.135,0.039,0.258,0.077,0.381L4.73,10.393
	c-0.183-0.096-0.382-0.165-0.602-0.165c-0.727,0-1.317,0.59-1.317,1.316S3.402,12.862,4.129,12.862z M18.822,3.065
	c0.175,0,0.317,0.142,0.317,0.315c0,0.175-0.142,0.318-0.317,0.318c-0.174,0-0.314-0.143-0.314-0.318
	C18.508,3.206,18.648,3.065,18.822,3.065z M13.926,8.78c0.175,0,0.317,0.142,0.317,0.315c0,0.174-0.143,0.316-0.317,0.316
	c-0.174,0-0.315-0.142-0.315-0.316C13.61,8.922,13.752,8.78,13.926,8.78z M9.027,7.147c0.175,0,0.316,0.142,0.316,0.315
	c0,0.175-0.142,0.318-0.316,0.318S8.711,7.638,8.711,7.462C8.711,7.289,8.852,7.147,9.027,7.147z M4.129,11.229
	c0.174,0,0.314,0.142,0.314,0.316c0,0.175-0.141,0.317-0.314,0.317c-0.175,0-0.317-0.142-0.317-0.317
	C3.811,11.371,3.954,11.229,4.129,11.229z"/>
</svg>
