<?xml version="1.0" encoding="iso-8859-1"?>
<!-- Generator: Adobe Illustrator 19.0.1, SVG Export Plug-In . SVG Version: 6.00 Build 0)  -->
<svg version="1.1" id="Unicodes" xmlns="http://www.w3.org/2000/svg" xmlns:xlink="http://www.w3.org/1999/xlink" x="0px" y="0px"
	 width="24px" height="24px" viewBox="0 0 24 24" style="enable-background:new 0 0 24 24;" xml:space="preserve">
<path style="fill:#262626;" d="M17.992,9.682c0-0.942-0.781-1.708-1.723-1.708L7.848,7.989c-0.941,0-1.855,0.766-1.855,1.708v5.635
	c0,0.943,0.906,1.709,1.848,1.709l8.437-0.016c0.941,0,1.715-0.766,1.715-1.709V9.682z M16.992,15.316
	c0,0.391-0.332,0.709-0.723,0.709l-8.422,0.016c-0.391,0-0.855-0.318-0.855-0.709V9.697c0-0.391,0.457-0.708,0.848-0.708
	l8.437-0.016c0.391,0,0.715,0.317,0.715,0.708V15.316z M15.795,14.144c0.212,0.176,0.24,0.492,0.063,0.703
	c-0.099,0.119-0.241,0.18-0.384,0.18c-0.113,0-0.227-0.037-0.32-0.115l-2.146-1.787l-0.733,0.59c-0.09,0.07-0.198,0.106-0.307,0.106
	c-0.108,0-0.217-0.035-0.307-0.106l-0.846-0.68l-2.033,1.877c-0.094,0.078-0.207,0.115-0.32,0.115c-0.143,0-0.285-0.061-0.384-0.18
	c-0.177-0.211-0.148-0.527,0.064-0.703l1.887-1.743l-1.873-1.507c-0.219-0.169-0.258-0.483-0.088-0.702
	c0.169-0.218,0.484-0.257,0.701-0.087l3.199,2.581l3.199-2.581c0.216-0.17,0.53-0.131,0.701,0.087
	c0.17,0.218,0.131,0.532-0.088,0.702l-1.978,1.591L15.795,14.144z M6.72,4.186c-0.148-0.233-0.079-0.542,0.153-0.69
	c3.135-1.994,7.339-1.994,10.47,0c0.233,0.148,0.302,0.457,0.153,0.69c-0.149,0.234-0.459,0.301-0.69,0.153
	c-2.809-1.79-6.583-1.79-9.396,0C7.327,4.392,7.234,4.418,7.142,4.418C6.977,4.418,6.815,4.335,6.72,4.186z M19.629,17.205
	C20.526,15.801,21,14.176,21,12.507c0-1.669-0.474-3.293-1.371-4.697c-0.148-0.233-0.08-0.542,0.152-0.691
	c0.231-0.148,0.541-0.082,0.691,0.152C21.472,8.837,22,10.648,22,12.507c0,1.86-0.528,3.67-1.527,5.235
	c-0.096,0.15-0.258,0.232-0.422,0.232c-0.093,0-0.186-0.025-0.27-0.08C19.549,17.746,19.48,17.438,19.629,17.205z M3.488,17.734
	C2.49,16.17,1.963,14.359,1.963,12.5c0-1.86,0.527-3.67,1.525-5.235c0.15-0.233,0.461-0.299,0.69-0.152
	C4.412,7.26,4.48,7.569,4.332,7.802C3.436,9.206,2.963,10.83,2.963,12.5c0,1.668,0.474,3.293,1.369,4.698
	c0.148,0.232,0.08,0.541-0.153,0.689c-0.083,0.055-0.176,0.08-0.269,0.08C3.745,17.967,3.584,17.885,3.488,17.734z M17.357,19.73
	c0.149,0.232,0.08,0.541-0.153,0.689c-1.565,0.998-3.375,1.525-5.233,1.525c-1.857,0-3.669-0.527-5.236-1.525
	c-0.232-0.147-0.302-0.457-0.153-0.689c0.149-0.233,0.459-0.301,0.69-0.154c2.813,1.789,6.585,1.791,9.396,0
	C16.898,19.432,17.208,19.496,17.357,19.73z M21.816,21.146c0.195,0.195,0.195,0.512,0,0.707C21.719,21.951,21.591,22,21.463,22
	c-0.128,0-0.256-0.049-0.354-0.146l-3-3c-0.195-0.195-0.195-0.512,0-0.707c0.195-0.195,0.512-0.195,0.707,0L21.816,21.146z
	 M5.817,18.146c0.195,0.195,0.195,0.512,0,0.707l-3.001,3C2.719,21.951,2.591,22,2.463,22c-0.128,0-0.256-0.049-0.354-0.146
	c-0.195-0.195-0.195-0.512,0-0.707l3.001-3C5.306,17.951,5.622,17.951,5.817,18.146z M2.109,2.853c-0.195-0.195-0.195-0.512,0-0.707
	C2.207,2.049,2.335,2,2.463,2c0.128,0,0.256,0.049,0.353,0.147l3,3c0.195,0.195,0.195,0.512,0,0.707
	c-0.195,0.195-0.512,0.195-0.707,0L2.109,2.853z M18.108,5.853c-0.195-0.195-0.195-0.512,0-0.707l3.001-3
	C21.207,2.048,21.335,2,21.463,2c0.128,0,0.256,0.049,0.354,0.146c0.195,0.195,0.195,0.512,0,0.707l-3.001,3
	C18.62,6.048,18.304,6.048,18.108,5.853z"/>
</svg>
