<?xml version="1.0" encoding="iso-8859-1"?>
<!-- Generator: Adobe Illustrator 19.0.1, SVG Export Plug-In . SVG Version: 6.00 Build 0)  -->
<svg version="1.1" id="Unicodes" xmlns="http://www.w3.org/2000/svg" xmlns:xlink="http://www.w3.org/1999/xlink" x="0px" y="0px"
	 width="24px" height="24px" viewBox="0 0 24 24" style="enable-background:new 0 0 24 24;" xml:space="preserve">
<path style="fill:#262626;" d="M19.029,11.993c0,0.116-0.046,0.227-0.128,0.309l-1.89,1.89c-0.085,0.085-0.196,0.127-0.308,0.127
	s-0.223-0.042-0.307-0.127c-0.17-0.17-0.17-0.444,0-0.614l1.119-1.119H5.406c-0.253,0-0.457-0.206-0.457-0.458
	s0.204-0.458,0.457-0.458h12.116l-1.125-1.118c-0.171-0.169-0.171-0.444-0.002-0.614c0.169-0.17,0.445-0.17,0.615-0.002l1.89,1.879
	C18.982,11.768,19.029,11.879,19.029,11.993z M22,12c0,5.514-4.486,10-10,10C6.486,22,2,17.514,2,12C2,6.485,6.486,2,12,2
	C17.514,2,22,6.485,22,12z M21.13,12c0-5.035-4.096-9.131-9.13-9.131c-5.034,0-9.13,4.096-9.13,9.131s4.096,9.131,9.13,9.131
	C17.034,21.131,21.13,17.035,21.13,12z"/>
</svg>
