<?xml version="1.0" encoding="iso-8859-1"?>
<!-- Generator: Adobe Illustrator 19.0.1, SVG Export Plug-In . SVG Version: 6.00 Build 0)  -->
<svg version="1.1" id="Unicodes" xmlns="http://www.w3.org/2000/svg" xmlns:xlink="http://www.w3.org/1999/xlink" x="0px" y="0px"
	 width="24px" height="24px" viewBox="0 0 24 24" style="enable-background:new 0 0 24 24;" xml:space="preserve">
<path style="fill:#262626;" d="M12,2C6.486,2,2,6.486,2,12s4.486,10,10,10c5.514,0,10-4.486,10-10S17.514,2,12,2z M12,21.131
	c-5.035,0-9.131-4.096-9.131-9.131S6.965,2.869,12,2.869c5.035,0,9.131,4.096,9.131,9.131S17.035,21.131,12,21.131z M18.592,9.774
	v2.71c0,0.244-0.196,0.441-0.44,0.441c-0.243,0-0.441-0.197-0.441-0.441v-1.646l-1.959,1.959c-0.164,0.164-0.425,0.172-0.601,0.022
	l-2.686-2.326L9.566,16.91c-0.068,0.151-0.215,0.25-0.381,0.259c-0.007,0-0.014,0-0.02,0c-0.157,0-0.304-0.084-0.383-0.221
	L4.788,9.992C4.666,9.78,4.739,9.51,4.95,9.39C5.161,9.269,5.43,9.34,5.552,9.552l3.566,6.209l2.787-6.171
	c0.058-0.126,0.171-0.219,0.308-0.249c0.133-0.03,0.279,0.006,0.383,0.098l2.823,2.444l1.669-1.669h-1.641
	c-0.243,0-0.44-0.196-0.44-0.44c0-0.244,0.197-0.44,0.44-0.44h2.7c0.06-0.001,0.118,0.011,0.174,0.034
	c0.107,0.045,0.192,0.13,0.237,0.237C18.581,9.659,18.593,9.717,18.592,9.774z"/>
</svg>
