<?xml version="1.0" encoding="iso-8859-1"?>
<!-- Generator: Adobe Illustrator 19.0.1, SVG Export Plug-In . SVG Version: 6.00 Build 0)  -->
<svg version="1.1" id="Unicodes" xmlns="http://www.w3.org/2000/svg" xmlns:xlink="http://www.w3.org/1999/xlink" x="0px" y="0px"
	 width="24px" height="24px" viewBox="0 0 24 24" style="enable-background:new 0 0 24 24;" xml:space="preserve">
<path style="fill:#262626;" d="M12,2C6.486,2,2,6.486,2,12s4.486,10,10,10c5.514,0,10-4.486,10-10S17.514,2,12,2z M12,21.131
	c-5.034,0-9.13-4.096-9.13-9.131S6.966,2.869,12,2.869c5.034,0,9.13,4.096,9.13,9.131S17.034,21.131,12,21.131z M18.331,15.153
	c-0.086,0.086-0.199,0.129-0.311,0.129c-0.113,0-0.226-0.043-0.312-0.129l-1.191-1.191v1.748c0,1.517-1.234,2.75-2.751,2.75
	c-1.517,0-2.751-1.233-2.751-2.75V8.644c0-1.09-0.887-1.976-1.977-1.976S7.061,7.555,7.061,8.644v2.337l0,0
	c0,0.214-0.173,0.387-0.387,0.387s-0.387-0.173-0.387-0.387V8.618H6.29c0.015-1.505,1.24-2.724,2.748-2.724s2.733,1.219,2.749,2.724
	h0.002v7.092c0,1.09,0.887,1.977,1.977,1.977c1.09,0,1.978-0.887,1.978-1.977v-1.804l-1.241,1.241c-0.171,0.173-0.452,0.173-0.623,0
	c-0.173-0.173-0.173-0.451,0-0.624l1.911-1.911c0.166-0.167,0.459-0.166,0.624,0l1.917,1.917
	C18.504,14.702,18.504,14.981,18.331,15.153z"/>
</svg>
