<?xml version="1.0" encoding="iso-8859-1"?>
<!-- Generator: Adobe Illustrator 19.0.1, SVG Export Plug-In . SVG Version: 6.00 Build 0)  -->
<svg version="1.1" id="Unicodes" xmlns="http://www.w3.org/2000/svg" xmlns:xlink="http://www.w3.org/1999/xlink" x="0px" y="0px"
	 width="24px" height="24px" viewBox="0 0 24 24" style="enable-background:new 0 0 24 24;" xml:space="preserve">
<path style="fill:#262626;" d="M22.041,12c0,5.546-4.495,10.041-10.041,10.041C6.454,22.041,1.959,17.546,1.959,12
	C1.959,6.454,6.454,1.959,12,1.959C17.546,1.959,22.041,6.454,22.041,12z M12,3c-4.971,0-9,4.029-9,9c0,4.971,4.029,9,9,9
	c4.971,0,9-4.029,9-9C21,7.029,16.971,3,12,3z M12.127,7.351c0,0-0.09-0.388-0.448-0.388c-0.358,0-0.507,0.373-0.507,0.373
	s-0.06,4.863,0,4.879c0.134,0.343,5.191,4.759,5.191,4.759s0.339,0.189,0.597-0.075c0.258-0.263,0.06-0.596,0.06-0.596l-4.908-4.506
	L12.127,7.351z"/>
</svg>
