<?xml version="1.0" encoding="iso-8859-1"?>
<!-- Generator: Adobe Illustrator 19.0.1, SVG Export Plug-In . SVG Version: 6.00 Build 0)  -->
<svg version="1.1" id="Unicodes" xmlns="http://www.w3.org/2000/svg" xmlns:xlink="http://www.w3.org/1999/xlink" x="0px" y="0px"
	 width="24px" height="24px" viewBox="0 0 24 24" style="enable-background:new 0 0 24 24;" xml:space="preserve">
<path style="fill:#262626;" d="M4.96,6.33L2.098,2.801C1.924,2.586,1.957,2.272,2.171,2.098c0.216-0.174,0.53-0.142,0.703,0.073
	l2.643,3.258l5.425-1.855c0.009-0.003,0.018-0.001,0.027-0.003c0.032-0.009,0.065-0.011,0.1-0.013
	c0.031-0.002,0.061-0.006,0.092-0.003c0.031,0.003,0.061,0.015,0.09,0.024c0.032,0.01,0.063,0.019,0.093,0.035
	c0.009,0.005,0.019,0.005,0.026,0.01l9.58,6.029c0.234,0.148,0.305,0.456,0.157,0.689c-0.095,0.151-0.258,0.234-0.424,0.234
	c-0.091,0-0.183-0.025-0.266-0.077l-9.378-5.902l-5.526,1.89H5.512L5.51,6.488C5.466,6.503,5.42,6.508,5.376,6.51
	c-0.009,0-0.019,0.004-0.027,0.004l0,0c-0.001,0-0.001,0-0.001,0v0c-0.091,0-0.176-0.033-0.254-0.08
	C5.07,6.42,5.053,6.404,5.032,6.386C5.009,6.366,4.98,6.354,4.96,6.33z M16.69,5.882c0.147,0,0.294-0.065,0.394-0.19l1.451-1.85
	c0.171-0.217,0.133-0.532-0.084-0.702c-0.219-0.171-0.531-0.131-0.703,0.085l-1.449,1.848c-0.172,0.217-0.135,0.531,0.082,0.702
	C16.473,5.847,16.582,5.882,16.69,5.882z M12.236,11.671c0.037-0.027,0.078-0.048,0.108-0.086l0.001-0.001c0,0,0.001,0,0.001,0
	v-0.001l2.424-3.086c0.17-0.217,0.133-0.531-0.085-0.702c-0.217-0.171-0.531-0.132-0.702,0.084l-2.117,2.697L8.44,7.909
	C8.437,7.907,8.435,7.907,8.433,7.905C8.43,7.903,8.43,7.901,8.427,7.899C8.401,7.881,8.373,7.875,8.346,7.862
	C8.314,7.847,8.286,7.828,8.254,7.82C8.223,7.812,8.19,7.815,8.158,7.813C8.127,7.812,8.095,7.806,8.062,7.81
	c-0.031,0.004-0.06,0.019-0.09,0.03c-0.03,0.01-0.062,0.017-0.09,0.033C7.854,7.889,7.832,7.916,7.807,7.938
	c-0.021,0.02-0.049,0.034-0.068,0.059C7.736,7.999,7.736,8.002,7.734,8.004C7.732,8.007,7.73,8.008,7.728,8.01l-4.187,5.782
	c-0.162,0.224-0.113,0.537,0.111,0.698c0.088,0.064,0.191,0.095,0.293,0.095c0.154,0,0.307-0.072,0.404-0.207l3.885-5.363
	l3.41,2.654c0.091,0.071,0.199,0.106,0.307,0.106c0.074,0,0.148-0.017,0.216-0.049C12.193,11.714,12.213,11.688,12.236,11.671z
	 M22,16.002C22,18.758,19.757,21,17,21c-2.758,0-5-2.242-5-4.998C12,13.244,14.242,11,17,11C19.757,11,22,13.244,22,16.002z
	 M20.992,16.002c0-2.2-1.791-3.99-3.992-3.99c-2.202,0-3.993,1.79-3.993,3.99c0,2.198,1.791,3.986,3.993,3.986
	C19.201,19.988,20.992,18.2,20.992,16.002z M19,15.5h-1.5V14c0-0.276-0.224-0.5-0.5-0.5c-0.276,0-0.5,0.224-0.5,0.5v1.5H15
	c-0.276,0-0.5,0.224-0.5,0.5s0.224,0.5,0.5,0.5h1.5V18c0,0.276,0.224,0.5,0.5,0.5c0.276,0,0.5-0.224,0.5-0.5v-1.5H19
	c0.275,0,0.5-0.224,0.5-0.5S19.275,15.5,19,15.5z"/>
</svg>
