<?xml version="1.0" encoding="iso-8859-1"?>
<!-- Generator: Adobe Illustrator 19.0.1, SVG Export Plug-In . SVG Version: 6.00 Build 0)  -->
<svg version="1.1" id="Unicodes" xmlns="http://www.w3.org/2000/svg" xmlns:xlink="http://www.w3.org/1999/xlink" x="0px" y="0px"
	 width="24px" height="24px" viewBox="0 0 24 24" style="enable-background:new 0 0 24 24;" xml:space="preserve">
<path style="fill:#262626;" d="M20.263,4H3.739C2.78,4,2,4.732,2,5.633v11.734C2,18.268,2.78,19,3.739,19h6.017l-0.742,1H6.5
	C6.224,20,6,20.224,6,20.5S6.224,21,6.5,21h2.766h5.516h0.02H17.5c0.276,0,0.5-0.224,0.5-0.5S17.776,20,17.5,20h-2.475l-0.773-1
	h6.01C21.221,19,22,18.268,22,17.367V5.633C22,4.732,21.221,4,20.263,4z M10.26,20l0.742-1h1.987l0.773,1H10.26z M21,17.367
	C21,17.716,20.669,18,20.263,18h-7.028H10.75H3.739C3.332,18,3,17.716,3,17.367V5.633C3,5.284,3.332,5,3.739,5h16.523
	C20.669,5,21,5.284,21,5.633V17.367z M4,16.033h16V6H4V16.033z M5,7h14v8.033H5V7z M12,16.25c-0.413,0-0.75,0.337-0.75,0.751
	c0,0.413,0.337,0.749,0.75,0.749s0.75-0.336,0.75-0.749C12.75,16.587,12.413,16.25,12,16.25z M11.75,17.001
	c0-0.139,0.112-0.251,0.25-0.251s0.25,0.112,0.25,0.251C12.25,17.276,11.75,17.276,11.75,17.001z"/>
</svg>
