<?xml version="1.0" encoding="iso-8859-1"?>
<!-- Generator: Adobe Illustrator 19.0.1, SVG Export Plug-In . SVG Version: 6.00 Build 0)  -->
<svg version="1.1" id="Unicodes" xmlns="http://www.w3.org/2000/svg" xmlns:xlink="http://www.w3.org/1999/xlink" x="0px" y="0px"
	 width="24px" height="24px" viewBox="0 0 24 24" style="enable-background:new 0 0 24 24;" xml:space="preserve">
<path style="fill:#262626;" d="M17.079,7.839l0.825,0.824l-7.545,7.544l0.001,0.001l-0.658,0.656l-0.18,0.18l-0.825-0.826l0.01-0.01
	l-2.655-2.654l0.826-0.825l2.655,2.654L17.079,7.839z M22,11.996C22,17.512,17.513,22,11.997,22c-5.513,0-9.998-4.488-9.998-10.004
	C1.999,6.484,6.484,2,11.997,2C17.513,2,22,6.484,22,11.996z M21,11.996C21,7.036,16.961,3,11.997,3
	c-4.962,0-8.998,4.036-8.998,8.996c0,4.965,4.036,9.004,8.998,9.004C16.961,21,21,16.961,21,11.996z"/>
</svg>
