<?xml version="1.0" encoding="iso-8859-1"?>
<!-- Generator: Adobe Illustrator 19.0.1, SVG Export Plug-In . SVG Version: 6.00 Build 0)  -->
<svg version="1.1" id="Unicodes" xmlns="http://www.w3.org/2000/svg" xmlns:xlink="http://www.w3.org/1999/xlink" x="0px" y="0px"
	 width="24px" height="24px" viewBox="0 0 24 24" style="enable-background:new 0 0 24 24;" xml:space="preserve">
<path style="fill:#262626;" d="M13.755,17.331v3.279c0,0.276-0.224,0.5-0.5,0.5H2.598c-0.276,0-0.5-0.224-0.5-0.5V3.395
	c0-0.276,0.224-0.5,0.5-0.5h10.657c0.276,0,0.5,0.224,0.5,0.5v3.279c0,0.276-0.224,0.5-0.5,0.5s-0.5-0.224-0.5-0.5V3.895H3.098
	V20.11h9.657v-2.779c0-0.276,0.224-0.5,0.5-0.5S13.755,17.055,13.755,17.331z M21.915,12.604c0.025-0.06,0.039-0.125,0.039-0.192
	c0-0.066-0.014-0.132-0.039-0.192c-0.025-0.061-0.062-0.115-0.108-0.161L17.708,7.96c-0.195-0.195-0.512-0.195-0.707,0
	c-0.195,0.195-0.195,0.512,0,0.707l3.246,3.245H6.697c-0.276,0-0.5,0.224-0.5,0.5c0,0.276,0.224,0.5,0.5,0.5h13.549l-3.246,3.246
	c-0.195,0.196-0.195,0.512,0,0.707c0.098,0.098,0.226,0.146,0.354,0.146c0.128,0,0.256-0.049,0.354-0.146l4.099-4.099
	C21.853,12.721,21.889,12.666,21.915,12.604z"/>
</svg>
