<?xml version="1.0" encoding="iso-8859-1"?>
<!-- Generator: Adobe Illustrator 19.0.1, SVG Export Plug-In . SVG Version: 6.00 Build 0)  -->
<svg version="1.1" id="Unicodes" xmlns="http://www.w3.org/2000/svg" xmlns:xlink="http://www.w3.org/1999/xlink" x="0px" y="0px"
	 width="24px" height="24px" viewBox="0 0 24 24" style="enable-background:new 0 0 24 24;" xml:space="preserve">
<path style="fill:#262626;" d="M12,2.003c-5.512,0-9.997,4.485-9.997,9.997S6.488,21.997,12,21.997c5.512,0,9.997-4.485,9.997-9.997
	S17.512,2.003,12,2.003z M12,20.997c-4.961,0-8.997-4.036-8.997-8.997S7.039,3.003,12,3.003c4.961,0,8.997,4.036,8.997,8.997
	S16.961,20.997,12,20.997z M17.655,12.5c0,0.276-0.224,0.5-0.5,0.5h-4.681v4.68c0,0.276-0.223,0.5-0.5,0.5
	c-0.275,0-0.5-0.224-0.5-0.5V13h-4.68c-0.276,0-0.5-0.224-0.5-0.5s0.224-0.5,0.5-0.5h4.68V7.32c0-0.276,0.225-0.5,0.5-0.5
	c0.277,0,0.5,0.224,0.5,0.5V12h4.681C17.432,12,17.655,12.224,17.655,12.5z"/>
</svg>
