<?xml version="1.0" encoding="iso-8859-1"?>
<!-- Generator: Adobe Illustrator 19.0.1, SVG Export Plug-In . SVG Version: 6.00 Build 0)  -->
<svg version="1.1" id="Unicodes" xmlns="http://www.w3.org/2000/svg" xmlns:xlink="http://www.w3.org/1999/xlink" x="0px" y="0px"
	 width="24px" height="24px" viewBox="0 0 24 24" style="enable-background:new 0 0 24 24;" xml:space="preserve">
<path style="fill:#262626;" d="M22,17.604v1.077C22,20.374,20.567,22,19,22H6c-1.701,0-3-1.756-3-3.313v-1.077
	c0-0.276,0.194-0.5,0.471-0.5S4,17.333,4,17.609v1.077C4,19.769,4.92,21,6,21h13c1.034,0,2-1.162,2-2.319v-1.077
	c0-0.276,0.211-0.5,0.487-0.5S22,17.328,22,17.604z M12.102,17.865c0.095,0.109,0.232,0.172,0.377,0.172c0.001,0,0.002,0,0.004,0
	c0.146-0.001,0.283-0.066,0.378-0.177l5.983-6.844c0.179-0.211,0.152-0.526-0.059-0.705c-0.212-0.178-0.526-0.152-0.705,0.059
	L13,16.171V2.755c0-0.276-0.245-0.5-0.522-0.5c-0.276,0-0.478,0.224-0.478,0.5v13.444l-5.12-5.881
	c-0.181-0.208-0.497-0.23-0.705-0.049c-0.208,0.181-0.23,0.497-0.049,0.705L12.102,17.865z"/>
</svg>
