<?xml version="1.0" encoding="iso-8859-1"?>
<!-- Generator: Adobe Illustrator 19.0.1, SVG Export Plug-In . SVG Version: 6.00 Build 0)  -->
<svg version="1.1" id="Unicodes" xmlns="http://www.w3.org/2000/svg" xmlns:xlink="http://www.w3.org/1999/xlink" x="0px" y="0px"
	 width="24px" height="24px" viewBox="0 0 24 24" style="enable-background:new 0 0 24 24;" xml:space="preserve">
<path style="fill:#262626;" d="M21.852,21.141l-5.973-5.973c1.207-1.398,1.945-3.218,1.945-5.212c0-4.388-3.549-7.959-7.91-7.959
	c-4.363,0-7.912,3.57-7.912,7.959c0,4.389,3.549,7.959,7.912,7.959c2.021,0,3.863-0.774,5.264-2.035l5.967,5.967
	c0.098,0.098,0.227,0.146,0.353,0.146c0.129,0,0.256-0.049,0.354-0.146C22.047,21.653,22.047,21.336,21.852,21.141z M9.914,16.916
	c-3.812,0-6.912-3.122-6.912-6.959c0-3.837,3.1-6.959,6.912-6.959c3.811,0,6.91,3.122,6.91,6.959
	C16.824,13.793,13.725,16.916,9.914,16.916z M14.119,7.003h-2.041c-0.276,0-0.418,0.224-0.418,0.5v5.507h-0.629V5.523
	c0-0.276-0.224-0.5-0.5-0.5h-2c-0.276,0-0.5,0.224-0.5,0.5v7.487l-0.453,0.006V9.523c0-0.276-0.224-0.5-0.5-0.5H4.997
	c-0.276,0-0.5,0.224-0.5,0.5v3.994c0,0.276,0.224,0.5,0.5,0.5h0.786h1.295l1.453-0.006h2.082h1.547h0.213h1.746
	c0.277,0,0.5-0.224,0.5-0.5V7.503C14.619,7.227,14.396,7.003,14.119,7.003z M6.578,13.016H5.497v-2.994h1.081V13.016z M10.03,13.009
	h-1V6.023h1V13.009z M13.619,13.009h-1.042V8.002h1.042V13.009z"/>
</svg>
