<?xml version="1.0" encoding="iso-8859-1"?>
<!-- Generator: Adobe Illustrator 19.0.1, SVG Export Plug-In . SVG Version: 6.00 Build 0)  -->
<svg version="1.1" id="Unicodes" xmlns="http://www.w3.org/2000/svg" xmlns:xlink="http://www.w3.org/1999/xlink" x="0px" y="0px"
	 width="24px" height="24px" viewBox="0 0 24 24" style="enable-background:new 0 0 24 24;" xml:space="preserve">
<path style="fill:#262626;" d="M13.962,4.522c0,0.276-0.224,0.478-0.5,0.478H4.568c-0.276,0-0.5-0.178-0.5-0.454S4.291,4,4.568,4
	h8.894C13.739,4,13.962,4.245,13.962,4.522z M4,12.504V6.511c0-0.276,0.263-0.5,0.54-0.5h3.963c0.276,0,0.5,0.224,0.5,0.5v5.993
	c0,0.276-0.224,0.5-0.5,0.5H4.54C4.263,13.004,4,12.78,4,12.504z M5,12.004h3.003V7.011H5V12.004z M13.446,7.011
	c0.276,0,0.5-0.224,0.5-0.5c0-0.276-0.224-0.5-0.5-0.5h-2.198c-0.276,0-0.5,0.224-0.5,0.5c0,0.276,0.224,0.5,0.5,0.5H13.446z
	 M10.025,8.462c0,0.276,0.224,0.538,0.5,0.538h2.921c0.276,0,0.5-0.262,0.5-0.538c0-0.276-0.224-0.462-0.5-0.462h-2.921
	C10.249,8,10.025,8.186,10.025,8.462z M10.525,11.004h2.921c0.276,0,0.5-0.224,0.5-0.5c0-0.276-0.224-0.5-0.5-0.5h-2.921
	c-0.276,0-0.5,0.224-0.5,0.5C10.025,10.78,10.249,11.004,10.525,11.004z M10.525,13.004h2.921c0.276,0,0.5-0.224,0.5-0.5
	c0-0.276-0.224-0.5-0.5-0.5h-2.921c-0.276,0-0.5,0.224-0.5,0.5C10.025,12.78,10.249,13.004,10.525,13.004z M13.462,14H4.568
	c-0.276,0-0.5,0.285-0.5,0.561c0,0.276,0.224,0.439,0.5,0.439h8.894c0.276,0,0.5-0.162,0.5-0.439C13.962,14.285,13.739,14,13.462,14
	z M13.462,15.991H4.568c-0.276,0-0.5,0.224-0.5,0.5s0.224,0.5,0.5,0.5h8.894c0.276,0,0.5-0.224,0.5-0.5S13.739,15.991,13.462,15.991
	z M13.409,18H4.54c-0.276,0-0.5,0.205-0.5,0.481c0,0.276,0.224,0.5,0.5,0.5h8.87c0.276,0,0.5-0.224,0.5-0.5
	C13.909,18.205,13.685,18,13.409,18z M22,4.534l-0.016,14.391c0,1.57-1.595,3.075-3.301,3.075c-0.214,0-0.419,0.018-0.617,0
	c-0.05,0.018-0.104,0-0.16,0H4.196c-0.948,0-2.171-1.544-2.171-3.062V2.476C2.025,2.199,2.248,2,2.525,2h12.934
	c0.133,0,0.26,0.027,0.354,0.121C15.906,2.215,16,2.342,16,2.475V3h1.435C17.71,3,17.998,3.202,18,3.477V4h3.484
	C21.761,4,22,4.258,22,4.534z M15.984,21.016C15.266,20.75,15,19.74,15,18.937V2.975L3,2.976v15.962c0,1.1,0.914,2.046,1.198,2.062
	L15.984,21.016z M21,5h-3v1h1.545C19.821,6,20,6.293,20,6.569v12.178C20,19.52,19.31,20,18.625,20c-0.94,0-1.623-0.563-1.623-1.312
	L17,4.571c0-0.009,0-0.017,0-0.025s-0.001-0.016,0-0.024V4h-1v2l-0.042,12.937c0,1.61,1.482,2.063,2.725,2.063
	c1.039,0,2.301-0.96,2.301-2.075L21,5z M18.002,18.687c0,0.143,0.25,0.313,0.623,0.313c0.2,0,0.42-0.114,0.42-0.253V7L18,7.011
	L18.002,18.687z"/>
</svg>
