<?xml version="1.0" encoding="iso-8859-1"?>
<!-- Generator: Adobe Illustrator 19.0.1, SVG Export Plug-In . SVG Version: 6.00 Build 0)  -->
<svg version="1.1" id="Unicodes" xmlns="http://www.w3.org/2000/svg" xmlns:xlink="http://www.w3.org/1999/xlink" x="0px" y="0px"
	 width="24px" height="24px" viewBox="0 0 24 24" style="enable-background:new 0 0 24 24;" xml:space="preserve">
<path style="fill:#262626;" d="M19.446,5.35c-0.038-0.065-0.087-0.124-0.15-0.166c-1.184-1.267-2.685-2.23-4.384-2.748
	c-0.02-0.006-0.039-0.013-0.06-0.016C13.946,2.15,12.991,2,12,2C6.486,2,2,6.486,2,12s4.486,10,10,10c5.514,0,10-4.486,10-10
	C22,9.445,21.028,7.119,19.446,5.35z M18.47,5.759c-0.141,0.528-0.572,1.805-1.589,2.408c-1.498-0.271-2.905,0.529-3.227,0.922
	c-0.228,0.276-0.148,0.528-0.102,0.623c0.062,0.131,0.21,0.239,0.362,0.286c0.133,0.174,0.356,0.76,0.491,1.296
	c0.022,0.088,0.067,0.168,0.131,0.232c0.393,0.393,0.932,0.366,1.319,0.273c-0.057,0.457-0.754,1.183-1.165,1.609
	c-0.46,0.478-0.713,0.742-0.713,1.07c0,0.382,0.279,0.625,0.465,0.786c0.03,0.027,0.07,0.062,0.102,0.092
	c-0.002,0.002-0.005,0.005-0.008,0.007c-0.521,0.52-1.041,0.705-1.044,0.706c-0.204,0.068-0.342,0.26-0.342,0.475
	c0,0.457-0.114,0.793-0.35,1.025c-0.414,0.41-1.132,0.422-1.521,0.432c-0.272-0.211-0.817-1.185-0.847-1.457
	c0-0.089,0.082-0.252,0.154-0.396c0.121-0.243,0.259-0.519,0.259-0.843c0-0.475-0.472-1.065-0.832-1.448
	c-0.032-0.517-0.186-0.901-0.47-1.168c-0.493-0.467-1.21-0.425-1.898-0.386c-0.197,0.012-0.4,0.023-0.604,0.023
	c-0.723,0-0.74-1.108-0.74-1.153c0-0.024,0.019-2.483,1.663-2.814c0.42-0.084,0.727-0.108,0.947-0.108
	c0.389,0,0.515,0.075,0.52,0.043C9.437,8.423,9.49,8.546,9.581,8.637c0.771,0.772,1.967,0.495,2.84,0.292
	c0.321-0.075,0.626-0.146,0.818-0.146c0.249,0,0.46-0.183,0.495-0.43c0.232-1.629,0.117-2.623-0.343-2.955
	c-0.227-0.163-0.513-0.18-0.789-0.041C12.33,5.493,12.08,5.519,11.918,5.43c-0.175-0.098-0.231-0.324-0.246-0.497
	c-0.04-0.423,1.439-1.136,3.077-1.5C16.179,3.893,17.45,4.702,18.47,5.759z M12,21c-4.963,0-9-4.037-9-9s4.037-9,9-9
	c0.213,0,0.421,0.018,0.63,0.032c-1.049,0.428-2.039,1.076-1.954,1.992c0.054,0.583,0.322,1.037,0.756,1.279
	c0.394,0.219,0.886,0.234,1.381,0.051c0.048,0.308,0.04,0.88-0.021,1.473c-0.189,0.032-0.39,0.079-0.597,0.127
	c-0.661,0.154-1.405,0.329-1.815,0.05c-0.054-0.139-0.15-0.286-0.303-0.411C9.632,7.228,8.879,7.157,7.77,7.379
	c-2.438,0.489-2.467,3.659-2.467,3.794c0,0.745,0.363,2.153,1.74,2.153c0.223,0,0.444-0.013,0.66-0.024
	c0.481-0.027,0.976-0.056,1.155,0.113c0.134,0.127,0.162,0.424,0.162,0.65c0,0.133,0.053,0.26,0.147,0.353
	c0.321,0.321,0.652,0.763,0.68,0.886c0,0.088-0.082,0.251-0.153,0.396c-0.122,0.243-0.26,0.519-0.26,0.844
	c0,0.505,0.92,2.456,1.82,2.456c0.029,0.001,0.064,0.001,0.102,0.001c0.447,0,1.467-0.044,2.149-0.721
	c0.361-0.358,0.573-0.829,0.63-1.403c0.278-0.14,0.696-0.393,1.109-0.807c0.237-0.237,0.353-0.49,0.344-0.752
	c-0.014-0.395-0.3-0.644-0.489-0.809c-0.012-0.01-0.025-0.021-0.038-0.033c0.098-0.111,0.237-0.257,0.351-0.375
	c0.799-0.83,2.134-2.22,1.072-3.282c-0.151-0.151-0.385-0.188-0.575-0.095c-0.184,0.09-0.44,0.149-0.584,0.128
	c-0.181-0.669-0.369-1.094-0.546-1.363c0.447-0.234,1.244-0.514,2.057-0.309c0.116,0.027,0.237,0.016,0.345-0.038
	c1.126-0.564,1.733-1.675,2.045-2.486C20.335,8.153,21,9.998,21,12C21,16.963,16.963,21,12,21z"/>
</svg>
