<?xml version="1.0" encoding="iso-8859-1"?>
<!-- Generator: Adobe Illustrator 19.0.1, SVG Export Plug-In . SVG Version: 6.00 Build 0)  -->
<svg version="1.1" id="Unicodes" xmlns="http://www.w3.org/2000/svg" xmlns:xlink="http://www.w3.org/1999/xlink" x="0px" y="0px"
	 width="24px" height="24px" viewBox="0 0 24 24" style="enable-background:new 0 0 24 24;" xml:space="preserve">
<path style="fill:#262626;" d="M18.188,6.491c-0.299,0-0.974,0.079-1.224,0.207V5.666c0-1.01-0.973-1.635-1.98-1.635
	c-0.299,0-1,0.01-1,0.01V3.895c0-1.009-0.976-1.927-1.984-1.927s-1.999,0.918-1.999,1.927v0.145c0,0-0.687-0.057-0.985-0.057
	c-1.01,0-2.015,0.587-2.015,1.597v7.497l-1.522-1.772c-0.333-0.348-1.551-0.491-2.124,0.082c-0.541,0.539-0.293,1.722-0.214,1.938
	c0.077,0.163,1.922,4.01,3.444,6.407C7.497,21.166,9.055,22,10.749,22h3.274C16.743,22,20,19.895,20,17.176v-3.542v-2.213V8.322
	C20,7.312,19.197,6.491,18.188,6.491z M19.013,13.634v3.542c0,2.164-2.482,3.824-4.646,3.824h-3.274
	c-1.35,0-2.932-0.666-3.658-1.809c-1.488-2.345-3.366-6.262-3.429-6.373c-0.157-0.225-0.132-0.526,0.061-0.721
	c0.207-0.205,0.542-0.217,0.706-0.083L8.016,16L8.007,5.581C8.007,5.127,8.561,5,9.016,5s0.985,0.212,0.985,0.666v3.542V11H11
	l0.007-1.792V5.666v-1.77C11.007,3.44,11.544,3,12,3c0.455,0,1,0.44,1,0.895v1.77v3.542V11h0.984V9.208V5.666
	c0-0.454,0.575-0.65,1.031-0.65C15.47,5.016,16,5.212,16,5.666v2.656V11v2h1v-2V8.322c0-0.454,0.544-0.885,1-0.885
	c0.455,0,1.013,0.431,1.013,0.885v3.099V13.634z"/>
</svg>
