<?xml version="1.0" encoding="iso-8859-1"?>
<!-- Generator: Adobe Illustrator 19.0.1, SVG Export Plug-In . SVG Version: 6.00 Build 0)  -->
<svg version="1.1" id="Unicodes" xmlns="http://www.w3.org/2000/svg" xmlns:xlink="http://www.w3.org/1999/xlink" x="0px" y="0px"
	 width="24px" height="24px" viewBox="0 0 24 24" style="enable-background:new 0 0 24 24;" xml:space="preserve">
<path style="fill:#262626;" d="M18.172,9.242h-0.95c-0.202-0.529-0.714-0.905-1.312-0.905h-1.403
	c-0.202-0.529-0.713-0.905-1.312-0.905h-1.311V3.859c0-1.023-0.832-1.856-1.856-1.856S8.172,2.836,8.172,3.859v9.321l-1.581-1.354
	c-0.623-0.536-1.568-0.499-2.151,0.082c-0.547,0.548-0.62,1.403-0.196,1.999c0.145,0.248,3.575,6.084,4.933,7.896l0.149,0.2h8.769
	l1.566-5.477c0.243-0.856,0.367-1.738,0.367-2.623v-2.805C20.029,10.075,19.196,9.242,18.172,9.242z M19.031,13.902
	c0,0.792-0.111,1.583-0.33,2.349l-1.358,4.754H9.829c-1.419-1.977-4.692-7.546-4.748-7.637c-0.165-0.234-0.138-0.552,0.064-0.755
	c0.216-0.214,0.565-0.228,0.797-0.03L9.17,15.35V3.859C9.17,3.386,9.555,3,10.029,3c0.473,0,0.858,0.386,0.858,0.859v3.619V8.43
	v2.216h0.998V8.43h1.311c0.224,0,0.406,0.182,0.406,0.406v0.499v1.311h0.998V9.335h1.311c0.224,0,0.406,0.182,0.406,0.406v0.498
	v1.312h0.998v-1.312h0.858c0.474,0,0.859,0.385,0.859,0.858V13.902z"/>
</svg>
