<?xml version="1.0" encoding="iso-8859-1"?>
<!-- Generator: Adobe Illustrator 19.0.1, SVG Export Plug-In . SVG Version: 6.00 Build 0)  -->
<svg version="1.1" id="Unicodes" xmlns="http://www.w3.org/2000/svg" xmlns:xlink="http://www.w3.org/1999/xlink" x="0px" y="0px"
	 width="24px" height="24px" viewBox="0 0 24 24" style="enable-background:new 0 0 24 24;" xml:space="preserve">
<path style="fill:#262626;" d="M11.513,15.957c0.426,0,0.773,0.346,0.773,0.773c0,0.427-0.347,0.773-0.773,0.773
	c-0.427,0-0.773-0.345-0.773-0.773C10.74,16.303,11.086,15.957,11.513,15.957L11.513,15.957z M12.013,14.44v-1.863
	c1.315-0.237,2.317-1.39,2.317-2.773c0-1.554-1.264-2.818-2.817-2.818S8.695,8.25,8.695,9.804c0,0.276,0.224,0.5,0.5,0.5
	c0.276,0,0.5-0.224,0.5-0.5c0-1.002,0.815-1.818,1.817-1.818c1.002,0,1.817,0.816,1.817,1.818s-0.816,1.818-1.817,1.818
	c-0.276,0-0.5,0.224-0.5,0.5v2.318c0,0.276,0.224,0.5,0.5,0.5S12.013,14.717,12.013,14.44z M22,12c0-5.514-4.486-10-10-10
	S2,6.486,2,12s4.486,10,10,10S22,17.514,22,12z M21,12c0,4.962-4.037,9-9,9s-9-4.038-9-9s4.037-9,9-9S21,7.038,21,12z"/>
</svg>
