<?xml version="1.0" encoding="iso-8859-1"?>
<!-- Generator: Adobe Illustrator 19.0.1, SVG Export Plug-In . SVG Version: 6.00 Build 0)  -->
<svg version="1.1" id="Unicodes" xmlns="http://www.w3.org/2000/svg" xmlns:xlink="http://www.w3.org/1999/xlink" x="0px" y="0px"
	 width="24px" height="24px" viewBox="0 0 24 24" style="enable-background:new 0 0 24 24;" xml:space="preserve">
<path style="fill:none;" d="M19.5,21.5h-5.833v-5.782h-3.334V21.5H4.5v-8.674c0-0.228,0.186-0.413,0.417-0.413
	c0.23,0,0.416,0.185,0.416,0.413v7.848H9.5v-5.782h5v5.782h4.167v-7.434c0-0.229,0.186-0.413,0.416-0.413
	c0.23,0,0.417,0.185,0.417,0.413V21.5z M21.878,12.705c0.163-0.161,0.163-0.423,0-0.584l-9.583-9.5c-0.163-0.161-0.427-0.161-0.59,0
	l-9.583,9.5c-0.163,0.161-0.163,0.423,0,0.584c0.163,0.161,0.427,0.161,0.589,0L12,3.497l9.289,9.208
	c0.081,0.081,0.188,0.121,0.294,0.121C21.689,12.826,21.797,12.786,21.878,12.705z M18.667,6.631V3.326h-3.334
	c-0.23,0-0.416,0.184-0.416,0.413c0,0.228,0.186,0.413,0.416,0.413h2.5v2.479c0,0.227,0.186,0.412,0.417,0.412
	C18.48,7.043,18.667,6.858,18.667,6.631z"/>
</svg>
