<?xml version="1.0" encoding="iso-8859-1"?>
<!-- Generator: Adobe Illustrator 19.0.1, SVG Export Plug-In . SVG Version: 6.00 Build 0)  -->
<svg version="1.1" id="Unicodes" xmlns="http://www.w3.org/2000/svg" xmlns:xlink="http://www.w3.org/1999/xlink" x="0px" y="0px"
	 width="24px" height="24px" viewBox="0 0 24 24" style="enable-background:new 0 0 24 24;" xml:space="preserve">
<path style="fill-rule:evenodd;clip-rule:evenodd;fill:#262626;" d="M11,10h2v7h-2V10z M11,9h2V7h-2V9z M22,12
	c0-5.514-4.486-10-10-10C6.486,2,2,6.486,2,12s4.486,10,10,10C17.514,22,22,17.514,22,12z M21,12c0,4.962-4.038,9-9,9
	c-4.962,0-9-4.038-9-9s4.038-9,9-9C16.962,3,21,7.038,21,12z"/>
</svg>
