<?xml version="1.0" encoding="iso-8859-1"?>
<!-- Generator: Adobe Illustrator 19.0.1, SVG Export Plug-In . SVG Version: 6.00 Build 0)  -->
<svg version="1.1" id="Unicodes" xmlns="http://www.w3.org/2000/svg" xmlns:xlink="http://www.w3.org/1999/xlink" x="0px" y="0px"
	 width="24px" height="24px" viewBox="0 0 24 24" style="enable-background:new 0 0 24 24;" xml:space="preserve">
<path style="fill:#262626;" d="M12.5,13.021H6.479c-0.276,0-0.5,0.224-0.5,0.5v5.021c0,0.276,0.224,0.5,0.5,0.5H12.5
	c0.276,0,0.5-0.224,0.5-0.5v-5.021C13,13.245,12.776,13.021,12.5,13.021z M12,18.042H6.979v-4.021H12V18.042z M22.269,6.293
	l-1.605-4c-0.082-0.176-0.259-0.289-0.453-0.289H4.222c-0.194,0-0.371,0.113-0.453,0.289l-1.604,4
	C2.093,6.448,2.104,6.629,2.196,6.773C2.27,6.889,2.393,6.954,2.525,6.981V7.3c0,1.217,0.548,2.359,1.454,2.915v11.281
	c0,0.276,0.224,0.5,0.5,0.5h9.621h4.317h2.102c0.276,0,0.5-0.224,0.5-0.5V9.842c0-0.027-0.011-0.05-0.016-0.076
	c0.547-0.585,0.882-1.443,0.882-2.462V6.986c0.142-0.021,0.272-0.09,0.351-0.213C22.329,6.629,22.341,6.448,22.269,6.293z
	 M18.814,9.571c-0.353,0-0.484-0.279-0.785-0.601c0.004-0.026,0.016-0.049,0.016-0.076V6.999l2.842,0.004v0.299
	C20.887,8.43,19.926,9.571,18.814,9.571z M8.005,7L12,7.004v2.512c-0.517,0.627-1.48,0.979-2.21,0.979
	c-0.875,0-1.259-0.719-1.785-1.639V7z M12,3.031v3L7.025,6l1.166-2.996L12,3.031z M16.196,3.004L16.717,6H13V3.031L16.196,3.004z
	 M13,7.004l4.045,0.012v1.76c-0.013,0.018-0.033,0.028-0.044,0.048c-0.529,0.965-1.56,1.672-2.437,1.672
	c-0.695,0-1.055-0.334-1.564-0.921V7.004z M21.031,6.004h-3.292l-0.521-3h2.672L21.031,6.004z M4.541,3.004h2.628L5.979,6H3.401
	L4.541,3.004z M3.48,7.303V7.004h3.524v1.865c-0.383,0.389-1.43,0.702-1.796,0.702C4.148,9.571,3.48,8.532,3.48,7.303z
	 M14.98,20.995L15,14.021l3.047-0.005L18,21L14.98,20.995z M20.02,20.995h-0.978V13.5c0-0.276-0.328-0.479-0.605-0.479H14.5
	c-0.276,0-0.5,0.224-0.5,0.5l-0.02,7.474H4.979V10.543c0.077,0.007,0.149,0.028,0.23,0.028c0.545,0,1.74-0.317,2.24-0.74
	c0.729,0.964,1.266,1.664,2.341,1.664c0.881,0,1.728-0.36,2.394-1.005c0.667,0.652,1.495,1.005,2.381,1.005
	c1.062,0,2.099-0.576,2.825-1.539c0.354,0.333,0.799,0.614,1.425,0.614c0.295,0,0.946-0.063,1.206-0.156V20.995z M17.523,17.452
	c0,0.53-0.404,0.962-0.9,0.962c-0.496,0-0.9-0.432-0.9-0.962c0-0.531,0.404-0.962,0.9-0.962
	C17.119,16.49,17.523,16.921,17.523,17.452z"/>
</svg>
