<?xml version="1.0" encoding="iso-8859-1"?>
<!-- Generator: Adobe Illustrator 19.0.1, SVG Export Plug-In . SVG Version: 6.00 Build 0)  -->
<svg version="1.1" id="Unicodes" xmlns="http://www.w3.org/2000/svg" xmlns:xlink="http://www.w3.org/1999/xlink" x="0px" y="0px"
	 width="24px" height="24px" viewBox="0 0 24 24" style="enable-background:new 0 0 24 24;" xml:space="preserve">
<path style="fill:#262626;" d="M6,12.001c0,1.656-1.344,3-3,3c-1.657,0-3-1.344-3-3c0-1.657,1.343-3,3-3
	C4.656,9.001,6,10.344,6,12.001z M12.001,9.001c-1.657,0-3.001,1.343-3.001,3c0,1.656,1.344,3,3.001,3c1.656,0,2.999-1.344,2.999-3
	C15,10.344,13.657,9.001,12.001,9.001z M21,9.001c-1.656,0-3,1.343-3,3c0,1.656,1.344,3,3,3c1.657,0,3-1.344,3-3
	C24,10.344,22.657,9.001,21,9.001z"/>
</svg>
