<?xml version="1.0" encoding="iso-8859-1"?>
<!-- Generator: Adobe Illustrator 19.0.1, SVG Export Plug-In . SVG Version: 6.00 Build 0)  -->
<svg version="1.1" id="Unicodes" xmlns="http://www.w3.org/2000/svg" xmlns:xlink="http://www.w3.org/1999/xlink" x="0px" y="0px"
	 width="24px" height="24px" viewBox="0 0 24 24" style="enable-background:new 0 0 24 24;" xml:space="preserve">
<path style="fill:#262626;" d="M20,6.986H4c-0.552,0-1-0.447-1-1c0-0.553,0.448-1,1-1h16c0.552,0,1,0.447,1,1
	C21,6.539,20.552,6.986,20,6.986 M20,12.986c0.552,0,1-0.447,1-1c0-0.553-0.448-1-1-1H4c-0.552,0-1,0.447-1,1c0,0.553,0.448,1,1,1
	H20 M20,18.986c0.552,0,1-0.447,1-1c0-0.553-0.448-1-1-1H4c-0.552,0-1,0.447-1,1c0,0.553,0.448,1,1,1H20"/>
</svg>
