<?xml version="1.0" encoding="iso-8859-1"?>
<!-- Generator: Adobe Illustrator 19.0.1, SVG Export Plug-In . SVG Version: 6.00 Build 0)  -->
<svg version="1.1" id="Unicodes" xmlns="http://www.w3.org/2000/svg" xmlns:xlink="http://www.w3.org/1999/xlink" x="0px" y="0px"
	 width="24px" height="24px" viewBox="0 0 24 24" style="enable-background:new 0 0 24 24;" xml:space="preserve">
<path style="fill:#262626;" d="M19.295,6.001H4.725c-0.945,0-1.715,0.769-1.715,1.714v8.571C3.01,17.231,3.78,18,4.725,18h14.57
	c0.945,0,1.715-0.769,1.715-1.714V7.715C21.01,6.769,20.241,6.001,19.295,6.001z M19.185,7.001l-7.175,5.741L4.835,7.001H19.185z
	 M20.01,16.286c0,0.395-0.32,0.714-0.715,0.714H4.725c-0.395,0-0.715-0.319-0.715-0.714V7.715c0-0.028,0.013-0.053,0.016-0.08
	l7.671,6.138c0.092,0.072,0.202,0.109,0.312,0.109c0.11,0,0.221-0.037,0.312-0.109l7.671-6.138c0.003,0.027,0.016,0.052,0.016,0.08
	V16.286z"/>
</svg>
