<?xml version="1.0" encoding="iso-8859-1"?>
<!-- Generator: Adobe Illustrator 19.0.1, SVG Export Plug-In . SVG Version: 6.00 Build 0)  -->
<svg version="1.1" id="Unicodes" xmlns="http://www.w3.org/2000/svg" xmlns:xlink="http://www.w3.org/1999/xlink" x="0px" y="0px"
	 width="24px" height="24px" viewBox="0 0 24 24" style="enable-background:new 0 0 24 24;" xml:space="preserve">
<path style="fill:#262626;" d="M16.911,22H7.045c-1.152,0-2.029-0.71-2.029-1.86L5.004,3.736C5.004,2.584,5.881,2,7.033,2h9.866
	c1.151,0,2.089,0.688,2.089,1.839L19,20.258C19,21.408,18.062,22,16.911,22z M7.033,3C6.433,3,6.004,3.246,6.004,3.846l0.012,16.418
	c0,0.6,0.429,0.735,1.029,0.735h9.866C17.512,21,18,20.732,18,20.133L17.988,3.729C17.988,3.128,17.5,3,16.899,3H7.033z
	 M11.999,18.5c-0.438,0-0.793,0.355-0.793,0.795c0,0.438,0.355,0.794,0.793,0.794c0.439,0,0.796-0.356,0.796-0.794
	C12.795,18.855,12.438,18.5,11.999,18.5L11.999,18.5z M16.5,18H7.478c-0.276,0-0.506-0.427-0.506-0.703L6.984,5.422
	C6.984,5.146,7.214,5,7.49,5h9.022c0.276,0,0.5-0.026,0.5,0.25L17,17.375C17,17.651,16.776,18,16.5,18z M7.978,17H16l0.012-11H7.99
	L7.978,17z M11.941,3.705c-0.219,0-0.395,0.177-0.395,0.397c0,0.22,0.177,0.398,0.395,0.398c0.221,0,0.398-0.178,0.398-0.398
	C12.34,3.882,12.162,3.705,11.941,3.705L11.941,3.705z"/>
</svg>
