<?xml version="1.0" encoding="iso-8859-1"?>
<!-- Generator: Adobe Illustrator 19.0.1, SVG Export Plug-In . SVG Version: 6.00 Build 0)  -->
<svg version="1.1" id="Unicodes" xmlns="http://www.w3.org/2000/svg" xmlns:xlink="http://www.w3.org/1999/xlink" x="0px" y="0px"
	 width="24px" height="24px" viewBox="0 0 24 24" style="enable-background:new 0 0 24 24;" xml:space="preserve">
<path style="fill:#262626;" d="M2,19.345C2,20.25,2.746,21,3.667,21h16.665c0.922,0,1.672-0.75,1.672-1.655L22.009,9H2V19.345z
	 M3,10h18.009l-0.004,9.345c0,0.354-0.302,0.655-0.672,0.655H3.667c-0.371,0-0.672-0.301-0.672-0.655L3,10z M9.308,18.914
	c0.085,0.051,0.182,0.078,0.278,0.078c0.081,0,0.162-0.019,0.236-0.056l6.904-3.451c0.179-0.09,0.292-0.274,0.292-0.474
	s-0.113-0.384-0.292-0.474l-6.904-3.452c-0.164-0.081-0.358-0.072-0.515,0.023C9.152,11.206,9,11.377,9,11.56v6.903
	C9,18.646,9.152,18.816,9.308,18.914z M10,12.344l5.307,2.668L10,17.672V12.344z M20.693,3H3.316C2.59,3,2,3.587,2,4.312V8h20.009
	V4.315C22.009,3.59,21.418,3,20.693,3z M21.009,4.315V5.81l-1.254,1.206l-2.21-0.001L20.607,4h0.087
	C20.867,4,21.009,4.142,21.009,4.315z M13.307,3.999h2.221l-3.061,3.016l-2.221-0.001L13.307,3.999z M8.82,7.014H6.608L9.67,3.998
	h2.212L8.82,7.014z M16.952,3.999L19.182,4L16.12,7.015h-2.229L16.952,3.999z M3.316,3.997h1.279L3,5.519V4.312
	C3,4.139,3.142,3.997,3.316,3.997z M3,6.903l3.043-2.905h2.202L5.184,7.013H3V6.903z"/>
</svg>
