<?xml version="1.0" encoding="iso-8859-1"?>
<!-- Generator: Adobe Illustrator 19.0.1, SVG Export Plug-In . SVG Version: 6.00 Build 0)  -->
<svg version="1.1" id="Unicodes" xmlns="http://www.w3.org/2000/svg" xmlns:xlink="http://www.w3.org/1999/xlink" x="0px" y="0px"
	 width="24px" height="24px" viewBox="0 0 24 24" style="enable-background:new 0 0 24 24;" xml:space="preserve">
<path style="fill:#262626;" d="M12,2C6.486,2,2,6.485,2,12s4.486,10,10,10c5.514,0,10-4.485,10-10S17.514,2,12,2z M21,12
	c0,2.294-0.87,4.384-2.289,5.976L6.025,5.288C7.616,3.87,9.706,3,12,3C16.963,3,21,7.038,21,12z M3,12
	c0-2.309,0.882-4.411,2.316-6.006l12.689,12.689C16.411,20.118,14.309,21,12,21C7.037,21,3,16.962,3,12z"/>
</svg>
