<?xml version="1.0" encoding="iso-8859-1"?>
<!-- Generator: Adobe Illustrator 19.0.1, SVG Export Plug-In . SVG Version: 6.00 Build 0)  -->
<svg version="1.1" id="Unicodes" xmlns="http://www.w3.org/2000/svg" xmlns:xlink="http://www.w3.org/1999/xlink" x="0px" y="0px"
	 width="24px" height="24px" viewBox="0 0 24 24" style="enable-background:new 0 0 24 24;" xml:space="preserve">
<path style="fill:#262626;" d="M21.777,11.084L19,9.232V2.5C19,2.224,18.776,2,18.5,2h-13C5.224,2,5,2.224,5,2.5v6.732l-2.777,1.852
	C2.22,11.086,2.22,11.088,2.217,11.09c-0.057,0.039-0.107,0.089-0.145,0.151c-0.003,0.005-0.003,0.01-0.005,0.014
	c-0.01,0.018-0.012,0.036-0.02,0.054c-0.023,0.054-0.038,0.107-0.041,0.163C2.007,11.481,2,11.49,2,11.5v8.762
	C2,21.22,2.78,22,3.739,22h16.521C21.22,22,22,21.22,22,20.262V11.5C22,11.333,21.916,11.177,21.777,11.084z M20.626,11.519
	L19,12.466v-2.031L20.626,11.519z M5,12.429l-1.568-0.949L5,10.435V12.429z M20.261,21H3.739C3.331,21,3,20.669,3,20.262v-7.875
	l4.198,2.541C7.279,14.977,7.368,15,7.456,15c0.17,0,0.335-0.086,0.428-0.241c0.143-0.236,0.067-0.544-0.169-0.686L5.994,13.03
	C5.995,13.019,6,13.011,6,13V3h12v10.048l-1.752,1.021c-0.239,0.139-0.319,0.444-0.181,0.684C16.161,14.911,16.328,15,16.5,15
	c0.085,0,0.172-0.021,0.251-0.068L21,12.457v7.805C21,20.669,20.668,21,20.261,21z M18.825,19.12c0.21,0.18,0.234,0.496,0.054,0.705
	C18.781,19.94,18.641,20,18.5,20c-0.115,0-0.231-0.039-0.325-0.12L14.815,17h-5.63l-3.36,2.88c-0.209,0.179-0.525,0.155-0.705-0.055
	C4.94,19.616,4.965,19.3,5.175,19.12l3.5-3C8.765,16.043,8.881,16,9,16h6c0.119,0,0.235,0.043,0.325,0.12L18.825,19.12z M8,5.5
	C8,5.224,8.224,5,8.5,5h7C15.776,5,16,5.224,16,5.5S15.776,6,15.5,6h-7C8.224,6,8,5.776,8,5.5z M8,8.5C8,8.224,8.224,8,8.5,8h7
	C15.776,8,16,8.224,16,8.5S15.776,9,15.5,9h-7C8.224,9,8,8.776,8,8.5z M8,11.5C8,11.224,8.224,11,8.5,11h7
	c0.276,0,0.5,0.224,0.5,0.5S15.776,12,15.5,12h-7C8.224,12,8,11.776,8,11.5z"/>
</svg>
