<?xml version="1.0" encoding="iso-8859-1"?>
<!-- Generator: Adobe Illustrator 19.0.1, SVG Export Plug-In . SVG Version: 6.00 Build 0)  -->
<svg version="1.1" id="Unicodes" xmlns="http://www.w3.org/2000/svg" xmlns:xlink="http://www.w3.org/1999/xlink" x="0px" y="0px"
	 width="24px" height="24px" viewBox="0 0 24 24" style="enable-background:new 0 0 24 24;" xml:space="preserve">
<path style="fill:#262626;" d="M20,17h-2.5c-0.276,0-0.5-0.224-0.5-0.5s0.224-0.5,0.5-0.5H20c0.636,0,1-0.364,1-1v-5
	c0-0.636-0.364-1-1-1H4c-0.636,0-1,0.364-1,1v5c0,0.636,0.364,1,1,1h2.5C6.776,16,7,16.224,7,16.5S6.776,17,6.5,17H4
	c-1.178,0-2-0.822-2-2v-5c0-1.178,0.822-2,2-2h16c1.178,0,2,0.822,2,2v5C22,16.178,21.178,17,20,17z M18,21.5v-8
	c0-0.276-0.224-0.5-0.5-0.5h-11C6.224,13,6,13.224,6,13.5v8C6,21.776,6.224,22,6.5,22h11C17.776,22,18,21.776,18,21.5z M7,14h10v7H7
	V14z M6.022,10.999c0-0.551-0.448-0.999-1-0.999c-0.552,0-1,0.448-1,0.999c0,0.552,0.448,1,1,1
	C5.574,11.999,6.022,11.551,6.022,10.999z M16,15.5c0-0.276-0.224-0.5-0.5-0.5h-7C8.224,15,8,15.224,8,15.5S8.224,16,8.5,16h7
	C15.776,16,16,15.776,16,15.5z M16,17.5c0-0.276-0.224-0.5-0.5-0.5h-7C8.224,17,8,17.224,8,17.5S8.224,18,8.5,18h7
	C15.776,18,16,17.776,16,17.5z M16,19.5c0-0.276-0.224-0.5-0.5-0.5h-7C8.224,19,8,19.224,8,19.5S8.224,20,8.5,20h7
	C15.776,20,16,19.776,16,19.5z M18,5.5v1C18,6.776,17.776,7,17.5,7C17.224,7,17,6.776,17,6.5V6h-2.5C14.224,6,14,5.776,14,5.5V3H7
	v3.5C7,6.776,6.776,7,6.5,7C6.224,7,6,6.776,6,6.5v-4C6,2.224,6.224,2,6.5,2H15c0.148,0,0.289,0.065,0.384,0.18l2.5,3
	C17.959,5.269,18,5.383,18,5.5z M15,5h1.433L15,3.281V5z"/>
</svg>
