<?xml version="1.0" encoding="iso-8859-1"?>
<!-- Generator: Adobe Illustrator 19.0.1, SVG Export Plug-In . SVG Version: 6.00 Build 0)  -->
<svg version="1.1" id="Unicodes" xmlns="http://www.w3.org/2000/svg" xmlns:xlink="http://www.w3.org/1999/xlink" x="0px" y="0px"
	 width="24px" height="24px" viewBox="0 0 24 24" style="enable-background:new 0 0 24 24;" xml:space="preserve">
<path style="fill:#262626;" d="M5.04,12.687V10.64c0-0.186-0.092-0.64,1.821-0.64h8.116v1.868c0,0.207,0.127,0.392,0.32,0.466
	c0.193,0.076,0.411,0.023,0.55-0.13l4.012-4.428c0.173-0.191,0.173-0.482,0-0.673l-4.012-4.497c-0.139-0.153-0.358-0.205-0.55-0.13
	c-0.193,0.074-0.32,0.26-0.32,0.466v2.061H6.861c-2.598,0-3.865,2.204-3.865,4.461c0,1.95,1.096,3.457,1.142,3.519
	c0.096,0.13,0.247,0.284,0.402,0.284c0.052,0,0.105-0.008,0.156-0.025C4.902,13.175,5.04,12.903,5.04,12.687z M4.075,10.296
	c-0.049-0.263-0.079-0.542-0.079-0.832c0-1.225,0.526-3.461,2.865-3.461h8.616c0.276,0,0.5-0.224,0.5-0.5V4.236l2.836,3.203
	l-2.836,3.135V9.517c0-0.276-0.224-0.5-0.5-0.5H6.861C6.056,9.017,4.346,9.017,4.075,10.296z M19.443,10.82
	c-0.139-0.151-0.358-0.201-0.549-0.125c-0.191,0.075-0.317,0.26-0.317,0.465v2.047c0,0.689,0.108,0.792-1.073,0.792H8.998v-2.021
	c0-0.207-0.127-0.392-0.32-0.466c-0.192-0.075-0.411-0.023-0.55,0.13l-3.979,4.521c-0.173,0.191-0.173,0.482,0,0.673l3.983,4.382
	c0.097,0.106,0.232,0.163,0.37,0.163c0.06,0,0.122-0.011,0.18-0.034c0.193-0.074,0.32-0.26,0.32-0.466V19h8.506
	c2.649,0,3.481-2.267,3.481-4.513C20.988,12.506,19.506,10.888,19.443,10.82z M17.507,18H8.501c-0.276,0-0.5,0.254-0.5,0.531v1.058
	L5.194,16.5l2.803-3.227v1.268c0,0.276,0.224,0.46,0.5,0.46h9.006c1.833,0,2.073-0.604,2.073-1.792v-0.379
	c0.228,0.481,0.412,1.056,0.412,1.659C19.988,15.583,19.848,18,17.507,18z"/>
</svg>
