<?xml version="1.0" encoding="iso-8859-1"?>
<!-- Generator: Adobe Illustrator 19.0.1, SVG Export Plug-In . SVG Version: 6.00 Build 0)  -->
<svg version="1.1" id="Unicodes" xmlns="http://www.w3.org/2000/svg" xmlns:xlink="http://www.w3.org/1999/xlink" x="0px" y="0px"
	 width="24px" height="24px" viewBox="0 0 24 24" style="enable-background:new 0 0 24 24;" xml:space="preserve">
<path style="fill:#262626;" d="M9,18.5C9,18.248,9,18,9,18v-3.5c0-0.276,0.224-0.516,0.5-0.516h1c0.276,0,0.5,0.239,0.5,0.516V18h1
	v-5.5c0-0.276,0.224-0.5,0.5-0.5h0.984C13.761,12,14,12.224,14,12.5V18h1v-7.5c0-0.276,0.224-0.5,0.5-0.5h1
	c0.276,0,0.5,0.224,0.5,0.5c0,0,0,7.748,0,8c0,0.276-0.224,0.5-0.5,0.5h-7C9.224,19,9,18.776,9,18.5z M12.5,5.977h4.031
	c0.276,0,0.5-0.224,0.5-0.5c0-0.276-0.224-0.5-0.5-0.5H12.5c-0.276,0-0.5,0.224-0.5,0.5C12,5.754,12.224,5.977,12.5,5.977z M20,2.5
	v19c0,0.276-0.224,0.5-0.5,0.5h-14C4.617,22,4,21.383,4,20.5v-17C4,2.617,4.617,2,5.5,2h14C19.776,2,20,2.224,20,2.5z M7,3H5.5
	C5.168,3,5,3.168,5,3.5v17C5,20.832,5.168,21,5.5,21H7V3z M19,3H8v18h11V3z"/>
</svg>
