<?xml version="1.0" encoding="iso-8859-1"?>
<!-- Generator: Adobe Illustrator 19.0.1, SVG Export Plug-In . SVG Version: 6.00 Build 0)  -->
<svg version="1.1" id="Unicodes" xmlns="http://www.w3.org/2000/svg" xmlns:xlink="http://www.w3.org/1999/xlink" x="0px" y="0px"
	 width="24px" height="24px" viewBox="0 0 24 24" style="enable-background:new 0 0 24 24;" xml:space="preserve">
<path style="fill:none;" d="M13.458,4.924c0-0.23,0.186-0.416,0.417-0.416H14.5V3.884c0-0.23,0.186-0.417,0.417-0.417
	c0.23,0,0.416,0.187,0.416,0.417v0.624h0.625c0.23,0,0.417,0.186,0.417,0.416c0,0.231-0.187,0.416-0.417,0.416h-0.625v0.625
	c0,0.23-0.186,0.416-0.416,0.416c-0.231,0-0.417-0.187-0.417-0.416V5.34h-0.625C13.644,5.34,13.458,5.154,13.458,4.924z
	 M11.556,8.686c-0.229,0.016-0.403,0.214-0.388,0.443c0.015,0.23,0.241,0.407,0.442,0.388c1.396-0.1,2.775,0.315,3.89,1.151
	c0.075,0.057,0.163,0.083,0.25,0.083c0.126,0,0.252-0.058,0.333-0.166C16.221,10.4,16.185,10.14,16,10.003
	C14.727,9.047,13.154,8.58,11.556,8.686z M7.833,11.168C7.833,11.627,7.46,12,7,12s-0.833-0.373-0.833-0.832
	c0-0.46,0.373-0.833,0.833-0.833S7.833,10.708,7.833,11.168z M7.417,11.168H7l0,0H7.417z M22,11.168c0,1.013-0.729,1.856-1.69,2.041
	c-0.152,2.453-1.778,4.576-4.143,5.742v2.622c0,0.23-0.187,0.416-0.417,0.416c-0.231,0-0.417-0.186-0.417-0.416v-2.26
	c-1.022,0.381-2.148,0.595-3.333,0.595c-1.176,0-2.303-0.215-3.333-0.596v2.261c0,0.23-0.187,0.416-0.417,0.416
	c-0.231,0-0.417-0.186-0.417-0.416v-2.626c-1.478-0.726-2.692-1.952-3.425-3.201H2.417C2.186,15.746,2,15.561,2,15.33V12
	c0-0.231,0.186-0.416,0.417-0.416h1.38c0.364-1.665,1.482-3.281,3.126-4.356c-0.164-0.646-0.59-1.213-1.173-1.55
	c-0.129-0.074-0.208-0.211-0.208-0.36c0-0.148,0.078-0.285,0.207-0.36c0.509-0.294,1.085-0.449,1.668-0.449
	c1.094,0,2.116,0.541,2.735,1.432c0.726-0.173,1.921-0.181,1.971-0.178C12.043,5.496,12,5.215,12,4.924
	c0-1.606,1.309-2.913,2.917-2.913c1.607,0,2.916,1.307,2.916,2.913c0,0.85-0.365,1.615-0.948,2.148
	c1.903,1.203,3.249,3.152,3.42,5.277c0.499-0.164,0.862-0.629,0.862-1.181c0-0.231,0.185-0.417,0.416-0.417
	C21.813,10.751,22,10.938,22,11.168z M12.833,4.924c0,1.148,0.935,2.081,2.084,2.081C16.065,7.005,17,6.072,17,4.924
	c0-1.147-0.935-2.081-2.083-2.081C13.768,2.843,12.833,3.776,12.833,4.924z M19.5,12.832c0-2.146-1.436-4.106-3.429-5.233
	c-0.355,0.153-0.744,0.239-1.154,0.239c-0.982,0-1.851-0.487-2.38-1.232C12.359,6.598,12.14,6.589,12,6.589
	c-0.639,0-1.295,0.075-1.953,0.223c-0.183,0.043-0.364-0.041-0.455-0.2c-0.548-0.969-1.731-1.47-2.8-1.19
	c0.544,0.512,0.9,1.192,1.008,1.948c0.023,0.165-0.054,0.328-0.197,0.415c-1.682,1.018-2.793,2.577-3.046,4.276
	c-0.03,0.204-0.205,0.356-0.412,0.356H2.833v2.498h1.831c0.16,0,0.307,0.092,0.375,0.235C6.188,17.534,8.92,19.076,12,19.076
	C16.136,19.076,19.5,16.275,19.5,12.832z"/>
</svg>
