<?xml version="1.0" encoding="iso-8859-1"?>
<!-- Generator: Adobe Illustrator 19.0.1, SVG Export Plug-In . SVG Version: 6.00 Build 0)  -->
<svg version="1.1" id="Unicodes" xmlns="http://www.w3.org/2000/svg" xmlns:xlink="http://www.w3.org/1999/xlink" x="0px" y="0px"
	 width="24px" height="24px" viewBox="0 0 24 24" style="enable-background:new 0 0 24 24;" xml:space="preserve">
<path style="fill:#262626;" d="M21.852,21.145l-5.973-5.973c1.207-1.398,1.945-3.219,1.945-5.212c0-4.388-3.549-7.958-7.91-7.958
	c-4.363,0-7.912,3.57-7.912,7.958c0,4.389,3.549,7.96,7.912,7.96c2.021,0,3.863-0.774,5.264-2.035l5.967,5.967
	c0.098,0.098,0.227,0.146,0.354,0.146c0.129,0,0.256-0.049,0.354-0.146C22.047,21.656,22.047,21.34,21.852,21.145z M9.914,16.92
	c-3.812,0-6.912-3.122-6.912-6.96c0-3.837,3.1-6.958,6.912-6.958c3.811,0,6.91,3.121,6.91,6.958
	C16.824,13.797,13.725,16.92,9.914,16.92z"/>
</svg>
