<?xml version="1.0" encoding="iso-8859-1"?>
<!-- Generator: Adobe Illustrator 19.0.1, SVG Export Plug-In . SVG Version: 6.00 Build 0)  -->
<svg version="1.1" id="Unicodes" xmlns="http://www.w3.org/2000/svg" xmlns:xlink="http://www.w3.org/1999/xlink" x="0px" y="0px"
	 width="24px" height="24px" viewBox="0 0 24 24" style="enable-background:new 0 0 24 24;" xml:space="preserve">
<path style="fill:#262626;" d="M21.924,9.778L17.58,5.089c-0.004-0.002-0.007-0.005-0.01-0.008
	c-0.008-0.009-0.018-0.018-0.027-0.023c-0.007-0.007-0.015-0.013-0.023-0.018c-0.009-0.006-0.02-0.012-0.029-0.017
	c-0.011-0.005-0.019-0.009-0.028-0.014c-0.004,0-0.009-0.002-0.011-0.003C17.444,5.002,17.437,5.001,17.429,5
	c-0.001-0.001-0.001,0.004-0.002,0.005L6.55,5C6.549,4.999,6.547,5.025,6.546,5.025C6.544,5.026,6.54,5.019,6.537,5.02
	c-0.01,0.003-0.019,0.004-0.03,0.008C6.498,5.033,6.487,5.036,6.478,5.042c-0.008,0.006-0.015,0.01-0.023,0.016
	C6.446,5.065,6.437,5.074,6.428,5.082c-0.003,0.003-0.005,0.005-0.01,0.007L2.075,9.778c-0.113,0.124-0.113,0.314,0.002,0.437
	L12,21.027l9.924-10.85C22.037,10.053,22.037,9.901,21.924,9.778z M12,21.027 M15.5,10L12,19.859L8.507,10H3l3.99-4.051L8.5,10L12,6
	l3.5,4.02l2-4.02l3.5,4H15.5z"/>
</svg>
