<?xml version="1.0" encoding="iso-8859-1"?>
<!-- Generator: Adobe Illustrator 19.0.1, SVG Export Plug-In . SVG Version: 6.00 Build 0)  -->
<svg version="1.1" id="Unicodes" xmlns="http://www.w3.org/2000/svg" xmlns:xlink="http://www.w3.org/1999/xlink" x="0px" y="0px"
	 width="24px" height="24px" viewBox="0 0 24 24" style="enable-background:new 0 0 24 24;" xml:space="preserve">
<path style="fill:#262626;" d="M20.558,15.521c-0.866-0.91-1.655-1.171-2.653-0.873l-3.142,1.096
	c-0.023,0.008-0.04,0.025-0.061,0.036c-0.11-0.413-0.505-0.778-1.202-0.778h-1.343c-0.08-0.069-0.212-0.206-0.322-0.32
	c-0.609-0.628-1.627-1.68-2.98-1.68H7v-0.5c0-0.276-0.224-0.5-0.5-0.5h-3c-0.276,0-0.5,0.224-0.5,0.5v6c0,0.276,0.224,0.5,0.5,0.5h3
	c0.276,0,0.5-0.224,0.5-0.5v-0.147c0.601,0.214,1.151,0.413,1.626,0.587c1.87,0.683,2.93,1.056,3.896,1.056
	c1.182,0,2.222-0.559,4.429-1.793c0.911-0.509,2.036-1.139,3.478-1.897c0.139-0.073,0.235-0.206,0.26-0.361
	C20.715,15.792,20.666,15.634,20.558,15.521z M6,18.002H4v-5h2V18.002z M16.462,17.332c-3.686,2.062-3.686,2.062-7.493,0.671
	C8.402,17.796,7.749,17.558,7,17.294v-3.292h1.854c0.93,0,1.731,0.828,2.262,1.376c0.376,0.389,0.604,0.624,0.928,0.624H10
	c-0.276,0-0.5,0.224-0.5,0.5c0,0.276,0.224,0.5,0.5,0.5h3.5c0.509,0,0.848-0.202,1.046-0.467c0.13,0.155,0.344,0.224,0.545,0.153
	l3.121-1.089c0.38-0.114,0.704-0.119,1.112,0.162C18.173,16.375,17.24,16.897,16.462,17.332z M12.5,13.002
	c1.381,0,2.5-1.119,2.5-2.5c0-1.381-1.119-2.5-2.5-2.5c-1.381,0-2.5,1.119-2.5,2.5C10,11.883,11.119,13.002,12.5,13.002z
	 M12.5,9.002c0.827,0,1.5,0.673,1.5,1.5c0,0.827-0.673,1.5-1.5,1.5c-0.827,0-1.5-0.673-1.5-1.5C11,9.675,11.673,9.002,12.5,9.002z
	 M12,11.039V9.965c0-0.256,0.224-0.463,0.5-0.463c0.276,0,0.5,0.207,0.5,0.463v1.074c0,0.256-0.224,0.463-0.5,0.463
	C12.224,11.502,12,11.295,12,11.039z M17.5,9.002c1.381,0,2.5-1.119,2.5-2.5c0-1.381-1.119-2.5-2.5-2.5c-1.381,0-2.5,1.119-2.5,2.5
	C15,7.883,16.119,9.002,17.5,9.002z M17.5,5.002c0.827,0,1.5,0.673,1.5,1.5c0,0.827-0.673,1.5-1.5,1.5c-0.827,0-1.5-0.673-1.5-1.5
	C16,5.675,16.673,5.002,17.5,5.002z M17,7.039V5.965c0-0.256,0.224-0.463,0.5-0.463c0.276,0,0.5,0.207,0.5,0.463v1.074
	c0,0.256-0.224,0.463-0.5,0.463C17.224,7.502,17,7.295,17,7.039z"/>
</svg>
