<?xml version="1.0" encoding="iso-8859-1"?>
<!-- Generator: Adobe Illustrator 19.0.1, SVG Export Plug-In . SVG Version: 6.00 Build 0)  -->
<svg version="1.1" id="Unicodes" xmlns="http://www.w3.org/2000/svg" xmlns:xlink="http://www.w3.org/1999/xlink" x="0px" y="0px"
	 width="24px" height="24px" viewBox="0 0 24 24" style="enable-background:new 0 0 24 24;" xml:space="preserve">
<path style="fill:#262626;" d="M21.478,10.304h-2.102c-0.148-0.636-0.353-1.364-0.615-1.925l1.638-1.684
	c0.19-0.195,0.188-0.507-0.003-0.7l-2.331-2.356c-0.192-0.194-0.502-0.199-0.699-0.011l-1.719,1.63
	c-0.593-0.285-1.341-0.495-1.91-0.629V2.562c0-0.276-0.224-0.5-0.5-0.5h-2.472c-0.276,0-0.5,0.224-0.5,0.5V4.63
	C9.766,4.752,9.111,4.949,8.533,5.235L6.949,3.614c-0.094-0.096-0.222-0.15-0.355-0.15c-0.12-0.028-0.263,0.052-0.357,0.148
	l-2.31,2.331C3.736,6.135,3.733,6.443,3.92,6.639l1.656,1.738C5.359,8.84,5.157,9.477,4.967,10.304H2.522
	c-0.276,0-0.5,0.224-0.5,0.5v2.473c0,0.276,0.224,0.5,0.5,0.5h2.448c0.123,0.491,0.318,1.137,0.604,1.709l-1.62,1.575
	c-0.096,0.093-0.15,0.222-0.151,0.356c-0.001,0.134,0.053,0.263,0.148,0.357l2.332,2.305c0.096,0.095,0.231,0.153,0.36,0.144
	c0.134-0.002,0.262-0.059,0.355-0.156l1.54-1.627c0.545,0.267,1.18,0.459,1.726,0.592v2.485c0,0.276,0.224,0.5,0.5,0.5h2.472
	c0.276,0,0.5-0.224,0.5-0.5v-2.483c0.627-0.147,1.346-0.352,1.904-0.616l1.674,1.637c0.197,0.192,0.509,0.19,0.701-0.002
	l2.354-2.331c0.097-0.095,0.149-0.226,0.149-0.36c-0.001-0.135-0.058-0.264-0.155-0.357l-1.602-1.523
	c0.24-0.479,0.452-1.072,0.611-1.705h2.106c0.276,0,0.5-0.224,0.5-0.5v-2.473C21.978,10.528,21.755,10.304,21.478,10.304z
	 M20.978,12.777h-2.004c-0.236,0-0.44,0.166-0.489,0.397c-0.178,0.846-0.46,1.628-0.775,2.145c-0.123,0.201-0.089,0.461,0.082,0.623
	l1.508,1.433l-1.638,1.622l-1.584-1.548c-0.163-0.162-0.415-0.188-0.61-0.069c-0.439,0.269-1.269,0.541-2.334,0.765
	c-0.231,0.049-0.398,0.253-0.398,0.489v2.385h-1.472v-2.385c0-0.236-0.166-0.44-0.397-0.489c-0.918-0.193-1.688-0.46-2.166-0.753
	c-0.202-0.123-0.461-0.089-0.624,0.083L6.624,19.01l-1.606-1.587l1.528-1.485c0.167-0.163,0.2-0.42,0.078-0.619
	c-0.308-0.503-0.58-1.265-0.767-2.146c-0.049-0.231-0.253-0.396-0.489-0.396H3.022v-1.473h2.346c0.236,0,0.44-0.165,0.489-0.397
	c0.241-1.138,0.495-1.93,0.755-2.354C6.731,8.36,6.705,8.112,6.549,7.948L4.979,6.301l1.609-1.625l1.494,1.529
	C8.246,6.373,8.503,6.402,8.7,6.283c0.496-0.302,1.285-0.58,2.167-0.764c0.231-0.048,0.397-0.253,0.397-0.489V3.062h1.472v1.967
	c0,0.237,0.166,0.441,0.398,0.489c1.012,0.211,1.884,0.501,2.334,0.776c0.191,0.12,0.442,0.092,0.604-0.063l1.626-1.542l1.642,1.66
	l-1.55,1.593c-0.159,0.163-0.188,0.414-0.068,0.609c0.267,0.438,0.537,1.273,0.763,2.354c0.048,0.232,0.253,0.398,0.489,0.398h2.005
	V12.777z M12.173,7.623c-2.321,0-4.209,1.888-4.209,4.209s1.888,4.209,4.209,4.209c2.32,0,4.208-1.888,4.208-4.209
	S14.493,7.623,12.173,7.623z M12.173,15.04c-1.77,0-3.209-1.439-3.209-3.209c0-1.769,1.439-3.209,3.209-3.209
	c1.769,0,3.208,1.439,3.208,3.209C15.381,13.601,13.941,15.04,12.173,15.04z"/>
</svg>
