<?xml version="1.0" encoding="iso-8859-1"?>
<!-- Generator: Adobe Illustrator 19.0.1, SVG Export Plug-In . SVG Version: 6.00 Build 0)  -->
<svg version="1.1" id="Unicodes" xmlns="http://www.w3.org/2000/svg" xmlns:xlink="http://www.w3.org/1999/xlink" x="0px" y="0px"
	 width="24px" height="24px" viewBox="0 0 24 24" style="enable-background:new 0 0 24 24;" xml:space="preserve">
<path style="fill:#262626;" d="M12,4.876l1.671,4.456l0.242,0.652h0.695h4.658l-3.999,3.426l-0.518,0.438l0.215,0.642l1.614,4.845
	l-3.987-2.925L12,15.977l-0.592,0.434L7.42,19.335l1.615-4.845l0.215-0.642L8.732,13.41L4.733,9.984h4.659h0.695l0.242-0.652
	L12,4.876 M12,2L9.393,8.984H2l6.087,5.189L5.477,22L12,17.217L18.521,22l-2.608-7.826L22,8.984h-7.392L12,2L12,2z"/>
</svg>
