<?xml version="1.0" encoding="iso-8859-1"?>
<!-- Generator: Adobe Illustrator 19.0.1, SVG Export Plug-In . SVG Version: 6.00 Build 0)  -->
<svg version="1.1" id="Unicodes" xmlns="http://www.w3.org/2000/svg" xmlns:xlink="http://www.w3.org/1999/xlink" x="0px" y="0px"
	 width="24px" height="24px" viewBox="0 0 24 24" style="enable-background:new 0 0 24 24;" xml:space="preserve">
<path style="fill:#262626;" d="M16.501,11C13.468,11,11,13.468,11,16.501C11,19.533,13.468,22,16.501,22
	C19.533,22,22,19.533,22,16.501C22,13.468,19.533,11,16.501,11z M16.501,21C14.019,21,12,18.981,12,16.501
	C12,14.019,14.019,12,16.501,12C18.981,12,21,14.019,21,16.501C21,18.981,18.981,21,16.501,21z M18.947,14.724l-2,4
	c-0.072,0.144-0.209,0.244-0.367,0.27C16.553,18.998,16.526,19,16.5,19c-0.132,0-0.26-0.052-0.355-0.147l-1.992-2
	c-0.194-0.195-0.194-0.512,0.002-0.707c0.195-0.193,0.512-0.195,0.707,0.002l1.501,1.507l1.689-3.378
	c0.125-0.246,0.424-0.347,0.671-0.224C18.971,14.177,19.07,14.477,18.947,14.724z M4.5,6C4.224,6,4,6.224,4,6.5v12
	C4,18.776,4.224,19,4.5,19h6c0.276,0,0.5-0.224,0.5-0.5S10.776,18,10.5,18H5V7h1v0.5C6,7.776,6.224,8,6.5,8h5
	C11.776,8,12,7.776,12,7.5V7h1v2.5c0,0.276,0.224,0.5,0.5,0.5c0.276,0,0.5-0.224,0.5-0.5v-3C14,6.224,13.776,6,13.5,6H12V5h3v4.5
	c0,0.276,0.224,0.5,0.5,0.5c0.276,0,0.5-0.224,0.5-0.5v-5C16,4.224,15.776,4,15.5,4h-4h-0.122h-0.415C10.804,2.941,10.136,2,9,2
	C7.864,2,7.196,2.941,7.037,4H6.5h-4C2.224,4,2,4.224,2,4.5V19c0,1.346,0.654,2,2,2h6.5c0.276,0,0.5-0.224,0.5-0.5
	S10.776,20,10.5,20H4c-0.785,0-1-0.215-1-1V5h3v1H4.5z M7.5,5C7.776,5,8,4.776,8,4.5C8,3.898,8.267,3,9,3c0.733,0,1,0.898,1,1.5
	C10,4.776,10.224,5,10.5,5H11v2H7V5H7.5z M11.5,11h-5C6.224,11,6,10.776,6,10.5S6.224,10,6.5,10h5c0.276,0,0.5,0.224,0.5,0.5
	S11.776,11,11.5,11z M10.5,13h-4C6.224,13,6,12.776,6,12.5S6.224,12,6.5,12h4c0.276,0,0.5,0.224,0.5,0.5S10.776,13,10.5,13z
	 M10,14.5c0,0.276-0.224,0.5-0.5,0.5h-3C6.224,15,6,14.776,6,14.5S6.224,14,6.5,14h3C9.776,14,10,14.224,10,14.5z M10,16.5
	c0,0.276-0.224,0.5-0.5,0.5h-3C6.224,17,6,16.776,6,16.5S6.224,16,6.5,16h3C9.776,16,10,16.224,10,16.5z"/>
</svg>
