<?xml version="1.0" encoding="iso-8859-1"?>
<!-- Generator: Adobe Illustrator 19.0.1, SVG Export Plug-In . SVG Version: 6.00 Build 0)  -->
<svg version="1.1" id="Unicodes" xmlns="http://www.w3.org/2000/svg" xmlns:xlink="http://www.w3.org/1999/xlink" x="0px" y="0px"
	 width="24px" height="24px" viewBox="0 0 24 24" style="enable-background:new 0 0 24 24;" xml:space="preserve">
<path style="fill:#262626;" d="M20.892,11.873C20.73,11.662,16.88,6.695,12,6.695c-4.88,0-8.731,4.967-8.892,5.178
	c-0.145,0.189-0.145,0.456,0,0.644C3.269,12.728,7.12,17.695,12,17.695c4.88,0,8.73-4.967,8.892-5.178
	C21.036,12.329,21.036,12.062,20.892,11.873z M12,16.659c-3.716,0-6.921-3.39-7.843-4.464C5.078,11.121,8.277,7.732,12,7.732
	c3.716,0,6.921,3.39,7.843,4.464C18.922,13.27,15.723,16.659,12,16.659z M12,8.611c-1.905,0-3.456,1.607-3.456,3.584
	c0,1.976,1.551,3.583,3.456,3.583c1.905,0,3.456-1.607,3.456-3.583C15.456,10.219,13.905,8.611,12,8.611z M12,14.742
	c-1.355,0-2.456-1.142-2.456-2.546c0-1.405,1.102-2.547,2.456-2.547c1.354,0,2.456,1.142,2.456,2.547
	C14.456,13.6,13.354,14.742,12,14.742z M13.978,12.195c0,1.131-0.888,2.051-1.978,2.051c-1.091,0-1.979-0.92-1.979-2.051
	c0-0.287,0.224-0.519,0.5-0.519c0.276,0,0.5,0.232,0.5,0.519c0,0.56,0.439,1.015,0.979,1.015s0.978-0.455,0.978-1.015
	S12.54,11.181,12,11.181c-0.276,0-0.5-0.232-0.5-0.518c0-0.287,0.224-0.519,0.5-0.519C13.091,10.144,13.978,11.064,13.978,12.195z"
	/>
</svg>
