<svg xmlns="http://www.w3.org/2000/svg" width="24" height="24" viewBox="0 0 24 24"><path d="M23.471 17.003H23v-.578c0-1.79-1.324-3.262-3.028-3.262-1.703 0-2.972 1.425-2.972 3.215v.625h-.509c-.276 0-.491 0-.491.277v6c0 .276.217.717.493.717h6.979c.276 0 .527-.441.527-.717v-6c.001-.277-.252-.277-.528-.277zM18 16.409c0-1.238.82-2.246 1.972-2.246 1.152 0 2.028 1.008 2.028 2.246v.594h-4v-.594zm5 6.594h-6v-5h6v5zm-2.469-2.18v.674a.5.5 0 0 1-1 0l-.032-.653a.987.987 0 0 1-.499-.847 1 1 0 1 1 2 0 .98.98 0 0 1-.469.826zM15 15v-2.628c1.212-1.053 2.001-2.722 2.001-4.603C17.001 4.588 14.758 2 12 2 9.243 2 7 4.588 7 7.769c0 1.901.805 3.586 2.039 4.637H9v1.953l-3.665 1.67C4.175 16.435 3 17.586 3 19v2h10v-1H4v-1c0-.823.716-1.695 1.707-2.045L10 15.002v-1.951a4.4 4.4 0 0 0 2 .485c.711 0 1.387-.175 2-.484V15h1zM12 3c1.987 0 3.627 1.74 3.936 4.006l-.029.003c-1.434.274-2.297-.093-2.975-1.261l-.452-.775-.422.793C11.672 6.493 10.117 7 8.965 7c-.357 0-.575-.087-.871-.239C8.483 4.615 10.085 3 12 3zm0 9.536c-2.192 0-3.974-2.113-3.996-4.72.27.108.565.184.961.184 1.191 0 2.657-.404 3.498-1.166.672.848 1.529 1.259 2.629 1.259.277 0 .579-.037.89-.089-.106 2.517-1.843 4.532-3.982 4.532z" fill="#262626"/></svg>