<svg xmlns="http://www.w3.org/2000/svg" width="24" height="24" viewBox="0 0 24 24"><path d="M18.707 16.045L15 14.357v-1.985c1.212-1.053 2.001-2.722 2.001-4.603C17.001 4.588 14.758 2 12 2 9.243 2 7 4.588 7 7.769c0 1.901.805 3.586 2.039 4.637H9v1.953l-3.665 1.67C4.175 16.435 3 17.586 3 19v2h18v-2c0-1.415-1.175-2.566-2.293-2.955zM12 3c1.987 0 3.627 1.74 3.936 4.006l-.029.003c-1.434.274-2.297-.093-2.975-1.261l-.452-.775-.422.793C11.672 6.493 10.117 7 8.965 7c-.357 0-.575-.087-.871-.239C8.483 4.615 10.085 3 12 3zM8.004 7.816c.27.108.565.184.961.184 1.191 0 2.657-.404 3.498-1.166.672.848 1.529 1.259 2.629 1.259.277 0 .579-.037.89-.089-.105 2.518-1.843 4.532-3.981 4.532-2.193 0-3.975-2.113-3.997-4.72zM20 20H4v-1c0-.823.716-1.695 1.707-2.045L10 15.002v-1.951a4.4 4.4 0 0 0 2 .485c.711 0 1.387-.175 2-.484v1.95l4.335 1.97C19.284 17.304 20 18.176 20 19v1z" fill="#262626"/></svg>