<svg xmlns="http://www.w3.org/2000/svg" width="24" height="24" viewBox="0 0 24 24"><path d="M15 15v-2.628c1.212-1.053 2.001-2.722 2.001-4.603C17.001 4.588 14.758 2 12 2 9.243 2 7 4.588 7 7.769c0 1.901.805 3.586 2.039 4.637H9v1.953l-3.665 1.67C4.175 16.435 3 17.586 3 19v2h10v-1H4v-1c0-.823.716-1.695 1.707-2.045L10 15.002v-1.951a4.4 4.4 0 0 0 2 .485c.711 0 1.387-.175 2-.484V15h1zM12 3c1.987 0 3.627 1.74 3.936 4.006l-.029.003c-1.434.274-2.297-.093-2.975-1.261l-.452-.775-.422.793C11.672 6.493 10.117 7 8.965 7c-.357 0-.575-.087-.871-.239C8.483 4.615 10.085 3 12 3zm0 9.536c-2.192 0-3.974-2.113-3.996-4.72.27.108.565.184.961.184 1.191 0 2.657-.404 3.498-1.166.672.848 1.529 1.259 2.629 1.259.277 0 .579-.037.89-.089-.106 2.517-1.843 4.532-3.982 4.532zM19.5 15c-2.481 0-4.5 2.019-4.5 4.5s2.019 4.5 4.5 4.5 4.5-2.019 4.5-4.5-2.019-4.5-4.5-4.5zm0 8c-1.93 0-3.5-1.57-3.5-3.5s1.57-3.5 3.5-3.5 3.5 1.57 3.5 3.5-1.57 3.5-3.5 3.5zm2.5-3.5a.5.5 0 0 1-.5.5H20v1.5a.5.5 0 0 1-1 0V20h-1.5a.5.5 0 0 1 0-1H19v-1.5a.5.5 0 0 1 1 0V19h1.5a.5.5 0 0 1 .5.5z" fill="#262626"/></svg>