<svg xmlns="http://www.w3.org/2000/svg" width="24" height="24" viewBox="0 0 24 24"><path d="M15 15v-2.628c1.212-1.053 2.001-2.722 2.001-4.603C17.001 4.588 14.758 2 12 2 9.243 2 7 4.588 7 7.769c0 1.901.805 3.586 2.039 4.637H9v1.953l-3.665 1.67C4.175 16.435 3 17.586 3 19v2h10v-1H4v-1c0-.823.716-1.695 1.707-2.045L10 15.002v-1.951c.613.311 1.289.485 2 .485s1.387-.175 2-.484V15h1zM12 3c1.987 0 3.627 1.74 3.937 4.006l-.029.003c-1.435.274-2.297-.093-2.975-1.261l-.452-.775-.422.793C11.672 6.493 10.117 7 8.965 7c-.357 0-.575-.087-.871-.239C8.483 4.615 10.085 3 12 3zm0 9.536c-2.192 0-3.974-2.113-3.996-4.72.27.108.565.184.961.184 1.191 0 2.657-.404 3.498-1.166.672.848 1.529 1.259 2.629 1.259.277 0 .579-.037.89-.089-.106 2.517-1.843 4.532-3.982 4.532zm6.481 8.454a14.35 14.35 0 0 1-.006-.344c0-.449.063-.837.19-1.164.093-.245.244-.493.451-.743.153-.183.428-.448.823-.799.396-.35.654-.628.774-.836.118-.207.178-.435.178-.68 0-.445-.174-.837-.521-1.174a1.765 1.765 0 0 0-1.278-.505c-.487 0-.894.152-1.221.457-.326.306-.54.782-.642 1.431l-1.177-.14c.105-.869.421-1.534.944-1.996.523-.462 1.216-.693 2.076-.693.911 0 1.638.248 2.181.744.543.496.814 1.096.814 1.799 0 .407-.095.782-.286 1.126-.191.344-.563.761-1.119 1.253-.373.33-.616.574-.73.73a1.657 1.657 0 0 0-.255.541c-.055.203-.087.534-.095.992h-1.101zm-.07 2.295v-1.304h1.303v1.304h-1.303z" fill="#262626"/></svg>