<svg xmlns="http://www.w3.org/2000/svg" width="24" height="24" viewBox="0 0 24 24"><path d="M16 6.104V8h1c.276 0 .5.253.5.529 0 .277-.224.471-.5.471h-1v.604c0 .304-.087 1.063-.245 1.396H17.5a.5.5 0 0 1 0 1h-3a.5.5 0 0 1 0-1c.16-.021.5-.985.5-1.396V9h-1c-.276 0-.5-.194-.5-.471 0-.276.224-.529.5-.529h1V6.104c0-.827.673-1.5 1.5-1.5s1.5.673 1.5 1.5a.5.5 0 0 1-1 0 .5.5 0 0 0-1 0zm6 2.594c0 3.661-2.954 6.642-6.604 6.694A6.704 6.704 0 0 1 8.7 22C5.006 22 2 18.995 2 15.302c0-3.661 2.954-6.642 6.604-6.694A6.704 6.704 0 0 1 15.3 2C18.994 2 22 5.005 22 8.698zm-7.628 6.627a6.667 6.667 0 0 1-3.747-1.85c-.041.011-.08.025-.125.025a.5.5 0 0 1-.5-.5.5.5 0 0 0-1 0v2h1a.5.5 0 0 1 0 1h-.973L9 16.5c0 .304-.06 1.167-.218 1.5H10.5a.5.5 0 0 1 0 1h-3a.5.5 0 0 1 0-1c.16-.021.5-1.089.5-1.5l.027-.5H7a.5.5 0 0 1 0-1h1v-2a1.5 1.5 0 0 1 1.248-1.475A6.634 6.634 0 0 1 8.67 9.62c-3.114.017-5.643 2.559-5.643 5.683 0 3.134 2.545 5.683 5.672 5.683 3.121-.001 5.66-2.538 5.673-5.661zm6.6-6.627c0-3.134-2.545-5.683-5.672-5.683-3.128 0-5.673 2.549-5.673 5.683s2.545 5.684 5.673 5.684c3.127 0 5.672-2.55 5.672-5.684z" fill="#262626"/></svg>