<svg xmlns="http://www.w3.org/2000/svg" width="24" height="24" viewBox="0 0 24 24"><path d="M21.495 3.651h-2.798V2.505A.504.504 0 0 0 18.192 2h-2.477a.504.504 0 0 0-.504.505v1.146H8.789V2.505A.505.505 0 0 0 8.285 2H5.808a.504.504 0 0 0-.505.505v1.146H2.505A.506.506 0 0 0 2 4.156v17.339c0 .279.226.505.505.505h18.99a.505.505 0 0 0 .505-.505V4.156a.506.506 0 0 0-.505-.505zM16.22 3.01h1.468v2.293H16.22V3.01zm-9.908 0H7.78v2.293H6.312V3.01zM5.303 4.661v1.147c0 .279.226.505.505.505h2.477a.504.504 0 0 0 .504-.505V4.661h6.422v1.147c0 .279.226.505.504.505h2.477a.505.505 0 0 0 .505-.505V4.661h2.293v3.118H3.009V4.661h2.294zM3.009 20.99V8.789H20.99V20.99H3.009zm16.835-8.898a.505.505 0 1 0 0-1.01h-2.798V9.936a.505.505 0 1 0-1.01 0v1.146h-3.531V9.936a.505.505 0 1 0-1.009 0v1.146H7.963V9.936a.505.505 0 1 0-1.009 0v1.146H4.156a.505.505 0 1 0 0 1.01h2.798v2.293H4.156a.505.505 0 1 0 0 1.01h2.798v2.293H4.156a.505.505 0 1 0 0 1.01h2.798v1.146a.505.505 0 1 0 1.009 0v-1.146h3.532v1.146a.505.505 0 1 0 1.009 0v-1.146h3.531v1.146a.505.505 0 1 0 1.01 0v-1.146h2.798a.505.505 0 1 0 0-1.01h-2.798v-2.293h2.798a.505.505 0 1 0 0-1.01h-2.798v-2.293h2.799zm-11.881 0h3.532v2.293H7.963v-2.293zm0 5.596v-2.293h3.532v2.293H7.963zm8.073 0h-3.531v-2.293h3.531v2.293zm0-3.303h-3.531v-2.293h3.531v2.293z" fill="#262626"/></svg>