<svg xmlns="http://www.w3.org/2000/svg" width="24" height="24" viewBox="0 0 24 24"><path d="M21.75 5.001H2.25A2.252 2.252 0 0 0 0 7.251v9.429c0 1.24 1.009 2.336 2.25 2.336h19.484c1.241 0 2.266-1.096 2.266-2.336V7.251a2.252 2.252 0 0 0-2.25-2.25zm-19.5 1h19.5c.687 0 1.25.562 1.25 1.25l.016.765L1 8v-.749c0-.688.562-1.25 1.25-1.25zm19.5 12.015H2.25c-.688 0-1.25-.562-1.25-1.25V10h22v6.766c0 .687-.563 1.25-1.25 1.25zm-7.359-5.77v-.532a3.1 3.1 0 0 0 .483-.05.675.675 0 0 0 .36-.21.678.678 0 0 0 .143-.284.656.656 0 0 0 .026-.16h.611v3.981h-.75v-2.746h-.873zm2.222 1.972c.104-.267.353-.547.742-.843.336-.258.555-.444.653-.556a.843.843 0 0 0 .229-.57.661.661 0 0 0-.13-.417.455.455 0 0 0-.377-.169c-.222 0-.374.088-.454.266-.048.102-.074.264-.082.488h-.711c.012-.338.07-.612.172-.822.197-.396.542-.595 1.042-.595.394 0 .707.118.941.35.231.232.35.54.35.928 0 .292-.083.554-.248.785-.11.151-.286.319-.531.506l-.293.222c-.185.143-.311.24-.376.305a.878.878 0 0 0-.175.216h1.628V15h-2.55c.008-.286.064-.546.17-.782zm3.577-.507c0 .156.024.285.07.387.086.188.244.281.471.281a.502.502 0 0 0 .367-.154c.104-.102.156-.25.156-.443 0-.254-.096-.426-.289-.51-.11-.049-.283-.072-.521-.072v-.55c.232-.002.394-.027.487-.072.156-.076.234-.227.234-.455a.535.535 0 0 0-.12-.363.43.43 0 0 0-.341-.137c-.17 0-.292.055-.373.17a.757.757 0 0 0-.111.458h-.67c.008-.195.039-.377.094-.55.061-.152.151-.291.276-.42a.94.94 0 0 1 .332-.209c.131-.046.29-.072.477-.072.346 0 .625.096.838.287.214.193.319.449.319.773a.906.906 0 0 1-.189.58.647.647 0 0 1-.253.201c.065 0 .159.059.281.18.183.18.273.428.273.74 0 .328-.106.617-.32.867-.212.247-.526.372-.944.372-.513 0-.87-.18-1.07-.539-.105-.189-.164-.439-.176-.75h.702z" fill="#262626"/></svg>