<svg xmlns="http://www.w3.org/2000/svg" width="24" height="24" viewBox="0 0 24 24"><path d="M21 9.5a.5.5 0 0 0-.5-.5h-3a.5.5 0 0 0-.5.5V21h-.991l-.024-6.5a.5.5 0 0 0-.5-.5H12.5a.5.5 0 0 0-.5.5V21h-1v-7.5a.5.5 0 0 0-.5-.5h-3a.5.5 0 0 0-.5.5V21H6v-3.5a.514.514 0 0 0-.5-.516h-3c-.276 0-.5.239-.5.516v4a.5.5 0 0 0 .5.5h18a.5.5 0 0 0 .5-.5v-12zM5 21.031H3v-3.047h2v3.047zM10 21H8v-7h2v7zm5 0h-2v-6h2v6zm5 0h-2V10h2v11zM4.129 12.862c.725 0 1.314-.591 1.314-1.317 0-.135-.039-.258-.077-.38l3.059-2.55c.182.097.382.165.602.165.396 0 .74-.185.981-.463l2.622.873c.051.68.603 1.222 1.296 1.222.727 0 1.317-.59 1.317-1.316 0-.214-.063-.408-.154-.587l3.334-3.892a1.3 1.3 0 0 0 .399.081 1.318 1.318 0 0 0 0-2.633c-.725 0-1.314.59-1.314 1.315 0 .214.063.409.154.587l-3.336 3.894a1.277 1.277 0 0 0-.4-.081c-.396 0-.739.184-.981.462l-2.619-.873a1.31 1.31 0 0 0-1.299-1.222c-.726 0-1.316.59-1.316 1.315 0 .135.039.258.077.381l-3.058 2.55a1.288 1.288 0 0 0-.602-.165 1.317 1.317 0 1 0 .001 2.634zm14.693-9.797a.317.317 0 1 1 0 .633.316.316 0 0 1-.314-.318c0-.174.14-.315.314-.315zM13.926 8.78c.175 0 .317.142.317.315a.316.316 0 1 1-.317-.315zM9.027 7.147a.316.316 0 1 1 0 .632.316.316 0 0 1 0-.632zm-4.898 4.082c.174 0 .314.142.314.316a.316.316 0 1 1-.314-.316z" fill="#262626"/></svg>