<svg xmlns="http://www.w3.org/2000/svg" width="24" height="24" viewBox="0 0 24 24"><path d="M17.992 9.682c0-.942-.781-1.708-1.723-1.708l-8.421.015c-.941 0-1.855.766-1.855 1.708v5.635c0 .943.906 1.709 1.848 1.709l8.437-.016c.941 0 1.715-.766 1.715-1.709V9.682zm-1 5.634a.722.722 0 0 1-.723.709l-8.422.016c-.391 0-.855-.318-.855-.709V9.697c0-.391.457-.708.848-.708l8.437-.016c.391 0 .715.317.715.708v5.635zm-1.197-1.172a.498.498 0 0 1-.321.883.496.496 0 0 1-.32-.115l-2.146-1.787-.733.59a.5.5 0 0 1-.614 0l-.846-.68-2.033 1.877a.498.498 0 0 1-.704-.065.499.499 0 0 1 .064-.703l1.887-1.743-1.873-1.507a.499.499 0 1 1 .613-.789l3.199 2.581 3.199-2.581a.5.5 0 1 1 .613.789l-1.978 1.591 1.993 1.659zM6.72 4.186a.5.5 0 0 1 .153-.69c3.135-1.994 7.339-1.994 10.47 0a.499.499 0 1 1-.537.843c-2.809-1.79-6.583-1.79-9.396 0a.497.497 0 0 1-.69-.153zm12.909 13.019A8.711 8.711 0 0 0 21 12.507a8.708 8.708 0 0 0-1.371-4.697.5.5 0 0 1 .843-.539A9.712 9.712 0 0 1 22 12.507c0 1.86-.528 3.67-1.527 5.235a.501.501 0 0 1-.844-.537zm-16.141.529A9.715 9.715 0 0 1 1.963 12.5c0-1.86.527-3.67 1.525-5.235a.502.502 0 0 1 .69-.152.498.498 0 0 1 .154.689A8.715 8.715 0 0 0 2.963 12.5c0 1.668.474 3.293 1.369 4.698a.499.499 0 0 1-.422.769.499.499 0 0 1-.422-.233zm13.869 1.996a.498.498 0 0 1-.153.689 9.716 9.716 0 0 1-5.233 1.525 9.734 9.734 0 0 1-5.236-1.525.499.499 0 1 1 .537-.843c2.813 1.789 6.585 1.791 9.396 0 .23-.144.54-.08.689.154zm4.459 1.416a.5.5 0 0 1-.707.708l-3-3a.5.5 0 0 1 .707-.707l3 2.999zm-15.999-3a.5.5 0 0 1 0 .707l-3.001 3a.502.502 0 0 1-.707.001.5.5 0 0 1 0-.707l3.001-3a.5.5 0 0 1 .707-.001zM2.109 2.853a.5.5 0 0 1 .707-.706l3 3a.5.5 0 0 1-.707.707l-3-3.001zm15.999 3a.5.5 0 0 1 0-.707l3.001-3a.498.498 0 0 1 .708 0 .5.5 0 0 1 0 .707l-3.001 3a.502.502 0 0 1-.708 0z" fill="#262626"/></svg>