<svg xmlns="http://www.w3.org/2000/svg" width="24" height="24" viewBox="0 0 24 24"><path d="M12 2C6.486 2 2 6.486 2 12s4.486 10 10 10 10-4.486 10-10S17.514 2 12 2zm0 19.131c-5.034 0-9.13-4.096-9.13-9.131S6.966 2.869 12 2.869c5.034 0 9.13 4.096 9.13 9.131s-4.096 9.131-9.13 9.131zm6.331-5.978a.44.44 0 0 1-.623 0l-1.191-1.191v1.748a2.753 2.753 0 0 1-2.751 2.75 2.753 2.753 0 0 1-2.751-2.75V8.644c0-1.09-.887-1.976-1.977-1.976s-1.977.887-1.977 1.976v2.337a.387.387 0 1 1-.774 0V8.618h.003c.015-1.505 1.24-2.724 2.748-2.724s2.733 1.219 2.749 2.724h.002v7.092a1.98 1.98 0 0 0 1.977 1.977 1.98 1.98 0 0 0 1.978-1.977v-1.804l-1.241 1.241a.44.44 0 1 1-.623-.624l1.911-1.911a.452.452 0 0 1 .624 0l1.917 1.917a.44.44 0 0 1-.001.624z" fill="#262626"/></svg>