<svg xmlns="http://www.w3.org/2000/svg" width="24" height="24" viewBox="0 0 24 24"><path d="M19.029 11.993a.437.437 0 0 1-.128.309l-1.89 1.89a.433.433 0 0 1-.615 0 .433.433 0 0 1 0-.614l1.119-1.119H5.406a.458.458 0 0 1 0-.916h12.116l-1.125-1.118a.433.433 0 0 1-.002-.614.436.436 0 0 1 .615-.002l1.89 1.879c.082.08.129.191.129.305zM22 12c0 5.514-4.486 10-10 10S2 17.514 2 12C2 6.485 6.486 2 12 2s10 4.485 10 10zm-.87 0c0-5.035-4.096-9.131-9.13-9.131-5.034 0-9.13 4.096-9.13 9.131s4.096 9.131 9.13 9.131c5.034 0 9.13-4.096 9.13-9.131z" fill="#262626"/></svg>