<svg xmlns="http://www.w3.org/2000/svg" width="24" height="24" viewBox="0 0 24 24"><path d="M12 2C6.486 2 2 6.486 2 12s4.486 10 10 10 10-4.486 10-10S17.514 2 12 2zm0 19.131c-5.035 0-9.131-4.096-9.131-9.131S6.965 2.869 12 2.869 21.131 6.965 21.131 12 17.035 21.131 12 21.131zM19 9.5v3a.5.5 0 0 1-1 0v-1.902l-2.64 2.748a.501.501 0 0 1-.638.069l-2.528-1.686-2.747 5.493A.497.497 0 0 1 9 17.5h-.015a.502.502 0 0 1-.445-.303l-3-7a.501.501 0 0 1 .92-.394l2.575 6.01 2.518-5.036a.503.503 0 0 1 .724-.193l2.652 1.768L17.188 10H15.5a.5.5 0 0 1 0-1h3a.5.5 0 0 1 .5.5z" fill="#262626"/></svg>