<svg xmlns="http://www.w3.org/2000/svg" width="24" height="24" viewBox="0 0 24 24"><path d="M4.96 6.33L2.098 2.801a.5.5 0 0 1 .776-.63l2.643 3.258 5.425-1.855c.009-.003.018-.001.027-.003a.464.464 0 0 1 .1-.013c.031-.002.061-.006.092-.003s.061.015.09.024c.032.01.063.019.093.035.009.005.019.005.026.01l9.58 6.029a.499.499 0 1 1-.533.846l-9.378-5.902-5.526 1.89h-.001l-.002.001a.481.481 0 0 1-.134.022c-.009 0-.019.004-.027.004h-.001a.494.494 0 0 1-.254-.08c-.024-.014-.041-.03-.062-.048-.023-.02-.052-.032-.072-.056zm11.73-.448a.504.504 0 0 0 .394-.19l1.451-1.85a.5.5 0 1 0-.787-.617l-1.449 1.848a.499.499 0 0 0 .391.809zm-4.454 5.789c.037-.027.078-.048.108-.086l.001-.001h.001v-.001l2.424-3.086a.5.5 0 0 0-.787-.618l-2.117 2.697L8.44 7.909l-.007-.004-.006-.006c-.026-.018-.054-.024-.081-.037-.032-.015-.06-.034-.092-.042-.031-.008-.064-.005-.096-.007-.031-.001-.063-.007-.096-.003-.031.004-.06.019-.09.03-.03.01-.062.017-.09.033-.028.016-.05.043-.075.065-.021.02-.049.034-.068.059-.003.002-.003.005-.005.007l-.006.006-4.187 5.782a.5.5 0 1 0 .808.586l3.885-5.363 3.41 2.654a.497.497 0 0 0 .523.057c.026-.012.046-.038.069-.055zM22 16.002A5.005 5.005 0 0 1 17 21c-2.758 0-5-2.242-5-4.998A5.006 5.006 0 0 1 17 11c2.757 0 5 2.244 5 5.002zm-1.008 0c0-2.2-1.791-3.99-3.992-3.99a3.996 3.996 0 0 0-3.993 3.99 3.994 3.994 0 0 0 7.985 0zM19 15.5h-1.5V14a.5.5 0 0 0-1 0v1.5H15a.5.5 0 0 0 0 1h1.5V18a.5.5 0 0 0 1 0v-1.5H19a.5.5 0 0 0 0-1z" fill="#262626"/></svg>