<svg xmlns="http://www.w3.org/2000/svg" width="24" height="24" viewBox="0 0 24 24"><path d="M20.263 4H3.739C2.78 4 2 4.732 2 5.633v11.734C2 18.268 2.78 19 3.739 19h6.017l-.742 1H6.5a.5.5 0 0 0 0 1h11a.5.5 0 0 0 0-1h-2.475l-.773-1h6.01c.959 0 1.738-.732 1.738-1.633V5.633C22 4.732 21.221 4 20.263 4zM10.26 20l.742-1h1.987l.773 1H10.26zM21 17.367c0 .349-.331.633-.737.633H3.739C3.332 18 3 17.716 3 17.367V5.633C3 5.284 3.332 5 3.739 5h16.523c.407 0 .738.284.738.633v11.734zM4 16.033h16V6H4v10.033zM5 7h14v8.033H5V7zm7 9.25a.75.75 0 1 0 .001 1.499A.75.75 0 0 0 12 16.25zm-.25.751a.25.25 0 1 1 .5 0c0 .275-.5.275-.5 0z" fill="#262626"/></svg>