<svg xmlns="http://www.w3.org/2000/svg" width="24" height="24" viewBox="0 0 24 24"><path d="M22 17.604v1.077C22 20.374 20.567 22 19 22H6c-1.701 0-3-1.756-3-3.313V17.61c0-.276.194-.5.471-.5s.529.223.529.499v1.077C4 19.769 4.92 21 6 21h13c1.034 0 2-1.162 2-2.319v-1.077c0-.276.211-.5.487-.5s.513.224.513.5zm-9.898.261a.5.5 0 0 0 .377.172h.004a.502.502 0 0 0 .378-.177l5.983-6.844a.5.5 0 1 0-.764-.646L13 16.171V2.755c0-.276-.245-.5-.522-.5-.276 0-.478.224-.478.5v13.444l-5.12-5.881a.5.5 0 0 0-.754.656l5.976 6.891z" fill="#262626"/></svg>