<svg xmlns="http://www.w3.org/2000/svg" width="24" height="24" viewBox="0 0 24 24"><path d="M13.962 4.522c0 .276-.224.478-.5.478H4.568c-.276 0-.5-.178-.5-.454S4.291 4 4.568 4h8.894c.277 0 .5.245.5.522zM4 12.504V6.511c0-.276.263-.5.54-.5h3.963a.5.5 0 0 1 .5.5v5.993a.5.5 0 0 1-.5.5H4.54c-.277 0-.54-.224-.54-.5zm1-.5h3.003V7.011H5v4.993zm8.446-4.993a.5.5 0 0 0 0-1h-2.198a.5.5 0 0 0 0 1h2.198zm-3.421 1.451c0 .276.224.538.5.538h2.921c.276 0 .5-.262.5-.538S13.722 8 13.446 8h-2.921c-.276 0-.5.186-.5.462zm.5 2.542h2.921a.5.5 0 0 0 0-1h-2.921a.5.5 0 0 0 0 1zm0 2h2.921a.5.5 0 0 0 0-1h-2.921a.5.5 0 0 0 0 1zm2.937.996H4.568c-.276 0-.5.285-.5.561 0 .276.224.439.5.439h8.894c.276 0 .5-.162.5-.439 0-.276-.223-.561-.5-.561zm0 1.991H4.568a.5.5 0 0 0 0 1h8.894a.5.5 0 0 0 0-1zM13.409 18H4.54c-.276 0-.5.205-.5.481a.5.5 0 0 0 .5.5h8.87a.5.5 0 0 0 .5-.5.486.486 0 0 0-.501-.481zM22 4.534l-.016 14.391c0 1.57-1.595 3.075-3.301 3.075-.214 0-.419.018-.617 0-.05.018-.104 0-.16 0H4.196c-.948 0-2.171-1.544-2.171-3.062V2.476c0-.277.223-.476.5-.476h12.934c.133 0 .26.027.354.121.093.094.187.221.187.354V3h1.435c.275 0 .563.202.565.477V4h3.484c.277 0 .516.258.516.534zm-6.016 16.482C15.266 20.75 15 19.74 15 18.937V2.975L3 2.976v15.962c0 1.1.914 2.046 1.198 2.062l11.786.016zM21 5h-3v1h1.545c.276 0 .455.293.455.569v12.178C20 19.52 19.31 20 18.625 20c-.94 0-1.623-.563-1.623-1.312L17 4.571v-.025V4h-1v2l-.042 12.937c0 1.61 1.482 2.063 2.725 2.063 1.039 0 2.301-.96 2.301-2.075L21 5zm-2.998 13.687c0 .143.25.313.623.313.2 0 .42-.114.42-.253V7L18 7.011l.002 11.676z" fill="#262626"/></svg>