<svg xmlns="http://www.w3.org/2000/svg" width="24" height="24" viewBox="0 0 24 24"><path d="M21.852 21.141l-5.973-5.973a7.952 7.952 0 0 0 1.945-5.212c0-4.388-3.549-7.959-7.91-7.959-4.363 0-7.912 3.57-7.912 7.959 0 4.389 3.549 7.959 7.912 7.959a7.846 7.846 0 0 0 5.264-2.035l5.967 5.967a.5.5 0 0 0 .707-.706zM9.914 16.916c-3.812 0-6.912-3.122-6.912-6.959 0-3.837 3.1-6.959 6.912-6.959 3.811 0 6.91 3.122 6.91 6.959 0 3.836-3.099 6.959-6.91 6.959zm4.205-9.913h-2.041c-.276 0-.418.224-.418.5v5.507h-.629V5.523a.5.5 0 0 0-.5-.5h-2a.5.5 0 0 0-.5.5v7.487l-.453.006V9.523a.5.5 0 0 0-.5-.5H4.997a.5.5 0 0 0-.5.5v3.994a.5.5 0 0 0 .5.5h2.081l1.453-.006H14.119a.5.5 0 0 0 .5-.5V7.503a.5.5 0 0 0-.5-.5zm-7.541 6.013H5.497v-2.994h1.081v2.994zm3.452-.007h-1V6.023h1v6.986zm3.589 0h-1.042V8.002h1.042v5.007z" fill="#262626"/></svg>