<svg xmlns="http://www.w3.org/2000/svg" width="24" height="24" viewBox="0 0 24 24"><path d="M19.446 5.35a.498.498 0 0 0-.15-.166 9.996 9.996 0 0 0-4.384-2.748c-.02-.006-.039-.013-.06-.016A9.962 9.962 0 0 0 12 2C6.486 2 2 6.486 2 12s4.486 10 10 10 10-4.486 10-10a9.945 9.945 0 0 0-2.554-6.65zm-.976.409c-.141.528-.572 1.805-1.589 2.408-1.498-.271-2.905.529-3.227.922-.228.276-.148.528-.102.623.062.131.21.239.362.286.133.174.356.76.491 1.296a.498.498 0 0 0 .131.232c.393.393.932.366 1.319.273-.057.457-.754 1.183-1.165 1.609-.46.478-.713.742-.713 1.07 0 .382.279.625.465.786l.102.092-.008.007c-.521.52-1.041.705-1.044.706a.501.501 0 0 0-.342.475c0 .457-.114.793-.35 1.025-.414.41-1.132.422-1.521.432-.272-.211-.817-1.185-.847-1.457 0-.089.082-.252.154-.396.121-.243.259-.519.259-.843 0-.475-.472-1.065-.832-1.448-.032-.517-.186-.901-.47-1.168-.493-.467-1.21-.425-1.898-.386-.197.012-.4.023-.604.023-.723 0-.74-1.108-.74-1.153 0-.024.019-2.483 1.663-2.814a4.86 4.86 0 0 1 .947-.108c.389 0 .515.075.52.043a.52.52 0 0 0 .15.343c.771.772 1.967.495 2.84.292.321-.075.626-.146.818-.146a.5.5 0 0 0 .495-.43c.232-1.629.117-2.623-.343-2.955-.227-.163-.513-.18-.789-.041-.272.136-.522.162-.684.073-.175-.098-.231-.324-.246-.497-.04-.423 1.439-1.136 3.077-1.5a9.006 9.006 0 0 1 3.721 2.326zM12 21c-4.963 0-9-4.037-9-9s4.037-9 9-9c.213 0 .421.018.63.032-1.049.428-2.039 1.076-1.954 1.992.054.583.322 1.037.756 1.279.394.219.886.234 1.381.051.048.308.04.88-.021 1.473-.189.032-.39.079-.597.127-.661.154-1.405.329-1.815.05a1 1 0 0 0-.303-.411c-.445-.365-1.198-.436-2.307-.214-2.438.489-2.467 3.659-2.467 3.794 0 .745.363 2.153 1.74 2.153.223 0 .444-.013.66-.024.481-.027.976-.056 1.155.113.134.127.162.424.162.65 0 .133.053.26.147.353.321.321.652.763.68.886 0 .088-.082.251-.153.396-.122.243-.26.519-.26.844 0 .505.92 2.456 1.82 2.456l.102.001c.447 0 1.467-.044 2.149-.721.361-.358.573-.829.63-1.403.278-.14.696-.393 1.109-.807.237-.237.353-.49.344-.752-.014-.395-.3-.644-.489-.809a.987.987 0 0 1-.038-.033c.098-.111.237-.257.351-.375.799-.83 2.134-2.22 1.072-3.282a.505.505 0 0 0-.575-.095c-.184.09-.44.149-.584.128-.181-.669-.369-1.094-.546-1.363.447-.234 1.244-.514 2.057-.309a.509.509 0 0 0 .345-.038c1.126-.564 1.733-1.675 2.045-2.486A8.947 8.947 0 0 1 21 12c0 4.963-4.037 9-9 9z" fill="#262626"/></svg>