<svg xmlns="http://www.w3.org/2000/svg" width="24" height="24" viewBox="0 0 24 24"><path d="M18.172 9.242h-.95a1.406 1.406 0 0 0-1.312-.905h-1.403a1.405 1.405 0 0 0-1.312-.905h-1.311V3.859c0-1.023-.832-1.856-1.856-1.856s-1.856.833-1.856 1.856v9.321l-1.581-1.354a1.591 1.591 0 0 0-2.151.082c-.547.548-.62 1.403-.196 1.999.145.248 3.575 6.084 4.933 7.896l.149.2h8.769l1.566-5.477a9.603 9.603 0 0 0 .367-2.623v-2.805a1.857 1.857 0 0 0-1.856-1.856zm.859 4.66c0 .792-.111 1.583-.33 2.349l-1.358 4.754H9.829c-1.419-1.977-4.692-7.546-4.748-7.637a.589.589 0 0 1 .064-.755.592.592 0 0 1 .797-.03L9.17 15.35V3.859A.86.86 0 0 1 10.029 3a.86.86 0 0 1 .858.859v6.787h.998V8.43h1.311c.224 0 .406.182.406.406v1.81h.998V9.335h1.311c.224 0 .406.182.406.406v1.81h.998v-1.312h.858a.86.86 0 0 1 .859.858v2.805z" fill="#262626"/></svg>