<svg xmlns="http://www.w3.org/2000/svg" width="24" height="24" viewBox="0 0 24 24"><path d="M11.513 15.957a.774.774 0 1 1-.001 1.547.774.774 0 0 1 .001-1.547zm.5-1.517v-1.863a2.823 2.823 0 0 0 2.317-2.773c0-1.554-1.264-2.818-2.817-2.818S8.695 8.25 8.695 9.804a.5.5 0 0 0 1 0 1.82 1.82 0 0 1 1.817-1.818c1.002 0 1.817.816 1.817 1.818s-.816 1.818-1.817 1.818a.5.5 0 0 0-.5.5v2.318a.5.5 0 0 0 1.001 0zM22 12c0-5.514-4.486-10-10-10S2 6.486 2 12s4.486 10 10 10 10-4.486 10-10zm-1 0c0 4.962-4.037 9-9 9s-9-4.038-9-9 4.037-9 9-9 9 4.038 9 9z" fill="#262626"/></svg>