<svg xmlns="http://www.w3.org/2000/svg" width="24" height="24" viewBox="0 0 24 24"><path d="M19.5 21.5h-5.833v-5.782h-3.334V21.5H4.5v-8.674c0-.228.186-.413.417-.413.23 0 .416.185.416.413v7.848H9.5v-5.782h5v5.782h4.167V13.24c0-.229.186-.413.416-.413.23 0 .417.185.417.413v8.26zm2.378-8.795a.41.41 0 0 0 0-.584l-9.583-9.5a.42.42 0 0 0-.59 0l-9.583 9.5a.41.41 0 0 0 0 .584.42.42 0 0 0 .589 0L12 3.497l9.289 9.208a.417.417 0 0 0 .589 0zm-3.211-6.074V3.326h-3.334a.414.414 0 1 0 0 .826h2.5v2.479c0 .227.186.412.417.412.23 0 .417-.185.417-.412z" fill="#262626"/></svg>