<svg xmlns="http://www.w3.org/2000/svg" width="24" height="24" viewBox="0 0 24 24"><path d="M12.5 13.021H6.479a.5.5 0 0 0-.5.5v5.021a.5.5 0 0 0 .5.5H12.5a.5.5 0 0 0 .5-.5v-5.021a.5.5 0 0 0-.5-.5zm-.5 5.021H6.979v-4.021H12v4.021zM22.269 6.293l-1.605-4a.5.5 0 0 0-.453-.289H4.222a.5.5 0 0 0-.453.289l-1.604 4a.5.5 0 0 0 .031.48.495.495 0 0 0 .329.208V7.3c0 1.217.548 2.359 1.454 2.915v11.281a.5.5 0 0 0 .5.5h16.04a.5.5 0 0 0 .5-.5V9.842c0-.027-.011-.05-.016-.076.547-.585.882-1.443.882-2.462v-.318a.491.491 0 0 0 .351-.213.498.498 0 0 0 .033-.48zm-3.455 3.278c-.353 0-.484-.279-.785-.601.004-.026.016-.049.016-.076V6.999l2.842.004v.299c0 1.128-.961 2.269-2.073 2.269zM8.005 7L12 7.004v2.512c-.517.627-1.48.979-2.21.979-.875 0-1.259-.719-1.785-1.639V7zM12 3.031v3L7.025 6l1.166-2.996L12 3.031zm4.196-.027L16.717 6H13V3.031l3.196-.027zm-3.196 4l4.045.012v1.76c-.013.018-.033.028-.044.048-.529.965-1.56 1.672-2.437 1.672-.695 0-1.055-.334-1.564-.921V7.004zm8.031-1h-3.292l-.521-3h2.672l1.141 3zm-16.49-3h2.628L5.979 6H3.401l1.14-2.996zM3.48 7.303v-.299h3.524v1.865c-.383.389-1.43.702-1.796.702-1.06 0-1.728-1.039-1.728-2.268zm11.5 13.692l.02-6.974 3.047-.005L18 21l-3.02-.005zm5.04 0h-.978V13.5c0-.276-.328-.479-.605-.479H14.5a.5.5 0 0 0-.5.5l-.02 7.474H4.979V10.543c.077.007.149.028.23.028.545 0 1.74-.317 2.24-.74.729.964 1.266 1.664 2.341 1.664.881 0 1.728-.36 2.394-1.005.667.652 1.495 1.005 2.381 1.005 1.062 0 2.099-.576 2.825-1.539.354.333.799.614 1.425.614.295 0 .946-.063 1.206-.156v10.581zm-2.497-3.543c0 .53-.404.962-.9.962s-.9-.432-.9-.962c0-.531.404-.962.9-.962s.9.431.9.962z" fill="#262626"/></svg>