<svg xmlns="http://www.w3.org/2000/svg" width="24" height="24" viewBox="0 0 24 24"><path d="M16.911 22H7.045c-1.152 0-2.029-.71-2.029-1.86L5.004 3.736C5.004 2.584 5.881 2 7.033 2h9.866c1.151 0 2.089.688 2.089 1.839L19 20.258c0 1.15-.938 1.742-2.089 1.742zM7.033 3c-.6 0-1.029.246-1.029.846l.012 16.418c0 .6.429.735 1.029.735h9.866C17.512 21 18 20.732 18 20.133l-.012-16.404c0-.601-.488-.729-1.089-.729H7.033zm4.966 15.5a.793.793 0 0 0 0 1.589.796.796 0 1 0 0-1.589zM16.5 18H7.478c-.276 0-.506-.427-.506-.703l.012-11.875c0-.276.23-.422.506-.422h9.022c.276 0 .5-.026.5.25L17 17.375c0 .276-.224.625-.5.625zm-8.522-1H16l.012-11H7.99l-.012 11zm3.963-13.295a.395.395 0 0 0-.395.397.396.396 0 1 0 .793 0 .396.396 0 0 0-.398-.397z" fill="#262626"/></svg>