<svg xmlns="http://www.w3.org/2000/svg" width="24" height="24" viewBox="0 0 24 24"><path d="M2 19.345C2 20.25 2.746 21 3.667 21h16.665a1.67 1.67 0 0 0 1.672-1.655L22.009 9H2v10.345zM3 10h18.009l-.004 9.345a.67.67 0 0 1-.672.655H3.667a.669.669 0 0 1-.672-.655L3 10zm6.308 8.914a.528.528 0 0 0 .514.022l6.904-3.451a.531.531 0 0 0 0-.948l-6.904-3.452a.536.536 0 0 0-.515.023c-.155.098-.307.269-.307.452v6.903c0 .183.152.353.308.451zm.692-6.57l5.307 2.668L10 17.672v-5.328zM20.693 3H3.316C2.59 3 2 3.587 2 4.312V8h20.009V4.315c0-.725-.591-1.315-1.316-1.315zm.316 1.315V5.81l-1.254 1.206-2.21-.001L20.607 4h.087c.173 0 .315.142.315.315zm-7.702-.316h2.221l-3.061 3.016-2.221-.001 3.061-3.015zM8.82 7.014H6.608L9.67 3.998h2.212L8.82 7.014zm8.132-3.015l2.23.001-3.062 3.015h-2.229l3.061-3.016zM3.316 3.997h1.279L3 5.519V4.312c0-.173.142-.315.316-.315zM3 6.903l3.043-2.905h2.202L5.184 7.013H3v-.11z" fill="#262626"/></svg>