<svg xmlns="http://www.w3.org/2000/svg" width="24" height="24" viewBox="0 0 24 24"><symbol id="a" viewBox="-12 -12 24 24"><path opacity=".05" fill="#f0f" d="M-11 11h-1v1h1z"/><path opacity=".25" fill="#f0f" d="M-11 10h-1v1h1z"/><path opacity=".05" fill="#f0f" d="M-11 9h-1v1h1z"/><path opacity=".25" fill="#f0f" d="M-11 8h-1v1h1z"/><path opacity=".05" fill="#f0f" d="M-11 7h-1v1h1z"/><path opacity=".25" fill="#f0f" d="M-11 6h-1v1h1z"/><path opacity=".05" fill="#f0f" d="M-11 5h-1v1h1z"/><path opacity=".25" fill="#f0f" d="M-11 4h-1v1h1z"/><path opacity=".05" fill="#f0f" d="M-11 3h-1v1h1z"/><path opacity=".25" fill="#f0f" d="M-11 2h-1v1h1z"/><path opacity=".05" fill="#f0f" d="M-11 1h-1v1h1z"/><path opacity=".25" fill="#f0f" d="M-11 0h-1v1h1z"/><path opacity=".05" fill="#f0f" d="M-11-1h-1v1h1z"/><path opacity=".25" fill="#f0f" d="M-11-2h-1v1h1z"/><path opacity=".05" fill="#f0f" d="M-11-3h-1v1h1z"/><path opacity=".25" fill="#f0f" d="M-11-4h-1v1h1z"/><path opacity=".05" fill="#f0f" d="M-11-5h-1v1h1z"/><path opacity=".25" fill="#f0f" d="M-11-6h-1v1h1z"/><path opacity=".05" fill="#f0f" d="M-11-7h-1v1h1z"/><path opacity=".25" fill="#f0f" d="M-11-8h-1v1h1z"/><path opacity=".05" fill="#f0f" d="M-11-9h-1v1h1z"/><path opacity=".25" fill="#f0f" d="M-11-10h-1v1h1z"/><path opacity=".05" fill="#f0f" d="M-11-11h-1v1h1z"/><path opacity=".25" fill="#f0f" d="M-11-12h-1v1h1zM-10 11h-1v1h1z"/><path opacity=".05" fill="#f0f" d="M-10 10h-1v1h1z"/><path opacity=".25" fill="#f0f" d="M-10 9h-1v1h1z"/><path opacity=".05" fill="#f0f" d="M-10 8h-1v1h1z"/><path opacity=".25" fill="#f0f" d="M-10 7h-1v1h1z"/><path opacity=".05" fill="#f0f" d="M-10 6h-1v1h1z"/><path opacity=".25" fill="#f0f" d="M-10 5h-1v1h1z"/><path opacity=".05" fill="#f0f" d="M-10 4h-1v1h1z"/><path opacity=".25" fill="#f0f" d="M-10 3h-1v1h1z"/><path opacity=".05" fill="#f0f" d="M-10 2h-1v1h1z"/><path opacity=".25" fill="#f0f" d="M-10 1h-1v1h1z"/><path opacity=".05" fill="#f0f" d="M-10 0h-1v1h1z"/><path opacity=".25" fill="#f0f" d="M-10-1h-1v1h1z"/><path opacity=".05" fill="#f0f" d="M-10-2h-1v1h1z"/><path opacity=".25" fill="#f0f" d="M-10-3h-1v1h1z"/><path opacity=".05" fill="#f0f" d="M-10-4h-1v1h1z"/><path opacity=".25" fill="#f0f" d="M-10-5h-1v1h1z"/><path opacity=".05" fill="#f0f" d="M-10-6h-1v1h1z"/><path opacity=".25" fill="#f0f" d="M-10-7h-1v1h1z"/><path opacity=".05" fill="#f0f" d="M-10-8h-1v1h1z"/><path opacity=".25" fill="#f0f" d="M-10-9h-1v1h1z"/><path opacity=".05" fill="#f0f" d="M-10-10h-1v1h1zM-10-12h-1v1h1z"/><path opacity=".25" fill="#f0f" d="M-10-11h-1v1h1z"/><path opacity=".05" fill="#f0f" d="M-9 11h-1v1h1z"/><path opacity=".25" fill="#f0f" d="M-9 10h-1v1h1z"/><path opacity=".05" fill="#f0f" d="M-9 9h-1v1h1z"/><path opacity=".25" fill="#f0f" d="M-9 8h-1v1h1z"/><path opacity=".05" fill="#f0f" d="M-9 7h-1v1h1z"/><path opacity=".25" fill="#f0f" d="M-9 6h-1v1h1z"/><path opacity=".05" fill="#f0f" d="M-9 5h-1v1h1z"/><path opacity=".25" fill="#f0f" d="M-9 4h-1v1h1z"/><path opacity=".05" fill="#f0f" d="M-9 3h-1v1h1z"/><path opacity=".25" fill="#f0f" d="M-9 2h-1v1h1z"/><path opacity=".05" fill="#f0f" d="M-9 1h-1v1h1z"/><path opacity=".25" fill="#f0f" d="M-9 0h-1v1h1z"/><path opacity=".05" fill="#f0f" d="M-9-1h-1v1h1z"/><path opacity=".25" fill="#f0f" d="M-9-2h-1v1h1z"/><path opacity=".05" fill="#f0f" d="M-9-3h-1v1h1z"/><path opacity=".25" fill="#f0f" d="M-9-4h-1v1h1z"/><path opacity=".05" fill="#f0f" d="M-9-5h-1v1h1z"/><path opacity=".25" fill="#f0f" d="M-9-6h-1v1h1z"/><path opacity=".05" fill="#f0f" d="M-9-7h-1v1h1z"/><path opacity=".25" fill="#f0f" d="M-9-8h-1v1h1z"/><path opacity=".05" fill="#f0f" d="M-9-9h-1v1h1z"/><path opacity=".25" fill="#f0f" d="M-9-10h-1v1h1z"/><path opacity=".05" fill="#f0f" d="M-9-11h-1v1h1z"/><path opacity=".25" fill="#f0f" d="M-9-12h-1v1h1zM-8 11h-1v1h1z"/><path opacity=".05" fill="#f0f" d="M-8 10h-1v1h1z"/><path opacity=".25" fill="#f0f" d="M-8 9h-1v1h1z"/><path opacity=".05" fill="#f0f" d="M-8 8h-1v1h1z"/><path opacity=".25" fill="#f0f" d="M-8 7h-1v1h1z"/><path opacity=".05" fill="#f0f" d="M-8 6h-1v1h1z"/><path opacity=".25" fill="#f0f" d="M-8 5h-1v1h1z"/><path opacity=".05" fill="#f0f" d="M-8 4h-1v1h1z"/><path opacity=".25" fill="#f0f" d="M-8 3h-1v1h1z"/><path opacity=".05" fill="#f0f" d="M-8 2h-1v1h1z"/><path opacity=".25" fill="#f0f" d="M-8 1h-1v1h1z"/><path opacity=".05" fill="#f0f" d="M-8 0h-1v1h1z"/><path opacity=".25" fill="#f0f" d="M-8-1h-1v1h1z"/><path opacity=".05" fill="#f0f" d="M-8-2h-1v1h1z"/><path opacity=".25" fill="#f0f" d="M-8-3h-1v1h1z"/><path opacity=".05" fill="#f0f" d="M-8-4h-1v1h1z"/><path opacity=".25" fill="#f0f" d="M-8-5h-1v1h1z"/><path opacity=".05" fill="#f0f" d="M-8-6h-1v1h1z"/><path opacity=".25" fill="#f0f" d="M-8-7h-1v1h1z"/><path opacity=".05" fill="#f0f" d="M-8-8h-1v1h1z"/><path opacity=".25" fill="#f0f" d="M-8-9h-1v1h1z"/><path opacity=".05" fill="#f0f" d="M-8-10h-1v1h1zM-8-12h-1v1h1z"/><path opacity=".25" fill="#f0f" d="M-8-11h-1v1h1z"/><path opacity=".05" fill="#f0f" d="M-7 11h-1v1h1z"/><path opacity=".25" fill="#f0f" d="M-7 10h-1v1h1z"/><path opacity=".05" fill="#f0f" d="M-7 9h-1v1h1z"/><path opacity=".25" fill="#f0f" d="M-7 8h-1v1h1z"/><path opacity=".05" fill="#f0f" d="M-7 7h-1v1h1z"/><path opacity=".25" fill="#f0f" d="M-7 6h-1v1h1z"/><path opacity=".05" fill="#f0f" d="M-7 5h-1v1h1z"/><path opacity=".25" fill="#f0f" d="M-7 4h-1v1h1z"/><path opacity=".05" fill="#f0f" d="M-7 3h-1v1h1z"/><path opacity=".25" fill="#f0f" d="M-5 8h-1v1h1zM-7 2h-1v1h1z"/><path opacity=".05" fill="#f0f" d="M-7 1h-1v1h1z"/><path opacity=".25" fill="#f0f" d="M-7 0h-1v1h1z"/><path opacity=".05" fill="#f0f" d="M-7-1h-1v1h1z"/><path opacity=".25" fill="#f0f" d="M-7-2h-1v1h1z"/><path opacity=".05" fill="#f0f" d="M-7-3h-1v1h1z"/><path opacity=".25" fill="#f0f" d="M-7-4h-1v1h1z"/><path opacity=".05" fill="#f0f" d="M-7-5h-1v1h1z"/><path opacity=".25" fill="#f0f" d="M-7-6h-1v1h1z"/><path opacity=".05" fill="#f0f" d="M-7-7h-1v1h1z"/><path opacity=".25" fill="#f0f" d="M-7-8h-1v1h1z"/><path opacity=".05" fill="#f0f" d="M-7-9h-1v1h1z"/><path opacity=".25" fill="#f0f" d="M-7-10h-1v1h1z"/><path opacity=".05" fill="#f0f" d="M-7-11h-1v1h1z"/><path opacity=".25" fill="#f0f" d="M-7-12h-1v1h1zM-6 11h-1v1h1z"/><path opacity=".05" fill="#f0f" d="M-6 10h-1v1h1z"/><path opacity=".25" fill="#f0f" d="M-6 9h-1v1h1z"/><path opacity=".05" fill="#f0f" d="M-6 8h-1v1h1z"/><path opacity=".25" fill="#f0f" d="M-6 3h-1v1h1zM-6 7h-1v1h1z"/><path opacity=".05" fill="#f0f" d="M-6 6h-1v1h1z"/><path opacity=".25" fill="#f0f" d="M-6 5h-1v1h1z"/><path opacity=".05" fill="#f0f" d="M-6 4h-1v1h1zM-6 2h-1v1h1z"/><path opacity=".25" fill="#f0f" d="M-6 1h-1v1h1z"/><path opacity=".05" fill="#f0f" d="M-6 0h-1v1h1z"/><path opacity=".25" fill="#f0f" d="M-6-1h-1v1h1z"/><path opacity=".05" fill="#f0f" d="M-6-2h-1v1h1z"/><path opacity=".25" fill="#f0f" d="M-6-3h-1v1h1z"/><path opacity=".05" fill="#f0f" d="M-6-4h-1v1h1z"/><path opacity=".25" fill="#f0f" d="M-6-5h-1v1h1z"/><path opacity=".05" fill="#f0f" d="M-6-6h-1v1h1z"/><path opacity=".25" fill="#f0f" d="M-6-7h-1v1h1z"/><path opacity=".05" fill="#f0f" d="M-6-8h-1v1h1z"/><path opacity=".25" fill="#f0f" d="M-6-9h-1v1h1z"/><path opacity=".05" fill="#f0f" d="M-6-10h-1v1h1zM-6-12h-1v1h1z"/><path opacity=".25" fill="#f0f" d="M-6-11h-1v1h1z"/><path opacity=".05" fill="#f0f" d="M-5 11h-1v1h1z"/><path opacity=".25" fill="#f0f" d="M-5 10h-1v1h1z"/><path opacity=".05" fill="#f0f" d="M-5 9h-1v1h1zM-5 7h-1v1h1z"/><path opacity=".25" fill="#f0f" d="M-5 6h-1v1h1z"/><path opacity=".05" fill="#f0f" d="M-5 5h-1v1h1z"/><path opacity=".25" fill="#f0f" d="M-5 4h-1v1h1z"/><path opacity=".05" fill="#f0f" d="M-5 3h-1v1h1z"/><path opacity=".25" fill="#f0f" d="M-5 2h-1v1h1z"/><path opacity=".05" fill="#f0f" d="M-5 1h-1v1h1z"/><path opacity=".25" fill="#f0f" d="M-5 0h-1v1h1z"/><path opacity=".05" fill="#f0f" d="M-5-1h-1v1h1z"/><path opacity=".25" fill="#f0f" d="M-5-2h-1v1h1z"/><path opacity=".05" fill="#f0f" d="M-5-3h-1v1h1z"/><path opacity=".25" fill="#f0f" d="M-5-4h-1v1h1z"/><path opacity=".05" fill="#f0f" d="M-5-5h-1v1h1z"/><path opacity=".25" fill="#f0f" d="M-5-6h-1v1h1z"/><path opacity=".05" fill="#f0f" d="M-5-7h-1v1h1z"/><path opacity=".25" fill="#f0f" d="M-5-8h-1v1h1z"/><path opacity=".05" fill="#f0f" d="M-5-9h-1v1h1z"/><path opacity=".25" fill="#f0f" d="M-5-10h-1v1h1z"/><path opacity=".05" fill="#f0f" d="M-5-11h-1v1h1z"/><path opacity=".25" fill="#f0f" d="M-5-12h-1v1h1zM-4 11h-1v1h1z"/><path opacity=".05" fill="#f0f" d="M-4 10h-1v1h1z"/><path opacity=".25" fill="#f0f" d="M-4 9h-1v1h1z"/><path opacity=".05" fill="#f0f" d="M-4 8h-1v1h1z"/><path opacity=".25" fill="#f0f" d="M-4 7h-1v1h1z"/><path opacity=".05" fill="#f0f" d="M-4 6h-1v1h1z"/><path opacity=".25" fill="#f0f" d="M-4 5h-1v1h1z"/><path opacity=".05" fill="#f0f" d="M-4 4h-1v1h1z"/><path opacity=".25" fill="#f0f" d="M-4 3h-1v1h1z"/><path opacity=".05" fill="#f0f" d="M-4 2h-1v1h1z"/><path opacity=".25" fill="#f0f" d="M-4 1h-1v1h1z"/><path opacity=".05" fill="#f0f" d="M-4 0h-1v1h1z"/><path opacity=".25" fill="#f0f" d="M-4-1h-1v1h1z"/><path opacity=".05" fill="#f0f" d="M-4-2h-1v1h1z"/><path opacity=".25" fill="#f0f" d="M-4-3h-1v1h1z"/><path opacity=".05" fill="#f0f" d="M-4-4h-1v1h1z"/><path opacity=".25" fill="#f0f" d="M-4-5h-1v1h1z"/><path opacity=".05" fill="#f0f" d="M-4-6h-1v1h1z"/><path opacity=".25" fill="#f0f" d="M-4-7h-1v1h1z"/><path opacity=".05" fill="#f0f" d="M-4-8h-1v1h1z"/><path opacity=".25" fill="#f0f" d="M-4-9h-1v1h1z"/><path opacity=".05" fill="#f0f" d="M-4-10h-1v1h1zM-4-12h-1v1h1z"/><path opacity=".25" fill="#f0f" d="M-4-11h-1v1h1z"/><path opacity=".05" fill="#f0f" d="M-3 11h-1v1h1z"/><path opacity=".25" fill="#f0f" d="M-3 10h-1v1h1z"/><path opacity=".05" fill="#f0f" d="M-3 9h-1v1h1z"/><path opacity=".25" fill="#f0f" d="M-3 8h-1v1h1z"/><path opacity=".05" fill="#f0f" d="M-3 7h-1v1h1z"/><path opacity=".25" fill="#f0f" d="M-3 6h-1v1h1z"/><path opacity=".05" fill="#f0f" d="M-3 5h-1v1h1z"/><path opacity=".25" fill="#f0f" d="M-3 4h-1v1h1z"/><path opacity=".05" fill="#f0f" d="M-3 3h-1v1h1z"/><path opacity=".25" fill="#f0f" d="M-3 2h-1v1h1z"/><path opacity=".05" fill="#f0f" d="M-3 1h-1v1h1z"/><path opacity=".25" fill="#f0f" d="M-3 0h-1v1h1z"/><path opacity=".05" fill="#f0f" d="M-3-1h-1v1h1z"/><path opacity=".25" fill="#f0f" d="M-3-2h-1v1h1z"/><path opacity=".05" fill="#f0f" d="M-3-3h-1v1h1z"/><path opacity=".25" fill="#f0f" d="M-3-4h-1v1h1z"/><path opacity=".05" fill="#f0f" d="M-3-5h-1v1h1z"/><path opacity=".25" fill="#f0f" d="M-3-6h-1v1h1z"/><path opacity=".05" fill="#f0f" d="M-3-7h-1v1h1z"/><path opacity=".25" fill="#f0f" d="M-3-8h-1v1h1z"/><path opacity=".05" fill="#f0f" d="M-3-9h-1v1h1z"/><path opacity=".25" fill="#f0f" d="M-3-10h-1v1h1z"/><path opacity=".05" fill="#f0f" d="M-3-11h-1v1h1z"/><path opacity=".25" fill="#f0f" d="M-3-12h-1v1h1zM-2 11h-1v1h1z"/><path opacity=".05" fill="#f0f" d="M-2 10h-1v1h1z"/><path opacity=".25" fill="#f0f" d="M-2 9h-1v1h1z"/><path opacity=".05" fill="#f0f" d="M-2 8h-1v1h1z"/><path opacity=".25" fill="#f0f" d="M-2 7h-1v1h1z"/><path opacity=".05" fill="#f0f" d="M-2 6h-1v1h1z"/><path opacity=".25" fill="#f0f" d="M-2 5h-1v1h1z"/><path opacity=".05" fill="#f0f" d="M-2 4h-1v1h1z"/><path opacity=".25" fill="#f0f" d="M-2 3h-1v1h1z"/><path opacity=".05" fill="#f0f" d="M-2 2h-1v1h1z"/><path opacity=".25" fill="#f0f" d="M-2 1h-1v1h1z"/><path opacity=".05" fill="#f0f" d="M-2 0h-1v1h1z"/><path opacity=".25" fill="#f0f" d="M-2-1h-1v1h1z"/><path opacity=".05" fill="#f0f" d="M-2-2h-1v1h1z"/><path opacity=".25" fill="#f0f" d="M-2-3h-1v1h1z"/><path opacity=".05" fill="#f0f" d="M-2-4h-1v1h1z"/><path opacity=".25" fill="#f0f" d="M-2-5h-1v1h1z"/><path opacity=".05" fill="#f0f" d="M-2-6h-1v1h1z"/><path opacity=".25" fill="#f0f" d="M-2-7h-1v1h1z"/><path opacity=".05" fill="#f0f" d="M-2-8h-1v1h1z"/><path opacity=".25" fill="#f0f" d="M-2-9h-1v1h1z"/><path opacity=".05" fill="#f0f" d="M-2-10h-1v1h1zM-2-12h-1v1h1z"/><path opacity=".25" fill="#f0f" d="M-2-11h-1v1h1z"/><path opacity=".05" fill="#f0f" d="M-1 11h-1v1h1z"/><path opacity=".25" fill="#f0f" d="M-1 10h-1v1h1z"/><path opacity=".05" fill="#f0f" d="M-1 9h-1v1h1z"/><path opacity=".25" fill="#f0f" d="M-1 8h-1v1h1z"/><path opacity=".05" fill="#f0f" d="M-1 7h-1v1h1z"/><path opacity=".25" fill="#f0f" d="M-1 6h-1v1h1z"/><path opacity=".05" fill="#f0f" d="M-1 5h-1v1h1z"/><path opacity=".25" fill="#f0f" d="M-1 4h-1v1h1z"/><path opacity=".05" fill="#f0f" d="M-1 3h-1v1h1z"/><path opacity=".25" fill="#f0f" d="M-1 2h-1v1h1z"/><path opacity=".05" fill="#f0f" d="M-1 1h-1v1h1z"/><path opacity=".25" fill="#f0f" d="M-1 0h-1v1h1z"/><path opacity=".05" fill="#f0f" d="M-1-1h-1v1h1z"/><path opacity=".25" fill="#f0f" d="M-1-2h-1v1h1z"/><path opacity=".05" fill="#f0f" d="M-1-3h-1v1h1z"/><path opacity=".25" fill="#f0f" d="M-1-4h-1v1h1z"/><path opacity=".05" fill="#f0f" d="M-1-5h-1v1h1z"/><path opacity=".25" fill="#f0f" d="M-1-6h-1v1h1z"/><path opacity=".05" fill="#f0f" d="M-1-7h-1v1h1z"/><path opacity=".25" fill="#f0f" d="M-1-8h-1v1h1z"/><path opacity=".05" fill="#f0f" d="M-1-9h-1v1h1z"/><path opacity=".25" fill="#f0f" d="M-1-10h-1v1h1z"/><path opacity=".05" fill="#f0f" d="M-1-11h-1v1h1z"/><path opacity=".25" fill="#f0f" d="M-1-12h-1v1h1zM0 11h-1v1h1z"/><path opacity=".05" fill="#f0f" d="M0 10h-1v1h1z"/><path opacity=".25" fill="#f0f" d="M0 9h-1v1h1z"/><path opacity=".05" fill="#f0f" d="M0 8h-1v1h1z"/><path opacity=".25" fill="#f0f" d="M0 7h-1v1h1z"/><path opacity=".05" fill="#f0f" d="M0 6h-1v1h1z"/><path opacity=".25" fill="#f0f" d="M0 5h-1v1h1z"/><path opacity=".05" fill="#f0f" d="M0 4h-1v1h1z"/><path opacity=".25" fill="#f0f" d="M0 3h-1v1h1z"/><path opacity=".05" fill="#f0f" d="M0 2h-1v1h1z"/><path opacity=".25" fill="#f0f" d="M0 1h-1v1h1z"/><path opacity=".05" fill="#f0f" d="M0 0h-1v1h1z"/><path opacity=".25" fill="#f0f" d="M0-1h-1v1h1z"/><path opacity=".05" fill="#f0f" d="M0-2h-1v1h1z"/><path opacity=".25" fill="#f0f" d="M0-3h-1v1h1z"/><path opacity=".05" fill="#f0f" d="M0-4h-1v1h1z"/><path opacity=".25" fill="#f0f" d="M0-5h-1v1h1z"/><path opacity=".05" fill="#f0f" d="M0-6h-1v1h1z"/><path opacity=".25" fill="#f0f" d="M0-7h-1v1h1z"/><path opacity=".05" fill="#f0f" d="M0-8h-1v1h1z"/><path opacity=".25" fill="#f0f" d="M0-9h-1v1h1z"/><path opacity=".05" fill="#f0f" d="M0-10h-1v1h1zM0-12h-1v1h1z"/><path opacity=".25" fill="#f0f" d="M0-11h-1v1h1z"/><path opacity=".05" fill="#f0f" d="M1 11H0v1h1z"/><path opacity=".25" fill="#f0f" d="M1 10H0v1h1z"/><path opacity=".05" fill="#f0f" d="M1 9H0v1h1z"/><path opacity=".25" fill="#f0f" d="M1 8H0v1h1z"/><path opacity=".05" fill="#f0f" d="M1 7H0v1h1z"/><path opacity=".25" fill="#f0f" d="M1 6H0v1h1z"/><path opacity=".05" fill="#f0f" d="M1 5H0v1h1z"/><path opacity=".25" fill="#f0f" d="M1 4H0v1h1z"/><path opacity=".05" fill="#f0f" d="M1 3H0v1h1z"/><path opacity=".25" fill="#f0f" d="M1 2H0v1h1z"/><path opacity=".05" fill="#f0f" d="M1 1H0v1h1z"/><path opacity=".25" fill="#f0f" d="M1 0H0v1h1z"/><path opacity=".05" fill="#f0f" d="M1-1H0v1h1z"/><path opacity=".25" fill="#f0f" d="M1-2H0v1h1z"/><path opacity=".05" fill="#f0f" d="M1-3H0v1h1z"/><path opacity=".25" fill="#f0f" d="M1-4H0v1h1z"/><path opacity=".05" fill="#f0f" d="M1-5H0v1h1z"/><path opacity=".25" fill="#f0f" d="M1-6H0v1h1z"/><path opacity=".05" fill="#f0f" d="M1-7H0v1h1z"/><path opacity=".25" fill="#f0f" d="M1-8H0v1h1z"/><path opacity=".05" fill="#f0f" d="M1-9H0v1h1z"/><path opacity=".25" fill="#f0f" d="M1-10H0v1h1z"/><path opacity=".05" fill="#f0f" d="M1-11H0v1h1z"/><path opacity=".25" fill="#f0f" d="M1-12H0v1h1zM2 11H1v1h1z"/><path opacity=".05" fill="#f0f" d="M2 10H1v1h1z"/><path opacity=".25" fill="#f0f" d="M2 9H1v1h1z"/><path opacity=".05" fill="#f0f" d="M2 8H1v1h1z"/><path opacity=".25" fill="#f0f" d="M2 7H1v1h1z"/><path opacity=".05" fill="#f0f" d="M2 6H1v1h1z"/><path opacity=".25" fill="#f0f" d="M2 5H1v1h1z"/><path opacity=".05" fill="#f0f" d="M2 4H1v1h1z"/><path opacity=".25" fill="#f0f" d="M2 3H1v1h1z"/><path opacity=".05" fill="#f0f" d="M2 2H1v1h1z"/><path opacity=".25" fill="#f0f" d="M2 1H1v1h1z"/><path opacity=".05" fill="#f0f" d="M2 0H1v1h1z"/><path opacity=".25" fill="#f0f" d="M2-1H1v1h1z"/><path opacity=".05" fill="#f0f" d="M2-2H1v1h1z"/><path opacity=".25" fill="#f0f" d="M2-3H1v1h1z"/><path opacity=".05" fill="#f0f" d="M2-4H1v1h1z"/><path opacity=".25" fill="#f0f" d="M2-5H1v1h1z"/><path opacity=".05" fill="#f0f" d="M2-6H1v1h1z"/><path opacity=".25" fill="#f0f" d="M2-7H1v1h1z"/><path opacity=".05" fill="#f0f" d="M2-8H1v1h1z"/><path opacity=".25" fill="#f0f" d="M2-9H1v1h1z"/><path opacity=".05" fill="#f0f" d="M2-10H1v1h1zM2-12H1v1h1z"/><path opacity=".25" fill="#f0f" d="M2-11H1v1h1z"/><path opacity=".05" fill="#f0f" d="M3 11H2v1h1z"/><path opacity=".25" fill="#f0f" d="M3 10H2v1h1z"/><path opacity=".05" fill="#f0f" d="M3 9H2v1h1z"/><path opacity=".25" fill="#f0f" d="M3 8H2v1h1z"/><path opacity=".05" fill="#f0f" d="M3 7H2v1h1z"/><path opacity=".25" fill="#f0f" d="M3 6H2v1h1z"/><path opacity=".05" fill="#f0f" d="M3 5H2v1h1z"/><path opacity=".25" fill="#f0f" d="M3 4H2v1h1z"/><path opacity=".05" fill="#f0f" d="M3 3H2v1h1z"/><path opacity=".25" fill="#f0f" d="M3 2H2v1h1z"/><path opacity=".05" fill="#f0f" d="M3 1H2v1h1z"/><path opacity=".25" fill="#f0f" d="M3 0H2v1h1z"/><path opacity=".05" fill="#f0f" d="M3-1H2v1h1z"/><path opacity=".25" fill="#f0f" d="M3-2H2v1h1z"/><path opacity=".05" fill="#f0f" d="M3-3H2v1h1z"/><path opacity=".25" fill="#f0f" d="M3-4H2v1h1z"/><path opacity=".05" fill="#f0f" d="M3-5H2v1h1z"/><path opacity=".25" fill="#f0f" d="M3-6H2v1h1z"/><path opacity=".05" fill="#f0f" d="M3-7H2v1h1z"/><path opacity=".25" fill="#f0f" d="M3-8H2v1h1z"/><path opacity=".05" fill="#f0f" d="M3-9H2v1h1z"/><path opacity=".25" fill="#f0f" d="M3-10H2v1h1z"/><path opacity=".05" fill="#f0f" d="M3-11H2v1h1z"/><path opacity=".25" fill="#f0f" d="M3-12H2v1h1zM4 11H3v1h1z"/><path opacity=".05" fill="#f0f" d="M4 10H3v1h1z"/><path opacity=".25" fill="#f0f" d="M4 9H3v1h1z"/><path opacity=".05" fill="#f0f" d="M4 8H3v1h1z"/><path opacity=".25" fill="#f0f" d="M4 7H3v1h1z"/><path opacity=".05" fill="#f0f" d="M4 6H3v1h1z"/><path opacity=".25" fill="#f0f" d="M4 5H3v1h1z"/><path opacity=".05" fill="#f0f" d="M4 4H3v1h1z"/><path opacity=".25" fill="#f0f" d="M4 3H3v1h1z"/><path opacity=".05" fill="#f0f" d="M4 2H3v1h1z"/><path opacity=".25" fill="#f0f" d="M4 1H3v1h1z"/><path opacity=".05" fill="#f0f" d="M4 0H3v1h1z"/><path opacity=".25" fill="#f0f" d="M4-1H3v1h1z"/><path opacity=".05" fill="#f0f" d="M4-2H3v1h1z"/><path opacity=".25" fill="#f0f" d="M4-3H3v1h1z"/><path opacity=".05" fill="#f0f" d="M4-4H3v1h1z"/><path opacity=".25" fill="#f0f" d="M4-5H3v1h1z"/><path opacity=".05" fill="#f0f" d="M4-6H3v1h1z"/><path opacity=".25" fill="#f0f" d="M4-7H3v1h1z"/><path opacity=".05" fill="#f0f" d="M4-8H3v1h1z"/><path opacity=".25" fill="#f0f" d="M4-9H3v1h1z"/><path opacity=".05" fill="#f0f" d="M4-10H3v1h1zM4-12H3v1h1z"/><path opacity=".25" fill="#f0f" d="M4-11H3v1h1z"/><path opacity=".05" fill="#f0f" d="M5 11H4v1h1z"/><path opacity=".25" fill="#f0f" d="M5 10H4v1h1z"/><path opacity=".05" fill="#f0f" d="M5 9H4v1h1z"/><path opacity=".25" fill="#f0f" d="M5 8H4v1h1z"/><path opacity=".05" fill="#f0f" d="M5 7H4v1h1z"/><path opacity=".25" fill="#f0f" d="M5 6H4v1h1z"/><path opacity=".05" fill="#f0f" d="M5 5H4v1h1z"/><path opacity=".25" fill="#f0f" d="M5 4H4v1h1z"/><path opacity=".05" fill="#f0f" d="M5 3H4v1h1z"/><path opacity=".25" fill="#f0f" d="M5 2H4v1h1z"/><path opacity=".05" fill="#f0f" d="M5 1H4v1h1z"/><path opacity=".25" fill="#f0f" d="M5 0H4v1h1z"/><path opacity=".05" fill="#f0f" d="M5-1H4v1h1z"/><path opacity=".25" fill="#f0f" d="M5-2H4v1h1z"/><path opacity=".05" fill="#f0f" d="M5-3H4v1h1z"/><path opacity=".25" fill="#f0f" d="M5-4H4v1h1z"/><path opacity=".05" fill="#f0f" d="M5-5H4v1h1z"/><path opacity=".25" fill="#f0f" d="M5-6H4v1h1z"/><path opacity=".05" fill="#f0f" d="M5-7H4v1h1z"/><path opacity=".25" fill="#f0f" d="M5-8H4v1h1z"/><path opacity=".05" fill="#f0f" d="M5-9H4v1h1z"/><path opacity=".25" fill="#f0f" d="M5-10H4v1h1z"/><path opacity=".05" fill="#f0f" d="M5-11H4v1h1z"/><path opacity=".25" fill="#f0f" d="M5-12H4v1h1zM6 11H5v1h1z"/><path opacity=".05" fill="#f0f" d="M6 10H5v1h1z"/><path opacity=".25" fill="#f0f" d="M6 9H5v1h1z"/><path opacity=".05" fill="#f0f" d="M6 8H5v1h1z"/><path opacity=".25" fill="#f0f" d="M6 7H5v1h1z"/><path opacity=".05" fill="#f0f" d="M6 6H5v1h1z"/><path opacity=".25" fill="#f0f" d="M6 5H5v1h1z"/><path opacity=".05" fill="#f0f" d="M6 4H5v1h1z"/><path opacity=".25" fill="#f0f" d="M6 3H5v1h1z"/><path opacity=".05" fill="#f0f" d="M6 2H5v1h1z"/><path opacity=".25" fill="#f0f" d="M6 1H5v1h1z"/><path opacity=".05" fill="#f0f" d="M6 0H5v1h1z"/><path opacity=".25" fill="#f0f" d="M6-1H5v1h1z"/><path opacity=".05" fill="#f0f" d="M6-2H5v1h1z"/><path opacity=".25" fill="#f0f" d="M6-3H5v1h1z"/><path opacity=".05" fill="#f0f" d="M6-4H5v1h1z"/><path opacity=".25" fill="#f0f" d="M6-5H5v1h1z"/><path opacity=".05" fill="#f0f" d="M6-6H5v1h1z"/><path opacity=".25" fill="#f0f" d="M6-7H5v1h1z"/><path opacity=".05" fill="#f0f" d="M6-8H5v1h1z"/><path opacity=".25" fill="#f0f" d="M6-9H5v1h1z"/><path opacity=".05" fill="#f0f" d="M6-10H5v1h1zM6-12H5v1h1z"/><path opacity=".25" fill="#f0f" d="M6-11H5v1h1z"/><path opacity=".05" fill="#f0f" d="M7 11H6v1h1z"/><path opacity=".25" fill="#f0f" d="M7 10H6v1h1z"/><path opacity=".05" fill="#f0f" d="M7 9H6v1h1z"/><path opacity=".25" fill="#f0f" d="M7 8H6v1h1z"/><path opacity=".05" fill="#f0f" d="M7 7H6v1h1z"/><path opacity=".25" fill="#f0f" d="M7 6H6v1h1z"/><path opacity=".05" fill="#f0f" d="M7 5H6v1h1z"/><path opacity=".25" fill="#f0f" d="M7 4H6v1h1z"/><path opacity=".05" fill="#f0f" d="M7 3H6v1h1z"/><path opacity=".25" fill="#f0f" d="M7 2H6v1h1z"/><path opacity=".05" fill="#f0f" d="M7 1H6v1h1z"/><path opacity=".25" fill="#f0f" d="M7 0H6v1h1z"/><path opacity=".05" fill="#f0f" d="M7-1H6v1h1z"/><path opacity=".25" fill="#f0f" d="M7-2H6v1h1z"/><path opacity=".05" fill="#f0f" d="M7-3H6v1h1z"/><path opacity=".25" fill="#f0f" d="M7-4H6v1h1z"/><path opacity=".05" fill="#f0f" d="M7-5H6v1h1z"/><path opacity=".25" fill="#f0f" d="M7-6H6v1h1z"/><path opacity=".05" fill="#f0f" d="M7-7H6v1h1z"/><path opacity=".25" fill="#f0f" d="M7-8H6v1h1z"/><path opacity=".05" fill="#f0f" d="M7-9H6v1h1z"/><path opacity=".25" fill="#f0f" d="M7-10H6v1h1z"/><path opacity=".05" fill="#f0f" d="M7-11H6v1h1z"/><path opacity=".25" fill="#f0f" d="M7-12H6v1h1zM8 11H7v1h1z"/><path opacity=".05" fill="#f0f" d="M8 10H7v1h1z"/><path opacity=".25" fill="#f0f" d="M8 9H7v1h1z"/><path opacity=".05" fill="#f0f" d="M8 8H7v1h1z"/><path opacity=".25" fill="#f0f" d="M8 7H7v1h1z"/><path opacity=".05" fill="#f0f" d="M8 6H7v1h1z"/><path opacity=".25" fill="#f0f" d="M8 5H7v1h1z"/><path opacity=".05" fill="#f0f" d="M8 4H7v1h1z"/><path opacity=".25" fill="#f0f" d="M8 3H7v1h1z"/><path opacity=".05" fill="#f0f" d="M8 2H7v1h1z"/><path opacity=".25" fill="#f0f" d="M8 1H7v1h1z"/><path opacity=".05" fill="#f0f" d="M8 0H7v1h1z"/><path opacity=".25" fill="#f0f" d="M8-1H7v1h1z"/><path opacity=".05" fill="#f0f" d="M8-2H7v1h1z"/><path opacity=".25" fill="#f0f" d="M8-3H7v1h1z"/><path opacity=".05" fill="#f0f" d="M8-4H7v1h1z"/><path opacity=".25" fill="#f0f" d="M8-5H7v1h1z"/><path opacity=".05" fill="#f0f" d="M8-6H7v1h1z"/><path opacity=".25" fill="#f0f" d="M8-7H7v1h1z"/><path opacity=".05" fill="#f0f" d="M8-8H7v1h1z"/><path opacity=".25" fill="#f0f" d="M8-9H7v1h1z"/><path opacity=".05" fill="#f0f" d="M8-10H7v1h1zM8-12H7v1h1z"/><path opacity=".25" fill="#f0f" d="M8-11H7v1h1z"/><path opacity=".05" fill="#f0f" d="M9 11H8v1h1z"/><path opacity=".25" fill="#f0f" d="M9 10H8v1h1z"/><path opacity=".05" fill="#f0f" d="M9 9H8v1h1z"/><path opacity=".25" fill="#f0f" d="M9 8H8v1h1z"/><path opacity=".05" fill="#f0f" d="M9 7H8v1h1z"/><path opacity=".25" fill="#f0f" d="M9 6H8v1h1z"/><path opacity=".05" fill="#f0f" d="M9 5H8v1h1z"/><path opacity=".25" fill="#f0f" d="M9 4H8v1h1z"/><path opacity=".05" fill="#f0f" d="M9 3H8v1h1z"/><path opacity=".25" fill="#f0f" d="M9 2H8v1h1z"/><path opacity=".05" fill="#f0f" d="M9 1H8v1h1z"/><path opacity=".25" fill="#f0f" d="M9 0H8v1h1z"/><path opacity=".05" fill="#f0f" d="M9-1H8v1h1z"/><path opacity=".25" fill="#f0f" d="M9-2H8v1h1z"/><path opacity=".05" fill="#f0f" d="M9-3H8v1h1z"/><path opacity=".25" fill="#f0f" d="M9-4H8v1h1z"/><path opacity=".05" fill="#f0f" d="M9-5H8v1h1z"/><path opacity=".25" fill="#f0f" d="M9-6H8v1h1z"/><path opacity=".05" fill="#f0f" d="M9-7H8v1h1z"/><path opacity=".25" fill="#f0f" d="M9-8H8v1h1z"/><path opacity=".05" fill="#f0f" d="M9-9H8v1h1z"/><path opacity=".25" fill="#f0f" d="M9-10H8v1h1z"/><path opacity=".05" fill="#f0f" d="M9-11H8v1h1z"/><path opacity=".25" fill="#f0f" d="M9-12H8v1h1zM10 11H9v1h1z"/><path opacity=".05" fill="#f0f" d="M10 10H9v1h1z"/><path opacity=".25" fill="#f0f" d="M10 9H9v1h1z"/><path opacity=".05" fill="#f0f" d="M10 8H9v1h1z"/><path opacity=".25" fill="#f0f" d="M10 7H9v1h1z"/><path opacity=".05" fill="#f0f" d="M10 6H9v1h1z"/><path opacity=".25" fill="#f0f" d="M10 5H9v1h1z"/><path opacity=".05" fill="#f0f" d="M10 4H9v1h1z"/><path opacity=".25" fill="#f0f" d="M10 3H9v1h1z"/><path opacity=".05" fill="#f0f" d="M10 2H9v1h1z"/><path opacity=".25" fill="#f0f" d="M10 1H9v1h1z"/><path opacity=".05" fill="#f0f" d="M10 0H9v1h1z"/><path opacity=".25" fill="#f0f" d="M10-1H9v1h1z"/><path opacity=".05" fill="#f0f" d="M10-2H9v1h1z"/><path opacity=".25" fill="#f0f" d="M10-3H9v1h1z"/><path opacity=".05" fill="#f0f" d="M10-4H9v1h1z"/><path opacity=".25" fill="#f0f" d="M10-5H9v1h1z"/><path opacity=".05" fill="#f0f" d="M10-6H9v1h1z"/><path opacity=".25" fill="#f0f" d="M10-7H9v1h1z"/><path opacity=".05" fill="#f0f" d="M10-8H9v1h1z"/><path opacity=".25" fill="#f0f" d="M10-9H9v1h1z"/><path opacity=".05" fill="#f0f" d="M10-10H9v1h1zM10-12H9v1h1z"/><path opacity=".25" fill="#f0f" d="M10-11H9v1h1z"/><path opacity=".05" fill="#f0f" d="M11 11h-1v1h1z"/><path opacity=".25" fill="#f0f" d="M11 10h-1v1h1z"/><path opacity=".05" fill="#f0f" d="M11 9h-1v1h1z"/><path opacity=".25" fill="#f0f" d="M11 8h-1v1h1z"/><path opacity=".05" fill="#f0f" d="M11 7h-1v1h1z"/><path opacity=".25" fill="#f0f" d="M11 6h-1v1h1z"/><path opacity=".05" fill="#f0f" d="M11 5h-1v1h1z"/><path opacity=".25" fill="#f0f" d="M11 4h-1v1h1z"/><path opacity=".05" fill="#f0f" d="M11 3h-1v1h1z"/><path opacity=".25" fill="#f0f" d="M11 2h-1v1h1z"/><path opacity=".05" fill="#f0f" d="M11 1h-1v1h1z"/><path opacity=".25" fill="#f0f" d="M11 0h-1v1h1z"/><path opacity=".05" fill="#f0f" d="M11-1h-1v1h1z"/><path opacity=".25" fill="#f0f" d="M11-2h-1v1h1z"/><path opacity=".05" fill="#f0f" d="M11-3h-1v1h1z"/><path opacity=".25" fill="#f0f" d="M11-4h-1v1h1z"/><path opacity=".05" fill="#f0f" d="M11-5h-1v1h1z"/><path opacity=".25" fill="#f0f" d="M11-6h-1v1h1z"/><path opacity=".05" fill="#f0f" d="M11-7h-1v1h1z"/><path opacity=".25" fill="#f0f" d="M11-8h-1v1h1z"/><path opacity=".05" fill="#f0f" d="M11-9h-1v1h1z"/><path opacity=".25" fill="#f0f" d="M11-10h-1v1h1z"/><path opacity=".05" fill="#f0f" d="M11-11h-1v1h1z"/><path opacity=".25" fill="#f0f" d="M11-12h-1v1h1zM12 11h-1v1h1z"/><path opacity=".05" fill="#f0f" d="M12 10h-1v1h1z"/><path opacity=".25" fill="#f0f" d="M12 9h-1v1h1z"/><path opacity=".05" fill="#f0f" d="M12 8h-1v1h1z"/><path opacity=".25" fill="#f0f" d="M12 7h-1v1h1z"/><path opacity=".05" fill="#f0f" d="M12 6h-1v1h1z"/><path opacity=".25" fill="#f0f" d="M12 5h-1v1h1z"/><path opacity=".05" fill="#f0f" d="M12 4h-1v1h1z"/><path opacity=".25" fill="#f0f" d="M12 3h-1v1h1z"/><path opacity=".05" fill="#f0f" d="M12 2h-1v1h1z"/><path opacity=".25" fill="#f0f" d="M12 1h-1v1h1z"/><path opacity=".05" fill="#f0f" d="M12 0h-1v1h1z"/><path opacity=".25" fill="#f0f" d="M12-1h-1v1h1z"/><path opacity=".05" fill="#f0f" d="M12-2h-1v1h1z"/><path opacity=".25" fill="#f0f" d="M12-3h-1v1h1z"/><path opacity=".05" fill="#f0f" d="M12-4h-1v1h1z"/><path opacity=".25" fill="#f0f" d="M12-5h-1v1h1z"/><path opacity=".05" fill="#f0f" d="M12-6h-1v1h1z"/><path opacity=".25" fill="#f0f" d="M12-7h-1v1h1z"/><path opacity=".05" fill="#f0f" d="M12-8h-1v1h1z"/><path opacity=".25" fill="#f0f" d="M12-9h-1v1h1z"/><path opacity=".05" fill="#f0f" d="M12-10h-1v1h1zM12-12h-1v1h1z"/><path opacity=".25" fill="#f0f" d="M12-11h-1v1h1z"/><path opacity=".2" fill="#f800ff" d="M10-10h-20v20h20z"/></symbol><path d="M15 15v-2.628c1.212-1.053 2.001-2.722 2.001-4.604C17.001 4.588 14.758 2 12 2 9.243 2 7 4.588 7 7.769c0 1.901.805 3.586 2.039 4.637H9v1.953l-3.665 1.67C4.175 16.435 3 17.586 3 19v2h10v-1H4v-1c0-.823.716-1.695 1.707-2.045L10 15.002v-1.951c.613.311 1.289.485 2 .485s1.387-.175 2-.484V15h1zM12 3c1.987 0 3.627 1.74 3.937 4.006l-.029.003c-1.435.274-2.297-.093-2.975-1.261l-.453-.775-.422.793C11.672 6.493 10.117 7 8.965 7c-.357 0-.575-.087-.871-.239C8.483 4.615 10.085 3 12 3zm0 9.536c-2.192 0-3.974-2.113-3.996-4.72.27.108.565.184.961.184 1.19 0 2.657-.404 3.498-1.166.672.848 1.529 1.259 2.629 1.259.277 0 .579-.037.89-.089-.106 2.517-1.843 4.532-3.982 4.532zM18.48 20.99a14.434 14.434 0 0 1-.006-.344c0-.449.063-.837.19-1.164.093-.245.244-.493.451-.743.153-.183.428-.448.823-.799.396-.35.654-.628.773-.836.118-.207.178-.435.178-.68 0-.445-.174-.837-.521-1.174s-.773-.505-1.278-.505c-.487 0-.895.152-1.221.457-.326.306-.54.782-.642 1.431l-1.177-.14c.105-.869.421-1.534.944-1.996s1.216-.693 2.076-.693c.911 0 1.638.248 2.181.744s.813 1.096.813 1.799c0 .407-.095.782-.286 1.126-.19.344-.563.761-1.119 1.253-.373.33-.616.574-.73.73a1.657 1.657 0 0 0-.255.541c-.055.203-.087.534-.095.992H18.48zm-.069 2.295v-1.304h1.303v1.304h-1.303z" fill="#262626"/></svg>