<svg xmlns="http://www.w3.org/2000/svg" width="24" height="24" viewBox="0 0 24 24"><path d="M21.777 11.084L19 9.232V2.5a.5.5 0 0 0-.5-.5h-13a.5.5 0 0 0-.5.5v6.732l-2.777 1.852-.006.006a.498.498 0 0 0-.145.151c-.003.005-.003.01-.005.014-.01.018-.012.036-.02.054a.477.477 0 0 0-.041.163c.001.009-.006.018-.006.028v8.762C2 21.22 2.78 22 3.739 22H20.26c.96 0 1.74-.78 1.74-1.738V11.5a.501.501 0 0 0-.223-.416zm-1.151.435L19 12.466v-2.031l1.626 1.084zM5 12.429l-1.568-.949L5 10.435v1.994zM20.261 21H3.739A.739.739 0 0 1 3 20.262v-7.875l4.198 2.541a.498.498 0 0 0 .686-.169.5.5 0 0 0-.169-.686L5.994 13.03c.001-.011.006-.019.006-.03V3h12v10.048l-1.752 1.021A.5.5 0 0 0 16.5 15a.489.489 0 0 0 .251-.068L21 12.457v7.805a.74.74 0 0 1-.739.738zm-1.436-1.88a.5.5 0 0 1-.65.76L14.815 17h-5.63l-3.36 2.88a.5.5 0 0 1-.65-.76l3.5-3A.502.502 0 0 1 9 16h6c.119 0 .235.043.325.12l3.5 3zM8 5.5a.5.5 0 0 1 .5-.5h7a.5.5 0 0 1 0 1h-7a.5.5 0 0 1-.5-.5zm0 3a.5.5 0 0 1 .5-.5h7a.5.5 0 0 1 0 1h-7a.5.5 0 0 1-.5-.5zm0 3a.5.5 0 0 1 .5-.5h7a.5.5 0 0 1 0 1h-7a.5.5 0 0 1-.5-.5z" fill="#262626"/></svg>