<svg xmlns="http://www.w3.org/2000/svg" width="24" height="24" viewBox="0 0 24 24"><path d="M20 17h-2.5a.5.5 0 0 1 0-1H20c.636 0 1-.364 1-1v-5c0-.636-.364-1-1-1H4c-.636 0-1 .364-1 1v5c0 .636.364 1 1 1h2.5a.5.5 0 0 1 0 1H4c-1.178 0-2-.822-2-2v-5c0-1.178.822-2 2-2h16c1.178 0 2 .822 2 2v5c0 1.178-.822 2-2 2zm-2 4.5v-8a.5.5 0 0 0-.5-.5h-11a.5.5 0 0 0-.5.5v8a.5.5 0 0 0 .5.5h11a.5.5 0 0 0 .5-.5zM7 14h10v7H7v-7zm-.978-3.001a1 1 0 1 0-2 .002 1 1 0 0 0 2-.002zM16 15.5a.5.5 0 0 0-.5-.5h-7a.5.5 0 0 0 0 1h7a.5.5 0 0 0 .5-.5zm0 2a.5.5 0 0 0-.5-.5h-7a.5.5 0 0 0 0 1h7a.5.5 0 0 0 .5-.5zm0 2a.5.5 0 0 0-.5-.5h-7a.5.5 0 0 0 0 1h7a.5.5 0 0 0 .5-.5zm2-14v1a.5.5 0 0 1-1 0V6h-2.5a.5.5 0 0 1-.5-.5V3H7v3.5a.5.5 0 0 1-1 0v-4a.5.5 0 0 1 .5-.5H15c.148 0 .289.065.384.18l2.5 3A.497.497 0 0 1 18 5.5zM15 5h1.433L15 3.281V5z" fill="#262626"/></svg>