<svg xmlns="http://www.w3.org/2000/svg" width="24" height="24" viewBox="0 0 24 24"><path d="M18.123 17.934a11.886 11.886 0 0 0 2.895 1.515L19.687 22a8.43 8.43 0 0 1-1.6-.672c-.113-.058-.916-.586-2.405-1.587-1.173.513-2.47.77-3.895.77-2.75 0-4.905-.812-6.465-2.431-1.56-1.62-2.339-3.895-2.339-6.825 0-2.924.782-5.195 2.345-6.819C6.89 2.812 9.012 2 11.689 2c2.653 0 4.759.812 6.312 2.436 1.554 1.624 2.332 3.896 2.332 6.819 0 1.545-.217 2.906-.646 4.078-.328.895-.846 1.762-1.564 2.601zm-2.906-2.04c.465-.546.813-1.205 1.045-1.977.232-.775.348-1.661.348-2.662 0-2.069-.455-3.614-1.367-4.634-.913-1.023-2.104-1.532-3.578-1.532s-2.669.513-3.585 1.539c-.915 1.025-1.373 2.566-1.373 4.627 0 2.091.458 3.657 1.373 4.695.916 1.038 2.073 1.557 3.475 1.557.521 0 1.013-.086 1.477-.257a10.373 10.373 0 0 0-2.234-1.123l1.014-2.064a12.306 12.306 0 0 1 3.405 1.831z" fill="#262626"/></svg>