<svg xmlns="http://www.w3.org/2000/svg" width="24" height="24" viewBox="0 0 24 24"><path d="M5.04 12.687V10.64c0-.186-.092-.64 1.821-.64h8.116v1.868a.498.498 0 0 0 .87.336l4.012-4.428a.501.501 0 0 0 0-.673l-4.012-4.497a.499.499 0 0 0-.87.336v2.061H6.861c-2.598 0-3.865 2.204-3.865 4.461 0 1.95 1.096 3.457 1.142 3.519.096.13.247.284.402.284a.494.494 0 0 0 .156-.025c.206-.067.344-.339.344-.555zm-.965-2.391a4.543 4.543 0 0 1-.079-.832c0-1.225.526-3.461 2.865-3.461h8.616a.5.5 0 0 0 .5-.5V4.236l2.836 3.203-2.836 3.135V9.517a.5.5 0 0 0-.5-.5H6.861c-.805 0-2.515 0-2.786 1.279zm15.368.524a.5.5 0 0 0-.866.34v2.047c0 .689.108.792-1.073.792H8.998v-2.021a.498.498 0 0 0-.87-.336l-3.979 4.521a.501.501 0 0 0 0 .673l3.983 4.382a.501.501 0 0 0 .87-.337V19h8.506c2.649 0 3.481-2.267 3.481-4.513-.001-1.981-1.483-3.599-1.546-3.667zM17.507 18H8.501c-.276 0-.5.254-.5.531v1.058L5.194 16.5l2.803-3.227v1.268c0 .276.224.46.5.46h9.006c1.833 0 2.073-.604 2.073-1.792v-.379c.228.481.412 1.056.412 1.659 0 1.094-.14 3.511-2.481 3.511z" fill="#262626"/></svg>