<svg xmlns="http://www.w3.org/2000/svg" width="24" height="24" viewBox="0 0 24 24"><path d="M9 18.5v-4c0-.276.224-.516.5-.516h1c.276 0 .5.239.5.516V18h1v-5.5a.5.5 0 0 1 .5-.5h.984c.277 0 .516.224.516.5V18h1v-7.5a.5.5 0 0 1 .5-.5h1a.5.5 0 0 1 .5.5v8a.5.5 0 0 1-.5.5h-7a.5.5 0 0 1-.5-.5zm3.5-12.523h4.031a.5.5 0 0 0 0-1H12.5a.5.5 0 0 0 0 1zM20 2.5v19a.5.5 0 0 1-.5.5h-14c-.883 0-1.5-.617-1.5-1.5v-17C4 2.617 4.617 2 5.5 2h14a.5.5 0 0 1 .5.5zM7 3H5.5c-.332 0-.5.168-.5.5v17c0 .332.168.5.5.5H7V3zm12 0H8v18h11V3z" fill="#262626"/></svg>