<svg xmlns="http://www.w3.org/2000/svg" width="24" height="24" viewBox="0 0 24 24"><path d="M13.458 4.924c0-.23.186-.416.417-.416h.625v-.624a.417.417 0 1 1 .833 0v.624h.625a.417.417 0 1 1 0 .832h-.625v.625a.416.416 0 1 1-.833 0V5.34h-.625a.416.416 0 0 1-.417-.416zm-1.902 3.762a.418.418 0 0 0-.388.443.43.43 0 0 0 .442.388 5.796 5.796 0 0 1 3.89 1.151.417.417 0 0 0 .583-.083.414.414 0 0 0-.083-.582 6.656 6.656 0 0 0-4.444-1.317zm-3.723 2.482a.833.833 0 1 1-1.666-.002.833.833 0 0 1 1.666.002zm-.416 0H7h.417zm14.583 0a2.083 2.083 0 0 1-1.69 2.041c-.152 2.453-1.778 4.576-4.143 5.742v2.622a.417.417 0 0 1-.834 0v-2.26a9.536 9.536 0 0 1-3.333.595 9.608 9.608 0 0 1-3.333-.596v2.261a.417.417 0 0 1-.834 0v-2.626c-1.478-.726-2.692-1.952-3.425-3.201H2.417A.415.415 0 0 1 2 15.33V12c0-.231.186-.416.417-.416h1.38c.364-1.665 1.482-3.281 3.126-4.356a2.517 2.517 0 0 0-1.173-1.55.414.414 0 0 1-.001-.72 3.338 3.338 0 0 1 1.668-.449c1.094 0 2.116.541 2.735 1.432.726-.173 1.921-.181 1.971-.178a2.916 2.916 0 1 1 4.762 1.309c1.903 1.203 3.249 3.152 3.42 5.277.499-.164.862-.629.862-1.181a.417.417 0 0 1 .833 0zm-9.167-6.244a2.085 2.085 0 0 0 4.167 0 2.085 2.085 0 0 0-4.167 0zm6.667 7.908c0-2.146-1.436-4.106-3.429-5.233a2.915 2.915 0 0 1-3.534-.993A14.124 14.124 0 0 0 12 6.589c-.639 0-1.295.075-1.953.223a.413.413 0 0 1-.455-.2c-.548-.969-1.731-1.47-2.8-1.19.544.512.9 1.192 1.008 1.948a.418.418 0 0 1-.197.415c-1.682 1.018-2.793 2.577-3.046 4.276a.417.417 0 0 1-.412.356H2.833v2.498h1.831c.16 0 .307.092.375.235C6.188 17.534 8.92 19.076 12 19.076c4.136 0 7.5-2.801 7.5-6.244z" fill="#262626"/></svg>