<svg xmlns="http://www.w3.org/2000/svg" width="24" height="24" viewBox="0 0 24 24"><path d="M21.924 9.778L17.58 5.089a.04.04 0 0 1-.01-.008.114.114 0 0 0-.027-.023.13.13 0 0 0-.023-.018l-.029-.017a.365.365 0 0 1-.028-.014.029.029 0 0 1-.011-.003.065.065 0 0 0-.023-.006c-.001-.001-.001.004-.002.005L6.55 5c-.001-.001-.003.025-.004.025-.002.001-.006-.006-.009-.005-.01.003-.019.004-.03.008-.009.005-.02.008-.029.014l-.023.016-.027.024c-.003.003-.005.005-.01.007L2.075 9.778a.322.322 0 0 0 .002.437L12 21.027l9.924-10.85c.113-.124.113-.276 0-.399zM15.5 10L12 19.859 8.507 10H3l3.99-4.051L8.5 10 12 6l3.5 4.02 2-4.02 3.5 4h-5.5z" fill="#262626"/></svg>