<svg xmlns="http://www.w3.org/2000/svg" width="24" height="24" viewBox="0 0 24 24"><path d="M20.558 15.521c-.866-.91-1.655-1.171-2.653-.873l-3.142 1.096c-.023.008-.04.025-.061.036-.11-.413-.505-.778-1.202-.778h-1.343c-.08-.069-.212-.206-.322-.32-.609-.628-1.627-1.68-2.98-1.68H7v-.5a.5.5 0 0 0-.5-.5h-3a.5.5 0 0 0-.5.5v6a.5.5 0 0 0 .5.5h3a.5.5 0 0 0 .5-.5v-.147c.601.214 1.151.413 1.626.587 1.87.683 2.93 1.056 3.896 1.056 1.182 0 2.222-.559 4.429-1.793.911-.509 2.036-1.139 3.478-1.897a.498.498 0 0 0 .129-.787zM6 18.002H4v-5h2v5zm10.462-.67c-3.686 2.062-3.686 2.062-7.493.671-.567-.207-1.22-.445-1.969-.709v-3.292h1.854c.93 0 1.731.828 2.262 1.376.376.389.604.624.928.624H10a.5.5 0 0 0 0 1h3.5c.509 0 .848-.202 1.046-.467.13.155.344.224.545.153l3.121-1.089c.38-.114.704-.119 1.112.162-1.151.614-2.084 1.136-2.862 1.571zm-3.962-4.33a2.5 2.5 0 1 0 0-5 2.5 2.5 0 0 0 0 5zm0-4c.827 0 1.5.673 1.5 1.5s-.673 1.5-1.5 1.5-1.5-.673-1.5-1.5.673-1.5 1.5-1.5zm-.5 2.037V9.965c0-.256.224-.463.5-.463s.5.207.5.463v1.074c0 .256-.224.463-.5.463s-.5-.207-.5-.463zm5.5-2.037a2.5 2.5 0 1 0 0-5 2.5 2.5 0 0 0 0 5zm0-4c.827 0 1.5.673 1.5 1.5s-.673 1.5-1.5 1.5-1.5-.673-1.5-1.5.673-1.5 1.5-1.5zM17 7.039V5.965c0-.256.224-.463.5-.463s.5.207.5.463v1.074c0 .256-.224.463-.5.463s-.5-.207-.5-.463z" fill="#262626"/></svg>