<svg xmlns="http://www.w3.org/2000/svg" width="24" height="24" viewBox="0 0 24 24"><path d="M21.478 10.304h-2.102c-.148-.636-.353-1.364-.615-1.925l1.638-1.684a.5.5 0 0 0-.003-.7l-2.331-2.356a.498.498 0 0 0-.699-.011l-1.719 1.63c-.593-.285-1.341-.495-1.91-.629V2.562a.5.5 0 0 0-.5-.5h-2.472a.5.5 0 0 0-.5.5V4.63c-.499.122-1.154.319-1.732.605L6.949 3.614a.497.497 0 0 0-.355-.15c-.12-.028-.263.052-.357.148l-2.31 2.331a.498.498 0 0 0-.007.696l1.656 1.738c-.217.463-.419 1.1-.609 1.927H2.522a.5.5 0 0 0-.5.5v2.473a.5.5 0 0 0 .5.5H4.97c.123.491.318 1.137.604 1.709l-1.62 1.575a.501.501 0 0 0-.003.713l2.332 2.305a.504.504 0 0 0 .715-.012l1.54-1.627c.545.267 1.18.459 1.726.592v2.485a.5.5 0 0 0 .5.5h2.472a.5.5 0 0 0 .5-.5v-2.483c.627-.147 1.346-.352 1.904-.616l1.674 1.637c.197.192.509.19.701-.002l2.354-2.331a.502.502 0 0 0-.006-.717l-1.602-1.523c.24-.479.452-1.072.611-1.705h2.106a.5.5 0 0 0 .5-.5v-2.473a.5.5 0 0 0-.5-.5zm-.5 2.473h-2.004a.5.5 0 0 0-.489.397c-.178.846-.46 1.628-.775 2.145a.5.5 0 0 0 .082.623l1.508 1.433-1.638 1.622-1.584-1.548a.497.497 0 0 0-.61-.069c-.439.269-1.269.541-2.334.765a.502.502 0 0 0-.398.489v2.385h-1.472v-2.385a.5.5 0 0 0-.397-.489c-.918-.193-1.688-.46-2.166-.753a.5.5 0 0 0-.624.083L6.624 19.01l-1.606-1.587 1.528-1.485a.5.5 0 0 0 .078-.619c-.308-.503-.58-1.265-.767-2.146a.5.5 0 0 0-.489-.396H3.022v-1.473h2.346a.5.5 0 0 0 .489-.397c.241-1.138.495-1.93.755-2.354a.498.498 0 0 0-.063-.605l-1.57-1.647 1.609-1.625 1.494 1.529a.502.502 0 0 0 .618.078c.496-.302 1.285-.58 2.167-.764a.5.5 0 0 0 .397-.489V3.062h1.472v1.967c0 .237.166.441.398.489 1.012.211 1.884.501 2.334.776.191.12.442.092.604-.063l1.626-1.542 1.642 1.66-1.55 1.593a.498.498 0 0 0-.068.609c.267.438.537 1.273.763 2.354a.5.5 0 0 0 .489.398h2.005v1.474zm-8.805-5.154c-2.321 0-4.209 1.888-4.209 4.209s1.888 4.209 4.209 4.209c2.32 0 4.208-1.888 4.208-4.209s-1.888-4.209-4.208-4.209zm0 7.417a3.212 3.212 0 0 1-3.209-3.209 3.213 3.213 0 0 1 3.209-3.209 3.212 3.212 0 0 1 3.208 3.209c0 1.77-1.44 3.209-3.208 3.209z" fill="#262626"/></svg>