<svg xmlns="http://www.w3.org/2000/svg" width="24" height="24" viewBox="0 0 24 24"><path d="M16.501 11A5.508 5.508 0 0 0 11 16.501 5.506 5.506 0 0 0 16.501 22 5.505 5.505 0 0 0 22 16.501 5.506 5.506 0 0 0 16.501 11zm0 10A4.505 4.505 0 0 1 12 16.501 4.506 4.506 0 0 1 16.501 12 4.505 4.505 0 0 1 21 16.501 4.505 4.505 0 0 1 16.501 21zm2.446-6.276l-2 4a.501.501 0 0 1-.802.129l-1.992-2a.5.5 0 0 1 .709-.705l1.501 1.507 1.689-3.378a.5.5 0 1 1 .895.447zM4.5 6a.5.5 0 0 0-.5.5v12a.5.5 0 0 0 .5.5h6a.5.5 0 0 0 0-1H5V7h1v.5a.5.5 0 0 0 .5.5h5a.5.5 0 0 0 .5-.5V7h1v2.5a.5.5 0 0 0 1 0v-3a.5.5 0 0 0-.5-.5H12V5h3v4.5a.5.5 0 0 0 1 0v-5a.5.5 0 0 0-.5-.5h-4.537C10.804 2.941 10.136 2 9 2c-1.136 0-1.804.941-1.963 2H2.5a.5.5 0 0 0-.5.5V19c0 1.346.654 2 2 2h6.5a.5.5 0 0 0 0-1H4c-.785 0-1-.215-1-1V5h3v1H4.5zm3-1a.5.5 0 0 0 .5-.5C8 3.898 8.267 3 9 3s1 .898 1 1.5a.5.5 0 0 0 .5.5h.5v2H7V5h.5zm4 6h-5a.5.5 0 0 1 0-1h5a.5.5 0 0 1 0 1zm-1 2h-4a.5.5 0 0 1 0-1h4a.5.5 0 0 1 0 1zm-.5 1.5a.5.5 0 0 1-.5.5h-3a.5.5 0 0 1 0-1h3a.5.5 0 0 1 .5.5zm0 2a.5.5 0 0 1-.5.5h-3a.5.5 0 0 1 0-1h3a.5.5 0 0 1 .5.5z" fill="#262626"/></svg>