<svg xmlns="http://www.w3.org/2000/svg" width="24" height="24" viewBox="0 0 24 24"><path d="M20.892 11.873C20.73 11.662 16.88 6.695 12 6.695s-8.731 4.967-8.892 5.178a.531.531 0 0 0 0 .644c.161.211 4.012 5.178 8.892 5.178s8.73-4.967 8.892-5.178a.534.534 0 0 0 0-.644zM12 16.659c-3.716 0-6.921-3.39-7.843-4.464.921-1.074 4.12-4.463 7.843-4.463 3.716 0 6.921 3.39 7.843 4.464-.921 1.074-4.12 4.463-7.843 4.463zm0-8.048c-1.905 0-3.456 1.607-3.456 3.584 0 1.976 1.551 3.583 3.456 3.583s3.456-1.607 3.456-3.583c0-1.976-1.551-3.584-3.456-3.584zm0 6.131c-1.355 0-2.456-1.142-2.456-2.546 0-1.405 1.102-2.547 2.456-2.547 1.354 0 2.456 1.142 2.456 2.547 0 1.404-1.102 2.546-2.456 2.546zm1.978-2.547c0 1.131-.888 2.051-1.978 2.051-1.091 0-1.979-.92-1.979-2.051a.51.51 0 0 1 .5-.519c.276 0 .5.232.5.519 0 .56.439 1.015.979 1.015s.978-.455.978-1.015-.438-1.014-.978-1.014a.51.51 0 0 1-.5-.518.51.51 0 0 1 .5-.519c1.091 0 1.978.92 1.978 2.051z" fill="#262626"/></svg>