<?xml version="1.0" standalone="no"?>
<!DOCTYPE svg PUBLIC "-//W3C//DTD SVG 1.1//EN" "http://www.w3.org/Graphics/SVG/1.1/DTD/svg11.dtd" >
<svg xmlns="http://www.w3.org/2000/svg">
<metadata>Generated by IcoMoon</metadata>
<defs>
<font id="Fidelity-Icon-Font" horiz-adv-x="1024">
<font-face units-per-em="1024" ascent="960" descent="-64" />
<missing-glyph horiz-adv-x="1024" />
<glyph unicode="&#x20;" horiz-adv-x="512" d="" />
<glyph unicode="&#xe900;" glyph-name="verified" d="M704.043 469.334c-129.408 0-234.709-105.301-234.709-234.709 0-129.365 105.301-234.624 234.709-234.624 129.365 0 234.624 105.259 234.624 234.624 0 129.408-105.259 234.709-234.624 234.709zM704.043 42.667c-105.856 0-192.043 86.144-192.043 191.957 0 105.856 86.187 192.043 192.043 192.043 105.813 0 191.957-86.187 191.957-192.043 0-105.813-86.144-191.957-191.957-191.957zM798.891 339.072c-10.539 5.248-23.296 0.939-28.629-9.557l-72.064-144.128-64.043 64.299c-8.32 8.405-21.845 8.32-30.165 0.085-8.363-8.32-8.363-21.845-0.085-30.165l84.992-85.333c4.011-4.053 9.472-6.272 15.104-6.272 1.109 0 2.261 0.085 3.413 0.299 6.741 1.067 12.587 5.376 15.659 11.52l85.333 170.667c5.248 10.496 1.024 23.296-9.515 28.587zM192 682.667c-11.776 0-21.333-9.557-21.333-21.333v-512c0-11.776 9.557-21.333 21.333-21.333h256c11.776 0 21.333 9.557 21.333 21.333s-9.557 21.333-21.333 21.333h-234.667v469.333h42.667v-21.333c0-11.776 9.557-21.333 21.333-21.333h213.333c11.776 0 21.333 9.557 21.333 21.333v21.333h42.667v-106.667c0-11.776 9.557-21.333 21.333-21.333s21.333 9.557 21.333 21.333v128c0 11.776-9.557 21.333-21.333 21.333h-64v42.667h128v-192c0-11.776 9.557-21.333 21.333-21.333s21.333 9.557 21.333 21.333v213.333c0 11.776-9.557 21.333-21.333 21.333h-193.579c-6.784 45.184-35.285 85.333-83.755 85.333s-76.971-40.149-83.755-85.333h-193.579c-11.776 0-21.333-9.557-21.333-21.333v-618.667c0-57.429 27.904-85.333 85.333-85.333h277.333c11.776 0 21.333 9.557 21.333 21.333s-9.557 21.333-21.333 21.333h-277.333c-33.493 0-42.667 9.173-42.667 42.667v597.333h128v-42.667h-64zM320 725.334c11.776 0 21.333 9.557 21.333 21.333 0 25.728 11.392 64 42.667 64s42.667-38.272 42.667-64c0-11.776 9.557-21.333 21.333-21.333h21.333v-85.333h-170.667v85.333h21.333zM512 490.667c0 11.776-9.557 21.333-21.333 21.333h-213.333c-11.776 0-21.333-9.557-21.333-21.333s9.557-21.333 21.333-21.333h213.333c11.776 0 21.333 9.557 21.333 21.333zM469.333 405.334c0 11.776-9.557 21.333-21.333 21.333h-170.667c-11.776 0-21.333-9.557-21.333-21.333s9.557-21.333 21.333-21.333h170.667c11.776 0 21.333 9.557 21.333 21.333zM405.333 341.334h-128c-11.776 0-21.333-9.557-21.333-21.333s9.557-21.333 21.333-21.333h128c11.776 0 21.333 9.557 21.333 21.333s-9.557 21.333-21.333 21.333zM405.333 256h-128c-11.776 0-21.333-9.557-21.333-21.333s9.557-21.333 21.333-21.333h128c11.776 0 21.333 9.557 21.333 21.333s-9.557 21.333-21.333 21.333z" />
<glyph unicode="&#xe901;" glyph-name="arrow-down" d="M682.667 512.896v340.48h-341.333v-340.48h-256l426.624-512.853 426.709 512z" />
<glyph unicode="&#xe902;" glyph-name="arrow-up" d="M341.333 340.438v-340.437h341.333v340.437h256l-426.624 512.896-426.709-512z" />
<glyph unicode="&#xe903;" glyph-name="card-cvc" d="M928 725.334h-832c-52.949 0-96-43.093-96-96v-402.304c0-52.907 43.051-99.669 96-99.669h831.317c52.949 0 96.683 46.763 96.683 99.669v402.304c0 52.907-43.051 96-96 96zM96 682.667h832c29.355 0 53.333-24.021 53.333-53.333l0.683-32.64-939.349 0.64v32c0 29.312 23.979 53.333 53.333 53.333zM928 169.984h-832c-29.355 0-53.333 23.979-53.333 53.333v288.683h938.667v-288.683c0-29.312-23.979-53.333-53.333-53.333zM614.016 416.171v22.699c9.771 0.512 16.768 1.195 20.608 2.133 6.229 1.451 11.349 4.437 15.36 8.96 2.688 2.987 4.736 6.997 6.144 12.117 0.811 3.072 1.109 5.291 1.109 6.827h26.069v-169.856h-32v117.163h-37.291zM708.821 332.032c4.437 11.392 15.061 23.339 31.659 35.968 14.336 11.008 23.68 18.944 27.861 23.723 6.485 7.339 9.771 15.445 9.771 24.32 0 7.168-1.92 13.141-5.547 17.792-3.797 4.779-9.173 7.168-16.085 7.168-9.472 0-15.957-3.755-19.371-11.349-2.048-4.352-3.157-11.264-3.499-20.821h-30.336c0.512 14.421 2.987 26.112 7.339 35.072 8.405 16.939 23.125 25.429 44.459 25.429 16.853 0 30.165-5.035 40.149-14.933 9.856-9.899 14.933-23.083 14.933-39.595 0-12.459-3.541-23.637-10.581-33.493-4.693-6.443-12.203-13.611-22.656-21.589l-12.501-9.472c-7.893-6.101-13.269-10.24-16.043-13.013-2.987-2.645-5.376-5.717-7.467-9.216h69.461v-29.355h-108.8c0.341 12.203 2.731 23.296 7.253 33.365zM861.44 353.664c0-6.656 0.981-12.16 2.987-16.512 3.669-8.021 10.411-11.989 20.096-11.989 6.016 0 11.264 2.176 15.659 6.571 4.437 4.352 6.656 10.667 6.656 18.901 0 10.837-4.096 18.176-12.331 21.76-4.693 2.091-12.075 3.072-22.229 3.072v23.467c9.856 0.085 16.811 1.152 20.779 3.072 6.656 3.243 9.984 9.685 9.984 19.413 0 6.315-1.664 11.477-5.12 15.488-3.456 3.925-8.32 5.845-14.549 5.845-7.253 0-12.459-2.347-15.915-7.253-3.328-4.907-4.992-11.392-4.736-19.541h-28.587c0.341 8.32 1.664 16.043 4.011 23.467 2.603 6.485 6.443 12.416 11.776 17.92 4.011 3.925 8.789 6.912 14.165 8.917 5.589 1.963 12.373 3.072 20.352 3.072 14.763 0 26.667-4.096 35.755-12.245 9.131-8.235 13.611-19.157 13.611-32.981 0-9.771-2.688-18.005-8.021-24.747-3.456-4.267-6.997-6.997-10.795-8.576 2.773 0 6.784-2.517 11.989-7.68 7.808-7.68 11.648-18.261 11.648-31.573 0-13.995-4.523-26.325-13.653-36.992-9.088-10.539-22.485-15.872-40.32-15.872-21.888 0-37.12 7.68-45.653 22.997-4.48 8.064-6.997 18.731-7.509 32h29.952z" />
<glyph unicode="&#xe905;" glyph-name="post" d="M929.152 465.75l-118.485 79.019v287.232c0 11.776-9.557 21.333-21.333 21.333h-554.667c-11.776 0-21.333-9.557-21.333-21.333v-287.232l-118.485-79.019c-0.128-0.085-0.128-0.171-0.256-0.256-2.432-1.664-4.565-3.797-6.187-6.443-0.128-0.213-0.085-0.427-0.213-0.597-0.427-0.768-0.512-1.536-0.853-2.304-0.939-2.304-1.621-4.565-1.749-6.955 0.043-0.384-0.256-0.768-0.256-1.195v-373.845c0-40.875 33.28-74.155 74.197-74.155h704.896c40.96 0 74.24 33.28 74.24 74.155v373.845c0 7.125-3.541 13.781-9.515 17.749zM880.043 447.19l-69.376-40.405v86.656l69.376-46.251zM213.333 408.363l-66.901 40.491 66.901 44.587v-85.077zM864.469 42.667h-704.939c-17.365 0-31.531 14.123-31.531 31.488v336l179.115-108.416c3.456-2.091 7.253-3.072 11.051-3.072 7.211 0 14.251 3.669 18.261 10.283 6.101 10.069 2.859 23.211-7.211 29.312l-73.472 44.459c0.043 0.427 0.256 0.811 0.256 1.28v426.667h512v-428.715l-74.709-43.563c-10.197-5.931-13.611-18.944-7.723-29.184 3.968-6.741 11.093-10.539 18.432-10.539 3.627 0 7.339 0.896 10.709 2.901l181.291 105.6v-333.013c0-17.365-14.165-31.488-31.531-31.488zM653.867 250.88c-3.84 3.285-8.789 5.12-13.867 5.12h-256c-5.077 0-10.027-1.835-13.867-5.12l-149.333-128c-8.96-7.68-9.984-21.163-2.304-30.080 7.68-8.96 21.163-9.941 30.080-2.347l143.317 122.88h240.213l143.36-122.88c4.011-3.456 8.96-5.12 13.867-5.12 6.016 0 11.989 2.56 16.171 7.467 7.68 8.917 6.656 22.4-2.304 30.080l-149.333 128zM362.667 682.667h298.667c11.776 0 21.333 9.557 21.333 21.333s-9.557 21.333-21.333 21.333h-298.667c-11.776 0-21.333-9.557-21.333-21.333s9.557-21.333 21.333-21.333zM362.667 554.667h298.667c11.776 0 21.333 9.557 21.333 21.333s-9.557 21.333-21.333 21.333h-298.667c-11.776 0-21.333-9.557-21.333-21.333s9.557-21.333 21.333-21.333zM362.667 426.667h298.667c11.776 0 21.333 9.557 21.333 21.333s-9.557 21.333-21.333 21.333h-298.667c-11.776 0-21.333-9.557-21.333-21.333s9.557-21.333 21.333-21.333z" />
<glyph unicode="&#xe906;" glyph-name="search" d="M932.352 36.48l-254.848 254.848c51.499 59.648 82.987 137.344 82.987 222.379 0 187.221-151.424 339.541-337.493 339.541-186.155 0-337.579-152.32-337.579-339.541 0-187.264 151.424-339.627 337.579-339.627 86.229 0 164.821 33.024 224.597 86.827l254.592-254.592c4.181-4.181 9.685-6.229 15.104-6.229 5.504 0 10.923 2.091 15.104 6.229 8.277 8.363 8.277 21.845-0.043 30.165zM422.997 216.747c-162.645 0-294.912 133.205-294.912 296.96 0 163.712 132.267 296.875 294.912 296.875 162.603 0 294.827-133.163 294.827-296.875s-132.224-296.96-294.827-296.96z" />
<glyph unicode="&#xe907;" glyph-name="star-fill" d="M512 853.334l111.275-298.667h315.392l-259.712-220.757 111.275-333.909-278.229 204.075-278.272-204.075 111.317 333.909-259.712 220.757h315.435z" />
<glyph unicode="&#xe908;" glyph-name="star-line" d="M512 730.667l71.296-190.165 10.325-27.819h228.395l-170.624-146.176-22.101-18.688 9.173-27.435 68.864-206.72-195.328 143.317-195.413-143.275 68.907 206.72 9.173 27.435-22.101 18.645-170.624 146.176h228.437l10.325 27.819 71.296 190.165zM512 853.334l-111.232-297.984h-315.435l259.712-221.397-111.317-333.952 278.272 204.075 278.229-204.075-111.275 333.909 259.712 221.44h-315.392l-111.275 297.984z" />
<glyph unicode="&#xe909;" glyph-name="account" d="M798.165 254.080l-158.165 72.021v84.693c51.712 44.928 85.376 116.139 85.376 196.437 0 135.68-95.701 246.101-213.376 246.101-117.632 0-213.333-110.421-213.333-246.144 0-81.109 34.347-153.003 86.997-197.845h-1.664v-83.328l-156.373-71.253c-49.493-17.323-99.627-66.432-99.627-126.763v-85.333h768v85.333c0 60.373-50.133 109.483-97.835 126.080zM512 810.667c84.779 0 154.752-74.24 167.979-170.923-0.469-0.085-0.768-0.043-1.237-0.128-61.184-11.691-98.005 3.968-126.933 53.803l-19.328 33.067-18.005-33.835c-16.469-31.019-82.816-52.651-131.968-52.651-15.232 0-24.533 3.712-37.163 10.197 16.597 91.563 84.949 160.469 166.656 160.469zM341.504 605.184c11.52-4.608 24.107-7.851 41.003-7.851 50.773 0 113.365 17.237 149.248 49.749 28.672-36.181 65.237-53.717 112.171-53.717 11.819 0 24.704 1.579 37.973 3.797-4.48-107.435-78.635-193.365-169.856-193.365-93.568 0-169.6 90.155-170.539 201.387zM853.333 85.334h-682.667v42.667c0 35.115 30.549 72.32 72.832 87.253l183.168 83.328v83.243c26.155-13.269 54.997-20.693 85.333-20.693s59.179 7.467 85.333 20.651v-83.2l184.96-84.053c40.491-14.165 71.040-51.371 71.040-86.528v-42.667z" />
<glyph unicode="&#xe90a;" glyph-name="check-mail" d="M767.659 525.568c0 40.192-33.323 72.875-73.515 72.875l-359.296-0.64c-40.149 0-79.147-32.683-79.147-72.875v-240.427c0-40.235 38.656-72.917 78.848-72.917l360.021 0.683c40.149 0 73.173 32.683 73.173 72.917v240.384zM724.992 285.184c0-16.683-14.165-30.251-30.848-30.251l-359.339-0.683c-16.683 0-36.48 13.568-36.48 30.251v240.427c0 16.683 19.499 30.208 36.181 30.208l360.021 0.683c16.683 0 30.507-13.525 30.507-30.208v-240.427zM588.971 405.931l84.395 67.883c9.344 7.211 11.008 20.608 3.755 29.952-7.296 9.301-20.693 10.965-29.909 3.712l-136.491-110.123-136.533 110.123c-9.259 7.253-22.699 5.589-29.909-3.712-7.253-9.301-5.589-22.699 3.755-29.952l79.915-64.299-80.512-74.368c-9.045-7.509-10.24-20.992-2.688-29.995 4.224-5.077 10.283-7.68 16.384-7.68 4.821 0 9.685 1.579 13.653 4.907l86.741 80.085 36.096-29.013c3.84-2.987 8.448-4.48 13.099-4.48s9.259 1.493 13.099 4.48l31.275 25.173 91.563-76.245c4.011-3.328 8.832-4.907 13.653-4.907 6.101 0 12.16 2.603 16.384 7.68 7.552 9.003 6.315 22.485-2.688 29.995l-85.035 70.784zM304.725 750.208c3.968 0 7.936 1.067 11.477 3.328 119.979 76.373 281.045 76.373 400.896 0 9.856-6.272 23.083-3.456 29.44 6.528 6.315 9.941 3.413 23.125-6.528 29.44-133.589 85.077-312.96 85.077-446.72 0-9.941-6.315-12.928-19.499-6.571-29.44 4.053-6.357 10.965-9.856 18.005-9.856zM843.989 175.147c3.584-2.347 7.552-3.413 11.52-3.413 6.997 0 13.909 3.499 18.005 9.899 42.624 66.773 65.152 144.043 65.152 223.403s-22.528 156.587-65.152 223.36c-6.4 9.984-19.627 12.8-29.483 6.485-9.899-6.315-12.843-19.541-6.485-29.44 38.229-59.904 58.453-129.195 58.453-200.405 0-71.168-20.224-140.501-58.496-200.448-6.357-9.941-3.413-23.083 6.485-29.44zM166.827 172.075c3.968 0 7.936 1.067 11.477 3.413 9.941 6.315 12.885 19.499 6.528 29.397-38.229 59.904-58.411 129.237-58.411 200.448s20.224 140.501 58.411 200.405c6.315 9.941 3.413 23.125-6.528 29.44-9.771 6.272-23.040 3.456-29.44-6.485-42.624-66.731-65.109-143.957-65.109-223.36 0-79.36 22.485-156.587 65.067-223.36 4.096-6.4 10.965-9.899 18.005-9.899zM711.125 103.424c-119.936-76.416-280.875-76.331-400.896 0-9.856 6.229-23.083 3.328-29.44-6.571-6.315-9.899-3.371-23.168 6.528-29.397 66.859-42.581 144.171-65.067 223.403-65.067 79.275 0 156.501 22.485 223.275 65.067 9.941 6.315 12.885 19.499 6.528 29.397-6.315 9.984-19.541 12.715-29.397 6.571zM802.816 164.438c-8.32 8.32-21.845 8.32-30.165 0s-8.32-21.845 0-30.165l128-128c4.181-4.181 9.643-6.272 15.104-6.272s10.923 2.091 15.104 6.229c8.32 8.32 8.32 21.845 0 30.165l-128.043 128.043zM218.027 164.438l-128.043-128c-8.32-8.32-8.32-21.845 0-30.165 4.181-4.181 9.643-6.272 15.104-6.272s10.923 2.091 15.104 6.229l128.043 128c8.32 8.32 8.32 21.845 0 30.165s-21.845 8.363-30.208 0.043zM217.984 688.896c8.32-8.32 21.845-8.32 30.165 0s8.32 21.845 0 30.165l-128 128c-4.139 4.181-9.6 6.272-15.061 6.272s-10.923-2.091-15.104-6.229c-8.32-8.32-8.32-21.845 0-30.165l128-128.043zM802.773 688.939l128.043 128c8.32 8.32 8.32 21.845 0 30.165-4.139 4.181-9.6 6.229-15.061 6.229s-10.923-2.091-15.104-6.229l-128.043-128c-8.32-8.32-8.32-21.845 0-30.165s21.845-8.32 30.165 0z" />
<glyph unicode="&#xe90b;" glyph-name="help" d="M491.221 257.835c-18.219 0-32.939-14.763-32.939-32.939 0-18.219 14.763-32.939 32.939-32.939s32.939 14.72 32.939 32.939c0 18.176-14.805 32.939-32.939 32.939v0zM491.221 301.227c-11.776 0-21.333 9.557-21.333 21.333v98.901c0 11.776 9.557 21.333 21.333 21.333 42.752 0 77.525 34.773 77.525 77.568s-34.773 77.568-77.525 77.568-77.568-34.816-77.568-77.568c0-11.776-9.557-21.333-21.333-21.333s-21.333 9.557-21.333 21.333c0 66.304 53.931 120.235 120.192 120.235s120.235-53.931 120.235-120.235c0-59.008-42.752-108.245-98.859-118.315v-79.488c0-11.819-9.557-21.333-21.333-21.333zM512-0c-235.264 0-426.667 191.403-426.667 426.667s191.403 426.667 426.667 426.667 426.667-191.403 426.667-426.667-191.403-426.667-426.667-426.667zM512 810.667c-211.755 0-384-172.288-384-384s172.245-384 384-384 384 172.288 384 384-172.245 384-384 384z" />
<glyph unicode="&#xe90c;" glyph-name="lock-account" d="M1001.429 213.206h-20.096v24.661c0 76.373-56.491 139.179-129.195 139.179-72.661 0-126.805-60.8-126.805-137.173v-26.667h-21.717c-11.776 0-20.949 0-20.949-11.819v-256c0-11.776 9.259-30.592 21.035-30.592h297.771c11.776 0 22.485 18.773 22.485 30.592v256c0.043 11.819-10.752 11.819-22.528 11.819zM768 238.55c0 52.821 34.987 95.829 84.139 95.829s86.528-43.008 86.528-95.829v-25.344h-170.667v25.344zM981.333-42.794h-256v213.333h256v-213.333zM896 85.462c0 23.595-19.072 42.667-42.667 42.667s-42.667-19.072-42.667-42.667c0-15.616 8.789-28.672 21.291-36.139l1.365-27.861c0-11.776 9.557-21.333 21.333-21.333s21.333 9.557 21.333 21.333v28.757c11.819 7.595 20.011 20.181 20.011 35.243zM640 298.667v112.128c51.712 44.928 85.376 116.139 85.376 196.437 0 135.68-95.701 246.101-213.376 246.101-117.632 0-213.333-110.421-213.333-246.144 0-81.109 34.347-153.003 86.997-197.845h-1.664v-83.328l-156.373-71.253c-49.493-17.323-99.627-66.432-99.627-126.763v-85.333h426.667v42.667h-384v42.667c0 35.115 30.549 72.32 72.832 87.253l183.168 83.328v83.243c26.155-13.269 54.997-20.693 85.333-20.693s59.179 7.467 85.333 20.651v-83.115h42.667zM512 810.667c84.779 0 154.752-74.24 167.979-170.923-0.469-0.085-0.768-0.043-1.237-0.128-61.227-11.691-98.005 3.968-126.933 53.803l-19.328 33.067-18.005-33.835c-16.469-31.019-82.816-52.651-131.968-52.651-15.232 0-24.533 3.712-37.163 10.197 16.597 91.563 84.949 160.469 166.656 160.469zM512 403.798c-93.525 0-169.557 90.155-170.496 201.387 11.52-4.608 24.107-7.851 41.003-7.851 50.773 0 113.365 17.237 149.248 49.749 28.672-36.181 65.237-53.717 112.171-53.717 11.819 0 24.704 1.579 37.973 3.797-4.523-107.392-78.635-193.365-169.899-193.365z" />
<glyph unicode="&#xe90d;" glyph-name="messages" d="M823.253 682.667h-621.653c-40.32 0-73.173-32.853-73.173-73.173v-365.696c0-40.32 32.853-73.131 73.173-73.131h621.653c40.32 0 73.173 32.811 73.173 73.131v365.696c0 40.32-32.811 73.173-73.173 73.173zM818.56 640l-306.133-244.949-306.133 244.949h612.267zM853.76 243.798c0-16.853-13.653-30.464-30.507-30.464h-621.653c-16.853 0-30.507 13.611-30.507 30.464v365.696c0 1.195 0.555 2.261 0.683 3.413l327.296-261.888c3.925-3.072 8.619-4.651 13.312-4.651s9.429 1.579 13.312 4.651l327.296 261.888c0.128-1.152 0.683-2.219 0.683-3.413v-365.696z" />
<glyph unicode="&#xe90e;" glyph-name="mobile" d="M721.536-0h-420.949c-49.152 0-86.571 30.293-86.571 79.36l-0.512 699.904c0 49.152 37.419 74.069 86.571 74.069h420.949c49.109 0 89.131-29.355 89.131-78.464l0.512-700.544c0-49.067-40.021-74.325-89.131-74.325zM300.075 810.667c-25.6 0-43.904-10.496-43.904-36.096l0.512-700.501c0-25.6 18.304-31.36 43.904-31.36h420.949c25.643-0.043 46.464 11.392 46.464 36.949l-0.512 699.904c0 25.643-20.821 31.104-46.464 31.104h-420.949zM511.957 149.334c-18.688 0-33.835-15.147-33.835-33.92 0-18.688 15.147-33.877 33.835-33.877 18.731 0 33.963 15.189 33.963 33.877 0 18.773-15.232 33.92-33.963 33.92v0zM704 170.667h-384.896c-11.776 0-21.589 18.219-21.589 29.995l0.469 506.667c0 11.776 9.813 18.005 21.589 18.005h384.896c11.776 0 21.333 1.109 21.333-10.667l-0.469-517.333c0-11.776-9.557-26.667-21.333-26.667zM340.437 213.334h342.229l0.512 469.333h-342.272l-0.469-469.333zM509.483 780.587c-9.344 0-16.896-7.552-16.896-16.896 0-9.387 7.552-16.981 16.896-16.981 9.429 0 16.981 7.595 16.981 16.981 0.043 9.344-7.552 16.896-16.981 16.896v0z" />
<glyph unicode="&#xe90f;" glyph-name="watchlist" d="M891.392 432.086c-6.912 9.003-171.179 220.928-379.392 220.928s-372.48-211.925-379.392-220.928c-6.187-8.064-6.187-19.456 0-27.477 6.912-9.003 171.179-220.928 379.392-220.928s372.48 211.925 379.392 220.928c6.144 8.021 6.144 19.413 0 27.477zM512 227.883c-158.549 0-295.296 144.64-334.635 190.464 39.296 45.824 175.787 190.421 334.635 190.421 158.549 0 295.296-144.64 334.635-190.464-39.296-45.824-175.787-190.421-334.635-190.421zM512 571.264c-81.28 0-147.456-68.565-147.456-152.917 0-84.309 66.176-152.875 147.456-152.875s147.456 68.565 147.456 152.875c0 84.309-66.176 152.917-147.456 152.917zM512 309.675c-57.771 0-104.789 48.725-104.789 108.629 0 59.947 47.019 108.672 104.789 108.672s104.789-48.725 104.789-108.672c0-59.904-47.019-108.629-104.789-108.629zM512 505.856c-11.776 0-21.333-9.856-21.333-22.144 0-12.203 9.557-22.101 21.333-22.101 23.040 0 41.771-19.413 41.771-43.307s-18.731-43.264-41.771-43.264-41.771 19.413-41.771 43.307c0 12.245-9.557 22.144-21.333 22.144s-21.333-9.899-21.333-22.144c0-48.256 37.888-87.509 84.437-87.509s84.437 39.253 84.437 87.509-37.888 87.509-84.437 87.509z" />
<glyph unicode="&#xe910;" glyph-name="add" d="M938.667 512h-341.333v341.333h-170.667v-341.333h-341.333v-170.667h341.333v-341.333h170.667v341.333h341.333z" />
<glyph unicode="&#xe911;" glyph-name="close" d="M927.616 745.771l-96.512 96.512-319.104-319.104-319.104 319.104-96.512-96.512 319.061-319.104-319.061-319.104 96.512-96.512 319.104 319.104 319.104-319.104 96.512 96.512-319.061 319.104z" />
<glyph unicode="&#xe912;" glyph-name="confirm" d="M406.741 282.368l-113.28 113.195-35.243-35.2 113.28-113.237-0.427-0.427 35.2-35.243 7.68 7.637 28.075 28.032h-0.043l321.92 321.92-35.2 35.157zM511.872 853.334c-235.221 0-426.581-191.317-426.581-426.496 0-235.349 191.36-426.837 426.581-426.837 235.349 0 426.795 191.488 426.795 426.837 0 235.179-191.445 426.496-426.795 426.496zM511.872 42.667c-211.712 0-383.915 172.331-383.915 384.171 0 211.627 172.203 383.829 383.915 383.829 211.797 0 384.128-172.203 384.128-383.829 0-211.84-172.331-384.171-384.128-384.171z" />
<glyph unicode="&#xe913;" glyph-name="error" d="M512 853.334c-235.264 0-426.667-191.403-426.667-426.667s191.403-426.667 426.667-426.667 426.667 191.403 426.667 426.667-191.403 426.667-426.667 426.667zM554.667 213.334h-84.864v85.333h84.864v-85.333zM554.667 341.334h-84.907l-0.427 298.667h85.333v-298.667z" />
<glyph unicode="&#xe914;" glyph-name="info" d="M469.333 512h85.333v-298.667h-85.333v298.667zM469.333 640h85.333v-85.333h-85.333v85.333zM512-0c-235.264 0-426.667 191.403-426.667 426.667s191.403 426.667 426.667 426.667 426.667-191.403 426.667-426.667-191.403-426.667-426.667-426.667zM512 810.667c-211.712 0-384-172.288-384-384s172.288-384 384-384 384 172.288 384 384-172.288 384-384 384z" />
<glyph unicode="&#xe915;" glyph-name="menu" d="M256 426.624c0-70.692-57.308-128-128-128s-128 57.308-128 128c0 70.692 57.308 128 128 128s128-57.308 128-128zM640 426.624c0-70.692-57.308-128-128-128s-128 57.308-128 128c0 70.692 57.308 128 128 128s128-57.308 128-128zM1024 426.624c0-70.692-57.308-128-128-128s-128 57.308-128 128c0 70.692 57.308 128 128 128s128-57.308 128-128z" />
<glyph unicode="&#xe916;" glyph-name="warning" d="M512 853.334c0-13.312-426.667-853.333-426.667-853.333h853.333l-426.667 853.333zM554.667 128h-85.333v85.333h85.333v-85.333zM469.333 256v298.667h85.333v-298.667h-85.333z" />
<glyph unicode="&#xe917;" glyph-name="compare" d="M214.699 666.198c0.896-0.768 1.621-1.451 2.645-2.048 3.328-2.005 6.955-3.413 10.837-3.413v0c0 0 0 0 0.043 0v0c0.384 0 0.811 0.171 1.152 0.171 1.877 0.085 3.84 0.299 5.717 0.939l0.085 0.043h0.043l235.776 80.64 400.128-251.819c3.541-2.219 7.467-3.285 11.349-3.285 7.083 0 14.037 3.541 18.091 9.984 6.272 9.941 3.285 23.125-6.699 29.397l-408.747 257.237c-0.341 0.213-0.768 0.213-1.109 0.427-1.237 0.683-2.603 1.024-3.968 1.493-1.237 0.384-2.517 0.896-3.84 1.024s-2.603 0-3.968-0.085c-1.451-0.085-2.859-0.171-4.267-0.555-0.427-0.085-0.811 0-1.152-0.128l-231.424-79.189-112.768 139.008c-7.381 9.173-20.779 10.581-29.995 3.115-9.131-7.381-10.539-20.821-3.115-29.995l122.112-150.571c0.853-1.024 2.091-1.536 3.072-2.389zM712.107 687.702c6.272 0 12.544 2.773 16.811 8.107l61.909 78.933c7.296 9.259 5.675 22.699-3.584 29.952-9.344 7.296-22.656 5.589-29.995-3.627l-61.824-78.848c-7.339-9.259-5.76-22.656 3.499-29.952 3.925-3.072 8.576-4.565 13.184-4.565zM522.069 440.704c1.579 1.152 3.328 2.048 4.565 3.669l0.043 0.043c0 0 0.043 0 0.043 0v0.043l103.424 131.669c7.253 9.259 5.675 22.656-3.627 29.952-9.259 7.296-22.656 5.632-29.952-3.584l-90.325-115.072-146.133 113.792c-0.085 0.085-0.171 0.085-0.299 0.171s-0.128 0.171-0.256 0.256c-1.109 0.768-2.304 1.024-3.456 1.579-1.365 0.64-2.56 1.451-3.925 1.792-1.323 0.341-2.731 0.213-4.096 0.299-1.323 0.043-2.688 0.299-4.096 0.128-1.323-0.171-2.56-0.811-3.84-1.28-1.28-0.427-2.645-0.725-3.84-1.408s-2.133-1.835-3.2-2.773c-0.896-0.853-2.091-1.451-2.901-2.517-0.128-0.085-0.128-0.213-0.213-0.299s-0.171-0.171-0.213-0.256l-178.688-246.699c-6.912-9.557-4.821-22.912 4.736-29.781 3.755-2.731 8.149-4.053 12.501-4.053 6.571 0 13.099 3.072 17.237 8.832l165.76 228.821 145.493-113.237c3.883-3.029 8.491-4.48 13.099-4.48 3.157 0 6.315 0.725 9.216 2.091 1.109 0.469 1.963 1.579 2.944 2.304zM725.333 469.334c-117.675 0-213.333-95.744-213.333-213.419 0-117.589 95.659-213.248 213.333-213.248 117.632 0 213.333 95.659 213.333 213.248 0 117.675-95.701 213.419-213.333 213.419zM725.333 85.846c-93.952 0-170.368 76.288-170.368 170.069 0 93.867 76.416 170.24 170.368 170.24 93.909 0 170.325-76.373 170.325-170.24 0-93.781-76.416-170.069-170.325-170.069zM810.667 277.334h-64v64c0 11.776-9.557 21.333-21.333 21.333s-21.333-9.557-21.333-21.333v-64h-64c-11.776 0-21.333-9.557-21.333-21.333s9.557-21.333 21.333-21.333h64v-64c0-11.776 9.557-21.333 21.333-21.333s21.333 9.557 21.333 21.333v64h64c11.733 0 21.333 9.557 21.333 21.333s-9.6 21.333-21.333 21.333z" />
<glyph unicode="&#xe918;" glyph-name="contract" d="M511.915 851.115c-234.709 0-425.685-190.976-425.685-425.728 0-234.709 190.976-425.643 425.685-425.643 234.752 0 425.685 190.933 425.685 425.643 0 234.752-190.933 425.728-425.685 425.728zM511.915 42.411c-211.157 0-383.019 171.819-383.019 382.976 0 211.2 171.819 383.061 383.019 383.061s383.019-171.819 383.019-383.061c0-211.157-171.819-382.976-383.019-382.976zM731.435 426.667h-441.088c-11.776 0-21.333-9.557-21.333-21.333s9.557-21.333 21.333-21.333h441.088c11.733 0 21.333 9.557 21.333 21.333s-9.6 21.333-21.333 21.333z" />
<glyph unicode="&#xe919;" glyph-name="expand" d="M512 853.206c-235.179 0-426.539-191.36-426.539-426.539s191.36-426.539 426.539-426.539 426.539 191.36 426.539 426.539-191.36 426.539-426.539 426.539zM512 42.795c-211.669 0-383.872 172.203-383.872 383.872s172.203 383.872 383.872 383.872 383.872-172.203 383.872-383.872-172.203-383.872-383.872-383.872zM731.947 426.667h-199.723v199.68c0 11.776-9.515 21.333-21.333 21.333-11.733 0-21.333-9.557-21.333-21.333v-199.68h-199.68c-11.776 0-21.333-9.557-21.333-21.333s9.557-21.333 21.333-21.333h199.68v-199.68c0-11.776 9.6-21.333 21.333-21.333 11.819 0 21.333 9.557 21.333 21.333v199.68h199.723c11.776 0 21.333 9.557 21.333 21.333s-9.515 21.333-21.333 21.333z" />
<glyph unicode="&#xe91a;" glyph-name="export" d="M916.779 208.896c-11.776 0-20.779-9.557-20.779-21.333v-45.952c0-49.365-41.216-98.944-85.333-98.944h-554.667c-46.080 0-85.333 52.523-85.333 98.688v45.952c0 11.776-10.795 21.333-22.571 21.333s-20.096-9.515-20.096-21.291v-45.952c0-66.475 55.424-141.397 128-141.397h554.667c66.859 0 128 69.376 128 141.611v45.952c0 11.776-10.069 21.333-21.888 21.333zM516.352 176.427c4.053-4.651 9.899-7.339 16.085-7.339 0.043 0 0.085 0 0.171 0 6.229 0.043 12.075 2.816 16.128 7.552l255.275 292.011c7.637 9.003 6.485 22.443-2.517 30.080-9.045 7.595-22.443 6.485-30.080-2.517l-216.747-247.509v572.416c0 11.776-10.453 21.333-22.229 21.333s-20.437-9.557-20.437-21.333v-573.611l-218.453 250.923c-7.723 8.875-21.205 9.813-30.080 2.091s-9.813-21.205-2.091-30.123l254.976-293.973z" />
<glyph unicode="&#xe91b;" glyph-name="factsheet" d="M932.352 36.651l-254.848 254.848c51.499 59.648 82.987 137.301 82.987 222.379 0 187.221-151.424 339.541-337.493 339.541-186.155 0-337.579-152.32-337.579-339.541 0-187.264 151.424-339.584 337.579-339.584 86.229 0 164.821 33.024 224.597 86.827l254.592-254.592c4.181-4.181 9.685-6.229 15.104-6.229 5.504 0 10.923 2.091 15.104 6.229 8.277 8.277 8.277 21.803-0.043 30.123zM422.997 216.918c-162.645 0-294.912 133.205-294.912 296.917s132.267 296.875 294.912 296.875c162.603 0 294.827-133.205 294.827-296.875s-132.224-296.917-294.827-296.917zM602.411 639.872h-87.083c-11.776 0-17.835-9.557-17.835-21.333v-234.965h-26.837v319.445c0 11.776-9.557 21.333-21.333 21.333h-85.333c-11.776 0-21.333-9.557-21.333-21.333v-319.445l-19.328-0.256v149.077c0 11.776-9.557 21.333-21.333 21.333h-88.789c-11.776 0-21.333-9.557-21.333-21.333v-170.411c0-11.776 9.557-21.333 21.333-21.333h88.789l61.995 0.256h238.421c11.819 0 21.333 9.557 21.333 21.333v256.299c0 11.776-9.515 21.333-21.333 21.333zM280.661 383.318h-46.123v127.744h46.123v-127.744zM427.947 383.616h-42.667v298.112h42.667v-298.112zM581.077 383.616h-44.459v213.632h44.459v-213.632z" />
<glyph unicode="&#xe91c;" glyph-name="print" d="M853.333 213.334h-106.667c-11.776 0-21.333 9.557-21.333 21.333s9.557 21.333 21.333 21.333h106.667c27.136 0 42.667 15.531 42.667 42.667v213.333c0 27.136-15.531 42.667-42.667 42.667h-682.667c-27.136 0-42.667-15.531-42.667-42.667v-213.333c0-27.136 15.531-42.667 42.667-42.667h106.667c11.776 0 21.333-9.557 21.333-21.333s-9.557-21.333-21.333-21.333h-106.667c-50.261 0-85.333 35.072-85.333 85.333v213.333c0 50.261 35.072 85.333 85.333 85.333h682.667c50.261 0 85.333-35.072 85.333-85.333v-213.333c0-50.261-35.072-85.333-85.333-85.333zM746.667-0h-469.333c-11.776 0-21.333 9.557-21.333 21.333v341.333c0 11.776 9.557 21.333 21.333 21.333h469.333c11.776 0 21.333-9.557 21.333-21.333v-341.333c0-11.776-9.557-21.333-21.333-21.333zM298.667 42.667h426.667v298.667h-426.667v-298.667zM256.939 469.334c0-23.564-19.103-42.667-42.667-42.667s-42.667 19.103-42.667 42.667c0 23.564 19.103 42.667 42.667 42.667s42.667-19.103 42.667-42.667zM661.333 256h-298.667c-11.776 0-21.333 9.557-21.333 21.333s9.557 21.333 21.333 21.333h298.667c11.776 0 21.333-9.557 21.333-21.333s-9.557-21.333-21.333-21.333zM661.333 170.667h-298.667c-11.776 0-21.333 9.557-21.333 21.333s9.557 21.333 21.333 21.333h298.667c11.776 0 21.333-9.557 21.333-21.333s-9.557-21.333-21.333-21.333zM661.333 85.334h-298.667c-11.776 0-21.333 9.557-21.333 21.333s9.557 21.333 21.333 21.333h298.667c11.776 0 21.333-9.557 21.333-21.333s-9.557-21.333-21.333-21.333zM763.051 717.654l-106.667 128c-4.053 4.907-10.069 7.68-16.384 7.68h-362.667c-11.776 0-21.333-9.557-21.333-21.333v-170.667c0-11.776 9.557-21.333 21.333-21.333s21.333 9.557 21.333 21.333v149.333h298.667v-106.667c0-11.776 9.557-21.333 21.333-21.333h106.667v-21.333c0-11.776 9.557-21.333 21.333-21.333s21.333 9.557 21.333 21.333v42.667c0 4.992-1.749 9.813-4.949 13.653zM640 798.678l61.141-73.344h-61.141v73.344z" />
<glyph unicode="&#xe91d;" glyph-name="refresh" d="M215.083 397.355v87.339c0 7.979-3.925 27.307 77.696 27.307h346.283v-79.701c0-8.832 5.419-16.725 13.653-19.883 8.235-3.243 17.536-0.981 23.467 5.547l171.179 188.928c7.381 8.149 7.381 20.565 0 28.715l-171.179 191.872c-5.931 6.528-15.232 8.747-23.467 5.547-8.235-3.157-13.653-11.093-13.653-19.883v-87.936h-346.325c-110.848 0-164.907-94.037-164.907-190.293 0-83.2 46.763-147.499 48.725-150.187 4.096-5.547 10.539-12.117 17.152-12.117 2.219 0 4.48 0.341 6.656 1.067 8.789 2.859 14.72 14.464 14.72 23.68zM173.867 499.371c-2.091 11.221-3.371 23.125-3.371 35.499 0 52.267 22.443 147.627 122.24 147.627h367.616c11.776 0 21.333 9.557 21.333 21.333v54.101l121.003-136.661-121.003-133.76v45.099c0 11.776-9.557 21.333-21.333 21.333h-367.616c-34.347 0-107.307 0-118.869-54.571zM829.568 477.014c-5.931 6.443-15.275 8.576-23.424 5.333-8.149-3.2-13.525-11.093-13.525-19.84v-87.339c0-29.397 4.608-33.792-45.781-33.792h-362.923v86.229c0 8.832-5.419 16.725-13.653 19.883-8.192 3.2-17.536 0.981-23.467-5.547l-169.771-192.896c-7.381-8.149-7.381-20.565 0-28.715l169.899-186.965c4.139-4.523 9.899-6.997 15.787-6.997 2.603 0 5.205 0.469 7.68 1.451 8.235 3.157 13.653 11.093 13.653 19.883v80.299h362.923c113.024 0 148.523 96.725 148.523 192.555 0 84.523-63.232 153.557-65.92 156.459zM746.965 170.667h-384.256c-11.776 0-21.333-10.837-21.333-22.656v-45.141l-119.765 131.797 119.595 137.685v-54.101c0-11.776 9.557-19.584 21.333-19.584h384.256c78.208 0 88.448 25.771 88.448 76.459v16.171c9.728-20.523 17.579-45.056 17.579-70.784 0-46.72-5.973-149.845-105.856-149.845z" />
<glyph unicode="&#xe91e;" glyph-name="settings" d="M916.437 499.030h-89.728c-6.272 27.136-15.061 58.197-26.24 82.133l69.888 71.851c8.107 8.32 8.021 21.632-0.128 29.867l-99.456 100.523c-8.192 8.277-21.419 8.491-29.824 0.469l-73.344-69.547c-25.301 12.16-57.216 21.12-81.493 26.837v88.192c0 11.776-9.557 21.333-21.333 21.333h-105.472c-11.776 0-21.333-9.557-21.333-21.333v-88.235c-21.291-5.205-49.237-13.611-73.899-25.813l-67.584 69.163c-4.011 4.096-9.472 6.4-15.147 6.4-5.12 1.195-11.221-2.219-15.232-6.315l-98.56-99.456c-8.149-8.192-8.277-21.333-0.299-29.696l70.656-74.155c-9.259-19.755-17.877-46.976-25.984-82.219h-104.32c-11.776 0-21.333-9.557-21.333-21.333v-105.515c0-11.776 9.557-21.333 21.333-21.333h104.448c5.248-20.949 13.568-48.512 25.771-72.917l-69.12-67.2c-4.096-3.968-6.4-9.472-6.443-15.189s2.261-11.221 6.315-15.232l99.499-98.347c4.096-4.053 9.856-6.528 15.36-6.187 5.717 0.085 11.179 2.517 15.104 6.656l65.707 69.419c23.253-11.392 50.347-19.584 73.643-25.259v-106.027c0-11.776 9.557-21.333 21.333-21.333h105.472c11.776 0 21.333 9.557 21.333 21.333v105.941c26.752 6.272 57.429 15.019 81.237 26.283l71.424-69.845c8.405-8.192 21.717-8.107 29.909 0.085l100.437 99.456c4.139 4.053 6.357 9.643 6.315 15.36-0.043 5.76-2.475 11.264-6.613 15.232l-68.352 64.981c10.24 20.437 19.285 45.739 26.069 72.789h89.856c11.776 0 21.333 9.557 21.333 21.333v105.515c0.128 11.776-9.429 21.333-21.205 21.333zM895.104 393.515h-85.504c-10.069 0-18.773-7.083-20.864-16.939-7.595-36.096-19.627-69.461-33.067-91.52-5.248-8.576-3.797-19.627 3.499-26.581l64.341-61.141-69.888-69.205-67.584 66.048c-6.955 6.912-17.707 8.021-26.027 2.944-18.731-11.477-54.144-23.083-99.584-32.64-9.856-2.091-16.939-10.795-16.939-20.864v-101.76h-62.805v101.76c0 10.069-7.083 18.773-16.939 20.864-39.168 8.235-72.021 19.627-92.416 32.128-8.619 5.248-19.669 3.797-26.624-3.541l-62.080-65.493-68.523 67.712 65.195 63.36c7.125 6.955 8.533 17.92 3.328 26.411-13.141 21.461-24.747 53.973-32.725 91.563-2.091 9.856-10.795 16.896-20.864 16.896h-100.096v62.848h100.096c10.069 0 18.773 7.040 20.864 16.896 10.283 48.555 21.12 82.347 32.213 100.437 5.077 8.277 3.968 18.859-2.688 25.856l-66.987 70.272 68.651 69.333 63.744-65.237c6.997-7.168 17.963-8.405 26.368-3.328 21.163 12.885 54.827 24.747 92.459 32.597 9.856 2.048 16.939 10.752 16.939 20.864v83.968h62.805v-83.925c0-10.112 7.083-18.816 16.939-20.864 43.179-9.003 80.384-21.376 99.584-33.109 8.149-5.12 18.859-3.925 25.771 2.688l69.376 65.792 70.059-70.827-66.133-67.968c-6.784-6.997-8.021-17.664-2.901-25.984 11.392-18.688 22.912-54.315 32.555-100.437 2.048-9.899 10.795-16.981 20.864-16.981h85.547v-62.891zM519.381 613.419c-99.029 0-179.584-80.555-179.584-179.541s80.555-179.584 179.584-179.584c98.987 0 179.541 80.555 179.541 179.584s-80.555 179.541-179.541 179.541zM519.381 296.96c-75.52 0-136.917 61.397-136.917 136.917 0 75.477 61.397 136.875 136.917 136.875 75.477 0 136.875-61.397 136.875-136.875 0-75.52-61.44-136.917-136.875-136.917z" />
<glyph unicode="&#xe91f;" glyph-name="account-add" d="M640 298.667v112.128c51.712 44.928 85.376 116.139 85.376 196.437 0 135.68-95.701 246.101-213.376 246.101-117.632 0-213.333-110.421-213.333-246.144 0-81.109 34.347-153.003 86.997-197.845h-1.664v-83.328l-156.373-71.253c-49.493-17.323-99.627-66.432-99.627-126.763v-85.333h426.667v42.667h-384v42.667c0 35.115 30.549 72.32 72.832 87.253l183.168 83.328v83.243c26.155-13.269 54.997-20.693 85.333-20.693s59.179 7.467 85.333 20.651v-83.115h42.667zM512 810.667c84.779 0 154.752-74.24 167.979-170.923-0.469-0.085-0.768-0.043-1.237-0.128-61.227-11.691-98.005 3.968-126.933 53.803l-19.328 33.067-18.005-33.835c-16.469-31.019-82.816-52.651-131.968-52.651-15.232 0-24.533 3.712-37.163 10.197 16.597 91.563 84.949 160.469 166.656 160.469zM512 403.798c-93.525 0-169.557 90.155-170.496 201.387 11.52-4.608 24.107-7.851 41.003-7.851 50.773 0 113.365 17.237 149.248 49.749 28.672-36.181 65.237-53.717 112.171-53.717 11.819 0 24.704 1.579 37.973 3.797-4.523-107.392-78.635-193.365-169.899-193.365zM832 298.667c-105.856 0-192-86.144-192-192s86.144-192 192-192 192 86.144 192 192-86.144 192-192 192zM832-42.666c-82.347 0-149.333 66.987-149.333 149.333s66.987 149.333 149.333 149.333 149.333-66.987 149.333-149.333-66.987-149.333-149.333-149.333zM917.333 128h-64v64c0 11.776-9.557 21.333-21.333 21.333s-21.333-9.557-21.333-21.333v-64h-64c-11.776 0-21.333-9.557-21.333-21.333s9.557-21.333 21.333-21.333h64v-64c0-11.776 9.557-21.333 21.333-21.333s21.333 9.557 21.333 21.333v64h64c11.776 0 21.333 9.557 21.333 21.333s-9.557 21.333-21.333 21.333z" />
<glyph unicode="&#xe920;" glyph-name="buy" d="M938.667 567.552c0 157.568-128.256 285.781-285.867 285.781-156.373 0-283.605-126.165-285.696-281.941-155.733-2.261-281.771-129.408-281.771-285.611 0-157.568 128.256-285.781 285.867-285.781 156.373 0 283.605 126.165 285.696 281.941 155.733 2.261 281.771 129.408 281.771 285.611zM371.2 43.307c-133.419 0-242.005 108.757-242.005 242.475 0 133.291 107.904 241.749 240.768 242.475 17.451-126.037 117.248-225.835 243.285-243.413-0.597-133.291-108.928-241.536-242.048-241.536zM652.8 325.035c-133.461 0-242.048 108.8-242.048 242.517s108.587 242.475 242.048 242.475c133.419 0 242.005-108.757 242.005-242.475s-108.587-242.517-242.005-242.517zM746.667 469.334h-74.453c6.741 14.208 10.453 46.592 10.453 59.563v25.771h42.667c11.776 0 21.333 8.277 21.333 20.096s-9.557 22.571-21.333 22.571h-42.667v80.896c0 11.776 9.557 21.333 21.333 21.333s21.333-9.557 21.333-21.333c0-11.776 9.557-21.333 21.333-21.333s21.333 9.557 21.333 21.333c0 35.285-28.715 64-64 64s-64-28.715-64-64v-80.896h-42.667c-11.776 0-21.333-10.795-21.333-22.571s9.557-20.096 21.333-20.096h42.667v-25.771c0-17.536-14.507-58.667-21.333-59.563-11.776 0-21.333-9.557-21.333-21.333s9.557-21.333 21.333-21.333h128c11.776 0 21.333 9.557 21.333 21.333s-9.557 21.333-21.333 21.333zM448 170.667h-73.301c6.741 14.208 9.301 51.029 9.301 64l1.152 21.333h41.515c11.776 0 21.333 9.557 21.333 21.333s-9.557 21.333-21.333 21.333h-42.667v85.333c0 11.776 9.557 21.333 21.333 21.333s21.333-9.557 21.333-21.333c0-11.776 9.557-21.333 21.333-21.333s21.333 9.557 21.333 21.333c0 35.285-28.715 64-64 64s-64-28.715-64-64v-85.333h-42.667c-11.776 0-21.333-9.557-21.333-21.333s9.557-21.333 21.333-21.333h43.819l-1.152-21.333c0-17.536-14.507-63.104-21.333-64-11.776 0-21.333-9.557-21.333-21.333s9.557-21.333 21.333-21.333h128c11.776 0 21.333 9.557 21.333 21.333s-9.557 21.333-21.333 21.333z" />
<glyph unicode="&#xe921;" glyph-name="chart" d="M896 533.334c0 11.776-9.557 21.333-21.333 21.333h-128c-11.776 0-21.333-9.557-21.333-21.333v-490.667h-42.283l-1.024 277.333c0 11.776-9.557 21.333-21.333 21.333h-127.36c-11.776 0-21.333-9.557-21.333-21.333v-277.333h-42.667v320c0 11.776-9.557 21.333-21.333 21.333h-128c-11.776 0-21.333-9.557-21.333-21.333v-320h-42.667v149.333c0 11.776-9.557 22.016-21.333 22.016h-128c-11.776 0-21.333-10.197-21.333-22.016v-149.333c0 0 0-10.581 0-21.333 0-11.776 9.557-21.333 21.333-21.333h768c11.776 0 21.333 9.557 21.333 21.333 0 10.752 0 512 0 512zM213.333 41.344h-85.333v130.005h85.333v-130.005zM426.667 42.667h-85.333v298.667h85.333v-298.667zM640 42.667h-85.333v256h85.333v-256zM853.333 42.667h-85.333v469.333h85.333v-469.333zM176.171 389.888c30.933 0 56.064 25.216 56.064 56.192 0 5.76-1.664 11.008-3.285 16.213l130.517 108.8c7.765-4.139 16.299-7.040 25.685-7.040 16.896 0 31.573 7.893 41.856 19.755l111.872-37.248c2.176-29.013 25.771-52.139 55.296-52.139 31.019 0 56.192 25.173 56.192 56.149 0 9.131-2.688 17.408-6.571 25.045l142.251 166.059c5.461-1.792 11.008-3.456 17.024-3.456 31.019 0 56.192 25.216 56.192 56.235 0 30.933-25.216 56.107-56.192 56.107-30.933 0-56.064-25.173-56.064-56.107 0-9.131 2.688-17.451 6.571-25.045l-142.336-166.144c-5.461 1.792-11.051 3.456-17.067 3.456-16.896 0-31.531-7.893-41.856-19.712l-111.744 37.248c-2.219 28.971-25.856 52.139-55.424 52.139-30.976 0-56.149-25.173-56.149-56.107 0-5.76 1.664-11.008 3.285-16.256l-130.475-108.8c-7.808 4.096-16.299 7.040-25.685 7.040-31.019 0-56.192-25.173-56.192-56.149s25.216-56.235 56.235-56.235zM803.072 807.936c7.467 0 13.525-6.059 13.525-13.44 0-7.467-6.101-13.568-13.525-13.568s-13.397 6.101-13.397 13.568c0 7.381 5.973 13.44 13.397 13.44zM594.176 564.054c7.467 0 13.525-6.059 13.525-13.44 0-7.424-6.101-13.483-13.525-13.483s-13.44 6.059-13.44 13.483c-0.043 7.381 6.016 13.44 13.44 13.44zM385.152 633.728c7.467 0 13.483-6.059 13.483-13.44 0-7.467-6.059-13.568-13.483-13.568s-13.483 6.059-13.483 13.568c0 7.381 6.059 13.44 13.483 13.44zM176.171 459.563c7.424 0 13.397-6.059 13.397-13.483 0-7.467-6.016-13.525-13.397-13.525-7.467 0-13.525 6.059-13.525 13.525 0 7.424 6.059 13.483 13.525 13.483z" />
<glyph unicode="&#xe922;" glyph-name="market" d="M533.333 383.104h-256.896c-11.776 0-21.333-9.557-21.333-21.333v-214.229c0-11.776 9.557-21.333 21.333-21.333h256.896c11.776 0 21.333 9.557 21.333 21.333v214.229c0 11.776-9.557 21.333-21.333 21.333zM512 168.875h-214.229v171.563h214.229v-171.563zM950.144 670.166l-68.48 170.667c-3.499 7.509-11.051 12.331-19.328 12.331h-682.197c-8.277 0-15.829-4.821-19.328-12.373l-68.437-170.667c-3.072-6.571-2.603-14.293 1.323-20.437 3.2-4.949 8.405-7.723 14.037-8.832v-13.653c0-51.925 23.381-100.651 62.037-124.373v-481.323c0-11.776 9.557-21.333 21.333-21.333h684.416c11.776 0 21.333 9.557 21.333 21.333v497.237c0 1.152-0.469 2.133-0.683 3.243 23.339 24.96 37.632 61.568 37.632 105.045v13.568c6.059 0.896 11.605 3.84 14.976 9.088 3.925 6.144 4.437 13.867 1.365 20.48zM802.731 530.304c-15.061 0-20.651 11.904-33.493 25.643 0.171 1.109 0.683 2.091 0.683 3.243v80.811l121.259-0.171v-12.757c0-48.085-41.003-96.768-88.448-96.768zM341.547 640l170.453-0.171v-107.179c-22.059-26.752-63.104-41.771-94.293-41.771-37.333 0-53.717 30.677-76.16 69.931v79.189zM512 809.344v-128l-212.267 1.323 49.749 127.829 162.517-1.152zM691.029 810.496l22.229-127.829h-158.592v126.677l136.363 1.152zM554.667 639.83l172.587-0.512v-75.093c-0.555-0.768-1.408-1.195-1.877-2.048-22.571-41.173-66.56-71.339-103.979-71.339-29.653 0-45.013 14.251-66.731 39.296v109.696zM897.323 682.496h-140.459l-22.229 128h114.005l48.683-128zM193.749 810.496h112.128l-50.773-127.829h-109.995l48.64 127.829zM148.48 627.072v12.757h150.357v-79.573c-16.341-16.597-61.013-29.952-76.629-29.952-45.227 0-73.728 44.331-73.728 96.768zM639.147 42.88l0.853 297.557 130.005 0.213-2.005-297.984-128.853 0.213zM854.229 42.88h-41.771v319.787c0 11.776-13.995 20.437-25.771 20.437h-168.021c-11.776 0-21.333-9.557-21.333-21.333l-0.853-318.891h-384.043v445.952c3.285-0.299 6.357-1.195 9.771-1.195 23.253 0 74.24 13.525 95.573 31.573 31.104-41.131 54.016-70.997 99.883-70.997 37.589 0 73.728 15.36 102.144 42.88 28.459-27.819 63.787-42.88 101.589-42.88 45.312 0 89.557 24.576 120.533 65.664 15.104-14.208 34.091-26.197 60.8-26.197 12.587 0 40.363 2.688 51.456 6.656v-451.456zM747.648 194.048c0-22.669-17.192-41.045-38.4-41.045s-38.4 18.377-38.4 41.045c0 22.669 17.192 41.045 38.4 41.045s38.4-18.377 38.4-41.045z" />
<glyph unicode="&#xe923;" glyph-name="select" d="M935.424 521.472l-185.344 200.064c-0.171 0.085-0.299 0.213-0.427 0.341-0.341 0.384-0.768 0.768-1.152 0.981-0.299 0.299-0.64 0.555-0.939 0.768-0.384 0.256-0.896 0.512-1.237 0.768-0.469 0.213-0.853 0.384-1.195 0.597-0.171 0-0.384 0.085-0.469 0.128-0.384 0.128-0.64 0.171-1.024 0.213-0.043 0-0.043-0.171-0.085-0.213l-464.085 0.213c-0.043 0-0.128-1.067-0.171-1.067-0.085-0.043-0.256 0.256-0.384 0.213-0.427-0.128-0.853-0.171-1.28-0.341-0.384-0.213-0.853-0.341-1.195-0.597s-0.64-0.427-0.981-0.683c-0.427-0.299-0.768-0.683-1.195-1.024-0.128-0.128-0.213-0.213-0.427-0.299l-185.301-200.064c-4.821-5.291-4.821-13.355 0.085-18.645l423.381-461.312 423.424 462.933c4.821 5.291 4.821 11.776 0 17.024zM661.333 512l-149.333-420.651-149.035 420.651h-234.965l170.24 172.843 64.427-172.843 149.333 170.667 149.333-171.52 85.333 171.52 149.333-170.667h-234.667z" />
<glyph unicode="&#xe924;" glyph-name="sell" d="M877.141 276.438c-36.949 38.827-70.613 49.963-113.195 37.248l-134.059-46.763c-0.981-0.341-1.707-1.067-2.603-1.536-4.693 17.621-21.547 33.195-51.285 33.195h-57.301c-3.413 2.944-9.045 8.789-13.739 13.653-25.984 26.795-69.419 71.68-127.147 71.68h-79.147v21.333c0 11.776-9.557 21.333-21.333 21.333h-128c-11.776 0-21.333-9.557-21.333-21.333v-256c0-11.776 9.557-21.333 21.333-21.333h128c11.776 0 21.333 9.557 21.333 21.333v6.229c25.643-9.131 49.109-17.664 69.376-25.045 79.787-29.141 125.013-45.056 166.229-45.056 50.432 0 94.805 23.851 188.971 76.501 38.869 21.717 86.869 48.597 148.395 80.939 5.931 3.115 10.027 8.832 11.093 15.403 1.109 6.656-0.981 13.397-5.589 18.219zM256 170.582h-85.333v213.333h85.333v-213.333zM702.379 199.168c-157.269-87.979-157.312-87.979-319.701-28.629-24.192 8.832-52.053 18.987-84.011 30.251v140.459h79.104c39.68 0 73.856-35.328 96.512-58.709 16.043-16.597 25.771-26.624 39.595-26.624h-87.211c-11.776 0-21.333-9.557-21.333-21.333s9.557-21.333 21.333-21.333h149.333c21.717 0 36.181 8.619 44.629 19.925 5.547-6.613 14.677-9.557 23.253-6.528l133.163 46.464c16.213 4.864 30.037 5.077 47.445-6.912-49.109-26.197-88.917-48.469-122.112-67.029zM533.333 383.915c58.923 0 106.667 47.744 106.667 106.667s-47.744 106.667-106.667 106.667-106.667-47.744-106.667-106.667 47.744-106.667 106.667-106.667zM533.333 554.582c35.285 0 64-28.715 64-64s-28.715-64-64-64-64 28.715-64 64 28.715 64 64 64zM533.333 447.915c11.776 0 21.333 8.832 21.333 19.755v45.824c0 10.923-9.557 19.755-21.333 19.755s-21.333-8.832-21.333-19.755v-45.824c0-10.923 9.557-19.755 21.333-19.755zM746.667 554.582c58.923 0 106.667 47.744 106.667 106.667s-47.744 106.667-106.667 106.667-106.667-47.744-106.667-106.667 47.744-106.667 106.667-106.667zM746.667 725.248c35.285 0 64-28.715 64-64s-28.715-64-64-64-64 28.715-64 64 28.715 64 64 64zM746.667 618.582c11.776 0 21.333 8.832 21.333 19.755v45.824c0 10.923-9.557 19.755-21.333 19.755s-21.333-8.832-21.333-19.755v-45.824c0-10.923 9.557-19.755 21.333-19.755z" />
<glyph unicode="&#xe925;" glyph-name="factsheet-full" d="M574.379 768h-379.477c-11.776 0-21.333-11.52-21.333-23.296s9.557-19.371 21.333-19.371h379.52c11.776 0 21.333 8.619 21.333 20.437s-9.557 22.229-21.376 22.229zM193.707 383.83h169.088c11.776 0 21.333 9.557 21.333 21.333v255.701c0 11.776-9.557 21.333-21.333 21.333h-169.088c-11.819 0-23.040-9.515-23.040-21.333v-255.701c0-11.776 11.221-21.333 23.040-21.333zM213.333 639.531h128.128v-213.035h-128.128v213.035zM573.696 639.531c11.776 0 21.333 9.557 21.333 21.333s-9.557 21.333-21.333 21.333h-93.781c-11.776 0-21.333-9.557-21.333-21.333s9.557-21.333 21.333-21.333h93.781zM427.733 577.622c0-11.776 9.557-22.955 21.333-22.955h124.629c11.776 0 21.333 11.179 21.333 22.955s-9.515 19.712-21.333 19.712h-124.629c-11.776 0-21.333-7.936-21.333-19.712zM449.067 469.163h124.629c11.776 0 21.333 9.557 21.333 21.333s-9.557 21.333-21.333 21.333h-124.629c-11.776 0-21.333-9.557-21.333-21.333s9.557-21.333 21.333-21.333zM449.067 383.83h124.629c11.776 0 21.333 9.557 21.333 21.333s-9.557 21.333-21.333 21.333h-124.629c-11.776 0-21.333-9.557-21.333-21.333s9.557-21.333 21.333-21.333zM574.379 341.334h-379.477c-11.776 0-21.333-12.16-21.333-23.979s9.557-18.688 21.333-18.688h379.52c11.776 0 21.333 6.912 21.333 18.688s-9.557 23.979-21.376 23.979zM574.379 256.384h-379.477c-11.776 0-21.333-9.557-21.333-21.333s9.557-21.333 21.333-21.333h379.477c11.776 0 21.333 9.557 21.333 21.333s-9.515 21.333-21.333 21.333zM572.117 170.667h-378.411c-11.776 0-21.333-8.747-21.333-20.523s9.557-21.333 21.333-21.333h378.453c11.776 0 21.333 9.557 21.333 21.333s-9.557 20.523-21.376 20.523zM916.651 768h-148.651v22.272c-0.043 11.776-12.373 20.395-24.107 20.395h-61.227v22.4c0 5.675-4.011 11.093-8.021 15.104s-9.429 5.163-15.104 5.163h-551.808c-11.776 0-21.333-8.491-21.333-20.309v-702.379c0-64.768 52.181-130.645 92.629-130.645h584.96c2.389 0 4.693-0.768 6.827 0 8.405-0.768 17.195 0 26.325 0 72.789 0 140.843 64.213 140.843 131.2l0.683 614.016c0 11.776-10.197 22.784-22.016 22.784zM179.115 42.667c-12.117 0.725-51.115 41.088-51.115 87.979v681.045l512 0.043v-681.045c0-34.304 11.349-77.355 41.984-88.704l-502.869 0.683zM895.317 131.2c0-47.573-53.845-88.533-98.176-88.533-53.035 0-116.267 19.328-116.267 88.021l1.792 551.979v85.333h42.667v-22.229c0-0.384 0-0.683 0-1.024s0-0.725 0-1.067l0.085-602.325c0-31.915 29.141-55.979 69.248-55.979 29.269-0.043 58.667 20.437 58.667 53.419v519.595c0 11.776-7.637 24.277-19.413 24.277h-65.92v42.667h128l-0.683-594.133zM768 639.531l44.587 0.469v-501.205c0-5.931-9.387-10.795-17.92-10.795-15.915 0-26.581 7.296-26.581 13.355l-0.085 498.176z" />
<glyph unicode="&#xe926;" glyph-name="globe" d="M829.696 710.4c-1.621 2.773-3.712 5.291-6.4 7.083-50.517 54.059-114.56 95.104-187.051 117.248-0.896 0.256-1.664 0.555-2.603 0.683-38.613 11.52-79.36 17.92-121.643 17.92-235.264 0-426.667-191.403-426.667-426.667s191.403-426.667 426.667-426.667 426.667 191.403 426.667 426.667c0 109.013-41.472 208.256-108.971 283.733zM788.053 692.95c-6.016-22.528-24.405-77.013-67.797-102.741-63.915 11.563-123.947-22.571-137.685-39.339-9.728-11.776-6.272-22.528-4.352-26.581 2.645-5.589 8.96-10.197 15.445-12.203 5.675-7.424 15.189-32.427 20.949-55.296 0.939-3.755 2.859-7.168 5.589-9.856 16.768-16.811 39.765-15.616 56.277-11.648-2.432-19.499-32.171-50.475-49.707-68.651-19.627-20.437-30.421-31.659-30.421-45.653 0-16.299 11.904-26.667 19.84-33.536 1.28-1.152 2.987-2.645 4.395-3.925-0.085-0.085-0.213-0.213-0.341-0.299-22.229-22.229-44.416-30.080-44.544-30.123-8.704-2.901-14.592-11.093-14.592-20.267 0-19.499-4.864-33.835-14.933-43.733-17.664-17.493-48.299-18.005-64.896-18.432-11.563 9.003-34.816 50.56-36.139 62.165 0 3.797 3.499 10.752 6.571 16.896 5.163 10.368 11.051 22.144 11.051 35.968 0 20.267-20.139 45.44-35.499 61.781-1.365 22.101-7.979 38.443-20.053 49.835-21.035 19.925-51.627 18.133-80.981 16.469-8.405-0.512-17.067-0.981-25.771-0.981-30.848 0-31.573 47.275-31.573 49.195 0 1.024 0.811 105.941 70.955 120.021 17.92 3.584 31.019 4.608 40.405 4.608 16.597 0 21.973-3.2 22.229-1.835 0.213-5.504 2.432-10.752 6.315-14.635 32.896-32.896 83.925-21.12 121.173-12.459 13.696 3.2 26.709 6.229 34.901 6.229 10.624 0 19.627 7.808 21.12 18.347 9.899 69.504 4.992 111.915-14.635 126.080-9.685 6.955-21.888 7.68-33.664 1.749-11.605-5.803-22.272-6.955-29.184-3.115-7.467 4.181-9.813 13.824-10.496 21.205-1.707 18.048 61.397 48.469 131.285 64 61.013-19.627 115.243-54.144 158.763-99.243zM512 42.667c-211.755 0-384 172.245-384 384s172.245 384 384 384c9.088 0 17.963-0.768 26.88-1.365-44.757-18.261-86.997-45.909-83.371-84.992 2.304-24.875 13.739-44.245 32.256-54.571 16.811-9.344 37.803-9.984 58.923-2.176 2.048-13.141 1.707-37.547-0.896-62.848-8.064-1.365-16.64-3.371-25.472-5.419-28.203-6.571-59.947-14.037-77.44-2.133-2.304 5.931-6.4 12.203-12.928 17.536-18.987 15.531-51.115 18.603-98.389 9.131-104.021-20.864-105.259-156.117-105.259-161.877 0-31.787 15.488-91.861 74.24-91.861 9.515 0 18.944 0.555 28.16 1.024 20.523 1.152 41.643 2.389 49.28-4.821 5.717-5.419 6.912-18.091 6.912-27.733 0-5.675 2.261-11.093 6.229-15.104 13.696-13.696 27.819-32.555 29.013-37.803 0-3.755-3.499-10.709-6.528-16.896-5.205-10.368-11.093-22.187-11.093-36.011 0-21.547 39.253-104.789 77.653-104.789 1.237-0.043 2.688-0.043 4.352-0.043 19.072 0 62.592 1.877 91.691 30.763 15.403 15.275 24.448 35.371 26.88 59.861 11.861 5.973 29.696 16.768 47.317 34.432 10.112 10.112 15.061 20.907 14.677 32.085-0.597 16.853-12.8 27.477-20.864 34.517-0.512 0.427-1.067 0.896-1.621 1.408 4.181 4.736 10.112 10.965 14.976 16 34.091 35.413 91.051 94.72 45.739 140.032-6.443 6.443-16.427 8.021-24.533 4.053-7.851-3.84-18.773-6.357-24.917-5.461-7.723 28.544-15.744 46.677-23.296 58.155 19.072 9.984 53.077 21.931 87.765 13.184 4.949-1.152 10.112-0.683 14.72 1.621 48.043 24.021 73.941 71.467 87.253 106.069 47.317-63.829 75.691-142.549 75.691-227.968 0-211.755-172.245-384-384-384z" />
<glyph unicode="&#xe927;" glyph-name="report" d="M405.333 128h298.667c11.776 0 21.333 9.557 21.333 21.333 0 10.752 0 341.333 0 341.333 0 11.776-9.557 21.333-21.333 21.333h-42.667c-11.776 0-21.333-9.557-21.333-21.333v-320h-42.667v234.667c0 11.776-10.197 21.333-22.016 21.333h-41.984c-11.776 0-21.333-9.557-21.333-21.333v-234.667h-42.667v149.333c0 11.776-9.557 22.016-21.333 22.016h-42.667c-11.776 0-21.333-10.197-21.333-22.016v-149.333c0 0 0-10.581 0-21.333 0-11.776 9.557-21.333 21.333-21.333zM533.333 683.606h171.989c11.776 0 21.333 9.557 21.333 21.333s-9.557 21.333-21.333 21.333h-171.989c-11.776 0-21.333-9.557-21.333-21.333s9.557-21.333 21.333-21.333zM832 853.334h-597.333c-37.675 0-64-26.325-64-64v-725.333c0-37.675 26.325-64 64-64h597.333c11.776 0 21.333 9.557 21.333 21.333v810.667c0 11.776-9.557 21.333-21.333 21.333zM298.667 42.667h-64c-14.165 0-21.333 7.168-21.333 21.333v725.333c0 14.165 7.168 21.333 21.333 21.333h64v-768zM810.667 42.667h-469.333v768h469.333v-768z" />
<glyph unicode="&#xe928;" glyph-name="computer" d="M864.555 768h-705.024c-40.917 0-74.197-31.232-74.197-69.675v-500.651c0-38.443 33.28-69.675 74.197-69.675h256.768l-31.659-42.667h-107.307c-11.776 0-21.333-9.557-21.333-21.333s9.557-21.333 21.333-21.333h469.333c11.776 0 21.333 9.557 21.333 21.333s-9.557 21.333-21.333 21.333h-105.6l-32.939 42.667h256.427c40.875 0 74.112 31.232 74.112 69.675v500.651c0 38.443-33.237 69.675-74.112 69.675zM437.76 85.334l31.659 42.667h84.779l32.981-42.667h-149.419zM896 197.675c0-14.891-14.123-27.008-31.445-27.008h-705.024c-17.365 0-31.531 12.117-31.531 27.008v500.651c0 14.891 14.165 27.008 31.531 27.008h704.981c17.365 0 31.488-12.117 31.488-27.008v-500.651zM170.667 254.592h682.667v428.075h-682.667v-428.075zM213.333 640h597.333v-342.741h-597.333v342.741zM512 245.334c-17.621 0-32-14.379-32-32.043 0-17.621 14.379-31.957 32-31.957s32 14.336 32 31.957c0 17.664-14.379 32.043-32 32.043zM501.333 213.291c0 5.931 4.779 10.709 10.667 10.709s10.667-4.779 10.667-10.709c0-11.733-21.333-11.733-21.333 0z" />
<glyph unicode="&#xe929;" glyph-name="tick" d="M406.357 277.334l-114.645 116.053-35.712-34.432 149.973-145.621 362.027 349.611-35.627 34.389z" />
<glyph unicode="&#xe930;" glyph-name="hand" d="M776.021 661.718c-12.757 0-41.557-3.371-52.224-8.832v44.032c0 43.093-41.515 69.76-84.48 69.76-12.757 0-42.667-0.427-42.667-0.427v6.187c0 43.051-41.643 82.219-84.651 82.219s-85.291-39.168-85.291-82.219v-6.229c0 0-29.312 2.432-42.027 2.432-43.093 0-85.973-25.045-85.973-68.139v-319.872l-64.896 75.605c-14.208 14.848-66.176 20.949-90.624-3.499-23.083-22.997-12.501-73.472-9.131-82.688 3.285-6.955 82.005-171.093 146.944-273.365 38.869-61.099 105.344-96.683 177.621-96.683h139.691c116.053 0 255.019 89.813 255.019 205.824v377.771c0 43.093-34.261 78.123-77.312 78.123zM811.221 356.95v-151.125c0-92.331-105.899-163.157-198.229-163.157h-139.691c-57.6 0-125.099 28.416-156.075 77.184-63.488 100.053-143.616 267.179-146.304 271.915-6.699 9.6-5.632 22.443 2.603 30.763 8.832 8.747 23.125 9.259 30.123 3.541l138.368-170.069-0.384 444.544c0 19.371 23.637 24.789 43.051 24.789s42.027-9.045 42.027-28.416v-227.584h42.624l0.299 76.459v226.645c0 19.499 22.912 38.229 42.368 38.229 19.413 0 42.667-18.731 42.667-38.229v-303.104h41.984v227.584c0 19.371 24.533 27.733 43.989 27.733 19.413 0 42.027-8.363 42.027-27.733v-312.917h42.667v199.595c0 19.371 23.211 37.76 42.667 37.76 19.413 0 43.221-18.389 43.221-37.76v-226.645z" />
<glyph unicode="&#xe931;" glyph-name="movie" d="M85.333 113.28c0-38.613 31.829-70.613 71.125-70.613h711.040c39.339 0 71.339 32 71.339 70.613l0.213 441.387h-853.717v-441.387zM128 512h768.384l-0.171-398.72c0-15.104-12.885-27.947-28.672-27.947h-711.083c-15.829 0-28.672 12.843-28.672 27.947l0.213 398.72zM397.141 131.67c3.627-2.176 7.765-3.328 11.861-3.328 3.456 0 6.912 0.811 10.069 2.389l294.571 147.243c7.637 3.84 12.459 11.648 12.459 20.224s-4.821 16.384-12.459 20.224l-294.571 147.285c-6.997 3.456-15.275 3.072-21.973-0.939-6.613-4.224-13.099-11.52-13.099-19.328v-294.528c0-7.808 6.485-15.061 13.141-19.243zM426.667 411.99l226.432-113.835-226.432-113.493v227.328zM882.901 810.667h-741.419c-30.976 0-56.149-25.045-56.149-55.979v-157.355h853.717v157.227c0 30.933-25.216 56.107-56.149 56.107zM896.384 754.56v-63.787l-53.504-51.456-94.293 0.043 130.645 128.64h3.669c7.424 0 13.483-6.059 13.483-13.44zM567.765 768.043h94.763l-130.645-128.683-94.763 0.043 130.645 128.64zM376.32 639.403h-94.379l130.645 128.683h94.379l-130.645-128.683zM723.285 768.043l95.147-0.043-130.645-128.64h-95.104l130.603 128.683zM141.483 768.128h54.571l-68.053-64.981v51.541c0 7.381 6.059 13.44 13.483 13.44zM128 644.139l129.835 123.947h93.952l-130.603-128.64h-93.184v4.693z" />
<glyph unicode="&#xe932;" glyph-name="down-sort" d="M341.333 554.667l170.667-256 170.667 256z" />
<glyph unicode="&#xe933;" glyph-name="up-sort" d="M682.667 298.667l-170.667 256-170.667-256z" />
<glyph unicode="&#xe934;" glyph-name="chevron-down-s" d="M798.208 584.747c-16.597 16.683-43.605 16.811-60.331 0.171l-226.901-225.92-224.768 225.749c-16.597 16.683-43.563 16.811-60.331 0.171-16.725-16.64-16.768-43.648-0.128-60.331l254.891-256c8.32-8.363 19.285-12.587 30.251-12.587 10.88 0 21.76 4.139 30.123 12.416l257.109 256c16.683 16.64 16.725 43.648 0.085 60.331z" />
<glyph unicode="&#xe935;" glyph-name="chevron-up-s" d="M798.123 328.918l-257.109 256c-16.725 16.64-43.691 16.555-60.331-0.171l-254.891-256c-16.64-16.683-16.597-43.691 0.128-60.331 8.32-8.277 19.2-12.416 30.080-12.416 10.965 0 21.888 4.224 30.208 12.587l224.768 225.749 226.901-225.92c8.363-8.277 19.243-12.416 30.123-12.416 10.965 0 21.888 4.224 30.208 12.587 16.64 16.683 16.597 43.691-0.085 60.331z" />
<glyph unicode="&#xe936;" glyph-name="chevron-down-m" d="M1011.456 670.251c-16.725 16.64-43.691 16.512-60.331-0.128l-437.248-439.125-441.088 439.253c-16.725 16.64-43.733 16.512-60.331-0.128-16.64-16.725-16.597-43.733 0.128-60.373l471.339-469.333c8.32-8.277 19.2-12.416 30.080-12.416 10.965 0 21.888 4.224 30.208 12.544l467.328 469.333c16.64 16.725 16.597 43.733-0.085 60.373z" />
<glyph unicode="&#xe937;" glyph-name="chevron-up-m" d="M1011.541 200.79l-467.328 469.333c-16.597 16.597-43.605 16.725-60.331 0.128l-471.339-469.333c-16.725-16.64-16.768-43.648-0.128-60.373 8.363-8.32 19.285-12.544 30.251-12.544 10.88 0 21.76 4.139 30.123 12.416l441.088 439.253 437.248-439.125c8.32-8.32 19.243-12.544 30.208-12.544 10.88 0 21.76 4.139 30.123 12.416 16.683 16.64 16.725 43.648 0.085 60.373z" />
<glyph unicode="&#xe938;" glyph-name="menu-burger" d="M853.333 640.598h-682.667c-23.552 0-42.667 19.072-42.667 42.667s19.115 42.667 42.667 42.667h682.667c23.552 0 42.667-19.072 42.667-42.667s-19.115-42.667-42.667-42.667zM853.333 384.598h-682.667c-23.552 0-42.667 19.072-42.667 42.667s19.115 42.667 42.667 42.667h682.667c23.552 0 42.667-19.072 42.667-42.667s-19.115-42.667-42.667-42.667zM853.333 128.598h-682.667c-23.552 0-42.667 19.072-42.667 42.667s19.115 42.667 42.667 42.667h682.667c23.552 0 42.667-19.072 42.667-42.667s-19.115-42.667-42.667-42.667z" />
<glyph unicode="&#xe939;" glyph-name="no-entry" d="M512 853.334c-235.264 0-426.667-191.36-426.667-426.667s191.403-426.667 426.667-426.667 426.667 191.36 426.667 426.667-191.403 426.667-426.667 426.667zM896 426.667c0-97.877-37.12-187.051-97.664-254.976l-541.269 541.355c67.883 60.501 157.056 97.621 254.933 97.621 211.755 0 384-172.288 384-384zM128 426.667c0 98.517 37.632 188.203 98.816 256.256l541.397-541.397c-68.011-61.227-157.696-98.859-256.213-98.859-211.755 0-384 172.288-384 384z" />
<glyph unicode="&#xe940;" glyph-name="square" d="M256 682.667h512v-512h-512v512z" />
<glyph unicode="&#xe941;" glyph-name="line" d="M256 469.334h512v-85.333h-512v85.333z" />
<glyph unicode="&#xe942;" glyph-name="droplet-line" d="M512-0c-5.125-0.322-11.114-0.506-17.146-0.506-160.707 0-290.987 130.279-290.987 290.987 0 6.032 0.184 12.021 0.545 17.962-0.040 195.451 279.854 513.744 291.8 526.971l15.787 17.92 15.787-17.92c11.947-13.653 291.84-331.52 291.84-527.787 0.322-5.125 0.506-11.114 0.506-17.146 0-160.707-130.279-290.987-290.987-290.987-6.032 0-12.021 0.184-17.962 0.545zM512 788.907c-59.307-70.4-265.387-326.4-265.387-481.707-0.344-4.899-0.54-10.617-0.54-16.381 0-137.379 111.368-248.747 248.747-248.747 6.045 0 12.040 0.216 17.977 0.64 4.36-0.427 10.375-0.644 16.441-0.644 137.379 0 248.747 111.368 248.747 248.747 0 6.066-0.217 12.081-0.644 18.038 0.046 154.080-206.034 409.654-265.341 480.054z" />
<glyph unicode="&#xe943;" glyph-name="droplet-fill" d="M512-0c-5.125-0.322-11.114-0.506-17.146-0.506-160.707 0-290.987 130.279-290.987 290.987 0 6.032 0.184 12.021 0.545 17.962-0.040 195.451 279.854 513.744 291.8 526.971l15.787 17.92 15.787-17.92c11.947-13.653 291.84-331.52 291.84-527.787 0.322-5.125 0.506-11.114 0.506-17.146 0-160.707-130.279-290.987-290.987-290.987-6.032 0-12.021 0.184-17.962 0.545z" />
<glyph unicode="&#xe944;" glyph-name="droplet-alt-line" d="M512 853.334c5.125 0.322 11.114 0.506 17.146 0.506 160.707 0 290.987-130.279 290.987-290.987 0-6.032-0.184-12.021-0.545-17.962 0.040-195.451-279.854-513.744-291.8-526.971l-15.787-17.92-15.787 17.92c-11.947 13.653-291.84 331.52-291.84 527.787-0.322 5.125-0.506 11.114-0.506 17.146 0 160.707 130.279 290.987 290.987 290.987 6.032 0 12.021-0.184 17.962-0.545zM512 64c59.307 70.4 265.387 326.4 265.387 481.707 0.362 5.028 0.569 10.895 0.569 16.809 0 137.379-111.368 248.747-248.747 248.747-6.055 0-12.060-0.216-18.007-0.642-4.35 0.425-10.355 0.642-16.41 0.642-137.379 0-248.747-111.368-248.747-248.747 0-5.915 0.206-11.781 0.612-17.592-0.044-154.524 206.036-410.524 265.343-480.924z" />
<glyph unicode="&#xe945;" glyph-name="droplet-alt-fill" d="M512 853.334c5.117 0.321 11.098 0.504 17.121 0.504 160.707 0 290.987-130.279 290.987-290.987 0-5.881-0.174-11.721-0.518-17.516 0.038-195.468-279.855-513.762-291.802-526.988l-15.787-18.347-15.787 17.92c-11.947 13.653-291.84 331.947-291.84 528.213-0.306 4.996-0.481 10.836-0.481 16.717 0 160.707 130.279 290.987 290.987 290.987 6.023 0 12.003-0.183 17.936-0.544z" />
<glyph unicode="&#xe946;" glyph-name="circle-right" d="M806.4 439.894l-81.067 80.213c-3.347 3.294-7.943 5.328-13.013 5.328-10.248 0-18.555-8.307-18.555-18.555 0-5.177 2.12-9.859 5.539-13.224l47.789-47.789h-516.267c-10.84 0-19.627-8.787-19.627-19.627s8.787-19.627 19.627-19.627h516.693l-47.787-47.36c-3.33-3.33-5.39-7.931-5.39-13.013 0-10.164 8.24-18.404 18.404-18.404 5.082 0 9.683 2.060 13.013 5.39l80.64 80.64c3.344 3.324 5.414 7.927 5.414 13.013s-2.070 9.689-5.413 13.012zM512 853.334c-235.641 0-426.667-191.025-426.667-426.667s191.025-426.667 426.667-426.667c235.641 0 426.667 191.025 426.667 426.667s-191.025 426.667-426.667 426.667zM512 37.12c-215.141 0-389.547 174.406-389.547 389.547s174.406 389.547 389.547 389.547c215.141 0 389.547-174.406 389.547-389.547-0.243-215.043-174.504-389.304-389.523-389.547z" />
<glyph unicode="&#xe947;" glyph-name="circle-wave" d="M512 853.334c-235.641 0-426.667-191.025-426.667-426.667s191.025-426.667 426.667-426.667c235.641 0 426.667 191.025 426.667 426.667s-191.025 426.667-426.667 426.667zM512 37.12c-215.141 0-389.547 174.406-389.547 389.547s174.406 389.547 389.547 389.547c215.141 0 389.547-174.406 389.547-389.547-0.243-215.043-174.504-389.304-389.523-389.547zM782.080 318.72l-81.92 81.92c-3.436 3.271-8.096 5.283-13.227 5.283s-9.79-2.012-13.235-5.29l-81.485-81.486c-2.747-3.244-4.418-7.476-4.418-12.098 0-10.368 8.405-18.773 18.773-18.773 4.622 0 8.854 1.67 12.125 4.44l52.879 52.884v-76.8c0-47.128-38.205-85.333-85.333-85.333s-85.333 38.205-85.333 85.333v302.080c0 64.801-52.532 117.333-117.333 117.333s-117.333-52.532-117.333-117.333v0-101.547c1.325-7.977 8.174-13.984 16.427-13.984s15.101 6.007 16.413 13.887l0.013 0.097v100.693c0 47.128 38.205 85.333 85.333 85.333s85.333-38.205 85.333-85.333v-301.653c0-64.801 52.532-117.333 117.333-117.333s117.333 52.532 117.333 117.333v72.96l50.773-50.773c3.487-3.333 8.224-5.385 13.44-5.385 10.75 0 19.465 8.715 19.465 19.465 0 5.534-2.31 10.529-6.017 14.073z" />
<glyph unicode="&#xe948;" glyph-name="circle-zig" d="M512 853.334c-235.641 0-426.667-191.025-426.667-426.667s191.025-426.667 426.667-426.667c235.641 0 426.667 191.025 426.667 426.667s-191.025 426.667-426.667 426.667zM512 37.12c-215.141 0-389.547 174.406-389.547 389.547s174.406 389.547 389.547 389.547c215.141 0 389.547-174.406 389.547-389.547-0.243-215.043-174.504-389.304-389.523-389.547zM791.893 529.067c-2.912 6.825-9.566 11.521-17.316 11.521-0.062 0-0.125 0-0.187-0.001h-115.19c-10.368 0-18.773-8.405-18.773-18.773s8.405-18.773 18.773-18.773h69.973l-71.253-71.253-120.32 104.107c-3.281 2.873-7.606 4.625-12.34 4.625-7.56 0-14.077-4.469-17.052-10.909l-119.088-263.37-152.32 264.96c-3.416 5.060-9.129 8.342-15.609 8.342-10.368 0-18.773-8.405-18.773-18.773 0-3.039 0.722-5.91 2.005-8.45l170.617-298.559c3.29-5.633 9.313-9.37 16.211-9.387h0.002c7.076 0.263 13.302 4.692 16.165 10.976l123.781 274.038 114.773-99.413c3.344-3.123 7.848-5.040 12.8-5.040s9.456 1.917 12.811 5.050l85.322 85.323v-70.4c0-10.368 8.405-18.773 18.773-18.773s18.773 8.405 18.773 18.773v116.907c-0.011 1.678-0.997 4.719-2.607 7.335z" />
<glyph unicode="&#xe949;" glyph-name="saving" d="M592 710.827h26.667v-26.624c0-9.813 7.936-17.749 17.792-17.749 9.813 0 17.792 7.936 17.792 17.749v26.624h26.667c9.813 0 17.792 7.936 17.792 17.749s-7.936 17.749-17.792 17.749h-26.667v26.667c0 9.813-7.936 17.749-17.792 17.749-9.813 0-17.792-7.936-17.792-17.749v-26.624h-26.667c-9.813 0-17.792-7.936-17.792-17.749 0-9.856 7.979-17.792 17.792-17.792zM493.056 568.064c-9.813-0.64-17.237-9.131-16.555-18.901 0.64-9.813 10.325-17.365 18.901-16.555 59.563 4.224 118.4-13.44 165.931-49.109 3.2-2.432 6.955-3.584 10.667-3.584 5.376 0 10.752 2.475 14.208 7.125 5.888 7.851 4.352 18.987-3.541 24.832-54.315 40.789-121.429 60.715-189.611 56.192zM298.667 497.707c-19.627 0-35.541-15.915-35.541-35.499 0-19.627 15.915-35.541 35.541-35.541s35.541 15.915 35.541 35.541c0 19.584-15.915 35.499-35.541 35.499zM298.667 462.166v0 0zM920.875 479.958c-9.813 0-17.792-7.936-17.792-17.749 0-23.552-15.488-43.392-36.779-50.389-7.296 90.667-64.683 173.781-145.92 225.152 24.832 22.741 40.448 55.424 40.448 91.648 0 68.523-55.851 124.331-124.459 124.331s-124.373-55.851-124.373-124.373c0-12.416 1.877-24.405 5.248-35.712-2.133 0.085-53.12-0.213-84.096-7.595-26.411 37.973-70.016 61.056-116.736 61.056-24.875 0-49.451-6.613-71.168-19.2-5.461-3.157-8.789-9.045-8.789-15.317 0-6.357 3.413-12.203 8.875-15.36 24.875-14.379 43.051-38.571 50.048-66.133-70.101-45.909-117.845-114.859-133.376-185.899h-58.88c-9.856 0-17.792-7.936-17.792-17.749v-142.080c0-9.813 7.936-17.749 17.792-17.749h84.949c31.275-53.291 83.115-105.6 146.133-136.576v-112.043c0-9.813 7.936-17.749 17.792-17.749 9.813 0 17.792 7.936 17.792 17.749v96.469c43.947-16.256 92.032-25.429 142.208-25.429 50.56 0 98.645 9.131 142.208 25.387v-96.427c0-9.813 7.936-17.749 17.792-17.749 9.813 0 17.792 7.936 17.792 17.749v111.915c100.907 49.749 170.283 140.331 176.811 244.992 41.003 7.851 72.064 43.819 72.064 87.083 0 9.813-7.936 17.749-17.792 17.749zM636.459 817.366c49.024 0 88.875-39.808 88.875-88.789s-39.851-88.789-88.875-88.789-88.875 39.808-88.875 88.789c-0.043 48.981 39.851 88.789 88.875 88.789zM512 124.758c-131.413 0-247.936 65.749-296.96 167.552-2.944 6.144-9.173 10.069-16 10.069h-78.165v106.539h55.979c8.832 0 16.299 6.443 17.579 15.147 10.795 72.491 58.197 139.051 129.963 182.485 6.101 3.669 9.429 10.667 8.405 17.707-4.608 32.213-19.797 61.312-43.008 83.115 45.653 11.904 96.128-9.472 119.467-50.773 3.84-6.784 11.605-10.411 19.413-8.576 28.075 6.315 56.064 9.515 83.328 9.515 5.931 0 15.36-0.341 22.912-0.725 22.571-31.744 59.648-52.565 101.504-52.565 17.493 0 34.176 3.627 49.28 10.197 85.035-48.085 146.261-131.712 146.261-223.317 0.043-146.859-143.488-266.368-319.957-266.368z" />
<glyph unicode="&#xe950;" glyph-name="home" d="M832 21.334h-248.875v246.741h-142.208v-246.741h-248.917v370.091c0 9.728 7.936 17.621 17.792 17.621 9.813 0 17.792-7.893 17.792-17.621v-334.848h177.749v246.741h213.333v-246.741h177.792v317.227c0 9.728 7.936 17.621 17.792 17.621 9.813 0 17.792-7.893 17.792-17.621v-352.469zM920.875 391.424c-4.565 0-9.088 1.707-12.587 5.163l-396.288 392.875-396.331-392.875c-6.955-6.869-18.176-6.869-25.131 0s-6.955 18.048 0 24.917l408.875 405.333c6.955 6.869 18.176 6.869 25.131 0l408.875-405.333c6.955-6.869 6.955-18.048 0-24.917-3.413-3.456-7.979-5.163-12.544-5.163zM778.667 638.166c-9.813 0-17.792 7.893-17.792 17.621v105.728h-106.667c-9.813 0-17.792 7.893-17.792 17.621s7.936 17.621 17.792 17.621h142.208v-140.971c0.043-9.771-7.936-17.621-17.749-17.621z" />
<glyph unicode="&#xe951;" glyph-name="quantitative" d="M773.248 173.483c37.888-27.093 79.061-48.597 123.477-64.597l-56.789-108.885c-23.296 7.040-45.995 16.555-68.267 28.672-4.821 2.475-39.083 25.003-102.613 67.712-50.005-21.888-105.344-32.811-166.187-32.811-117.333 0-209.28 34.645-275.84 103.68-66.56 69.163-99.755 166.187-99.755 291.2 0 124.757 33.323 221.653 100.011 290.944s157.227 103.936 271.445 103.936c113.195 0 203.051-34.645 269.355-103.936s99.499-166.187 99.499-290.944c0-65.92-9.259-123.989-27.605-173.995-13.952-38.187-36.096-75.179-66.731-110.976zM649.259 260.48c19.797 23.296 34.645 51.456 44.544 84.395 9.899 33.067 14.848 70.869 14.848 113.579 0 88.32-19.413 154.197-58.368 197.717-38.955 43.648-89.728 65.365-152.661 65.365s-113.792-21.888-152.832-65.664-58.624-109.525-58.624-197.461c0-89.216 19.541-156.032 58.624-200.32s88.448-66.432 148.224-66.432c22.272 0 43.221 3.627 63.019 10.923-31.275 20.565-63.019 36.48-95.317 47.915l43.221 88.021c50.645-17.195 99.115-43.264 145.323-78.037z" />
<glyph unicode="&#xe952;" glyph-name="hand-point" d="M775.339 544.342h-40.533c-8.619 22.571-30.464 38.613-55.979 38.613h-59.861c-8.619 22.571-30.464 38.613-55.979 38.613h-55.936v152.448c0 43.691-35.499 79.232-79.189 79.232s-79.189-35.541-79.189-79.232v-397.696l-67.456 57.771c-26.581 22.912-66.901 21.333-91.776-3.499-23.339-23.339-26.453-59.861-8.363-85.291 6.187-10.539 152.533-259.584 210.475-336.896l6.4-8.533h374.144l66.816 233.728c10.411 36.48 15.659 74.155 15.659 111.915v119.68c0 43.605-35.541 79.147-79.232 79.147zM811.989 345.515c0-33.792-4.736-67.541-14.037-100.224l-57.941-202.837h-320.64c-60.544 84.352-200.192 321.963-202.581 325.888-7.040 9.984-5.888 23.509 2.731 32.171 9.216 9.131 24.107 9.728 34.005 1.28l137.685-118.016v490.24c0.043 20.181 16.469 36.651 36.693 36.651s36.608-16.469 36.608-36.651v-289.536h42.581v94.549h55.936c9.557 0 17.323-7.765 17.323-17.323v-77.227h42.581v55.936h55.936c9.557 0 17.323-7.765 17.323-17.323v-77.227h42.581v55.936h36.608c20.181 0 36.651-16.427 36.651-36.608v-119.68z" />
<glyph unicode="&#xe953;" glyph-name="exit" d="M565.547 220.544c-11.776 0-21.333-9.557-21.333-21.333v-118.571h-412.032v691.84h412.032v-118.571c0-11.776 9.557-21.333 21.333-21.333s21.333 9.557 21.333 21.333v139.904c0 11.776-9.557 21.333-21.333 21.333h-454.699c-11.776 0-21.333-9.557-21.333-21.333v-734.507c0-11.776 9.557-21.333 21.333-21.333h454.699c11.776 0 21.333 9.557 21.333 21.333v139.904c0 11.776-9.515 21.333-21.333 21.333zM935.040 400.854c1.067 2.56 1.664 5.376 1.664 8.192s-0.597 5.632-1.664 8.192c-1.067 2.603-2.645 4.949-4.608 6.912l-174.891 174.891c-8.32 8.32-21.845 8.32-30.165 0s-8.32-21.845 0-30.165l138.496-138.453h-578.133c-11.776 0-21.333-9.557-21.333-21.333s9.557-21.333 21.333-21.333h578.091l-138.496-138.496c-8.32-8.32-8.32-21.845 0-30.165 4.181-4.181 9.643-6.229 15.104-6.229s10.923 2.091 15.104 6.229l174.891 174.891c1.92 1.963 3.499 4.267 4.608 6.869z" />
<glyph unicode="&#xe954;" glyph-name="calendar" d="M917.12 782.891h-119.381v48.896c0 11.904-9.6 21.547-21.504 21.547h-105.685c-11.904 0-21.547-9.643-21.547-21.547v-48.939h-274.005v48.939c0 11.904-9.643 21.547-21.547 21.547h-105.685c-11.904 0-21.504-9.643-21.504-21.547v-48.939h-119.381c-11.904 0.043-21.547-9.6-21.547-21.504v-739.797c0-11.904 9.643-21.547 21.547-21.547h810.24c11.904 0 21.547 9.643 21.547 21.547v739.797c0 11.904-9.643 21.547-21.547 21.547zM692.053 810.24h62.592v-97.835h-62.592v97.835zM269.312 810.24h62.635v-97.835h-62.635v97.835zM226.261 739.798v-48.939c0-11.904 9.643-21.547 21.547-21.547h105.685c11.904 0 21.547 9.643 21.547 21.547v48.939h274.005v-48.939c0-11.904 9.643-21.547 21.547-21.547h105.685c11.904 0 21.547 9.643 21.547 21.547v48.939h97.835v-133.035h-767.232v133.035h97.835zM128.427 43.094v520.576h767.147v-520.576h-767.147zM846.677 422.784c11.904 0 21.547 9.643 21.547 21.547s-9.643 21.547-21.547 21.547h-119.381v48.896c0 11.904-9.643 21.547-21.547 21.547s-21.547-9.643-21.547-21.547v-48.939h-150.656v48.939c0 11.904-9.643 21.547-21.547 21.547s-21.547-9.643-21.547-21.547v-48.939h-150.656v48.939c0 11.904-9.643 21.547-21.547 21.547s-21.547-9.643-21.547-21.547v-48.939h-119.381c-11.904 0-21.547-9.643-21.547-21.547s9.643-21.547 21.547-21.547h119.381v-97.835h-119.381c-11.904 0-21.547-9.643-21.547-21.547s9.643-21.547 21.547-21.547h119.381v-97.835h-119.381c-11.904 0-21.547-9.643-21.547-21.547s9.643-21.547 21.547-21.547h119.381v-48.939c0-11.904 9.643-21.547 21.547-21.547s21.547 9.643 21.547 21.547v48.939h150.699v-48.939c0-11.904 9.643-21.547 21.547-21.547s21.547 9.643 21.547 21.547v48.939h150.656v-48.939c0-11.904 9.643-21.547 21.547-21.547s21.547 9.643 21.547 21.547v48.939h119.381c11.904 0 21.547 9.643 21.547 21.547s-9.643 21.547-21.547 21.547h-119.381v97.835h119.381c11.904 0 21.547 9.643 21.547 21.547s-9.643 21.547-21.547 21.547h-119.381v97.835h119.339zM339.797 422.784h150.699v-97.835h-150.699v97.835zM339.797 184.022v97.835h150.699v-97.835h-150.699zM684.203 184.022h-150.656v97.835h150.656v-97.835zM684.203 324.907h-150.656v97.835h150.656v-97.835z" />
<glyph unicode="&#xe955;" glyph-name="clock" d="M940.416 426.667c0-236.629-191.787-428.416-428.416-428.416s-428.416 191.787-428.416 428.416 191.787 428.416 428.416 428.416 428.416-191.787 428.416-428.416zM512 810.667c-212.096 0-384-171.904-384-384s171.904-384 384-384 384 171.904 384 384-171.904 384-384 384zM516.821 435.328l209.408-192.256c0 0 8.448-14.208-2.56-25.429-11.008-11.307-25.472-3.2-25.472-3.2s-215.765 188.416-221.483 203.051c-2.56 0.683 0 208.171 0 208.171s6.357 15.915 21.632 15.915 19.115-16.555 19.115-16.555l-0.64-189.696z" />
<glyph unicode="&#xe956;" glyph-name="other-account" d="M640 298.667v112.128c51.712 44.928 85.376 116.139 85.376 196.437 0 135.68-95.701 246.101-213.376 246.101-117.632 0-213.333-110.421-213.333-246.144 0-81.109 34.347-153.003 86.997-197.845h-1.664v-83.328l-156.373-71.253c-49.493-17.323-99.627-66.432-99.627-126.763v-85.333h426.667v42.667h-384v42.667c0 35.115 30.549 72.32 72.832 87.253l183.168 83.328v83.243c26.155-13.269 54.997-20.693 85.333-20.693s59.179 7.467 85.333 20.651v-83.115h42.667zM512 810.667c84.779 0 154.752-74.24 167.979-170.923-0.469-0.085-0.768-0.043-1.237-0.128-61.227-11.691-98.005 3.968-126.933 53.803l-19.328 33.067-18.005-33.835c-16.469-31.019-82.816-52.651-131.968-52.651-15.232 0-24.533 3.712-37.163 10.197 16.597 91.563 84.949 160.469 166.656 160.469zM512 403.798c-93.525 0-169.557 90.155-170.496 201.387 11.52-4.608 24.107-7.851 41.003-7.851 50.773 0 113.365 17.237 149.248 49.749 28.672-36.181 65.237-53.717 112.171-53.717 11.819 0 24.704 1.579 37.973 3.797-4.523-107.392-78.635-193.365-169.899-193.365zM788.48 43.094c-0.171 6.528-0.256 11.435-0.256 14.677 0 19.157 2.688 35.712 8.107 49.664 3.968 10.453 10.411 21.035 19.243 31.701 6.528 7.808 18.261 19.115 35.115 34.091 16.896 14.933 27.904 26.795 32.981 35.669 5.035 8.832 7.595 18.56 7.595 29.013 0 18.987-7.424 35.712-22.229 50.091s-32.981 21.547-54.528 21.547c-20.779 0-38.187-6.485-52.096-19.499-13.909-13.056-23.040-33.365-27.392-61.056l-50.219 5.973c4.48 37.077 17.963 65.451 40.277 85.163s51.883 29.568 88.576 29.568c38.869 0 69.888-10.581 93.056-31.744s34.688-46.763 34.688-76.757c0-17.365-4.053-33.365-12.203-48.043-8.107-14.677-24.021-32.469-47.744-53.461-15.915-14.080-26.283-24.491-31.147-31.147-4.864-6.699-8.491-14.379-10.88-23.083-2.347-8.661-3.712-22.784-4.053-42.325h-46.891zM785.536-54.826v55.637h55.595v-55.637h-55.595z" />
</font>
</defs>
</svg>
